<?xml version="1.0" encoding="UTF-8" standalone="no"?>
<!-- Created with Inkscape (http://www.inkscape.org/) -->

<svg
   xmlns:dc="http://purl.org/dc/elements/1.1/"
   xmlns:cc="http://creativecommons.org/ns#"
   xmlns:rdf="http://www.w3.org/1999/02/22-rdf-syntax-ns#"
   xmlns:svg="http://www.w3.org/2000/svg"
   xmlns="http://www.w3.org/2000/svg"
   xmlns:sodipodi="http://sodipodi.sourceforge.net/DTD/sodipodi-0.dtd"
   xmlns:inkscape="http://www.inkscape.org/namespaces/inkscape"
   id="svg4155"
   version="1.1"
   inkscape:version="0.91 r13725"
   xml:space="preserve"
   width="300"
   height="300"
   viewBox="0 0 300 300"
   sodipodi:docname="angular.svg"><metadata
     id="metadata4161"><rdf:RDF><cc:Work
         rdf:about=""><dc:format>image/svg+xml</dc:format><dc:type
           rdf:resource="http://purl.org/dc/dcmitype/StillImage" /><dc:title></dc:title></cc:Work></rdf:RDF></metadata><defs
     id="defs4159" /><sodipodi:namedview
     pagecolor="#ffffff"
     bordercolor="#666666"
     borderopacity="1"
     objecttolerance="10"
     gridtolerance="10"
     guidetolerance="10"
     inkscape:pageopacity="0"
     inkscape:pageshadow="2"
     inkscape:window-width="1855"
     inkscape:window-height="1056"
     id="namedview4157"
     showgrid="false"
     inkscape:zoom="1.0030014"
     inkscape:cx="354.51646"
     inkscape:cy="458.125"
     inkscape:window-x="65"
     inkscape:window-y="24"
     inkscape:window-maximized="1"
     inkscape:current-layer="g4165" /><g
     id="g4163"
     inkscape:groupmode="layer"
     inkscape:label="ink_ext_XXXXXX"
     transform="matrix(1.25,0,0,-1.25,0,300)"><g
       id="g4165"
       transform="scale(0.1,0.1)"><g
         id="g4196"
         transform="matrix(0.98078522,0,0,0.98078522,211.52844,142.42401)"><path
           inkscape:connector-curvature="0"
           id="path4167"
           style="fill:#b3b3b3;fill-opacity:1;fill-rule:nonzero;stroke:none"
           d="M 1004.4471,2214.392 -52.537943,1838.177 114.48279,437.54421 1005.5678,-57.80161 1901.2463,444.25749 2068.2118,1844.8344 1004.4471,2214.392 Z" /><path
           inkscape:connector-curvature="0"
           id="path4169"
           style="fill:#af2b2d;fill-opacity:1;fill-rule:nonzero;stroke:none"
           d="m 1962.7919,1763.8919 -960.8151,331.3773 0,-2034.72232 805.2069,450.7077 155.6082,1252.63732 z" /><path
           inkscape:connector-curvature="0"
           id="path4171"
           style="fill:#df2e31;fill-opacity:1;fill-rule:nonzero;stroke:none"
           d="M 66.070294,1757.905 209.19259,505.27569 1001.9689,60.54688 l 0,2034.76222 L 66.070294,1757.905 Z" /><path
           inkscape:connector-curvature="0"
           id="path4173"
           style="fill:#f2f2f2;fill-opacity:1;fill-rule:nonzero;stroke:none"
           d="m 1224.6869,1083.2324 -220.958,466.6886 -194.51814,-466.6886 415.47614,0 z m 84.2443,-196.23373 -585.70908,0 -131.03101,-331.48114 -243.73566,-4.55801 653.52925,1470.42368 676.3068,-1470.42368 -225.9065,0 -143.4538,336.03915 z" /><path
           inkscape:connector-curvature="0"
           id="path4175"
           style="fill:#b3b3b3;fill-opacity:1;fill-rule:nonzero;stroke:none"
           d="m 1001.9768,2021.3832 1.7442,-471.4622 220.7291,-467.0478 -221.9761,0 -0.4972,-195.57119 306.9386,-0.30334 143.4617,-336.09503 233.215,-4.37441 -683.6153,1474.85397 z" /></g></g></g></svg>