<?xml version="1.0" encoding="UTF-8" standalone="no"?>
<!-- Generator: Adobe Illustrator 16.0.0, SVG Export Plug-In . SVG Version: 6.00 Build 0)  -->

<svg
   xmlns:dc="http://purl.org/dc/elements/1.1/"
   xmlns:cc="http://creativecommons.org/ns#"
   xmlns:rdf="http://www.w3.org/1999/02/22-rdf-syntax-ns#"
   xmlns:svg="http://www.w3.org/2000/svg"
   xmlns="http://www.w3.org/2000/svg"
   xmlns:sodipodi="http://sodipodi.sourceforge.net/DTD/sodipodi-0.dtd"
   xmlns:inkscape="http://www.inkscape.org/namespaces/inkscape"
   version="1.1"
   x="0px"
   y="0px"
   width="94.353px"
   height="83.375px"
   viewBox="0 0 94.353 83.375"
   enable-background="new 0 0 94.353 83.375"
   xml:space="preserve"
   id="svg2"
   inkscape:version="0.48.4 r9939"
   sodipodi:docname="background_pattern_light.svg"><metadata
     id="metadata185"><rdf:RDF><cc:Work
         rdf:about=""><dc:format>image/svg+xml</dc:format><dc:type
           rdf:resource="http://purl.org/dc/dcmitype/StillImage" /></cc:Work></rdf:RDF></metadata><defs
     id="defs183" /><sodipodi:namedview
     pagecolor="#ffffff"
     bordercolor="#666666"
     borderopacity="1"
     objecttolerance="10"
     gridtolerance="10"
     guidetolerance="10"
     inkscape:pageopacity="0"
     inkscape:pageshadow="2"
     inkscape:window-width="1855"
     inkscape:window-height="1056"
     id="namedview181"
     showgrid="false"
     inkscape:zoom="5.6611694"
     inkscape:cx="3.7984353"
     inkscape:cy="46.311535"
     inkscape:window-x="1431"
     inkscape:window-y="24"
     inkscape:window-maximized="1"
     inkscape:current-layer="Layer_10" /><g
     id="Layer_5_copy_2" /><g
     id="Layer_5_copy_3" /><g
     id="Layer_10"><g
       id="g7"
       style="fill:#fafafa;fill-opacity:1"><g
         id="g9"
         style="fill:#fafafa;fill-opacity:1"><polygon
           fill="#F1F1F2"
           points="22.226,14.68 20.058,13.428 0,25.008 0,27.512    "
           id="polygon11"
           style="fill:#fafafa;fill-opacity:1" /></g><g
         id="g13"
         style="fill:#fafafa;fill-opacity:1"><polygon
           fill="#F1F1F2"
           points="47.174,31.18 69.402,18.346 67.234,17.094 47.174,28.678 27.113,17.094 24.944,18.346    "
           id="polygon15"
           style="fill:#fafafa;fill-opacity:1" /></g><g
         id="g17"
         style="fill:#fafafa;fill-opacity:1"><polygon
           fill="#F1F1F2"
           points="47.173,34.848 69.402,22.014 67.234,20.76 47.174,32.344 27.113,20.76 24.944,22.014    "
           id="polygon19"
           style="fill:#fafafa;fill-opacity:1" /></g><g
         id="g21"
         style="fill:#fafafa;fill-opacity:1"><polygon
           fill="#F1F1F2"
           points="69.402,3.68 67.234,2.428 47.174,14.01 27.113,2.428 24.944,3.68 47.174,16.514    "
           id="polygon23"
           style="fill:#fafafa;fill-opacity:1" /></g><g
         id="g25"
         style="fill:#fafafa;fill-opacity:1"><polygon
           fill="#F1F1F2"
           points="47.174,23.848 69.402,11.012 67.234,9.76 47.174,21.344 27.113,9.76 24.944,11.012    "
           id="polygon27"
           style="fill:#fafafa;fill-opacity:1" /></g><g
         id="g29"
         style="fill:#fafafa;fill-opacity:1"><polygon
           fill="#F1F1F2"
           points="47.174,27.514 69.402,14.68 67.234,13.428 47.174,25.01 27.113,13.428 24.944,14.68    "
           id="polygon31"
           style="fill:#fafafa;fill-opacity:1" /></g><g
         id="g33"
         style="fill:#fafafa;fill-opacity:1"><polygon
           fill="#F1F1F2"
           points="20.059,6.094 0,17.674 0,20.179 22.226,7.346    "
           id="polygon35"
           style="fill:#fafafa;fill-opacity:1" /></g><g
         id="g37"
         style="fill:#fafafa;fill-opacity:1"><polygon
           fill="#F1F1F2"
           points="22.226,11.012 20.058,9.76 0,21.343 0,23.846    "
           id="polygon39"
           style="fill:#fafafa;fill-opacity:1" /></g><g
         id="g41"
         style="fill:#fafafa;fill-opacity:1"><polygon
           fill="#F1F1F2"
           points="1.562,41.693 23.791,54.527 46.019,41.693 23.791,28.859    "
           id="polygon43"
           style="fill:#fafafa;fill-opacity:1" /></g><g
         id="g45"
         style="fill:#fafafa;fill-opacity:1"><polygon
           fill="#F1F1F2"
           points="47.174,38.514 69.402,25.68 67.234,24.428 47.173,36.01 27.113,24.428 24.944,25.68    "
           id="polygon47"
           style="fill:#fafafa;fill-opacity:1" /></g><g
         id="g49"
         style="fill:#fafafa;fill-opacity:1"><polygon
           fill="#F1F1F2"
           points="47.174,20.18 69.402,7.346 67.235,6.094 47.174,17.676 27.113,6.094 24.944,7.346    "
           id="polygon51"
           style="fill:#fafafa;fill-opacity:1" /></g><g
         id="g53"
         style="fill:#fafafa;fill-opacity:1"><polygon
           fill="#F1F1F2"
           points="91.028,62.441 70.968,74.025 50.907,62.441 48.738,63.695 70.966,76.529 93.196,63.695    "
           id="polygon55"
           style="fill:#fafafa;fill-opacity:1" /></g><g
         id="g57"
         style="fill:#fafafa;fill-opacity:1"><polygon
           fill="#F1F1F2"
           points="50.907,66.109 48.738,67.361 70.967,80.195 93.196,67.361 91.028,66.109 70.966,77.691    "
           id="polygon59"
           style="fill:#fafafa;fill-opacity:1" /></g><g
         id="g61"
         style="fill:#fafafa;fill-opacity:1"><polygon
           fill="#F1F1F2"
           points="70.967,28.859 48.738,41.693 70.967,54.527 93.196,41.693    "
           id="polygon63"
           style="fill:#fafafa;fill-opacity:1" /></g><g
         id="g65"
         style="fill:#fafafa;fill-opacity:1"><polygon
           fill="#F1F1F2"
           points="0,70.543 0,83.38 22.219,83.38 22.226,83.376    "
           id="polygon67"
           style="fill:#fafafa;fill-opacity:1" /></g><g
         id="g69"
         style="fill:#fafafa;fill-opacity:1"><polygon
           fill="#F1F1F2"
           points="91.028,58.775 70.967,70.359 50.907,58.775 48.738,60.027 70.968,72.861 93.196,60.027    "
           id="polygon71"
           style="fill:#fafafa;fill-opacity:1" /></g><g
         id="g73"
         style="fill:#fafafa;fill-opacity:1"><polygon
           fill="#F1F1F2"
           points="47.174,12.846 69.402,0.012 69.381,0 24.965,0 24.944,0.012    "
           id="polygon75"
           style="fill:#fafafa;fill-opacity:1" /></g><g
         id="g77"
         style="fill:#fafafa;fill-opacity:1"><polygon
           fill="#F1F1F2"
           points="91.028,55.109 70.967,66.691 50.907,55.109 48.738,56.361 70.967,69.195 93.196,56.361    "
           id="polygon79"
           style="fill:#fafafa;fill-opacity:1" /></g><g
         id="g81"
         style="fill:#fafafa;fill-opacity:1"><polygon
           fill="#F1F1F2"
           points="91.028,44.109 70.967,55.691 50.907,44.109 48.738,45.361 70.967,58.195 93.196,45.361    "
           id="polygon83"
           style="fill:#fafafa;fill-opacity:1" /></g><g
         id="g85"
         style="fill:#fafafa;fill-opacity:1"><polygon
           fill="#F1F1F2"
           points="91.028,47.775 70.967,59.357 50.907,47.775 48.738,49.027 70.968,61.861 93.196,49.027    "
           id="polygon87"
           style="fill:#fafafa;fill-opacity:1" /></g><g
         id="g89"
         style="fill:#fafafa;fill-opacity:1"><polygon
           fill="#F1F1F2"
           points="91.028,51.441 70.968,63.025 50.907,51.441 48.738,52.693 70.967,65.529 93.196,52.693    "
           id="polygon91"
           style="fill:#fafafa;fill-opacity:1" /></g><g
         id="g93"
         style="fill:#fafafa;fill-opacity:1"><polygon
           fill="#F1F1F2"
           points="94.35,12.846 94.35,0 72.141,0 72.12,0.012    "
           id="polygon95"
           style="fill:#fafafa;fill-opacity:1" /></g><g
         id="g97"
         style="fill:#fafafa;fill-opacity:1"><polygon
           fill="#F1F1F2"
           points="74.289,20.76 72.12,22.014 94.349,34.848 94.35,34.847 94.35,32.343    "
           id="polygon99"
           style="fill:#fafafa;fill-opacity:1" /></g><g
         id="g101"
         style="fill:#fafafa;fill-opacity:1"><polygon
           fill="#F1F1F2"
           points="74.289,13.428 72.12,14.68 94.35,27.514 94.35,25.01    "
           id="polygon103"
           style="fill:#fafafa;fill-opacity:1" /></g><g
         id="g105"
         style="fill:#fafafa;fill-opacity:1"><polygon
           fill="#F1F1F2"
           points="72.12,18.346 94.35,31.179 94.35,28.678 74.289,17.094    "
           id="polygon107"
           style="fill:#fafafa;fill-opacity:1" /></g><g
         id="g109"
         style="fill:#fafafa;fill-opacity:1"><polygon
           fill="#F1F1F2"
           points="94.349,36.01 74.289,24.428 72.12,25.68 94.35,38.514 94.35,36.009    "
           id="polygon111"
           style="fill:#fafafa;fill-opacity:1" /></g><g
         id="g113"
         style="fill:#fafafa;fill-opacity:1"><polygon
           fill="#F1F1F2"
           points="94.35,70.542 72.12,83.376 72.127,83.38 94.35,83.38    "
           id="polygon115"
           style="fill:#fafafa;fill-opacity:1" /></g><g
         id="g117"
         style="fill:#fafafa;fill-opacity:1"><polygon
           fill="#F1F1F2"
           points="22.226,18.346 20.058,17.094 0,28.676 0,31.179    "
           id="polygon119"
           style="fill:#fafafa;fill-opacity:1" /></g><g
         id="g121"
         style="fill:#fafafa;fill-opacity:1"><polygon
           fill="#F1F1F2"
           points="74.289,2.428 72.12,3.68 94.35,16.514 94.35,14.01    "
           id="polygon123"
           style="fill:#fafafa;fill-opacity:1" /></g><g
         id="g125"
         style="fill:#fafafa;fill-opacity:1"><polygon
           fill="#F1F1F2"
           points="47.174,70.542 24.944,83.376 24.951,83.38 69.395,83.38 69.402,83.376    "
           id="polygon127"
           style="fill:#fafafa;fill-opacity:1" /></g><g
         id="g129"
         style="fill:#fafafa;fill-opacity:1"><polygon
           fill="#F1F1F2"
           points="74.289,9.76 72.12,11.012 94.35,23.848 94.35,21.343    "
           id="polygon131"
           style="fill:#fafafa;fill-opacity:1" /></g><g
         id="g133"
         style="fill:#fafafa;fill-opacity:1"><polygon
           fill="#F1F1F2"
           points="72.12,7.346 94.35,20.179 94.35,17.676 74.289,6.094    "
           id="polygon135"
           style="fill:#fafafa;fill-opacity:1" /></g><g
         id="g137"
         style="fill:#fafafa;fill-opacity:1"><polygon
           fill="#F1F1F2"
           points="0,12.844 22.226,0.012 22.206,0 0,0    "
           id="polygon139"
           style="fill:#fafafa;fill-opacity:1" /></g><g
         id="g141"
         style="fill:#fafafa;fill-opacity:1"><polygon
           fill="#F1F1F2"
           points="43.852,58.775 23.791,70.359 3.73,58.775 1.562,60.027 23.792,72.861 46.019,60.027    "
           id="polygon143"
           style="fill:#fafafa;fill-opacity:1" /></g><g
         id="g145"
         style="fill:#fafafa;fill-opacity:1"><polygon
           fill="#F1F1F2"
           points="0,14.008 0,16.512 22.226,3.68 20.058,2.428    "
           id="polygon147"
           style="fill:#fafafa;fill-opacity:1" /></g><g
         id="g149"
         style="fill:#fafafa;fill-opacity:1"><polygon
           fill="#F1F1F2"
           points="3.73,66.109 1.562,67.361 23.791,80.195 46.019,67.361 43.852,66.109 23.79,77.691    "
           id="polygon151"
           style="fill:#fafafa;fill-opacity:1" /></g><g
         id="g153"
         style="fill:#fafafa;fill-opacity:1"><polygon
           fill="#F1F1F2"
           points="22.226,22.014 20.058,20.76 0,32.343 0,34.846    "
           id="polygon155"
           style="fill:#fafafa;fill-opacity:1" /></g><g
         id="g157"
         style="fill:#fafafa;fill-opacity:1"><polygon
           fill="#F1F1F2"
           points="22.226,25.68 20.058,24.428 0,36.008 0,38.512    "
           id="polygon159"
           style="fill:#fafafa;fill-opacity:1" /></g><g
         id="g161"
         style="fill:#fafafa;fill-opacity:1"><polygon
           fill="#F1F1F2"
           points="43.852,62.441 23.792,74.025 3.73,62.441 1.562,63.695 23.79,76.529 46.019,63.695    "
           id="polygon163"
           style="fill:#fafafa;fill-opacity:1" /></g><g
         id="g165"
         style="fill:#fafafa;fill-opacity:1"><polygon
           fill="#F1F1F2"
           points="43.852,47.775 23.791,59.357 3.73,47.775 1.562,49.027 23.792,61.861 46.019,49.027    "
           id="polygon167"
           style="fill:#fafafa;fill-opacity:1" /></g><g
         id="g169"
         style="fill:#fafafa;fill-opacity:1"><polygon
           fill="#F1F1F2"
           points="43.852,55.109 23.791,66.691 3.73,55.109 1.562,56.361 23.791,69.195 46.019,56.361    "
           id="polygon171"
           style="fill:#fafafa;fill-opacity:1" /></g><g
         id="g173"
         style="fill:#fafafa;fill-opacity:1"><polygon
           fill="#F1F1F2"
           points="43.852,44.109 23.791,55.691 3.73,44.109 1.562,45.361 23.791,58.195 46.019,45.361    "
           id="polygon175"
           style="fill:#fafafa;fill-opacity:1" /></g><g
         id="g177"
         style="fill:#fafafa;fill-opacity:1"><polygon
           fill="#F1F1F2"
           points="43.852,51.441 23.792,63.025 3.73,51.441 1.562,52.693 23.791,65.529 46.019,52.693    "
           id="polygon179"
           style="fill:#fafafa;fill-opacity:1" /></g></g></g></svg>