<?xml version="1.0" encoding="UTF-8" standalone="no"?>
<!-- Created with Inkscape (http://www.inkscape.org/) -->

<svg
   xmlns:dc="http://purl.org/dc/elements/1.1/"
   xmlns:cc="http://creativecommons.org/ns#"
   xmlns:rdf="http://www.w3.org/1999/02/22-rdf-syntax-ns#"
   xmlns:svg="http://www.w3.org/2000/svg"
   xmlns="http://www.w3.org/2000/svg"
   xmlns:sodipodi="http://sodipodi.sourceforge.net/DTD/sodipodi-0.dtd"
   xmlns:inkscape="http://www.inkscape.org/namespaces/inkscape"
   id="svg2"
   version="1.1"
   inkscape:version="0.91 r13725"
   xml:space="preserve"
   width="500"
   height="500"
   viewBox="0 0 500 500"
   sodipodi:docname="elasticsearch.svg"><metadata
     id="metadata8"><rdf:RDF><cc:Work
         rdf:about=""><dc:format>image/svg+xml</dc:format><dc:type
           rdf:resource="http://purl.org/dc/dcmitype/StillImage" /><dc:title /></cc:Work></rdf:RDF></metadata><defs
     id="defs6"><clipPath
       clipPathUnits="userSpaceOnUse"
       id="clipPath16"><path
         d="m 0,306.482 1151.152,0 L 1151.152,0 0,0 0,306.482 Z"
         id="path18"
         inkscape:connector-curvature="0" /></clipPath><clipPath
       clipPathUnits="userSpaceOnUse"
       id="clipPath72"><path
         d="m 59.926,153.879 c 0,-51.086 41.415,-92.501 92.502,-92.501 l 0,0 c 51.086,0 92.501,41.415 92.501,92.501 l 0,0 c 0,51.087 -41.415,92.501 -92.501,92.501 l 0,0 c -51.087,0 -92.502,-41.414 -92.502,-92.501"
         id="path74"
         inkscape:connector-curvature="0" /></clipPath><clipPath
       clipPathUnits="userSpaceOnUse"
       id="clipPath96"><path
         d="m 0,306.482 1151.152,0 L 1151.152,0 0,0 0,306.482 Z"
         id="path98"
         inkscape:connector-curvature="0" /></clipPath></defs><sodipodi:namedview
     pagecolor="#ffffff"
     bordercolor="#666666"
     borderopacity="1"
     objecttolerance="10"
     gridtolerance="10"
     guidetolerance="10"
     inkscape:pageopacity="0"
     inkscape:pageshadow="2"
     inkscape:window-width="1855"
     inkscape:window-height="1056"
     id="namedview4"
     showgrid="false"
     inkscape:zoom="0.28840724"
     inkscape:cx="124.82348"
     inkscape:cy="191.55125"
     inkscape:window-x="65"
     inkscape:window-y="24"
     inkscape:window-maximized="1"
     inkscape:current-layer="g10" /><g
     id="g10"
     inkscape:groupmode="layer"
     inkscape:label="Elasticsearch Logo Master"
     transform="matrix(1.25,0,0,-1.25,0,499.99999)"><g
       id="g4234"
       transform="matrix(0.31187552,0,0,0.31187552,21.310547,152.00888)"><g
         id="g12"><g
           clip-path="url(#clipPath16)"
           id="g14"><g
             transform="translate(327.57,149.065)"
             id="g20"><path
               inkscape:connector-curvature="0"
               id="path22"
               style="fill:#231f20;fill-opacity:1;fill-rule:nonzero;stroke:none"
               d="m 0,0 c 0,9.236 -1.483,15.761 -4.443,19.578 -2.962,3.814 -7.782,5.723 -14.458,5.723 -6.678,0 -11.697,-2.01 -15.06,-6.024 C -37.326,15.26 -39.058,8.833 -39.156,0 L 0,0 Z m 4.066,-32.68 4.367,0.452 0.302,-8.886 c -11.446,-1.605 -21.235,-2.409 -29.368,-2.409 -10.842,0 -18.523,3.136 -23.042,9.412 -4.517,6.273 -6.776,16.039 -6.776,29.292 0,26.404 10.49,39.607 31.475,39.607 10.14,0 17.719,-2.838 22.741,-8.508 5.019,-5.674 7.53,-14.585 7.53,-26.732 l -0.602,-8.584 -49.698,0 c 0,-8.335 1.505,-14.51 4.517,-18.524 3.013,-4.017 8.258,-6.024 15.738,-6.024 7.478,0 15.084,0.301 22.816,0.904" /></g><path
             inkscape:connector-curvature="0"
             id="path24"
             style="fill:#231f20;fill-opacity:1;fill-rule:nonzero;stroke:none"
             d="m 357.387,215.178 11.295,0 0,-108.13 -11.295,0 0,108.13 z" /><g
             transform="translate(398.047,128.8845)"
             id="g26"><path
               inkscape:connector-curvature="0"
               id="path28"
               style="fill:#231f20;fill-opacity:1;fill-rule:nonzero;stroke:none"
               d="m 0,0 c 0,-9.238 3.814,-13.855 11.446,-13.855 6.826,0 13.553,1.153 20.18,3.464 l 3.463,1.205 0,24.848 -22.288,-2.108 C 8.283,13.152 5.019,11.845 3.012,9.639 1.002,7.429 0,4.217 0,0 m 46.384,30.723 0,-38.554 c 0.301,-3.716 3.212,-5.925 8.736,-6.627 l -0.452,-8.885 c -7.933,0 -13.907,2.007 -17.922,6.024 -9.036,-4.017 -18.071,-6.024 -27.108,-6.024 -6.928,0 -12.198,1.958 -15.812,5.873 -3.615,3.916 -5.422,9.538 -5.422,16.868 0,7.327 1.856,12.725 5.572,16.189 3.714,3.464 9.537,5.596 17.47,6.4 l 23.643,2.26 0,6.476 c 0,5.12 -1.105,8.784 -3.312,10.993 -2.21,2.207 -5.222,3.314 -9.036,3.314 -8.034,0 -16.366,-0.504 -25,-1.507 l -4.669,-0.451 -0.452,8.584 c 11.043,2.207 20.832,3.313 29.367,3.313 8.533,0 14.734,-1.958 18.599,-5.873 3.864,-3.916 5.798,-10.041 5.798,-18.373" /></g><g
             transform="translate(490.3633,173.7634)"
             id="g30"><path
               inkscape:connector-curvature="0"
               id="path32"
               style="fill:#231f20;fill-opacity:1;fill-rule:nonzero;stroke:none"
               d="m 0,0 c -10.944,0 -16.415,-3.817 -16.415,-11.446 0,-3.516 1.254,-6 3.765,-7.454 2.508,-1.457 8.231,-2.963 17.168,-4.518 8.935,-1.558 15.261,-3.742 18.976,-6.552 3.713,-2.812 5.572,-8.082 5.572,-15.812 0,-7.733 -2.485,-13.404 -7.455,-17.018 -4.969,-3.615 -12.224,-5.422 -21.761,-5.422 -6.227,0 -13.554,0.704 -21.988,2.108 l -4.518,0.753 0.602,9.789 c 11.446,-1.708 20.079,-2.56 25.904,-2.56 5.822,0 10.264,0.927 13.328,2.787 3.061,1.856 4.593,4.969 4.593,9.336 0,4.368 -1.306,7.328 -3.916,8.886 -2.611,1.555 -8.334,3.035 -17.168,4.443 -8.836,1.405 -15.112,3.463 -18.825,6.174 -3.715,2.711 -5.572,7.73 -5.572,15.06 0,7.328 2.584,12.749 7.756,16.265 5.17,3.513 11.619,5.271 19.352,5.271 6.123,0 13.804,-0.704 23.042,-2.108 L 26.657,7.229 26.355,-2.41 C 15.211,-0.805 6.424,0 0,0" /></g><g
             transform="translate(575.752,172.5583)"
             id="g34"><path
               inkscape:connector-curvature="0"
               id="path36"
               style="fill:#231f20;fill-opacity:1;fill-rule:nonzero;stroke:none"
               d="m 0,0 -23.945,0 0,-35.993 c 0,-8.636 0.626,-14.307 1.883,-17.018 1.254,-2.711 4.239,-4.066 8.96,-4.066 l 13.404,0.904 0.753,-9.338 c -6.728,-1.103 -11.848,-1.656 -15.361,-1.656 -7.832,0 -13.253,1.906 -16.265,5.722 -3.012,3.815 -4.518,11.093 -4.518,21.837 l 0,39.608 -10.693,0 0,9.789 10.693,0 0,23.042 11.144,0 0,-23.042 L 0,9.789 0,0 Z" /></g><path
             inkscape:connector-curvature="0"
             id="path38"
             style="fill:#231f20;fill-opacity:1;fill-rule:nonzero;stroke:none"
             d="m 589.608,182.347 11.295,0 0,-75.3 -11.295,0 0,75.3 z m 0,30.12 11.295,0 0,-13.102 -11.295,0 0,13.102 z" /><g
             transform="translate(650.7502,183.8532)"
             id="g40"><path
               inkscape:connector-curvature="0"
               id="path42"
               style="fill:#231f20;fill-opacity:1;fill-rule:nonzero;stroke:none"
               d="m 0,0 c 3.313,0 8.935,-0.602 16.867,-1.807 l 3.615,-0.452 -0.453,-9.186 c -8.033,0.903 -13.955,1.355 -17.77,1.355 -8.535,0 -14.333,-2.033 -17.394,-6.099 -3.064,-4.067 -4.593,-11.597 -4.593,-22.59 0,-10.994 1.43,-18.651 4.292,-22.967 2.86,-4.318 8.81,-6.476 17.845,-6.476 l 17.772,1.356 0.451,-9.337 c -9.337,-1.405 -16.316,-2.108 -20.933,-2.108 -11.747,0 -19.856,3.011 -24.322,9.035 -4.469,6.024 -6.701,16.19 -6.701,30.497 0,14.307 2.409,24.345 7.228,30.12 C -19.277,-2.887 -11.245,0 0,0" /></g><g
             transform="translate(711.8922,173.7634)"
             id="g44"><path
               inkscape:connector-curvature="0"
               id="path46"
               style="fill:#231f20;fill-opacity:1;fill-rule:nonzero;stroke:none"
               d="m 0,0 c -10.944,0 -16.415,-3.817 -16.415,-11.446 0,-3.516 1.254,-6 3.765,-7.454 2.508,-1.457 8.231,-2.963 17.168,-4.518 8.935,-1.558 15.261,-3.742 18.976,-6.552 3.713,-2.812 5.572,-8.082 5.572,-15.812 0,-7.733 -2.485,-13.404 -7.455,-17.018 -4.969,-3.615 -12.224,-5.422 -21.761,-5.422 -6.227,0 -13.554,0.704 -21.988,2.108 l -4.518,0.753 0.602,9.789 c 11.446,-1.708 20.079,-2.56 25.904,-2.56 5.822,0 10.264,0.927 13.328,2.787 3.061,1.856 4.593,4.969 4.593,9.336 0,4.368 -1.306,7.328 -3.916,8.886 -2.611,1.555 -8.334,3.035 -17.168,4.443 -8.836,1.405 -15.112,3.463 -18.825,6.174 -3.715,2.711 -5.572,7.73 -5.572,15.06 0,7.328 2.584,12.749 7.756,16.265 5.17,3.513 11.619,5.271 19.352,5.271 6.123,0 13.804,-0.704 23.042,-2.108 L 26.657,7.229 26.355,-2.41 C 15.211,-0.805 6.424,0 0,0" /></g><g
             transform="translate(805.4141,149.065)"
             id="g48"><path
               inkscape:connector-curvature="0"
               id="path50"
               style="fill:#231f20;fill-opacity:1;fill-rule:nonzero;stroke:none"
               d="m 0,0 c 0,9.236 -1.483,15.761 -4.443,19.578 -2.963,3.814 -7.782,5.723 -14.458,5.723 -6.678,0 -11.697,-2.01 -15.06,-6.024 C -37.326,15.26 -39.058,8.833 -39.156,0 L 0,0 Z m 4.066,-32.68 4.367,0.452 0.302,-8.886 c -11.446,-1.605 -21.235,-2.409 -29.368,-2.409 -10.842,0 -18.523,3.136 -23.042,9.412 -4.517,6.273 -6.776,16.039 -6.776,29.292 0,26.404 10.49,39.607 31.475,39.607 10.14,0 17.719,-2.838 22.741,-8.508 5.019,-5.674 7.53,-14.585 7.53,-26.732 l -0.602,-8.584 -49.698,0 c 0,-8.335 1.505,-14.51 4.517,-18.524 3.013,-4.017 8.258,-6.024 15.738,-6.024 7.478,0 15.084,0.301 22.816,0.904" /></g><g
             transform="translate(841.1047,128.8845)"
             id="g52"><path
               inkscape:connector-curvature="0"
               id="path54"
               style="fill:#231f20;fill-opacity:1;fill-rule:nonzero;stroke:none"
               d="m 0,0 c 0,-9.238 3.814,-13.855 11.446,-13.855 6.826,0 13.553,1.153 20.18,3.464 l 3.463,1.205 0,24.848 -22.288,-2.108 C 8.283,13.152 5.019,11.845 3.012,9.639 1.002,7.429 0,4.217 0,0 m 46.384,30.723 0,-38.554 c 0.301,-3.716 3.212,-5.925 8.736,-6.627 l -0.452,-8.885 c -7.933,0 -13.907,2.007 -17.922,6.024 -9.035,-4.017 -18.071,-6.024 -27.108,-6.024 -6.928,0 -12.198,1.958 -15.812,5.873 -3.615,3.916 -5.422,9.538 -5.422,16.868 0,7.327 1.856,12.725 5.572,16.189 3.714,3.464 9.537,5.596 17.47,6.4 l 23.643,2.26 0,6.476 c 0,5.12 -1.105,8.784 -3.312,10.993 -2.21,2.207 -5.222,3.314 -9.036,3.314 -8.034,0 -16.366,-0.504 -25,-1.507 l -4.669,-0.451 -0.452,8.584 c 11.043,2.207 20.832,3.313 29.367,3.313 8.533,0 14.734,-1.958 18.599,-5.873 3.864,-3.916 5.798,-10.041 5.798,-18.373" /></g><g
             transform="translate(909.7776,107.0476)"
             id="g56"><path
               inkscape:connector-curvature="0"
               id="path58"
               style="fill:#231f20;fill-opacity:1;fill-rule:nonzero;stroke:none"
               d="m 0,0 0,75.3 11.144,0 0,-10.241 c 8.734,6.024 17.921,9.989 27.559,11.897 l 0,-11.445 C 34.487,64.706 30.093,63.452 25.526,61.746 20.957,60.038 17.469,58.531 15.06,57.228 L 11.295,55.27 11.295,0 0,0 Z" /></g><g
             transform="translate(988.5399,183.8532)"
             id="g60"><path
               inkscape:connector-curvature="0"
               id="path62"
               style="fill:#231f20;fill-opacity:1;fill-rule:nonzero;stroke:none"
               d="m 0,0 c 3.313,0 8.935,-0.602 16.867,-1.807 l 3.615,-0.452 -0.453,-9.186 c -8.033,0.903 -13.955,1.355 -17.77,1.355 -8.535,0 -14.333,-2.033 -17.394,-6.099 -3.064,-4.067 -4.593,-11.597 -4.593,-22.59 0,-10.994 1.43,-18.651 4.292,-22.967 2.86,-4.318 8.81,-6.476 17.845,-6.476 l 17.772,1.356 0.451,-9.337 c -9.337,-1.405 -16.316,-2.108 -20.933,-2.108 -11.747,0 -19.856,3.011 -24.322,9.035 -4.469,6.024 -6.701,16.19 -6.701,30.497 0,14.307 2.409,24.345 7.228,30.12 C -19.277,-2.887 -11.245,0 0,0" /></g><g
             transform="translate(1037.3334,107.0476)"
             id="g64"><path
               inkscape:connector-curvature="0"
               id="path66"
               style="fill:#231f20;fill-opacity:1;fill-rule:nonzero;stroke:none"
               d="m 0,0 -11.295,0 0,108.13 11.295,0 0,-37.047 c 8.031,3.814 15.761,5.723 23.192,5.723 10.038,0 16.792,-2.711 20.256,-8.133 3.463,-5.421 5.195,-15.06 5.195,-28.915 l 0,-39.758 -11.294,0 0,39.457 c 0,10.441 -1.031,17.594 -3.088,21.461 -2.059,3.864 -6.4,5.798 -13.027,5.798 -6.325,0 -12.45,-1.156 -18.373,-3.464 L 0,62.197 0,0 Z" /></g></g></g><g
         id="g68"><g
           clip-path="url(#clipPath72)"
           id="g70"><g
             transform="translate(192.0352,194.4275)"
             id="g76"><path
               inkscape:connector-curvature="0"
               id="path78"
               style="fill:#f0bf1a;fill-opacity:1;fill-rule:nonzero;stroke:none"
               d="m 0,0 -126.349,0 c -3.181,0 -5.76,2.579 -5.76,5.76 l 0,40.433 c 0,3.181 2.579,5.76 5.76,5.76 l 164.66,0 c 3.181,0 5.759,-2.579 5.759,-5.76 l 0,-2.123 C 44.07,19.731 24.339,0 0,0" /></g><g
             transform="translate(236.5283,61.3781)"
             id="g80"><path
               inkscape:connector-curvature="0"
               id="path82"
               style="fill:#3ebeb0;fill-opacity:1;fill-rule:nonzero;stroke:none"
               d="m 0,0 -176.079,0 c -0.027,0 -0.05,0.022 -0.05,0.05 l 0,51.852 c 0,0.028 0.023,0.051 0.05,0.051 l 132.086,0 C -19.669,51.953 0.05,32.234 0.05,7.91 l 0,-7.86 C 0.05,0.022 0.028,0 0,0" /></g><g
             transform="translate(181.5605,127.9028)"
             id="g84"><path
               inkscape:connector-curvature="0"
               id="path86"
               style="fill:#07a5de;fill-opacity:1;fill-rule:nonzero;stroke:none"
               d="m 0,0 -130.86,0 0,51.953 130.86,0 c 14.364,0 26.002,-11.658 25.976,-26.023 l 0,0 C 25.951,11.602 14.328,0 0,0" /></g><g
             transform="translate(140.816,179.8554)"
             id="g88"><path
               inkscape:connector-curvature="0"
               id="path90"
               style="fill:#231f20;fill-opacity:1;fill-rule:nonzero;stroke:none"
               d="m 0,0 -85.43,0 0,-51.953 85.64,0 c 1.888,7.83 3.046,16.494 3.046,26.047 C 3.256,-16.359 2.017,-7.749 0,0" /></g></g></g><g
         id="g92"><g
           clip-path="url(#clipPath96)"
           id="g94"><g
             transform="translate(105.946,233.891)"
             id="g100"><path
               inkscape:connector-curvature="0"
               id="path102"
               style="fill:#d7a229;fill-opacity:1;fill-rule:nonzero;stroke:none"
               d="m 0,0 c -15.789,-9.199 -28.613,-22.923 -36.669,-39.414 l 68.302,0 C 24.51,-23.77 13.565,-10.242 0,0" /></g><g
             transform="translate(108.6383,72.437)"
             id="g104"><path
               inkscape:connector-curvature="0"
               id="path106"
               style="fill:#019b8f;fill-opacity:1;fill-rule:nonzero;stroke:none"
               d="m 0,0 c 13.342,10.78 23.936,24.822 30.526,40.943 l -69.888,0 C -30.85,23.521 -17.029,9.17 0,0" /></g></g></g></g></g></svg>