<?xml version="1.0" encoding="UTF-8" standalone="no"?>
<svg
   xmlns:dc="http://purl.org/dc/elements/1.1/"
   xmlns:cc="http://creativecommons.org/ns#"
   xmlns:rdf="http://www.w3.org/1999/02/22-rdf-syntax-ns#"
   xmlns:svg="http://www.w3.org/2000/svg"
   xmlns="http://www.w3.org/2000/svg"
   xmlns:sodipodi="http://sodipodi.sourceforge.net/DTD/sodipodi-0.dtd"
   xmlns:inkscape="http://www.inkscape.org/namespaces/inkscape"
   class="svg-wordmark"
   version="1.1"
   x="0px"
   y="0px"
   width="150.00002"
   viewBox="0 0 642.85721 31.316165"
   enable-background="new 0 0 600 91.37"
   xml:space="preserve"
   id="svg2"
   inkscape:version="0.91 r13725"
   sodipodi:docname="elsevier-logo.svg"
   height="31.316166"><metadata
     id="metadata26"><rdf:RDF><cc:Work
         rdf:about=""><dc:format>image/svg+xml</dc:format><dc:type
           rdf:resource="http://purl.org/dc/dcmitype/StillImage" /><dc:title></dc:title></cc:Work></rdf:RDF></metadata><defs
     id="defs24" /><sodipodi:namedview
     pagecolor="#ffffff"
     bordercolor="#666666"
     borderopacity="1"
     objecttolerance="10"
     gridtolerance="10"
     guidetolerance="10"
     inkscape:pageopacity="0"
     inkscape:pageshadow="2"
     inkscape:window-width="1301"
     inkscape:window-height="744"
     id="namedview22"
     showgrid="false"
     fit-margin-top="5"
     fit-margin-left="5"
     fit-margin-right="5"
     fit-margin-bottom="5"
     inkscape:zoom="2.1285714"
     inkscape:cx="68.723081"
     inkscape:cy="-42.053083"
     inkscape:window-x="65"
     inkscape:window-y="24"
     inkscape:window-maximized="1"
     inkscape:current-layer="svg2" /><g
     id="g4"
     transform="translate(21.97357,-30.269414)"><path
       d="m -0.545,87.069 c 9.744,0 13.157,-2.029 13.157,-12.405 l 0,-57.454 C 12.612,6.833 9.199,4.809 -0.545,4.809 l 0,-2.535 72.985,0 1.094,19.113 -2.437,0 C 69.76,10.8 64.5,7.6 54.4,7.59 l -23.145,0 c -5.48,0 -5.48,1.521 -5.48,8.861 l 0,24.424 25.708,0 c 8.407,0 10.966,-3.544 11.816,-12.023 l 2.437,0 0,29.359 -2.437,0 c -0.73,-8.35 -3.533,-12.02 -11.816,-12.02 l -25.709,0 0,27.462 c 0,8 0.5,10.6 6.1,10.629 l 25.712,0 c 10.962,0 17.79,-6.959 20.957,-16.959 l 2.313,0.888 -6.587,21.389 -74.814,0 0,-2.531 z"
       id="path6"
       inkscape:connector-curvature="0"
       style="fill:#e9711c" /><path
       d="M 80.107,87.069 C 89.125,86.562 92.415,84.915 92.415,74.92 l 0,-57.962 c 0,-10 -3.291,-11.647 -12.308,-12.15 l 0,-2.534 38.623,0 0,2.535 c -9.748,0 -13.158,2.024 -13.158,12.401 l 0,55.812 c 0,7.1 0.2,11.3 7.4,11.262 l 17.425,0 c 13.034,0 19.127,-5.569 24.244,-17.592 l 2.925,0.507 -7.4,22.401 -70.059,0 0,-2.531 z"
       id="path8"
       inkscape:connector-curvature="0"
       style="fill:#e9711c" /><path
       d="m 159.778,63.784 2.438,0 c 4.874,11.1 12.6,23.2 25.8,23.16 8.653,0 15.963,-5.573 15.963,-14.305 0,-7.088 -7.068,-13.289 -18.154,-21.136 -14.257,-10.121 -23.517,-16.07 -23.517,-27.587 0,-14.68 11.086,-23.666 24.49,-23.666 9.625,0 13,4 18.3,4.05 2.071,0 2.437,-1.139 2.071,-3.163 l 2.438,0 2.802,26.067 -2.438,0 C 206.557,15.942 199.004,4.933 186.696,4.933 c -7.553,0 -13.646,5.819 -13.646,13.666 0,8.2 8.4,13.5 21.8,21.5 10.967,6.5 21.7,14.4 21.7,26.83 0,13.922 -11.337,24.676 -25.955,24.676 -8.776,0 -18.031,-3.671 -20.35,-3.671 -1.46,0 -3.044,0.889 -3.286,2.786 l -2.437,0 -4.744,-26.936 z"
       id="path10"
       inkscape:connector-curvature="0"
       style="fill:#e9711c" /><path
       d="m 216.926,87.069 c 9.744,0 13.157,-2.029 13.157,-12.405 l 0,-57.454 c 0,-10.377 -3.414,-12.401 -13.157,-12.401 l 0,-2.535 72.984,0 1.096,19.113 -2.438,0 C 287.227,10.754 281.987,7.591 271.874,7.591 l -23.147,0 c -5.486,0 -5.486,1.521 -5.486,8.861 l 0,24.424 25.712,0 c 8.406,0 10.962,-3.544 11.816,-12.023 l 2.437,0 0,29.359 -2.437,0 c -0.731,-8.35 -3.533,-12.02 -11.816,-12.02 l -25.712,0 0,27.462 c 0,8 0.5,10.6 6.1,10.629 l 25.708,0 c 10.967,0 17.79,-6.959 20.958,-16.959 l 2.313,0.888 -6.585,21.388 -74.809,0 0,-2.531 z"
       id="path12"
       inkscape:connector-curvature="0"
       style="fill:#e9711c" /><path
       d="m 339.262,90.612 -1.824,0 -23.518,-53.788 c -3.898,-8.856 -7.43,-17.843 -12.304,-26.322 -2.072,-3.544 -5.851,-5.693 -9.991,-5.693 l 0,-2.535 36.187,0 0,2.535 c -3.413,0 -10.237,0 -10.237,4.936 0,1.6 3.8,10.5 7.2,18.5 L 342.44,69.754 363.644,21.03 c 2.556,-5.819 3.29,-8.986 3.29,-11.643 0,-2.656 -2.926,-4.177 -9.261,-4.554 l 0,-2.559 25.832,0 0,2.535 c -1.465,0.251 -3.048,0.503 -4.509,1.265 -4.633,2.405 -9.261,15.313 -11.455,20.374 l -28.279,64.164 z"
       id="path14"
       inkscape:connector-curvature="0"
       style="fill:#e9711c" /><path
       d="m 384.331,87.069 c 9.749,0 13.158,-2.029 13.158,-12.405 l 0,-57.454 c 0,-10.377 -3.409,-12.401 -13.158,-12.401 l 0,-2.535 39.478,0 0,2.535 c -9.749,0 -13.157,2.024 -13.157,12.401 l 0,57.454 c 0,10.4 3.4,12.4 13.2,12.405 l 0,2.53 -39.478,0 0,-2.53 z"
       id="path16"
       inkscape:connector-curvature="0"
       style="fill:#e9711c" /><path
       d="m 429.264,87.069 c 9.749,0 13.163,-2.029 13.163,-12.405 l 0,-57.454 c 0,-10.377 -3.414,-12.401 -13.163,-12.401 l 0,-2.535 72.984,0 1.1,19.113 -2.437,0 C 499.569,10.754 494.331,7.591 484.217,7.591 l -23.147,0 c -5.485,0 -5.485,1.521 -5.485,8.861 l 0,24.424 25.708,0 c 8.41,0 10.967,-3.544 11.819,-12.023 l 2.438,0 0,29.359 -2.438,0 c -0.73,-8.35 -3.531,-12.02 -11.819,-12.02 l -25.708,0 0,27.462 c 0,8 0.5,10.6 6.1,10.629 l 25.707,0 c 10.968,0 17.79,-6.959 20.957,-16.959 l 2.318,0.888 -6.589,21.388 -74.814,0 0,-2.531 z"
       id="path18"
       inkscape:connector-curvature="0"
       style="fill:#e9711c" /><path
       d="m 536.827,13.288 c 0,-5.949 1.464,-6.33 9.505,-6.33 12.062,0 23,4.2 23,18.5 0,15.438 -12.55,19.866 -25.713,19.866 l -6.821,0 0,-32.036 z m 62.628,73.781 c -5.481,-1.521 -7.435,-2.911 -10.721,-6.964 L 561.926,47.457 c 13.157,-2.785 22.299,-9.368 22.299,-23.792 0,-20.377 -18.52,-21.392 -33.754,-21.392 l -39.961,0 0,2.535 c 9.745,0 13.2,2 13.2,12.4 l 0,57.454 c 0,10.376 -3.413,12.405 -13.158,12.405 l 0,2.53 39.478,0 0,-2.53 c -9.748,0 -13.16,-2.029 -13.16,-12.405 l 0,-24.042 11.088,0 31.759,38.98 19.738,0 0,-2.531 z"
       id="path20"
       inkscape:connector-curvature="0"
       style="fill:#e9711c" /></g></svg>