<?xml version="1.0" encoding="UTF-8" standalone="no"?>
<!-- Created with Inkscape (http://www.inkscape.org/) -->

<svg
   xmlns:dc="http://purl.org/dc/elements/1.1/"
   xmlns:cc="http://creativecommons.org/ns#"
   xmlns:rdf="http://www.w3.org/1999/02/22-rdf-syntax-ns#"
   xmlns:svg="http://www.w3.org/2000/svg"
   xmlns="http://www.w3.org/2000/svg"
   xmlns:sodipodi="http://sodipodi.sourceforge.net/DTD/sodipodi-0.dtd"
   xmlns:inkscape="http://www.inkscape.org/namespaces/inkscape"
   width="500"
   height="500"
   viewBox="0 0 500.00001 500.00001"
   id="svg4222"
   version="1.1"
   inkscape:version="0.91 r13725"
   sodipodi:docname="es6.svg">
  <defs
     id="defs4224" />
  <sodipodi:namedview
     id="base"
     pagecolor="#ffffff"
     bordercolor="#666666"
     borderopacity="1.0"
     inkscape:pageopacity="0"
     inkscape:pageshadow="2"
     inkscape:zoom="0.49497475"
     inkscape:cx="101.25183"
     inkscape:cy="306.60637"
     inkscape:document-units="px"
     inkscape:current-layer="text4772"
     showgrid="false"
     units="px"
     inkscape:window-width="1855"
     inkscape:window-height="1056"
     inkscape:window-x="65"
     inkscape:window-y="24"
     inkscape:window-maximized="1" />
  <metadata
     id="metadata4227">
    <rdf:RDF>
      <cc:Work
         rdf:about="">
        <dc:format>image/svg+xml</dc:format>
        <dc:type
           rdf:resource="http://purl.org/dc/dcmitype/StillImage" />
        <dc:title />
      </cc:Work>
    </rdf:RDF>
  </metadata>
  <g
     inkscape:label="Layer 1"
     inkscape:groupmode="layer"
     id="layer1"
     transform="translate(0,-552.36216)">
    <g
       id="g6963"
       transform="translate(50,-50.000023)">
      <rect
         ry="3.6291919"
         rx="5.2951999"
         y="652.36218"
         x="0"
         height="400"
         width="400"
         id="rect4770"
         style="fill:#fbde34;fill-opacity:1;stroke:none;stroke-width:2;stroke-miterlimit:4;stroke-dasharray:2, 2;stroke-dashoffset:0;stroke-opacity:1" />
      <g
         style="font-style:normal;font-weight:normal;font-size:32px;line-height:125%;font-family:sans-serif;letter-spacing:0px;word-spacing:0px;fill:#000000;fill-opacity:1;stroke:none;stroke-width:1px;stroke-linecap:butt;stroke-linejoin:miter;stroke-opacity:1"
         id="text4772">
        <path
           d="m 188.84375,975.57306 -38.8125,0 0,24.39844 45.84375,0 0,18.9844 -70.52344,0 0,-102.37503 70.66406,0 0,19.05469 -45.98437,0 0,21.58594 38.8125,0 0,18.35156 z"
           style="font-style:normal;font-variant:normal;font-weight:900;font-stretch:normal;font-size:144px;font-family:Roboto;-inkscape-font-specification:'Roboto Heavy'"
           id="path3357" />
        <path
           d="m 258.875,991.74493 q 0,-5.41406 -3.86719,-8.4375 -3.79687,-3.02343 -13.42969,-6.25781 -9.63281,-3.23437 -15.75,-6.25781 -19.89843,-9.77344 -19.89843,-26.85938 0,-8.50781 4.92187,-14.97656 4.99219,-6.53906 14.0625,-10.125 9.07031,-3.65625 20.39063,-3.65625 11.03906,0 19.75781,3.9375 8.78906,3.9375 13.64062,11.25 4.85157,7.24219 4.85157,16.59375 l -24.60938,0 q 0,-6.25781 -3.86719,-9.70312 -3.79687,-3.44532 -10.33593,-3.44532 -6.60938,0 -10.47657,2.95313 -3.79687,2.88281 -3.79687,7.38281 0,3.9375 4.21875,7.17188 4.21875,3.16406 14.83594,6.60937 10.61718,3.375 17.4375,7.3125 16.59375,9.5625 16.59375,26.36719 0,13.42969 -10.125,21.09379 -10.125,7.664 -27.77344,7.664 -12.44531,0 -22.57031,-4.4297 -10.05469,-4.5 -15.1875,-12.2343 -5.0625,-7.80473 -5.0625,-17.92973 l 24.75,0 q 0,8.22656 4.21875,12.16406 4.28906,3.86717 13.85156,3.86717 6.11719,0 9.63281,-2.60154 3.58594,-2.67188 3.58594,-7.45313 z"
           style="font-style:normal;font-variant:normal;font-weight:900;font-stretch:normal;font-size:144px;font-family:Roboto;-inkscape-font-specification:'Roboto Heavy'"
           id="path3359" />
        <path
           d="m 352.10937,915.10431 0,18.63281 -1.05468,0 q -13.28907,0 -21.86719,6.39844 -8.50781,6.32812 -10.47656,17.64844 8.01562,-7.875 20.25,-7.875 13.28906,0 21.16406,9.70312 7.875,9.70313 7.875,25.45313 0,9.77343 -4.64063,17.92965 -4.57031,8.1563 -12.86718,12.7969 -8.22657,4.5703 -18.28125,4.5703 -10.89844,0 -19.47657,-4.9219 -8.57812,-4.9921 -13.35937,-14.2031 -4.78125,-9.21092 -4.92188,-21.23435 l 0,-9.49219 q 0,-15.82031 6.75,-28.40625 6.82032,-12.65625 19.40625,-19.82813 12.58594,-7.17187 27.91407,-7.17187 l 3.58593,0 z m -21.375,52.94531 q -4.71093,0 -7.875,2.17969 -3.16406,2.17969 -4.71093,5.34375 l 0,7.10156 q 0,19.40628 13.42968,19.40628 5.41407,0 9,-4.85159 3.65625,-4.85156 3.65625,-12.16406 0,-7.52344 -3.72656,-12.23438 -3.65625,-4.78125 -9.77344,-4.78125 z"
           style="font-style:normal;font-variant:normal;font-weight:900;font-stretch:normal;font-size:144px;font-family:Roboto;-inkscape-font-specification:'Roboto Heavy'"
           id="path3361" />
      </g>
    </g>
  </g>
</svg>
