<?xml version="1.0" encoding="utf-8"?>
<!-- Generator: Adobe Illustrator 21.1.0, SVG Export Plug-In . SVG Version: 6.00 Build 0)  -->
<svg version="1.1" id="Layer_1" xmlns="http://www.w3.org/2000/svg" xmlns:xlink="http://www.w3.org/1999/xlink" x="0px" y="0px"
	 viewBox="0 0 595.3 356" style="enable-background:new 0 0 595.3 356;" xml:space="preserve">
<style type="text/css">
	.st0{fill:#A41F35;}
	.st1{fill:#FFFFFF;}
</style>
<rect x="-8.5" y="-8.5" class="st0" width="612.3" height="373"/>
<polyline class="st1" points="218.9,170.4 178.1,170.4 178.1,198.6 169.2,198.6 169.2,138.8 178.1,138.8 178.1,162.7 218.9,162.7 
	218.9,138.8 227.8,138.8 227.8,198.6 218.9,198.6 218.9,170.4 "/>
<path class="st1" d="M239.4,154.7h8.4v43.9h-8.4V154.7z M239.4,138.3h8.4v9.2h-8.4V138.3z"/>
<path class="st1" d="M297.4,176.5c0,9.1-6,15.5-16.2,15.5c-10.2,0-16.2-6.5-16.2-15.5c0-9,6-15.8,16.2-15.8
	C291.3,160.7,297.4,167.4,297.4,176.5 M297.4,161.1h-0.2c-3.3-5-9.9-7.5-17.1-7.5c-11.7,0-24,6.4-24,22.7
	c0,16.3,12.3,22.6,24.1,22.6c5.7,0,12.3-1.3,17-8.1h0.2v6.4c0,7.2-4.4,13.2-16.4,13.2c-8,0-13.1-1.4-14.6-7.1H258
	c1.8,12.1,12.7,13.7,22.2,13.7c18.1,0,25.6-6.4,25.6-22.1v-40.3h-8.4V161.1z"/>
<path class="st1" d="M315.5,138.3h8.4v23h0.2c3.9-6.1,10.9-8.1,17.2-8.1c10.6,0,18.5,4.5,18.5,15.5v29.9h-8.4v-28.3
	c0-6.4-4-10.1-13-10.1c-7.6,0-14.4,4.4-14.4,13.1v25.3h-8.4V138.3"/>
<polyline class="st1" points="410.5,149 410.3,149 393.8,198.6 384,198.6 364.3,138.8 373.9,138.8 389.3,187.4 389.5,187.4 
	405.5,138.8 416.1,138.8 432.5,187.4 432.7,187.4 448,138.8 457.2,138.8 436.9,198.6 427.1,198.6 410.5,149 "/>
<path class="st1" d="M461.7,154.7h8.4v43.9h-8.4V154.7z M461.7,138.3h8.4v9.2h-8.4V138.3z"/>
<path class="st1" d="M480.4,154.7h8.4v8.1h0.2c3.9-7,9.6-9.6,15.1-9.6c2.1,0,3.2,0.1,4.8,0.5v9.1c-2.1-0.5-3.7-0.8-6-0.8
	c-8.3,0-14.1,4.9-14.1,14.4v22.3h-8.4V154.7"/>
<path class="st1" d="M521.7,172.6c1.3-7.9,8.2-12.4,15.9-12.4c7.9,0,14.1,4.4,15.4,12.4H521.7 M562,179.1v-1.1
	c0-18.2-12.3-24.9-23.9-24.9c-17.1,0-25.5,10.8-25.5,23.5c0,12.7,8.4,23.5,25.5,23.5c8.7,0,18.5-4.3,22.7-14.8h-8.9
	c-2.8,6.2-9.4,7.8-14.2,7.8c-7.5,0-15.5-4.9-16.2-13.9H562z"/>
<path class="st1" d="M89.4,112.2l0-7c2,0,4,0.1,6,0.4l-0.9,6.9C92.8,112.3,91.1,112.2,89.4,112.2"/>
<path class="st1" d="M104.9,115l2.3-6.6c1.9,0.7,3.7,1.5,5.5,2.4l-3.1,6.2C108,116.3,106.5,115.6,104.9,115"/>
<path class="st1" d="M96.9,112.9L98,106c2,0.3,3.9,0.8,5.8,1.4l-2,6.7C100.3,113.5,98.6,113.2,96.9,112.9"/>
<path class="st1" d="M100.2,127.9l2.2-6.6c1.6,0.5,3.2,1.2,4.7,2l-3.1,6.2C102.9,128.9,101.6,128.4,100.2,127.9"/>
<path class="st1" d="M89.1,126.4l0-7c1.7,0,3.4,0.1,5.1,0.3l-0.9,7C91.9,126.5,90.5,126.4,89.1,126.4"/>
<path class="st1" d="M94.6,126.7l1.1-6.9c1.7,0.2,3.4,0.6,5,1.1l-2,6.8C97.3,127.2,95.9,126.9,94.6,126.7"/>
<path class="st1" d="M89.1,134.6l0-7c1.4,0,2.8,0.1,4.2,0.3l-0.9,6.9C91.3,134.6,90.2,134.6,89.1,134.6"/>
<path class="st1" d="M97.3,136l2.2-6.6c1.3,0.5,2.6,1,3.9,1.7l-3.1,6.2C99.4,136.8,98.4,136.4,97.3,136"/>
<path class="st1" d="M93.2,134.9l1.1-6.9c1.4,0.2,2.8,0.5,4.1,1l-2,6.7C95.3,135.4,94.3,135.1,93.2,134.9"/>
<path class="st1" d="M120.7,125l4.6-5.2c1.5,1.4,2.9,2.8,4.2,4.3l-5.2,4.6C123.1,127.3,121.9,126.1,120.7,125"/>
<path class="st1" d="M112.8,118.8l3.4-6.1c1.7,1,3.4,2.2,5,3.4l-4.2,5.5C115.7,120.6,114.3,119.7,112.8,118.8"/>
<path class="st1" d="M111.9,134.4l4.6-5.2c1.3,1.2,2.5,2.4,3.6,3.7l-5.2,4.5C114,136.4,113,135.4,111.9,134.4"/>
<path class="st1" d="M106.2,130.4l3.4-6c1.5,0.9,2.9,1.8,4.2,2.9l-4.2,5.5C108.5,132,107.4,131.2,106.2,130.4"/>
<path class="st1" d="M105.8,141l4.6-5.2c1,1,2,2,2.9,3.1l-5.2,4.6C107.4,142.6,106.6,141.8,105.8,141"/>
<path class="st1" d="M101.7,138l3.4-6.1c1.2,0.7,2.4,1.5,3.5,2.4l-4.2,5.5C103.5,139.2,102.6,138.6,101.7,138"/>
<path class="st1" d="M135.7,167.4l6.8,1c-0.3,2-0.7,4-1.3,6l-6.6-1.9C135.1,170.8,135.5,169.1,135.7,167.4"/>
<path class="st1" d="M132.3,142.6l6.4-2.6c0.8,1.9,1.4,3.8,1.9,5.8l-6.6,1.8C133.5,145.8,133,144.2,132.3,142.6"/>
<path class="st1" d="M60.7,203.7l-3.7,5.9c-1.7-1.1-3.3-2.3-4.8-3.6l4.4-5.4C57.9,201.8,59.3,202.8,60.7,203.7"/>
<path class="st1" d="M46.9,124.6l-5.4-4.3c1.2-1.6,2.6-3.1,4-4.5l4.8,5C49.1,122,47.9,123.2,46.9,124.6"/>
<path class="st1" d="M96.8,209.5l1.1,6.9c-2,0.3-4,0.5-5.9,0.6l-0.3-7C93.4,210,95.1,209.8,96.8,209.5"/>
<path class="st1" d="M121,197.2c1.3-1.1,2.5-2.3,3.6-3.5l5.1,4.7c-1.3,1.5-2.7,2.9-4.2,4.2c0,0-0.1,0-0.1,0.1L121,197.2
	C121,197.3,121,197.2,121,197.2"/>
<path class="st1" d="M37.4,169.8l-6.7,1.4c-0.4-2-0.7-4-0.8-6l6.8-0.5C36.9,166.4,37.1,168.2,37.4,169.8"/>
<path class="st1" d="M127.2,132.7l5.6-4.1c1.2,1.7,2.2,3.4,3.1,5.2l-6,3.3C129.1,135.6,128.2,134.1,127.2,132.7"/>
<path class="st1" d="M135.4,154.6l6.8-0.9c0.3,2,0.4,4,0.4,6.1l-6.9,0C135.8,158,135.7,156.3,135.4,154.6"/>
<path class="st1" d="M132.4,181l6.2,2.9c-0.8,1.8-1.8,3.6-2.9,5.3l-5.8-3.7C130.9,184.1,131.7,182.5,132.4,181"/>
<path class="st1" d="M112.3,203.9l3.3,6.1c-1.8,1-3.6,1.9-5.4,2.6l-2.5-6.5C109.3,205.5,110.8,204.8,112.3,203.9"/>
<path class="st1" d="M79,209.9l-1.3,6.9c-2-0.4-3.9-0.9-5.8-1.6l2.2-6.6C75.7,209.2,77.3,209.6,79,209.9"/>
<path class="st1" d="M45.6,189.9l-5.6,4c-1.2-1.7-2.2-3.4-3.1-5.2l6.1-3.3C43.8,187.1,44.6,188.5,45.6,189.9"/>
<path class="st1" d="M37.1,147l-6.7-1.6c0.4-2,1-3.9,1.7-5.8l6.4,2.4C37.9,143.6,37.4,145.3,37.1,147"/>
<path class="st1" d="M65.8,195.8l-3.7,5.9c-1.4-0.9-2.8-2-4.1-3.1l4.4-5.4C63.5,194.2,64.6,195.1,65.8,195.8"/>
<path class="st1" d="M45.9,168.3l-6.7,1.4c-0.3-1.7-0.6-3.4-0.7-5.1l6.8-0.5C45.4,165.5,45.6,166.9,45.9,168.3"/>
<path class="st1" d="M53,129.6l-5.4-4.3c1-1.3,2.2-2.6,3.4-3.8l4.8,5C54.8,127.5,53.9,128.5,53,129.6"/>
<path class="st1" d="M121.1,146.9l6.4-2.6c0.6,1.6,1.2,3.2,1.6,4.9l-6.6,1.7C122.1,149.6,121.7,148.2,121.1,146.9"/>
<path class="st1" d="M113.7,188.7c1.1-0.9,2-1.9,3-2.9l5.1,4.7c-1.1,1.2-2.3,2.4-3.6,3.5c0,0,0,0-0.1,0.1L113.7,188.7
	C113.7,188.7,113.7,188.7,113.7,188.7"/>
<path class="st1" d="M124.1,165.4l6.8,1c-0.2,1.7-0.6,3.4-1.1,5.1l-6.6-1.9C123.6,168.2,123.9,166.8,124.1,165.4"/>
<path class="st1" d="M95.3,199.4l1.2,6.9c-1.7,0.3-3.4,0.5-5.1,0.5l-0.2-7C92.5,199.8,93.9,199.6,95.3,199.4"/>
<path class="st1" d="M117.1,140l5.6-4.1c1,1.4,1.9,2.9,2.7,4.4l-6.1,3.3C118.6,142.4,117.9,141.1,117.1,140"/>
<path class="st1" d="M123.7,155.6l6.8-0.9c0.2,1.7,0.3,3.4,0.3,5.2l-6.9,0C123.9,158.4,123.8,157,123.7,155.6"/>
<path class="st1" d="M122.1,175.6l6.2,2.9c-0.7,1.6-1.5,3.1-2.4,4.5l-5.8-3.7C120.8,178.1,121.5,176.9,122.1,175.6"/>
<path class="st1" d="M107.3,194.3l3.3,6.1c-1.5,0.8-3,1.6-4.6,2.2l-2.5-6.5C104.8,195.6,106.1,195,107.3,194.3"/>
<path class="st1" d="M81.1,200.3l-1.3,6.8c-1.7-0.3-3.3-0.8-4.9-1.3l2.2-6.6C78.3,199.6,79.7,200,81.1,200.3"/>
<path class="st1" d="M53,184.9l-5.6,4c-1-1.4-1.9-2.9-2.6-4.4l6.1-3.2C51.4,182.6,52.2,183.8,53,184.9"/>
<path class="st1" d="M45.2,149l-6.7-1.6c0.4-1.7,0.9-3.3,1.5-4.9l6.4,2.4C45.9,146.3,45.5,147.6,45.2,149"/>
<path class="st1" d="M69.6,144.1l-5.4-4.3c0.9-1.1,1.8-2.2,2.8-3.1l4.8,5C71,142.4,70.3,143.3,69.6,144.1"/>
<path class="st1" d="M64.7,165.1l-6.7,1.4c-0.3-1.4-0.5-2.8-0.6-4.2l6.8-0.5C64.3,162.9,64.4,164,64.7,165.1"/>
<path class="st1" d="M105.4,179.5c0.8-0.7,1.6-1.5,2.3-2.3l5.1,4.7c-0.9,1-1.9,2-3,2.9c0,0,0,0-0.1,0L105.4,179.5
	C105.4,179.5,105.4,179.5,105.4,179.5"/>
<path class="st1" d="M112.3,150.5l6.4-2.6c0.5,1.3,1,2.7,1.3,4l-6.6,1.8C113.1,152.6,112.7,151.5,112.3,150.5"/>
<path class="st1" d="M93.4,185.2l1.2,6.9c-1.4,0.2-2.8,0.4-4.2,0.5l-0.3-7C91.2,185.5,92.3,185.4,93.4,185.2"/>
<path class="st1" d="M113.9,163.7l6.8,1c-0.2,1.4-0.5,2.8-0.9,4.2l-6.6-1.9C113.5,165.9,113.8,164.8,113.9,163.7"/>
<path class="st1" d="M75.8,181.6l-3.7,5.9c-1.2-0.8-2.3-1.6-3.4-2.5l4.4-5.4C74,180.3,74.8,181,75.8,181.6"/>
<path class="st1" d="M109.4,145.2l5.6-4.1c0.8,1.2,1.5,2.4,2.2,3.6l-6,3.3C110.6,147.1,110.1,146.1,109.4,145.2"/>
<path class="st1" d="M114,156.7l6.8-0.9c0.2,1.4,0.3,2.8,0.3,4.3l-6.9,0C114.2,159,114.1,157.8,114,156.7"/>
<path class="st1" d="M111.9,170.8l6.2,2.9c-0.6,1.3-1.3,2.5-2,3.7l-5.8-3.7C110.9,172.8,111.4,171.8,111.9,170.8"/>
<path class="st1" d="M101.4,182.3l3.3,6.1c-1.2,0.7-2.5,1.3-3.8,1.8l-2.5-6.5C99.4,183.4,100.4,182.9,101.4,182.3"/>
<path class="st1" d="M84.5,185.1l-1.3,6.9c-1.4-0.3-2.7-0.6-4-1.1l2.2-6.6C82.3,184.6,83.4,184.9,84.5,185.1"/>
<path class="st1" d="M68.7,174.7l-5.6,4c-0.8-1.2-1.5-2.4-2.2-3.6l6.1-3.2C67.5,172.8,68.1,173.8,68.7,174.7"/>
<path class="st1" d="M64.8,154.3l-6.7-1.6c0.3-1.4,0.7-2.7,1.2-4.1l6.4,2.4C65.3,152.1,65,153.2,64.8,154.3"/>
</svg>
