<?xml version="1.0" ?><!DOCTYPE svg  PUBLIC '-//W3C//DTD SVG 1.1//EN'  'http://www.w3.org/Graphics/SVG/1.1/DTD/svg11.dtd'><svg enable-background="new 0 0 200 200" height="200px" id="Layer_1" version="1.1" viewBox="0 0 200 200" width="200px" xml:space="preserve" xmlns="http://www.w3.org/2000/svg" xmlns:xlink="http://www.w3.org/1999/xlink"><g><g><path d="M183.2,43.024v109.857h-40.352c3.407-8.318,5.264-17.406,5.264-26.943V84.736L100,62.336l-48.112,22.4    v41.201c0,9.537,1.856,18.625,5.266,26.943H16.8V43.024H183.2z" fill="#43D3E8"/><path d="M200,34.223H0v-32h200V34.223z M8,26.223h184v-16H8V26.223z" fill="#242D3C"/><g><rect fill="#242D3C" height="8" width="8" x="19.2" y="14.223"/><rect fill="#242D3C" height="8" width="8" x="35.2" y="14.223"/><rect fill="#242D3C" height="8" width="8" x="51.2" y="14.223"/></g><polygon fill="#242D3C" points="200,169.681 136.064,169.681 136.064,161.681 192,161.681 192,34.224 8,34.224 8,161.681     63.936,161.681 63.936,169.681 0,169.681 0,26.224 200,26.224   "/></g><g><path d="M126.406,126.797c0,14.584-11.841,26.399-26.405,26.399c-14.592,0-26.395-11.815-26.395-26.399    c0-14.588,11.803-26.401,26.395-26.401C114.565,100.396,126.406,112.209,126.406,126.797z" fill="#F96232"/><polygon fill="#FFFFFF" points="97.322,140.196 84.378,127.253 90.034,121.597 97.322,128.881 109.979,116.225 115.635,121.881       "/><path d="M99.992,197.778l-1.311-0.453c-30.378-10.531-50.789-39.219-50.789-71.388V82.191l52.1-24.26l52.117,24.26    v43.746c0,32.169-20.419,60.856-50.808,71.388L99.992,197.778z M55.892,87.291v38.646c0,28.297,17.664,53.581,44.1,63.359    c26.445-9.778,44.117-35.063,44.117-63.359V87.291L99.992,66.757L55.892,87.291z" fill="#242D3C"/><rect fill="#242D3C" height="19.2" width="8" x="95.992" y="62.336"/><rect fill="#242D3C" height="19.2" width="8" x="95.992" y="174.344"/></g></g></svg>