<?xml version="1.0" ?><!DOCTYPE svg  PUBLIC '-//W3C//DTD SVG 1.1//EN'  'http://www.w3.org/Graphics/SVG/1.1/DTD/svg11.dtd'><svg enable-background="new 0 0 200 200" height="200px" id="Layer_1" version="1.1" viewBox="0 0 200 200" width="200px" xml:space="preserve" xmlns="http://www.w3.org/2000/svg" xmlns:xlink="http://www.w3.org/1999/xlink"><g><g><path d="M167.483,74.464h-6.896v-6.274l-14.058-2.159l-0.403-2.472c-0.501-3.063-1.304-6.067-2.387-8.932    l-0.887-2.342l11.09-8.895l-2.943-5.101l-13.251,5.159l-1.586-1.933c-1.966-2.396-4.167-4.597-6.542-6.541l-1.937-1.585    l5.16-13.252l-5.103-2.944l-8.886,11.085l-2.342-0.883c-2.882-1.084-5.889-1.889-8.938-2.39l-2.47-0.404l-2.158-14.057h-5.892    l-2.158,14.057l-2.47,0.404c-3.054,0.501-6.062,1.307-8.936,2.39l-2.342,0.883l-8.89-11.085l-5.101,2.944l5.162,13.252    l-1.939,1.586c-2.371,1.938-4.572,4.14-6.543,6.541l-1.585,1.932l-13.253-5.158l-2.94,5.1l11.088,8.893l-0.885,2.342    c-1.084,2.869-1.886,5.873-2.384,8.931l-0.404,2.474l-14.057,2.159v6.274h-6.896V62.272l15.015-2.308    c0.387-1.825,0.869-3.628,1.44-5.396l-11.847-9.5l8.856-15.352l14.167,5.513c1.25-1.386,2.569-2.706,3.947-3.948l-5.515-14.158    L73.937,8.26l9.5,11.848c1.767-0.571,3.569-1.054,5.394-1.441l2.303-15.019h17.734l2.304,15.019    c1.821,0.388,3.623,0.87,5.392,1.442l9.499-11.849l15.355,8.864l-5.514,14.158c1.378,1.243,2.697,2.562,3.945,3.947l14.167-5.512    l8.856,15.352l-11.847,9.5c0.571,1.766,1.054,3.57,1.44,5.396l15.017,2.306V74.464z" fill="#242D3C"/><path d="M100,34.628c-20.162,0-36.503,16.343-36.503,36.506v3.33h21.137v-3.33h0.002    c0-8.486,6.878-15.364,15.364-15.364c8.486,0,15.363,6.877,15.363,15.364v3.33h21.14v-3.33    C136.503,50.971,120.164,34.628,100,34.628z" fill="#F96232"/><path d="M88.082,74.467l-6.896-0.005l0.002-3.33c0-10.369,8.439-18.809,18.812-18.809s18.812,8.44,18.812,18.812    v3.33h-6.896v-3.33c0-6.571-5.345-11.916-11.915-11.916c-6.571,0-11.916,5.345-11.916,11.916L88.082,74.467z" fill="#242D3C"/></g><g><path d="M183.69,176.921h-6.896V79.813c0-0.505-0.199-0.982-0.561-1.349c-0.353-0.35-0.835-0.552-1.341-0.552    H25.109c-0.505,0-0.977,0.197-1.329,0.552c-0.372,0.372-0.571,0.846-0.571,1.349v97.108h-6.896V79.813    c0-2.343,0.916-4.55,2.58-6.214c1.647-1.662,3.859-2.583,6.217-2.583h149.784c2.338,0,4.547,0.915,6.218,2.573    c1.67,1.684,2.58,3.887,2.58,6.225V176.921z" fill="#242D3C"/><rect fill="#43D3E8" height="86.259" width="134.736" x="32.635" y="87.334"/><path d="M188.556,196.353H11.441c-3.052,0-5.924-1.188-8.087-3.345C1.191,190.855,0,187.979,0,184.914v-11.441h200    v11.441c0,3.062-1.19,5.936-3.352,8.093C194.488,195.164,191.613,196.353,188.556,196.353z M6.896,180.369v4.545    c0,1.218,0.47,2.358,1.326,3.208c0.862,0.861,2.005,1.334,3.219,1.334h177.114c1.218,0,2.363-0.473,3.223-1.331    c0.854-0.854,1.325-1.993,1.325-3.211v-4.545H6.896z" fill="#242D3C"/></g><g><g><path d="M99.391,149.226h-6.896V111.7h16.209c2.966,0,5.755,1.155,7.853,3.255     c2.097,2.101,3.249,4.886,3.249,7.851c0,2.966-1.152,5.755-3.246,7.852c-2.104,2.102-4.892,3.255-7.855,3.255h-9.313V149.226z      M99.391,127.015h9.313c1.123,0,2.181-0.438,2.979-1.233c0.789-0.792,1.226-1.85,1.226-2.976c0-1.125-0.437-2.181-1.23-2.976     c-0.795-0.795-1.852-1.233-2.975-1.233h-9.313V127.015z" fill="#FFFFFF"/><g><path d="M85.094,149.226h-6.896v-26.42c0-1.122-0.438-2.18-1.234-2.976c-0.795-0.795-1.851-1.233-2.974-1.233      h-5.109c-1.122,0-2.176,0.437-2.97,1.232c-0.797,0.799-1.237,1.854-1.237,2.977v26.42h-6.896v-26.42      c0-2.965,1.156-5.753,3.254-7.851c2.093-2.1,4.881-3.255,7.849-3.255h5.109c2.966,0,5.754,1.155,7.853,3.255      c2.099,2.102,3.251,4.889,3.251,7.851V149.226z" fill="#FFFFFF"/><rect fill="#FFFFFF" height="6.897" width="27.317" x="57.777" y="127.015"/></g><g><rect fill="#FFFFFF" height="30.629" width="6.896" x="131.247" y="115.148"/><rect fill="#FFFFFF" height="6.896" width="15.063" x="127.163" y="111.7"/><rect fill="#FFFFFF" height="6.896" width="15.063" x="127.163" y="142.329"/></g></g><g><rect fill="#242D3C" height="6.897" width="6.896" x="151.288" y="127.015"/><rect fill="#242D3C" height="6.897" width="6.896" x="41.818" y="127.015"/></g></g></g></svg>