<?xml version="1.0" ?><!DOCTYPE svg  PUBLIC '-//W3C//DTD SVG 1.1//EN'  'http://www.w3.org/Graphics/SVG/1.1/DTD/svg11.dtd'><svg height="218px" style="shape-rendering:geometricPrecision; text-rendering:geometricPrecision; image-rendering:optimizeQuality; fill-rule:evenodd; clip-rule:evenodd" version="1.1" viewBox="0 0 66704 75030" width="194px" xml:space="preserve" xmlns="http://www.w3.org/2000/svg" xmlns:xlink="http://www.w3.org/1999/xlink"><defs><style type="text/css">
   <![CDATA[
    .fil0 {fill:#6B7F9E}
    .fil1 {fill:#C6CBD6}
    .fil2 {fill:#ECF0F1}
    .fil5 {fill:#F7635B}
    .fil4 {fill:#FF7069}
    .fil3 {fill:white}
   ]]>
  </style></defs><g id="Layer_x0020_1"><g id="_635126904"><path class="fil0" d="M36655 910l26748 15444c2100,1212 3302,3294 3302,5719l0 30885c0,2425 -1202,4507 -3302,5719l-26748 15444c-2100,1213 -4504,1213 -6605,0l-26748 -15444c-2100,-1212 -3302,-3294 -3302,-5719l0 -30885c0,-2425 1202,-4507 3302,-5719l26748 -15444c2100,-1213 4504,-1213 6605,0z"/><g><g><path class="fil1" d="M0 49948c4318,-14344 17626,-24792 33377,-24792 15690,0 28956,10368 33327,24625l0 3177c0,2425 -1202,4507 -3302,5719l-26748 15444c-2100,1213 -4504,1213 -6605,0l-26748 -15444c-2100,-1212 -3302,-3294 -3302,-5719l0 -3010z"/><path class="fil2" d="M66704 52390l0 568c0,199 -9,396 -24,591l-13 -6c-55,-39 -412,35 -589,156 -178,120 -521,626 -659,537 -144,-92 -127,-624 7,-624 24,0 46,0 70,2 -52,-121 35,-420 205,-538l0 0c180,-124 718,-474 1004,-685zm-6539 8156l-1905 1100c-224,-158 -571,-364 -613,-186 -26,100 -33,324 -19,551l-667 385c2,-98 11,-175 26,-207 52,-111 73,-597 -2,-775 -79,-179 -470,-578 -484,-718 -7,-139 -103,-525 -397,-517 -301,10 -642,-485 -595,-579 49,-94 -65,-667 -189,-891 -127,-225 -686,-707 -902,-633 -221,77 -844,486 -1021,609 -176,122 -322,927 -364,1051 -45,124 -537,115 -537,209 0,97 -70,352 -161,352 -88,0 -402,373 -490,827 -92,454 -483,1674 -674,1685 -194,14 -504,-272 -504,-417 0,-145 -84,-675 -180,-858 -100,-184 -513,-869 -613,-1218 -98,-351 -585,-1184 -633,-1322 -50,-138 -171,-695 -336,-733 -165,-37 -419,-393 -411,-476 9,-88 -107,-466 -510,-902 0,0 0,0 -851,132 -243,43 -243,43 -243,43 -68,-164 -268,-198 -439,-70 -173,127 -950,70 -999,-38 -57,-111 -379,-740 -659,-1084 -284,-343 -1266,-1032 -1349,-978 -83,52 -285,291 -231,447 60,151 593,424 699,649 107,222 407,828 549,738 139,-90 837,93 981,323 144,229 372,998 246,1130 -126,129 -297,936 -490,1091 -192,153 -888,472 -906,594 -21,122 -563,469 -1000,676 -435,205 -1778,381 -1932,31 -153,-354 -757,-1480 -986,-1836 -229,-353 -967,-1405 -1022,-1667 -53,-259 -363,-555 -333,-378 33,180 58,836 202,971 145,135 605,726 770,960 165,233 423,1468 709,1689 286,223 748,1300 949,1300 201,0 830,-106 954,-236 125,-129 794,52 853,316 58,262 -237,1381 -543,1890 -312,508 -1271,1928 -1424,2050 -156,120 -654,703 -749,1030 -93,328 -399,1693 -349,2407 49,717 -418,2708 -815,3119 -78,81 -158,218 -237,387l-2683 1549c-1180,681 -2455,980 -3719,896 -52,-361 -139,-821 -237,-1089 -163,-431 -770,-1681 -720,-2131 50,-447 354,-1724 313,-2108 -46,-385 -491,-1454 -596,-1846 -105,-392 -458,-1692 -357,-2062 103,-372 -55,-1653 -199,-1613 -141,42 -620,114 -797,18 -178,-97 -903,-317 -916,-591 0,0 0,0 -224,-23 -493,-50 -493,-50 -493,-50 -129,388 -513,707 -846,708 -335,0 -1359,-25 -1674,-214 -314,-194 -1257,-1001 -1411,-1366 -155,-364 -699,-1686 -699,-2311 0,-625 132,-2482 296,-2741 166,-258 728,-1548 1236,-1935 0,0 0,0 181,-347 279,-544 279,-544 279,-544 113,-783 374,-1494 585,-1584 205,-92 613,-593 783,-563 170,30 720,203 1082,40 365,-160 1903,-323 2203,-432 297,-112 1323,-84 1366,54 43,134 -127,356 -34,445 92,89 445,775 896,965 448,188 1429,807 1498,618 73,-187 998,-400 1627,-354 628,48 2087,225 2157,-34 68,-262 483,-827 483,-968 0,-146 -24,-358 -53,-152 -31,209 -533,179 -498,50 33,-131 -816,-273 -1448,-87 0,0 0,0 -441,-339 -197,-149 -197,-149 -197,-149 -91,-206 -170,-495 -173,-639 -6,-146 68,-781 3,-781 -67,0 -227,253 -205,563 25,306 -4,1016 186,1026 192,12 109,502 -80,494 -190,-9 -357,-382 -316,-389 40,-7 -105,-112 -297,-98 -191,13 -506,-275 -506,-418 0,-147 -69,-686 -147,-883 0,0 0,0 -95,-166 -69,-112 -172,-420 -250,-522 -402,-563 -402,-563 -402,-563 -582,-483 -801,-622 -490,-310 312,314 807,1173 703,1061 -105,-113 -345,230 -262,260 87,30 -63,412 -246,506 -185,89 -415,705 -586,651 -173,-53 -166,-553 -4,-546 162,5 201,-445 64,-657 -140,-212 -869,-511 -903,-645 -31,-137 -218,27 -107,402 112,379 -650,429 -742,26 -95,-400 15,-1129 -181,-1004 -196,129 -992,101 -1145,343 -153,244 -893,899 -982,1257 -93,357 -562,1128 -701,1059 -147,-67 -837,35 -987,-70 -145,-107 -869,-246 -912,-463 -46,-219 -135,-1011 -103,-1289 29,-275 466,-1006 813,-1091 345,-85 1253,75 1323,-20 64,-98 120,-450 -31,-578 -151,-124 -372,-805 -565,-794 -194,13 -432,-260 -344,-381 89,-124 546,-431 665,-590 121,-159 793,-260 833,-291 39,-30 -253,-196 -624,-186 -374,10 -1187,52 -1079,-22 109,-74 336,-399 240,-564 -94,-165 74,-887 258,-906 185,-15 206,-511 123,-531 -88,-19 -406,-442 -348,-717 60,-275 137,-1281 281,-1363 144,-85 670,-19 617,93 -50,113 -199,382 -111,452 87,72 443,441 585,661 143,216 183,1232 273,1307 87,74 236,430 129,635 -50,100 -114,278 -159,407 186,-178 749,-273 781,-407 40,-152 331,-561 515,-628 181,-70 768,-243 773,-367 7,-124 -202,-282 -141,-428 63,-146 184,-664 -49,-675 -234,-11 -548,-628 -548,-940 0,-312 -171,-1188 -83,-1571 87,-384 932,-823 932,-919 0,-95 79,-354 175,-358 96,-7 328,-50 494,-281 160,-233 659,-1203 945,-1429 284,-225 1021,-947 1107,-998 87,-53 346,-24 526,-172 172,-146 823,-519 1026,-519 201,0 829,109 953,242 124,132 563,592 779,650 220,56 987,531 1479,663 491,132 742,941 951,779 207,-158 443,-987 560,-947 120,41 521,174 521,318 0,144 201,373 455,185 250,-187 1303,-609 1666,-644 360,-34 1018,34 834,-2 -186,-43 28,-649 247,-558 218,93 1384,-98 1627,-343 244,-247 899,-934 1053,-852 152,80 518,267 589,126 70,-141 599,0 592,179 -8,174 185,371 253,248 65,-123 298,-480 513,-376 210,110 689,263 523,181 -169,-84 -195,-672 -64,-724 129,-53 535,-279 588,-416 55,-134 389,-461 530,-523 140,-63 728,-319 1043,-363 315,-48 951,-362 1018,-271 69,94 420,81 489,-83 63,-165 747,-266 773,-483 22,-217 414,-435 533,-319 116,117 766,330 1067,341 145,7 395,0 631,7 292,242 578,489 855,742 26,107 33,196 3,236 -85,123 207,659 708,766 0,0 0,0 299,65 42,8 88,6 133,4 3836,3754 6809,8379 8602,13554 -261,391 -645,935 -793,993 -196,78 -532,937 -433,1610 102,672 -714,1713 -913,1615 -203,-98 -379,-988 -541,-1126 -163,-137 -410,-522 -384,-354 26,166 -328,545 -363,631 -33,82 -344,183 -388,275 -48,94 25,596 100,730 79,134 375,561 405,745 29,185 278,745 232,1103 -48,358 -324,1226 -372,1269 -44,46 -439,347 -635,714 -196,365 -1025,1290 -1369,1278 -344,-9 -631,551 -526,561 103,7 265,277 225,475 -33,156 -300,727 -428,1332zm-17318 9999l-1240 716c269,-252 722,-616 783,-816 72,-255 356,-638 366,-385 4,76 41,258 91,485zm-21861 -1657l-11892 -6866c233,-236 645,-851 771,-890 139,-47 434,-213 522,-95 91,120 469,194 495,54 26,-140 597,-9 789,144 187,158 555,711 613,657 54,-60 502,-21 794,142 299,162 1252,702 1347,957 98,259 968,958 1464,1260 497,298 649,1216 761,1288 114,72 730,191 971,266 242,78 783,519 938,519 157,0 773,78 1023,168 246,94 731,533 839,429 107,-105 527,370 666,750 0,0 0,0 -4,491 2,307 2,307 2,307 -38,137 -74,289 -101,419zm-13829 -7985l-3856 -2226c-2100,-1212 -3302,-3294 -3302,-5719l0 -3243c1378,-4426 3614,-8478 6517,-11956 172,22 321,72 328,140 17,150 309,98 420,-251 67,-205 -2,-474 -61,-682 150,-173 303,-345 459,-514 267,105 659,262 770,438 154,242 600,841 483,969 -122,130 197,431 327,285 132,-147 278,-662 159,-679 -118,-16 -404,-567 -414,-1140 -5,-569 749,-1381 897,-1302 146,81 478,481 801,297 322,-184 673,420 865,364 189,-56 963,29 1079,94 116,69 323,535 523,535 201,0 807,136 896,303 93,167 249,673 157,743 -92,69 -49,466 140,556 186,91 764,339 774,474 9,130 306,238 250,346 -62,106 -115,633 -223,682 -111,49 -277,325 -420,188 -142,-135 -649,-179 -561,-57 87,122 121,739 13,946 -106,213 -221,848 -583,589 -363,-260 -1647,-830 -1929,-816 -281,12 -49,-563 755,-896 0,0 0,0 123,-958 65,-565 65,-565 65,-565 -303,-193 -725,-442 -930,-551 -209,-110 -735,129 -906,46 -169,-86 -684,-67 -554,-12 127,55 338,473 301,695 -37,220 -278,992 -552,1086 -276,95 -1296,415 -1257,491 39,81 -140,510 -370,673 -229,161 -807,911 -965,1104 -159,189 -685,671 -681,796 7,127 -125,224 32,299 153,72 305,899 574,1041 269,148 937,605 1041,535 107,-68 349,173 417,64 67,-111 419,326 479,648 59,323 419,693 470,338 50,-355 433,-899 331,-867 -100,31 -185,-313 -43,-303 146,12 543,-399 625,-869 83,-468 40,-2205 129,-2256 83,-49 514,75 594,210 79,134 565,43 688,237 124,196 870,237 870,479 0,242 136,882 302,897 167,15 569,-2 583,-131 14,-128 209,-184 348,96 140,281 720,888 712,1000 -6,112 30,447 202,598 168,151 382,847 486,781 105,-70 430,323 442,565 10,244 44,1427 121,1630 78,204 579,554 565,724 -19,168 -137,537 -342,447 -202,-89 -512,89 -541,2 -31,-88 -183,-314 -328,-253 -145,59 -532,-237 -310,-548 226,-313 440,-1087 138,-860 -307,229 -1115,59 -1066,154 50,93 -111,524 -295,567 -182,46 -273,545 -122,668 153,129 386,558 149,714 -202,133 -677,379 -745,417 85,-47 -213,-351 -558,-246 -345,109 -1008,674 -924,777 79,100 -89,680 -314,775 -226,95 -935,515 -1087,714 -148,199 -44,1117 -135,1162 -89,49 -424,136 -390,247 30,112 -371,743 -746,937 -380,193 -845,1327 -783,1452 60,125 224,570 183,745 -40,175 -131,896 -383,778 -251,-115 -598,-1050 -837,-1148 -244,-98 -1055,-166 -1090,-108 -37,56 -236,186 -457,58 -220,-125 -1212,-68 -1395,44 -182,113 -916,1072 -1094,1998 -184,928 1361,1422 1434,1213 72,-209 496,-647 670,-623 170,20 851,214 784,524 -68,309 39,1152 376,1170 343,21 781,821 703,1223l-2 8zm6042 -11699l0 0 3 -2c-12,5 -13,6 -3,2zm3433 -19540l0 0c-63,-9 -1521,755 -2857,1512 -1525,1035 -2957,2193 -4298,3451 417,-31 1064,-108 1336,-154 419,-70 1113,-185 1162,-303 33,-96 38,-384 -40,-483 67,4 144,7 203,7 158,0 422,-869 589,-1072 168,-204 1124,-503 1351,-640 229,-140 727,-618 917,-674 193,-58 471,-504 429,-595 -41,-88 646,-508 910,-618 260,-111 308,-408 298,-430zm46585 27819l0 0c-125,176 -272,186 -319,23 -46,-168 -157,-644 -6,-828 151,-185 452,633 325,805zm-11442 4980l0 0c127,-256 347,-354 487,-217 142,141 308,770 243,895 -61,126 -855,-420 -730,-678zm-23502 -31957l0 0c-201,24 -721,-81 -812,-177 -88,-94 -871,-179 -1094,-85 -226,94 -71,-549 243,-618 312,-71 46,-514 -287,-514 -335,-3 -1157,-124 -1351,-81 -194,42 -572,-135 -709,-155 -138,-20 -1128,296 -1594,272 -469,-20 -1618,27 -1866,97 -253,65 -433,552 -397,723 37,175 -1111,171 -1472,176 -362,6 -2288,415 -2789,692 -503,276 -896,982 -730,997 167,13 -279,414 -550,508 -270,92 -914,134 -1067,286 -151,151 162,255 222,358 59,99 238,-89 412,9 167,96 729,142 876,199 151,59 -475,178 -768,199 -294,20 -228,598 11,677 240,81 858,166 920,66 64,-100 733,108 1037,144 299,32 532,790 623,954 94,163 113,739 90,906 -21,166 533,469 634,364 97,-106 69,261 -152,242 -221,-20 -77,621 199,713 271,91 85,485 -72,606 -160,117 -73,495 -236,630 -159,134 575,1407 570,2063 -4,654 404,1189 560,1189 157,0 695,131 766,272 71,139 330,-98 434,-205 100,-106 321,-422 486,-699 165,-278 533,-1591 584,-1732 49,-142 666,-52 807,-125 140,-72 543,-391 659,-485 114,-95 994,-467 1237,-641 238,-171 638,-918 825,-1076 188,-161 -96,-113 -331,-267 -232,-153 -129,-340 -61,-412 66,-73 776,118 1021,212 244,97 710,-240 533,-372 -182,-129 -86,-125 0,-70 85,53 177,-430 84,-522 -95,-94 717,-685 574,-1245 -141,-559 222,-1133 439,-1140 220,-6 154,-632 -107,-690 -260,-58 -14,-116 83,-205 97,-88 221,-647 165,-753 -59,-109 399,-229 478,-356 82,-126 604,-377 791,-418 183,-42 283,-532 83,-510zm4549 456l0 0c247,85 378,709 518,728 140,22 355,134 479,255 126,120 506,43 806,199 303,159 200,1214 -79,1133 -281,-85 -890,-292 -962,-31 -72,266 -384,971 -566,975 -184,6 -427,-416 -606,-441 -179,-27 -397,-355 -236,-518 160,-162 181,-768 21,-632 -164,134 -805,200 -811,108 -2,-89 -115,-552 -268,-626 -151,-77 -61,-659 272,-832 333,-171 810,187 742,28 -63,-155 442,-432 690,-347zm2440 505l0 0c492,69 1046,-335 1165,-451 123,-113 -1364,-417 -1930,-434 -565,-17 -1023,59 -1014,172 9,109 1285,643 1779,714zm-8990 13327l0 0c131,51 339,-482 448,-482 109,0 383,727 394,886 7,161 -142,319 -336,351 -194,33 -648,48 -678,-136 -30,-185 42,-672 172,-618zm1459 -5668l0 0c103,179 -76,1000 -242,1017 -164,16 -630,255 -863,296 -234,36 -479,-88 -545,-282 -67,-192 -661,-282 -582,-410 80,-127 155,-499 85,-435 -73,63 -338,-50 -160,-127 175,-78 262,-676 368,-554 111,124 690,315 876,326 189,12 962,-11 1063,169zm16231 -4427l0 0c-264,270 -1244,816 -1123,1116 116,303 319,1171 233,1200 -88,26 -397,99 -624,-39 -226,-142 -734,-648 -643,-787 94,-141 360,-1384 522,-1547 161,-164 606,-452 994,-636 383,-185 1637,-479 1665,-526 24,-44 161,-182 272,-182 110,0 310,225 188,499 -124,276 -1216,636 -1483,902zm-1341 -3238l0 0c413,409 640,-182 1093,-124 -8,-831 -1133,-546 -1093,124zm8021 155l0 0c-13,153 1141,277 1479,217 337,-58 -71,-585 -564,-553 -490,33 -903,183 -915,336zm-41783 8557l0 0c-121,113 -15,679 217,696 230,16 599,-854 882,-680 282,175 474,244 427,151 -48,-91 -853,-443 -953,-511 -100,-60 -448,235 -574,344zm2952 19162l0 0c0,95 503,82 585,-73 80,-154 37,-280 -99,-280 -133,0 -487,255 -487,353zm-2240 -827l0 0c242,-47 129,344 184,483 61,140 636,252 753,347 114,94 412,-177 644,-148 230,29 -76,-798 -464,-775 -386,26 -692,-351 -783,-397 -95,-41 -539,-314 -670,-417 -126,-104 -1113,-192 -1448,-192 -335,0 -704,342 -755,453 -55,113 531,190 696,100 168,-87 949,99 1109,287 161,187 493,303 735,258zm-1053 827l0 0c0,95 508,35 630,39 124,2 119,-81 -10,-184 -128,-102 -620,48 -620,145zm359 -2616l0 0c-131,-51 -238,157 -238,255 0,97 73,178 161,178 91,0 209,-378 77,-433zm1065 83l0 0c-45,-98 -262,-177 -326,-177 -66,0 -114,169 -103,372 12,205 472,-99 428,-195zm767 1181l0 0c205,-100 230,-346 109,-331 -122,12 -347,-355 -480,-407 -132,-53 -240,220 -240,340 0,119 74,201 165,176 90,-22 238,317 446,222z"/></g><path class="fil1" d="M48346 38824c4503,0 8153,891 8153,1990 0,1100 -3650,1991 -8153,1991 -4503,0 -8153,-891 -8153,-1991 0,-1099 3651,-1990 8153,-1990z"/><path class="fil1" d="M11436 44425c5231,0 9471,1539 9471,3437 0,1899 -4240,3437 -9471,3437 -5231,0 -9471,-1538 -9471,-3437 0,-1899 4240,-3437 9471,-3437z"/><path class="fil3" d="M47068 29620c183,449 892,211 728,-272 -463,-1173 -1069,-2405 -1696,-3502 -90,-155 -272,-231 -445,-183 -241,63 -358,343 -236,553 628,1098 1167,2237 1649,3404zm-34211 5724l0 0c-128,314 162,617 491,510 94,-33 185,-112 224,-208 500,-1152 1081,-2296 1700,-3389 215,-368 -277,-787 -631,-441 -543,640 -1419,2684 -1785,3528zm2955 -5445l0 0c-262,399 315,818 629,449 782,-1054 1427,-2059 2287,-3087 322,-410 -280,-864 -602,-485 -825,992 -1606,2047 -2313,3123zm3869 -4866l0 0c-314,337 121,837 514,570 691,-741 1831,-1786 2859,-2618 390,-318 -77,-905 -491,-592 -1018,818 -1977,1701 -2882,2640zm4787 -4028l0 0c-147,100 -212,278 -152,443 79,234 379,332 584,193 1064,-699 2168,-1304 3343,-1807 428,-168 234,-848 -266,-717 -1207,433 -2440,1187 -3508,1888zm5723 -2657l0 0c-439,108 -358,780 135,750 449,-65 1680,-541 3804,-506 510,0 539,-732 20,-764 -1399,0 -2608,160 -3959,520zm6179 491l0 0c1221,264 2365,719 3438,1348 513,307 867,-362 450,-625 -1092,-660 -2346,-1154 -3594,-1441 -740,-161 -736,611 -295,718zm5817 2124l0 0c-367,-330 -908,219 -518,571 941,810 1796,1785 2523,2783 275,388 905,17 652,-416 -694,-1044 -1702,-2115 -2658,-2938z"/><g><path class="fil4" d="M11699 38394l0 9727c-5159,-3421 -6842,846 -9361,1139l1108 -9819c2562,76 4575,-3529 8253,-1047z"/><path class="fil4" d="M11699 38394l0 9727c5159,-3421 6842,846 9361,1139l-1108 -9819c-2561,76 -4575,-3529 -8253,-1047z"/><path class="fil3" d="M10642 39844c94,63 125,199 68,305 -56,105 -179,139 -273,76 -5,-2 -1627,-1120 -3316,-395 -1789,768 -2647,1086 -2650,1087 -105,36 -217,-30 -249,-147 -33,-117 26,-242 132,-278 2,-1 847,-314 2623,-1076 1875,-806 3660,424 3665,428z"/><path class="fil3" d="M10642 41045c94,63 125,200 68,305 -56,105 -179,139 -273,76 -5,-3 -1627,-1121 -3316,-395 -1789,768 -2647,1086 -2650,1087 -105,36 -217,-30 -249,-147 -33,-117 26,-241 132,-277 2,-1 847,-314 2623,-1077 1875,-805 3660,426 3665,428z"/><path class="fil3" d="M10642 42245c94,63 125,200 68,305 -56,105 -179,140 -273,76 -5,-3 -1658,-1121 -3384,-394 -1818,766 -2696,1085 -2699,1086 -105,36 -217,-30 -249,-147 -33,-117 27,-242 132,-277 2,-1 861,-313 2675,-1077 1907,-803 3725,426 3730,429z"/><path class="fil3" d="M10638 43444c96,61 128,196 74,303 -55,106 -177,143 -272,82 -5,-3 -1685,-1124 -3436,-395 -1846,767 -2732,1085 -2734,1085 -105,35 -217,-30 -250,-147 -32,-118 27,-242 132,-278 3,0 877,-314 2713,-1077 1930,-803 3768,424 3773,427z"/><path class="fil3" d="M7626 44330c109,18 184,132 168,253 -16,121 -118,205 -227,187 -705,-120 -1628,295 -2374,629 -386,174 -729,328 -991,386 -108,24 -214,-54 -235,-175 -21,-120 49,-238 157,-262 228,-51 553,-197 920,-362 791,-355 1771,-795 2581,-657z"/><path class="fil3" d="M13022 40225c-94,63 -217,29 -273,-76 -57,-105 -26,-242 69,-305 5,-3 1790,-1233 3664,-428 1776,762 2621,1075 2623,1076 105,36 164,161 132,278 -33,117 -144,183 -249,147 -3,-1 -862,-319 -2650,-1087 -1690,-725 -3312,392 -3316,395z"/><path class="fil3" d="M13022 41426c-94,63 -217,29 -273,-76 -57,-105 -26,-242 69,-305 5,-3 1789,-1233 3664,-428 1776,763 2621,1076 2623,1077 105,36 164,160 132,277 -33,117 -144,183 -249,147 -3,0 -862,-319 -2650,-1087 -1690,-726 -3312,392 -3316,395z"/><path class="fil3" d="M13022 42626c-94,63 -217,28 -273,-76 -57,-105 -26,-242 69,-305 5,-3 1833,-1231 3750,-429 1825,764 2689,1076 2691,1077 105,36 164,161 132,277 -33,117 -144,183 -249,147 -3,-1 -886,-319 -2715,-1086 -1736,-727 -3400,391 -3404,394z"/><path class="fil3" d="M13019 43828c-95,61 -217,24 -272,-82 -55,-106 -22,-242 73,-303 5,-3 1877,-1207 3837,-383 1870,788 2756,1111 2759,1112 105,36 164,160 131,277 -32,117 -144,183 -249,147 -3,-1 -908,-331 -2783,-1120 -1785,-751 -3493,348 -3498,351z"/><path class="fil3" d="M13226 45106c-100,50 -219,0 -264,-111 -45,-111 0,-243 100,-294 2177,-1097 3830,-246 4130,-91l39 20c100,50 146,182 100,294 -45,111 -164,161 -264,111l-39 -20 0 0 -2 -1c-271,-140 -1786,-923 -3801,92z"/><polygon class="fil5" points="11314,38147 11699,38394 12086,38146 12090,47873 11699,48122 11317,47879 "/></g><g><path class="fil4" d="M48095 32395l0 7844c-4632,-2759 -6143,682 -8404,919l995 -7918c2300,62 4107,-2845 7409,-845z"/><path class="fil4" d="M48095 32395l0 7844c4632,-2759 6143,682 8405,919l-995 -7918c-2300,62 -4107,-2845 -7410,-845z"/><path class="fil3" d="M47147 33565c85,50 112,160 61,245 -51,84 -161,112 -246,61 -4,-2 -1460,-903 -2977,-318 -1606,618 -2377,875 -2379,875 -95,29 -195,-24 -224,-118 -29,-95 24,-195 119,-224 2,-1 761,-253 2355,-868 1684,-649 3286,343 3291,346z"/><path class="fil3" d="M47147 34532c85,50 112,161 61,246 -51,85 -161,113 -246,61 -4,-2 -1460,-903 -2977,-318 -1606,619 -2377,875 -2379,876 -95,29 -195,-24 -224,-118 -29,-95 24,-195 119,-224 2,0 760,-253 2355,-867 1684,-649 3286,342 3291,345z"/><path class="fil3" d="M47147 35500c85,51 112,161 61,246 -51,84 -161,111 -246,61 -4,-3 -1488,-904 -3038,-318 -1633,618 -2421,875 -2423,875 -94,29 -195,-24 -224,-119 -28,-94 24,-195 118,-223 3,-1 774,-252 2402,-869 1712,-648 3344,343 3349,346z"/><path class="fil3" d="M47143 36467c86,49 116,158 66,244 -49,85 -158,115 -244,66 -4,-2 -1513,-907 -3085,-319 -1658,619 -2452,874 -2455,875 -94,28 -195,-24 -224,-118 -28,-94 24,-195 118,-224 2,0 788,-254 2435,-869 1733,-647 3383,342 3388,344z"/><path class="fil3" d="M44439 37181c98,15 165,106 151,205 -15,98 -106,166 -204,151 -632,-96 -1462,238 -2131,508 -347,140 -655,264 -890,311 -97,19 -192,-44 -210,-141 -20,-97 43,-192 140,-211 205,-41 497,-159 827,-291 710,-286 1590,-641 2317,-530z"/><path class="fil3" d="M49283 33872c-85,50 -195,23 -246,-61 -50,-85 -23,-195 62,-245 4,-3 1607,-995 3290,-346 1595,615 2354,867 2356,868 94,28 147,129 118,224 -28,94 -129,147 -223,118 -2,0 -774,-257 -2379,-875 -1517,-585 -2974,316 -2978,318z"/><path class="fil3" d="M49283 34839c-85,51 -195,24 -246,-61 -50,-85 -23,-195 62,-246 4,-3 1607,-994 3290,-345 1595,615 2354,867 2356,867 94,29 147,129 118,224 -28,94 -129,148 -223,118 -2,-1 -774,-257 -2379,-876 -1517,-585 -2974,316 -2978,318z"/><path class="fil3" d="M49283 35808c-85,50 -195,23 -246,-61 -50,-85 -23,-195 62,-246 4,-3 1646,-994 3367,-346 1639,617 2414,868 2416,869 94,28 147,129 119,223 -29,95 -129,148 -224,119 -2,0 -794,-257 -2437,-875 -1559,-586 -3053,315 -3057,318z"/><path class="fil3" d="M49281 36777c-86,49 -195,20 -244,-66 -49,-86 -19,-195 66,-244 4,-2 1685,-973 3445,-308 1679,635 2475,895 2477,896 95,30 147,129 119,224 -29,95 -129,147 -224,119 -2,-1 -815,-267 -2498,-903 -1603,-605 -3136,281 -3140,283z"/><path class="fil3" d="M49467 37807c-91,40 -196,0 -237,-90 -40,-90 0,-196 89,-237 1955,-884 3439,-198 3709,-73l35 15c90,41 130,147 90,237 -41,90 -147,131 -238,90l-35 -16 0 0 -2 0c-243,-113 -1603,-745 -3412,74z"/><polygon class="fil5" points="47750,32196 48095,32395 48443,32195 48447,40038 48095,40239 47753,40043 "/></g></g></g></g></svg>