<?xml version="1.0" ?><!DOCTYPE svg  PUBLIC '-//W3C//DTD SVG 1.1//EN'  'http://www.w3.org/Graphics/SVG/1.1/DTD/svg11.dtd'><svg enable-background="new 0 0 200 200" height="200px" id="Layer_1" version="1.1" viewBox="0 0 200 200" width="200px" xml:space="preserve" xmlns="http://www.w3.org/2000/svg" xmlns:xlink="http://www.w3.org/1999/xlink"><g><circle cx="100" cy="100" fill="#F96232" r="66.219"/><g><path d="M40.878,200c-10.916,0-21.177-4.25-28.895-11.967C4.256,180.308,0,170.04,0,159.122    c0-10.914,4.256-21.181,11.984-28.908l25.719-25.719c7.717-7.718,17.979-11.969,28.893-11.969c6.497,0,12.717,1.485,18.487,4.416    l-3.527,6.947c-4.668-2.37-9.7-3.572-14.96-3.572c-8.834,0-17.139,3.44-23.385,9.687l-25.719,25.719    c-6.256,6.257-9.701,14.565-9.701,23.4c0,8.837,3.445,17.147,9.701,23.401c6.246,6.247,14.552,9.687,23.387,9.687    c8.843,0,17.154-3.439,23.4-9.687l25.719-25.718c6.245-6.26,9.687-14.571,9.687-23.401c0-5.262-1.202-10.293-3.573-14.958    l6.945-3.53c2.932,5.77,4.418,11.989,4.418,18.488c0,10.906-4.249,21.174-11.965,28.906l-25.722,25.723    C62.067,195.75,51.802,200,40.878,200z" fill="#242D3C"/><path d="M133.394,107.474c-6.505,0-12.725-1.492-18.487-4.437l3.546-6.938c4.652,2.38,9.682,3.585,14.943,3.585    c0.003,0,0.004,0,0.007,0c8.835,0,17.146-3.445,23.403-9.702l25.718-25.719c6.246-6.246,9.687-14.551,9.687-23.385    c0-8.845-3.44-17.157-9.687-23.403s-14.556-9.685-23.4-9.685c-8.834,0-17.139,3.438-23.386,9.686l-25.723,25.719    c-6.253,6.255-9.697,14.566-9.697,23.401c-0.001,5.269,1.204,10.299,3.582,14.948l-6.935,3.548    c-2.946-5.759-4.438-11.982-4.437-18.498c0-10.916,4.254-21.182,11.979-28.908l25.722-25.722C137.947,4.25,148.209,0,159.123,0    c10.925,0,21.191,4.25,28.908,11.967C195.75,19.685,200,29.952,200,40.878c0,10.914-4.25,21.175-11.969,28.893L162.314,95.49    c-7.73,7.728-17.996,11.983-28.91,11.983C133.401,107.474,133.396,107.474,133.394,107.474z" fill="#242D3C"/><rect fill="#242D3C" height="108.502" transform="matrix(0.7071 0.7071 -0.7071 0.7071 99.9996 -41.4254)" width="7.789" x="96.11" y="45.747"/></g><path d="M100.093,188.811l-0.006-7.79c2.487-0.004,5.003-0.119,7.476-0.348l0.715,7.757   C105.572,188.68,102.818,188.808,100.093,188.811z M116.396,187.3l-1.428-7.658c2.441-0.457,4.889-1.031,7.276-1.712l2.137,7.492   C121.762,186.168,119.076,186.801,116.396,187.3z M132.155,182.81l-2.821-7.261c2.31-0.899,4.61-1.918,6.835-3.029l3.481,6.969   C137.211,180.707,134.69,181.825,132.155,182.81z M146.81,175.487l-4.114-6.615c2.111-1.313,4.187-2.739,6.168-4.239l4.702,6.211   C151.396,172.487,149.122,174.05,146.81,175.487z M159.866,165.603l-5.253-5.755c1.834-1.672,3.612-3.454,5.289-5.292l5.758,5.246   C163.825,161.816,161.874,163.769,159.866,165.603z M170.898,153.495l-6.217-4.695c1.502-1.989,2.926-4.064,4.231-6.172   l6.622,4.105C174.104,149.041,172.543,151.317,170.898,153.495z M179.53,139.568l-6.975-3.471c1.113-2.235,2.13-4.539,3.023-6.844   l7.264,2.813C181.864,134.596,180.749,137.118,179.53,139.568z M185.448,124.287l-7.496-2.122c0.678-2.394,1.251-4.844,1.704-7.282   l7.66,1.422C186.818,118.979,186.19,121.664,185.448,124.287z M188.437,108.188l-7.757-0.715c0.227-2.459,0.341-4.973,0.341-7.473   v-0.357h7.79V100C188.811,102.737,188.685,105.491,188.437,108.188z M18.98,100.18h-7.791V100c0-2.667,0.119-5.357,0.356-7.999   l7.76,0.694c-0.216,2.412-0.326,4.869-0.326,7.305V100.18z M20.313,85.285l-7.663-1.406c0.493-2.682,1.115-5.37,1.853-7.988   l7.499,2.111C21.329,80.389,20.762,82.838,20.313,85.285z M24.36,70.906l-7.27-2.798c0.977-2.542,2.087-5.07,3.298-7.51   l6.978,3.461C26.264,66.284,25.252,68.587,24.36,70.906z M30.997,57.52l-6.629-4.091c1.429-2.314,2.984-4.594,4.624-6.772   l6.223,4.683C33.721,53.328,32.3,55.408,30.997,57.52z M39.983,45.572l-5.767-5.236c1.828-2.015,3.773-3.97,5.78-5.811l5.266,5.741   C43.43,41.948,41.654,43.734,39.983,45.572z M51.003,35.471l-4.717-6.201c2.167-1.649,4.437-3.215,6.749-4.657l4.125,6.608   C55.052,32.537,52.981,33.966,51.003,35.471z M63.68,27.559l-3.5-6.961c2.435-1.223,4.954-2.346,7.489-3.336l2.839,7.255   C68.196,25.419,65.899,26.443,63.68,27.559z M77.59,22.119l-2.151-7.488c2.619-0.753,5.304-1.389,7.98-1.895l1.444,7.655   C82.423,20.852,79.976,21.433,77.59,22.119z M92.271,19.344l-0.735-7.755c2.699-0.256,5.452-0.391,8.185-0.399l0.024,7.791   C97.249,18.987,94.735,19.109,92.271,19.344z" fill="#242D3C"/></g></svg>