<?xml version="1.0" ?><!DOCTYPE svg  PUBLIC '-//W3C//DTD SVG 1.1//EN'  'http://www.w3.org/Graphics/SVG/1.1/DTD/svg11.dtd'><svg enable-background="new 0 0 200 200" height="200px" id="Layer_1" version="1.1" viewBox="0 0 200 200" width="200px" xml:space="preserve" xmlns="http://www.w3.org/2000/svg" xmlns:xlink="http://www.w3.org/1999/xlink"><g><polygon fill="#F96232" points="72.294,84.331 72.294,28.618 0,28.618 0,119.937 19.024,119.937 19.024,145.811 44.898,119.937    152.196,119.937 152.196,84.331  "/><g><g><rect fill="#242D3C" height="7.609" width="66.021" x="101.303" y="26.17"/><rect fill="#242D3C" height="7.61" width="66.021" x="101.303" y="40.955"/><rect fill="#242D3C" height="7.609" width="33.012" x="101.303" y="55.738"/></g><path d="M200,87.997H68.626V1.521H200V87.997z M75.96,80.664h116.708V8.856H75.96V80.664z" fill="#242D3C"/></g><g><rect fill="#43D3E8" height="56.316" width="117.189" x="59.357" y="142.163"/><g><g><rect fill="#FFFFFF" height="7.61" width="7.61" x="76.099" y="151.297"/><rect fill="#FFFFFF" height="7.61" width="7.609" x="91.318" y="151.297"/><rect fill="#FFFFFF" height="7.61" width="7.609" x="106.536" y="151.297"/><rect fill="#FFFFFF" height="7.61" width="7.609" x="121.759" y="151.297"/><rect fill="#FFFFFF" height="7.61" width="7.609" x="136.978" y="151.297"/><rect fill="#FFFFFF" height="7.61" width="7.609" x="152.196" y="151.297"/></g><g><rect fill="#FFFFFF" height="7.609" width="7.61" x="76.099" y="181.735"/><rect fill="#FFFFFF" height="7.609" width="7.609" x="152.196" y="181.735"/><rect fill="#FFFFFF" height="7.609" width="53.269" x="91.318" y="181.735"/></g><g><rect fill="#FFFFFF" height="7.609" width="7.609" x="68.489" y="166.517"/><rect fill="#FFFFFF" height="7.609" width="7.609" x="83.708" y="166.517"/><rect fill="#FFFFFF" height="7.609" width="7.609" x="98.927" y="166.517"/><rect fill="#FFFFFF" height="7.609" width="7.613" x="114.146" y="166.517"/><rect fill="#FFFFFF" height="7.609" width="7.609" x="129.368" y="166.517"/><rect fill="#FFFFFF" height="7.609" width="7.609" x="144.587" y="166.517"/><rect fill="#FFFFFF" height="7.609" width="7.609" x="159.806" y="166.517"/></g></g></g><g><rect fill="#242D3C" height="7.609" width="24.292" x="169.641" y="112.163"/><rect fill="#242D3C" height="7.609" width="53.15" x="140.782" y="126.944"/></g></g></svg>