<?xml version="1.0" ?><!DOCTYPE svg  PUBLIC '-//W3C//DTD SVG 1.1//EN'  'http://www.w3.org/Graphics/SVG/1.1/DTD/svg11.dtd'><svg enable-background="new 0 0 256 256" height="256px" id="Layer_1" version="1.1" viewBox="0 0 256 256" width="256px" xml:space="preserve" xmlns="http://www.w3.org/2000/svg" xmlns:xlink="http://www.w3.org/1999/xlink"><g><g><path d="M56.011,2h107.273c3.313,0,6.002,2.686,6.002,6.001V70.01c-4.079,0.518-8.104,1.455-12.003,2.807V14.002     H62.012v42.009c0,3.315-2.687,6.001-6.001,6.001H14.003v148.5h143.28v-25.521c1.337,0.463,2.696,0.881,4.073,1.25     c2.62,0.701,5.269,1.22,7.93,1.554v28.719c0,3.313-2.688,6.001-6.002,6.001H8.002c-3.315,0-6.002-2.688-6.002-6.001V56.011     c0-1.684,0.694-3.204,1.81-4.294L51.718,3.809c0.195-0.199,0.403-0.385,0.625-0.557h0.001c0.118-0.092,0.24-0.18,0.365-0.262     l0.003-0.002c0.124-0.082,0.25-0.158,0.378-0.23l0.003-0.002C53.957,2.275,54.951,2,56.011,2L56.011,2z M50.01,22.488     L22.489,50.01H50.01V22.488L50.01,22.488z" fill="#3B4552"/><path clip-rule="evenodd" d="M110.33,86.873c-2.21,0-4.001-1.792-4.001-4.001     s1.791-4.001,4.001-4.001h26.711c1.765,0,3.263,1.141,3.794,2.727c-2.146,1.625-4.171,3.388-6.063,5.275H110.33L110.33,86.873z      M105.382,150.927c1.563-1.563,4.096-1.563,5.657,0c1.563,1.563,1.563,4.095,0,5.657l-5.172,5.173l5.172,5.173     c1.563,1.563,1.563,4.095,0,5.657c-1.561,1.563-4.095,1.563-5.657,0l-5.172-5.173l-5.173,5.173c-1.562,1.563-4.096,1.563-5.657,0     c-1.562-1.563-1.562-4.094,0-5.657l5.173-5.173l-5.173-5.173c-1.562-1.563-1.562-4.095,0-5.657c1.562-1.563,4.096-1.563,5.657,0     l5.173,5.173L105.382,150.927L105.382,150.927z M77.32,165.758c-2.209,0-4-1.791-4-4.001c0-2.209,1.792-4.001,4-4.001h3.571     c0.508,1.44,1.299,2.802,2.374,4.001c-1.074,1.197-1.866,2.562-2.374,4.001H77.32L77.32,165.758z M119.529,157.756h5.33     l0.068,0.125c0.123,0.238,0.252,0.471,0.385,0.703c1.458,2.524,3.086,4.919,4.869,7.174h-10.651     c-0.508-1.439-1.299-2.802-2.374-4.001C118.23,160.558,119.021,159.196,119.529,157.756L119.529,157.756z M108.707,139.461     c-2.209,0-4.001-1.789-4.001-3.998c0-2.21,1.792-4.001,4.001-4.001h8.712c0.118,2.684,0.419,5.358,0.897,7.999H108.707     L108.707,139.461z M34.244,192.053c-2.209,0-4.001-1.792-4.001-4.001c0-2.21,1.792-4.001,4.001-4.001h65.566     c2.209,0,4.001,1.791,4.001,4.001c0,2.209-1.792,4.001-4.001,4.001H34.244L34.244,192.053z M34.244,139.461     c-2.209,0-4.001-1.789-4.001-3.998c0-2.21,1.792-4.001,4.001-4.001h51.397c2.209,0,4.001,1.791,4.001,4.001     c0,2.209-1.792,3.998-4.001,3.998H34.244L34.244,139.461z M34.244,165.758c-2.209,0-4.001-1.791-4.001-4.001     c0-2.209,1.792-4.001,4.001-4.001h20.012c2.209,0,4.001,1.792,4.001,4.001c0,2.21-1.792,4.001-4.001,4.001H34.244L34.244,165.758     z M122.874,192.053c-2.209,0-4.001-1.792-4.001-4.001c0-2.21,1.792-4.001,4.001-4.001h14.167c2.209,0,4.001,1.791,4.001,4.001     c0,2.209-1.792,4.001-4.001,4.001H122.874L122.874,192.053z M55.212,91.769c4.804,0,9.152,1.95,12.301,5.097     c3.148,3.149,5.096,7.498,5.096,12.301s-1.948,9.152-5.096,12.301c-3.149,3.149-7.498,5.097-12.301,5.097     c-4.803,0-9.153-1.947-12.302-5.097c-2.246-2.247-3.88-5.103-4.633-8.3h-4.033c-2.209,0-4.001-1.792-4.001-4.001     s1.792-4.001,4.001-4.001h4.033c0.753-3.198,2.388-6.054,4.633-8.3C46.059,93.718,50.409,91.769,55.212,91.769L55.212,91.769z      M61.856,102.522c-1.7-1.699-4.049-2.75-6.644-2.75c-2.595,0-4.945,1.051-6.644,2.75c-1.7,1.7-2.751,4.05-2.751,6.644     s1.051,4.944,2.751,6.644c1.699,1.7,4.049,2.752,6.644,2.752c2.595,0,4.944-1.053,6.644-2.752s2.751-4.05,2.751-6.644     S63.556,104.222,61.856,102.522L61.856,102.522z M34.244,86.873c-2.209,0-4.001-1.792-4.001-4.001s1.792-4.001,4.001-4.001     h53.021c2.209,0,4.001,1.792,4.001,4.001s-1.792,4.001-4.001,4.001H34.244L34.244,86.873z M86.866,113.167     c-2.21,0-4.001-1.792-4.001-4.001s1.791-4.001,4.001-4.001h35.428c-1.124,2.579-2.067,5.251-2.823,8.002H86.866L86.866,113.167z" fill="#3B4552" fill-rule="evenodd"/><path clip-rule="evenodd" d="M189.806,125.188c0.076,0.559,0.115,1.127,0.115,1.708     c0,7.096-5.911,12.849-13.202,12.849c-7.292,0-13.204-5.753-13.204-12.849c0-0.581,0.041-1.149,0.117-1.708     c-3.701,2.331-7.054,5.618-9.9,9.644c-1.268,1.804-3.758,2.237-5.563,0.97c-1.803-1.271-2.236-3.761-0.968-5.564     c3.722-5.264,8.229-9.532,13.283-12.472c4.981-2.897,10.467-4.501,16.235-4.501c5.768,0,11.254,1.604,16.235,4.501     c5.053,2.94,9.562,7.208,13.282,12.472c1.27,1.804,0.836,4.294-0.969,5.564c-1.803,1.268-4.294,0.834-5.563-0.97     C196.859,130.806,193.507,127.518,189.806,125.188L189.806,125.188z M217.927,105.574c6.371,11.248,7.646,24.002,4.546,35.575     c-3.136,11.707-10.74,22.217-22.066,28.756c-11.335,6.546-24.242,7.878-35.943,4.743c-11.696-3.134-22.206-10.744-28.756-22.091     l-0.008-0.014c-6.535-11.326-7.866-24.219-4.735-35.905c3.137-11.706,10.74-22.217,22.066-28.756     c0.122-0.07,0.246-0.137,0.371-0.197c11.247-6.371,24-7.646,35.572-4.546c11.707,3.137,22.217,10.741,28.757,22.067     C217.801,105.328,217.866,105.451,217.927,105.574L217.927,105.574z M203.666,199.47c-3.288-5.722-1.314-13.026,4.408-16.315     c5.723-3.288,13.026-1.315,16.315,4.407l28.02,48.531c3.289,5.722,1.314,13.028-4.408,16.315     c-5.722,3.29-13.027,1.315-16.315-4.407L203.666,199.47L203.666,199.47z M205.406,171.341c1.907-1.104,4.349-0.453,5.454,1.453     c1.104,1.909,0.453,4.351-1.453,5.455l-7.085,4.092c-1.908,1.104-4.351,0.454-5.455-1.453c-1.105-1.908-0.455-4.351,1.454-5.454     L205.406,171.341L205.406,171.341z M210.892,138.055c2.321-8.658,1.382-18.183-3.352-26.569c-0.059-0.09-0.115-0.182-0.171-0.277     c-4.886-8.463-12.74-14.144-21.49-16.488c-8.605-2.305-18.066-1.393-26.413,3.266c-0.248,0.172-0.509,0.326-0.782,0.461     c-8.269,4.899-13.826,12.657-16.14,21.286c-2.305,8.607-1.393,18.067,3.267,26.413c0.197,0.283,0.371,0.584,0.518,0.9     c4.892,8.199,12.624,13.716,21.229,16.021c8.754,2.347,18.396,1.358,26.849-3.523     C202.867,154.658,208.549,146.805,210.892,138.055L210.892,138.055z" fill="#2B78C2" fill-rule="evenodd"/></g></g></svg>