<?xml version="1.0" ?><!DOCTYPE svg  PUBLIC '-//W3C//DTD SVG 1.1//EN'  'http://www.w3.org/Graphics/SVG/1.1/DTD/svg11.dtd'><svg enable-background="new 0 0 200 200" height="200px" id="Layer_1" version="1.1" viewBox="0 0 200 200" width="200px" xml:space="preserve" xmlns="http://www.w3.org/2000/svg" xmlns:xlink="http://www.w3.org/1999/xlink"><g><g><path d="M153.439,45.852H43.36V17.734h110.079V45.852z M49.761,39.452h97.278V24.135H49.761V39.452z" fill="#242D3C"/><g><rect fill="#242D3C" height="6.4" width="6.403" x="56.062" y="28.594"/><rect fill="#242D3C" height="6.4" width="6.401" x="68.866" y="28.594"/><rect fill="#242D3C" height="6.4" width="6.405" x="81.664" y="28.594"/></g><path d="M132.138,182.266l-26.412-26.411H43.36V39.452h110.079v116.403h-21.302V182.266z M49.761,149.454h58.616    l17.36,17.361v-17.361h21.302V45.852H49.761V149.454z" fill="#242D3C"/><rect fill="#43D3E8" height="91.005" width="84.675" x="56.062" y="52.151"/><g><rect fill="#242D3C" height="6.4" width="61.075" x="67.862" y="65.262"/><rect fill="#242D3C" height="6.4" width="61.075" x="67.862" y="79.857"/></g><g><rect fill="#242D3C" height="6.4" width="61.075" x="67.862" y="109.811"/><rect fill="#242D3C" height="6.4" width="30.538" x="67.862" y="124.403"/></g></g><g><rect fill="#242D3C" height="6.401" width="163.289" y="95.213"/><rect fill="#242D3C" height="18.279" width="6.4" x="5.939" y="80.134"/><rect fill="#242D3C" height="18.279" width="6.4" x="30.311" y="80.134"/><rect fill="#242D3C" height="10.662" width="6.4" x="18.125" y="87.752"/><path d="M180.046,118.368c-11.005,0-19.957-8.951-19.957-19.955c0-11.003,8.952-19.955,19.957-19.955    c11.003,0,19.954,8.952,19.954,19.955C200,109.417,191.049,118.368,180.046,118.368z M180.046,84.859    c-7.476,0-13.558,6.08-13.558,13.554s6.082,13.554,13.558,13.554c7.474,0,13.554-6.08,13.554-13.554S187.52,84.859,180.046,84.859    z" fill="#242D3C"/></g></g></svg>