<?xml version="1.0" ?><!DOCTYPE svg  PUBLIC '-//W3C//DTD SVG 1.1//EN'  'http://www.w3.org/Graphics/SVG/1.1/DTD/svg11.dtd'><svg enable-background="new 0 0 200 200" height="200px" id="Layer_1" version="1.1" viewBox="0 0 200 200" width="200px" xml:space="preserve" xmlns="http://www.w3.org/2000/svg" xmlns:xlink="http://www.w3.org/1999/xlink"><g><g><path d="M183.667,171.251H16.333V70.69c0-2.332,0.912-4.515,2.565-6.147c1.605-1.623,3.792-2.532,6.129-2.532    h27.787v6.666H25.026c-0.313,0-0.915,0.075-1.415,0.581C23.075,69.789,23,70.381,23,70.69v93.893h154V70.69    c0-0.312-0.076-0.909-0.582-1.415c-0.387-0.386-0.898-0.598-1.443-0.598h-27.789v-6.666h27.789c2.324,0,4.51,0.904,6.154,2.547    c1.637,1.635,2.538,3.811,2.538,6.132V171.251z" fill="#242D3C"/><rect fill="#242D3C" height="6.666" width="38.96" x="80.52" y="62.011"/><rect fill="#43D3E8" height="89.692" width="134.893" x="32.556" y="78.227"/><path d="M189.518,185.55H10.482c-2.788,0-5.419-1.086-7.406-3.059C1.091,180.509,0,177.875,0,175.067v-10.481h200    v10.481c0,2.805-1.09,5.438-3.069,7.415C194.942,184.462,192.312,185.55,189.518,185.55z M6.667,171.252v3.815    c0,1.024,0.395,1.982,1.111,2.698c0.725,0.719,1.686,1.117,2.705,1.117h179.035c1.02,0,1.98-0.398,2.707-1.12    c0.713-0.713,1.108-1.671,1.108-2.695v-3.815H6.667z" fill="#242D3C"/></g><g><path d="M130.002,123.073c0,16.563-13.456,29.999-29.999,29.999c-16.562,0-29.999-13.437-29.999-29.999    c0-16.56,13.438-30,29.999-30C116.546,93.073,130.002,106.514,130.002,123.073z" fill="#FFFFFF"/><path d="M100.003,139.739c-9.191,0-16.666-7.477-16.666-16.666c0-9.19,7.475-16.667,16.666-16.667    c9.189,0,16.666,7.477,16.666,16.667C116.669,132.263,109.192,139.739,100.003,139.739z M100.003,113.072    c-5.515,0-10,4.486-10,10.001c0,5.514,4.485,10,10,10c5.514,0,9.999-4.486,9.999-10    C110.002,117.559,105.517,113.072,100.003,113.072z" fill="#242D3C"/><path d="M46.911,47.784c-9.191,0-16.666-7.477-16.666-16.667c0-9.189,7.475-16.666,16.666-16.666    c9.191,0,16.666,7.477,16.666,16.666C63.577,40.308,56.102,47.784,46.911,47.784z M46.911,21.117c-5.514,0-10,4.486-10,10    c0,5.515,4.486,10,10,10c5.513,0,10-4.484,10-10C56.911,25.603,52.424,21.117,46.911,21.117z" fill="#242D3C"/><path d="M153.092,47.784c-9.189,0-16.666-7.477-16.666-16.667c0-9.189,7.477-16.666,16.666-16.666    c9.19,0,16.667,7.477,16.667,16.666C169.759,40.308,162.282,47.784,153.092,47.784z M153.092,21.117c-5.514,0-10,4.486-10,10    c0,5.515,4.486,10,10,10c5.515,0,10.001-4.484,10.001-10C163.093,25.603,158.606,21.117,153.092,21.117z" fill="#242D3C"/><circle cx="153.092" cy="31.117" fill="#242D3C" r="3.334"/><g><g><path d="M121.155,93.104l-5.774-3.333l3.313-5.738l5.772,3.333L121.155,93.104z M127.778,81.63l-5.772-3.333      l3.311-5.735l5.773,3.335L127.778,81.63z M134.401,70.158l-5.774-3.333l3.313-5.733l5.772,3.333L134.401,70.158z       M141.024,58.687l-5.772-3.333l3.311-5.733l5.773,3.333L141.024,58.687z" fill="#242D3C"/></g><g><path d="M78.845,93.104l-3.31-5.738l5.772-3.333l3.311,5.738L78.845,93.104z M72.223,81.633l-3.313-5.736      l5.774-3.335l3.311,5.738L72.223,81.633z M65.599,70.161l-3.311-5.736l5.774-3.333l3.311,5.736L65.599,70.161z M58.977,58.69      l-3.313-5.737l5.774-3.333l3.311,5.736L58.977,58.69z" fill="#242D3C"/></g></g><circle cx="46.911" cy="31.117" fill="#242D3C" r="3.333"/><circle cx="100.003" cy="123.073" fill="#242D3C" r="3.333"/></g></g></svg>