<?xml version="1.0" encoding="UTF-8" standalone="no"?>
<!-- Created with Inkscape (http://www.inkscape.org/) -->

<svg
   xmlns:dc="http://purl.org/dc/elements/1.1/"
   xmlns:cc="http://creativecommons.org/ns#"
   xmlns:rdf="http://www.w3.org/1999/02/22-rdf-syntax-ns#"
   xmlns:svg="http://www.w3.org/2000/svg"
   xmlns="http://www.w3.org/2000/svg"
   xmlns:sodipodi="http://sodipodi.sourceforge.net/DTD/sodipodi-0.dtd"
   xmlns:inkscape="http://www.inkscape.org/namespaces/inkscape"
   id="svg2"
   version="1.1"
   inkscape:version="0.91 r13725"
   xml:space="preserve"
   width="442.5"
   height="122.5"
   viewBox="0 0 442.5 122.5"
   sodipodi:docname="knowledge-unlatched.svg"><metadata
     id="metadata8"><rdf:RDF><cc:Work
         rdf:about=""><dc:format>image/svg+xml</dc:format><dc:type
           rdf:resource="http://purl.org/dc/dcmitype/StillImage" /><dc:title></dc:title></cc:Work></rdf:RDF></metadata><defs
     id="defs6"><clipPath
       clipPathUnits="userSpaceOnUse"
       id="clipPath20"><path
         d="M 0,98 354,98 354,0 0,0 0,98 Z"
         id="path22"
         inkscape:connector-curvature="0" /></clipPath></defs><sodipodi:namedview
     pagecolor="#ffffff"
     bordercolor="#666666"
     borderopacity="1"
     objecttolerance="10"
     gridtolerance="10"
     guidetolerance="10"
     inkscape:pageopacity="0"
     inkscape:pageshadow="2"
     inkscape:window-width="1282"
     inkscape:window-height="677"
     id="namedview4"
     showgrid="false"
     inkscape:zoom="0.94237288"
     inkscape:cx="221.25"
     inkscape:cy="18.803957"
     inkscape:window-x="65"
     inkscape:window-y="24"
     inkscape:window-maximized="0"
     inkscape:current-layer="g10" /><g
     id="g10"
     inkscape:groupmode="layer"
     inkscape:label="Copy of ku_stacked_CMYK"
     transform="matrix(1.25,0,0,-1.25,0,122.5)"><g
       id="g12"
       transform="translate(143.2256,88.0693)"
       style="fill:#39a935;fill-opacity:1"><path
         d="m 0,0 5.319,0 0,-13.831 L 18.852,0 l 6.553,0 -12.128,-12.128 12.98,-18.257 -6.639,0 -9.958,14.512 -4.341,-4.299 0,-10.213 -5.319,0 L 0,0 Z"
         style="fill:#39a935;fill-opacity:1;fill-rule:nonzero;stroke:none"
         id="path14"
         inkscape:connector-curvature="0" /></g><g
       id="g24"
       transform="translate(171.3555,79.6855)"
       style="fill:#39a935;fill-opacity:1"><path
         d="m 0,0 4.596,0 0,-3.234 0.085,-0.085 c 0.737,1.219 1.702,2.177 2.893,2.873 1.192,0.694 2.511,1.042 3.958,1.042 2.411,0 4.313,-0.624 5.702,-1.872 1.39,-1.249 2.086,-3.121 2.086,-5.618 l 0,-15.107 -4.851,0 0,13.831 c -0.058,1.73 -0.426,2.985 -1.107,3.766 -0.68,0.78 -1.745,1.17 -3.191,1.17 -0.823,0 -1.562,-0.149 -2.213,-0.447 C 7.305,-3.979 6.751,-4.391 6.298,-4.915 5.844,-5.44 5.489,-6.058 5.234,-6.766 4.979,-7.476 4.851,-8.228 4.851,-9.021 l 0,-12.98 -4.851,0 L 0,0 Z"
         style="fill:#39a935;fill-opacity:1;fill-rule:nonzero;stroke:none"
         id="path26"
         inkscape:connector-curvature="0" /></g><g
       id="g28"
       transform="translate(205.0107,60.9189)"
       style="fill:#39a935;fill-opacity:1"><path
         d="m 0,0 c 1.078,0 2.015,0.227 2.809,0.681 0.794,0.453 1.447,1.049 1.958,1.787 0.51,0.737 0.886,1.567 1.128,2.49 0.24,0.921 0.361,1.864 0.361,2.829 0,0.937 -0.121,1.873 -0.361,2.81 -0.242,0.935 -0.618,1.765 -1.128,2.489 -0.511,0.724 -1.164,1.311 -1.958,1.766 -0.794,0.454 -1.731,0.68 -2.809,0.68 -1.078,0 -2.015,-0.226 -2.809,-0.68 -0.794,-0.455 -1.446,-1.042 -1.957,-1.766 -0.51,-0.724 -0.887,-1.554 -1.128,-2.489 -0.241,-0.937 -0.361,-1.873 -0.361,-2.81 0,-0.965 0.12,-1.908 0.361,-2.829 0.241,-0.923 0.618,-1.753 1.128,-2.49 C -4.255,1.73 -3.603,1.134 -2.809,0.681 -2.015,0.227 -1.078,0 0,0 m 0,-3.83 c -1.759,0 -3.326,0.291 -4.702,0.872 -1.376,0.581 -2.539,1.384 -3.489,2.404 -0.952,1.022 -1.675,2.242 -2.171,3.66 -0.496,1.418 -0.744,2.979 -0.744,4.681 0,1.674 0.248,3.22 0.744,4.639 0.496,1.419 1.219,2.638 2.171,3.66 0.95,1.021 2.113,1.822 3.489,2.404 1.376,0.581 2.943,0.872 4.702,0.872 1.759,0 3.326,-0.291 4.703,-0.872 1.375,-0.582 2.538,-1.383 3.489,-2.404 0.951,-1.022 1.674,-2.241 2.17,-3.66 0.496,-1.419 0.745,-2.965 0.745,-4.639 0,-1.702 -0.249,-3.263 -0.745,-4.681 C 9.866,1.688 9.143,0.468 8.192,-0.554 7.241,-1.574 6.078,-2.377 4.703,-2.958 3.326,-3.539 1.759,-3.83 0,-3.83"
         style="fill:#39a935;fill-opacity:1;fill-rule:nonzero;stroke:none"
         id="path30"
         inkscape:connector-curvature="0" /></g><g
       id="g32"
       transform="translate(216.6201,79.6855)"
       style="fill:#39a935;fill-opacity:1"><path
         d="m 0,0 5.148,0 4.299,-16.426 0.085,0 L 13.66,0 l 4.894,0 3.958,-16.426 0.085,0 4.467,16.426 4.937,0 -6.894,-22.001 -4.979,0 -4.085,16.342 -0.085,0 -4.043,-16.342 -5.106,0 L 0,0 Z"
         style="fill:#39a935;fill-opacity:1;fill-rule:nonzero;stroke:none"
         id="path34"
         inkscape:connector-curvature="0" /></g><path
       d="m 250.958,88.069 4.852,0 0,-30.385 -4.852,0 0,30.385 z"
       style="fill:#39a935;fill-opacity:1;fill-rule:nonzero;stroke:none"
       id="path36"
       inkscape:connector-curvature="0" /><g
       id="g38"
       transform="translate(275.3809,70.6211)"
       style="fill:#39a935;fill-opacity:1"><path
         d="M 0,0 C -0.057,0.767 -0.22,1.504 -0.489,2.213 -0.759,2.922 -1.127,3.539 -1.596,4.064 -2.063,4.589 -2.632,5.015 -3.298,5.341 -3.965,5.667 -4.709,5.83 -5.532,5.83 -6.383,5.83 -7.156,5.682 -7.851,5.384 -8.547,5.086 -9.143,4.674 -9.639,4.149 -10.135,3.624 -10.532,3.007 -10.83,2.299 -11.128,1.589 -11.291,0.823 -11.319,0 L 0,0 Z m -11.319,-3.191 c 0,-0.851 0.12,-1.674 0.361,-2.468 0.241,-0.795 0.603,-1.49 1.086,-2.086 0.481,-0.596 1.092,-1.071 1.829,-1.425 0.738,-0.355 1.617,-0.532 2.639,-0.532 1.419,0 2.56,0.305 3.425,0.915 0.866,0.609 1.511,1.524 1.937,2.744 l 4.596,0 C 4.299,-7.234 3.858,-8.298 3.234,-9.234 2.61,-10.17 1.858,-10.958 0.979,-11.596 c -0.879,-0.638 -1.866,-1.121 -2.958,-1.447 -1.092,-0.326 -2.234,-0.489 -3.425,-0.489 -1.731,0 -3.263,0.284 -4.596,0.85 -1.334,0.568 -2.462,1.363 -3.384,2.384 -0.922,1.022 -1.616,2.24 -2.085,3.659 -0.468,1.419 -0.702,2.98 -0.702,4.682 0,1.56 0.248,3.043 0.745,4.447 0.496,1.405 1.205,2.638 2.128,3.702 0.921,1.064 2.035,1.908 3.34,2.533 1.305,0.623 2.78,0.935 4.426,0.935 1.73,0 3.284,-0.361 4.66,-1.085 C 0.504,7.852 1.646,6.895 2.554,5.703 3.461,4.512 4.121,3.143 4.532,1.597 4.943,0.05 5.05,-1.546 4.852,-3.191 l -16.171,0 z"
         style="fill:#39a935;fill-opacity:1;fill-rule:nonzero;stroke:none"
         id="path40"
         inkscape:connector-curvature="0" /></g><g
       id="g42"
       transform="translate(287.1816,68.4512)"
       style="fill:#39a935;fill-opacity:1"><path
         d="m 0,0 c 0,-0.937 0.12,-1.858 0.361,-2.767 0.242,-0.908 0.611,-1.716 1.107,-2.424 0.496,-0.71 1.128,-1.278 1.894,-1.703 0.766,-0.425 1.673,-0.638 2.723,-0.638 1.078,0 2.007,0.226 2.788,0.68 0.779,0.454 1.418,1.05 1.915,1.788 0.496,0.737 0.865,1.567 1.107,2.49 0.24,0.921 0.361,1.864 0.361,2.829 0,2.44 -0.547,4.341 -1.639,5.703 C 9.525,7.319 8.043,8 6.171,8 5.035,8 4.078,7.767 3.298,7.298 2.518,6.83 1.879,6.22 1.383,5.469 0.887,4.717 0.532,3.865 0.319,2.915 0.106,1.964 0,0.993 0,0 m 16.938,-10.767 -4.597,0 0,2.979 -0.085,0 c -0.652,-1.276 -1.603,-2.191 -2.852,-2.744 -1.248,-0.554 -2.567,-0.83 -3.957,-0.83 -1.731,0 -3.242,0.304 -4.532,0.915 -1.291,0.609 -2.362,1.439 -3.213,2.489 -0.851,1.05 -1.489,2.291 -1.915,3.724 -0.426,1.432 -0.639,2.971 -0.639,4.617 0,1.985 0.27,3.702 0.809,5.149 0.539,1.447 1.256,2.639 2.149,3.574 0.894,0.937 1.915,1.624 3.064,2.065 1.149,0.439 2.319,0.659 3.511,0.659 0.681,0 1.376,-0.063 2.086,-0.191 0.709,-0.127 1.389,-0.334 2.042,-0.618 0.652,-0.283 1.255,-0.645 1.808,-1.084 0.554,-0.441 1.015,-0.958 1.384,-1.553 l 0.085,0 0,11.234 4.852,0 0,-30.385 z"
         style="fill:#39a935;fill-opacity:1;fill-rule:nonzero;stroke:none"
         id="path44"
         inkscape:connector-curvature="0" /></g><g
       id="g46"
       transform="translate(318.1396,61.5146)"
       style="fill:#39a935;fill-opacity:1"><path
         d="m 0,0 c 1.078,0 1.993,0.22 2.745,0.659 0.752,0.44 1.362,1.022 1.83,1.745 0.468,0.724 0.809,1.546 1.022,2.469 0.213,0.921 0.319,1.851 0.319,2.787 0,0.936 -0.114,1.844 -0.341,2.724 -0.227,0.879 -0.574,1.659 -1.043,2.34 C 4.064,13.405 3.454,13.943 2.703,14.341 1.951,14.738 1.05,14.937 0,14.937 -1.078,14.937 -1.985,14.71 -2.723,14.256 -3.461,13.802 -4.057,13.214 -4.511,12.49 -4.965,11.767 -5.291,10.943 -5.489,10.021 -5.688,9.1 -5.787,8.185 -5.787,7.277 c 0,-0.908 0.113,-1.795 0.341,-2.66 C -5.22,3.752 -4.872,2.979 -4.404,2.298 -3.936,1.617 -3.34,1.063 -2.617,0.639 -1.894,0.213 -1.021,0 0,0 m 10.767,-2.681 c 0,-3.319 -0.929,-5.795 -2.788,-7.426 -1.858,-1.631 -4.532,-2.447 -8.021,-2.447 -1.106,0 -2.221,0.114 -3.341,0.34 -1.121,0.228 -2.142,0.61 -3.063,1.15 -0.923,0.539 -1.697,1.249 -2.32,2.127 -0.625,0.88 -0.994,1.958 -1.106,3.235 l 4.851,0 c 0.141,-0.682 0.383,-1.235 0.723,-1.66 0.341,-0.426 0.745,-0.759 1.213,-1 0.468,-0.241 0.985,-0.397 1.554,-0.468 0.566,-0.07 1.163,-0.107 1.787,-0.107 1.957,0 3.39,0.483 4.298,1.447 0.908,0.965 1.362,2.355 1.362,4.171 l 0,3.362 -0.085,0 C 5.149,-1.178 4.22,-2.128 3.043,-2.809 1.865,-3.489 0.597,-3.83 -0.766,-3.83 c -1.759,0 -3.255,0.305 -4.489,0.915 -1.234,0.609 -2.256,1.447 -3.064,2.511 -0.809,1.063 -1.398,2.291 -1.766,3.68 -0.369,1.39 -0.554,2.88 -0.554,4.469 0,1.475 0.227,2.879 0.681,4.213 0.454,1.333 1.106,2.504 1.958,3.511 0.852,1.007 1.894,1.808 3.128,2.404 1.234,0.596 2.631,0.894 4.191,0.894 1.39,0 2.667,-0.291 3.83,-0.872 1.164,-0.582 2.057,-1.498 2.682,-2.746 l 0.085,0 0,3.022 4.851,0 0,-20.852 z"
         style="fill:#39a935;fill-opacity:1;fill-rule:nonzero;stroke:none"
         id="path48"
         inkscape:connector-curvature="0" /></g><g
       id="g50"
       transform="translate(348.2773,70.6211)"
       style="fill:#39a935;fill-opacity:1"><path
         d="M 0,0 C -0.057,0.767 -0.22,1.504 -0.489,2.213 -0.759,2.922 -1.127,3.539 -1.596,4.064 -2.063,4.589 -2.632,5.015 -3.298,5.341 -3.965,5.667 -4.709,5.83 -5.532,5.83 -6.383,5.83 -7.156,5.682 -7.851,5.384 -8.547,5.086 -9.143,4.674 -9.639,4.149 -10.135,3.624 -10.532,3.007 -10.83,2.299 -11.128,1.589 -11.291,0.823 -11.319,0 L 0,0 Z m -11.319,-3.191 c 0,-0.851 0.12,-1.674 0.361,-2.468 0.241,-0.795 0.603,-1.49 1.086,-2.086 0.481,-0.596 1.092,-1.071 1.829,-1.425 0.738,-0.355 1.617,-0.532 2.639,-0.532 1.419,0 2.56,0.305 3.425,0.915 0.866,0.609 1.511,1.524 1.937,2.744 l 4.596,0 C 4.299,-7.234 3.858,-8.298 3.234,-9.234 2.61,-10.17 1.858,-10.958 0.979,-11.596 c -0.879,-0.638 -1.866,-1.121 -2.958,-1.447 -1.092,-0.326 -2.234,-0.489 -3.425,-0.489 -1.731,0 -3.263,0.284 -4.596,0.85 -1.334,0.568 -2.462,1.363 -3.384,2.384 -0.922,1.022 -1.616,2.24 -2.085,3.659 -0.468,1.419 -0.702,2.98 -0.702,4.682 0,1.56 0.248,3.043 0.745,4.447 0.496,1.405 1.205,2.638 2.128,3.702 0.921,1.064 2.035,1.908 3.34,2.533 1.305,0.623 2.78,0.935 4.426,0.935 1.73,0 3.284,-0.361 4.66,-1.085 C 0.504,7.852 1.646,6.895 2.554,5.703 3.461,4.512 4.121,3.143 4.532,1.597 4.943,0.05 5.05,-1.546 4.852,-3.191 l -16.171,0 z"
         style="fill:#39a935;fill-opacity:1;fill-rule:nonzero;stroke:none"
         id="path52"
         inkscape:connector-curvature="0" /></g><g
       id="g54"
       transform="translate(142.8848,41.2578)"
       style="fill:#39a935;fill-opacity:1"><path
         d="m 0,0 5.319,0 0,-17.703 c 0,-1.022 0.05,-2.058 0.15,-3.107 0.098,-1.049 0.383,-1.993 0.85,-2.83 0.469,-0.837 1.178,-1.525 2.128,-2.064 0.95,-0.539 2.291,-0.808 4.022,-0.808 1.73,0 3.071,0.269 4.021,0.808 0.95,0.539 1.66,1.227 2.128,2.064 0.469,0.837 0.752,1.781 0.852,2.83 0.098,1.049 0.148,2.085 0.148,3.107 l 0,17.703 5.32,0 0,-19.448 c 0,-1.957 -0.298,-3.659 -0.894,-5.107 -0.596,-1.447 -1.44,-2.66 -2.532,-3.638 -1.092,-0.979 -2.405,-1.709 -3.936,-2.192 -1.532,-0.482 -3.234,-0.723 -5.107,-0.723 -1.872,0 -3.574,0.241 -5.107,0.723 -1.532,0.483 -2.844,1.213 -3.936,2.192 -1.093,0.978 -1.937,2.191 -2.532,3.638 C 0.298,-23.107 0,-21.405 0,-19.448 L 0,0 Z"
         style="fill:#39a935;fill-opacity:1;fill-rule:nonzero;stroke:none"
         id="path56"
         inkscape:connector-curvature="0" /></g><g
       id="g58"
       transform="translate(172.4609,32.874)"
       style="fill:#39a935;fill-opacity:1"><path
         d="m 0,0 4.596,0 0,-3.234 0.085,-0.085 c 0.737,1.219 1.702,2.177 2.893,2.873 1.192,0.694 2.511,1.042 3.958,1.042 2.411,0 4.313,-0.624 5.702,-1.872 1.39,-1.249 2.086,-3.121 2.086,-5.618 l 0,-15.107 -4.851,0 0,13.831 c -0.058,1.73 -0.426,2.985 -1.107,3.766 -0.68,0.78 -1.745,1.17 -3.191,1.17 -0.823,0 -1.562,-0.149 -2.213,-0.447 C 7.305,-3.979 6.751,-4.391 6.298,-4.915 5.844,-5.44 5.489,-6.058 5.234,-6.766 4.979,-7.476 4.851,-8.228 4.851,-9.021 l 0,-12.98 -4.851,0 L 0,0 Z"
         style="fill:#39a935;fill-opacity:1;fill-rule:nonzero;stroke:none"
         id="path60"
         inkscape:connector-curvature="0" /></g><path
       d="m 196.104,41.258 4.852,0 0,-30.385 -4.852,0 0,30.385 z"
       style="fill:#39a935;fill-opacity:1;fill-rule:nonzero;stroke:none"
       id="path62"
       inkscape:connector-curvature="0" /><g
       id="g64"
       transform="translate(218.999,21.8945)"
       style="fill:#39a935;fill-opacity:1"><path
         d="m 0,0 c -0.738,-0.482 -1.646,-0.772 -2.724,-0.872 -1.079,-0.1 -2.156,-0.249 -3.234,-0.446 -0.511,-0.086 -1.008,-0.207 -1.489,-0.363 -0.484,-0.156 -0.908,-0.369 -1.278,-0.637 -0.368,-0.271 -0.659,-0.625 -0.872,-1.065 -0.213,-0.44 -0.319,-0.971 -0.319,-1.596 0,-0.539 0.156,-0.993 0.469,-1.362 0.311,-0.368 0.687,-0.659 1.127,-0.872 0.439,-0.213 0.922,-0.361 1.447,-0.446 0.524,-0.086 1,-0.128 1.426,-0.128 0.538,0 1.12,0.07 1.744,0.213 0.624,0.141 1.213,0.383 1.766,0.723 0.553,0.34 1.014,0.773 1.383,1.298 C -0.186,-5.028 0,-4.383 0,-3.617 L 0,0 Z m 4.851,-6.128 c 0,-0.596 0.078,-1.02 0.234,-1.276 C 5.24,-7.659 5.546,-7.787 6,-7.787 l 0.511,0 c 0.198,0 0.426,0.027 0.68,0.085 l 0,-3.362 c -0.17,-0.056 -0.389,-0.121 -0.659,-0.192 -0.27,-0.07 -0.547,-0.134 -0.83,-0.191 -0.284,-0.057 -0.567,-0.099 -0.851,-0.128 -0.284,-0.028 -0.525,-0.042 -0.723,-0.042 -0.994,0 -1.816,0.199 -2.469,0.596 -0.652,0.396 -1.078,1.091 -1.276,2.084 -0.965,-0.935 -2.15,-1.617 -3.554,-2.042 -1.404,-0.425 -2.759,-0.638 -4.063,-0.638 -0.995,0 -1.945,0.135 -2.852,0.404 -0.908,0.27 -1.71,0.666 -2.404,1.192 -0.696,0.524 -1.249,1.191 -1.66,2 -0.412,0.808 -0.618,1.751 -0.618,2.83 0,1.362 0.248,2.468 0.746,3.319 0.496,0.851 1.149,1.518 1.958,2 0.808,0.482 1.715,0.83 2.723,1.043 1.006,0.213 2.021,0.376 3.042,0.489 0.879,0.17 1.717,0.291 2.511,0.361 0.794,0.072 1.496,0.192 2.106,0.363 0.611,0.17 1.092,0.431 1.448,0.787 0.354,0.354 0.532,0.887 0.532,1.596 0,0.624 -0.15,1.134 -0.447,1.532 -0.298,0.396 -0.667,0.702 -1.107,0.915 -0.44,0.213 -0.93,0.354 -1.468,0.426 -0.539,0.07 -1.049,0.105 -1.532,0.105 -1.361,0 -2.482,-0.283 -3.362,-0.85 C -8.497,6.326 -8.994,5.447 -9.107,4.256 l -4.852,0 c 0.086,1.418 0.426,2.596 1.021,3.532 0.596,0.937 1.355,1.688 2.278,2.256 0.921,0.566 1.964,0.964 3.128,1.191 1.162,0.227 2.354,0.34 3.574,0.34 1.078,0 2.142,-0.113 3.191,-0.34 1.05,-0.227 1.994,-0.595 2.83,-1.106 C 2.9,9.618 3.574,8.958 4.085,8.149 4.596,7.341 4.851,6.355 4.851,5.192 l 0,-11.32 z"
         style="fill:#39a935;fill-opacity:1;fill-rule:nonzero;stroke:none"
         id="path66"
         inkscape:connector-curvature="0" /></g><g
       id="g68"
       transform="translate(225.9785,32.874)"
       style="fill:#39a935;fill-opacity:1"><path
         d="m 0,0 3.659,0 0,6.597 4.852,0 0,-6.597 4.383,0 0,-3.617 -4.383,0 0,-11.745 c 0,-0.511 0.021,-0.951 0.063,-1.32 0.043,-0.369 0.142,-0.68 0.298,-0.936 0.156,-0.255 0.39,-0.446 0.702,-0.574 0.313,-0.128 0.739,-0.192 1.278,-0.192 0.339,0 0.68,0.007 1.021,0.022 0.34,0.013 0.681,0.063 1.021,0.148 l 0,-3.744 c -0.54,-0.057 -1.064,-0.113 -1.575,-0.171 -0.51,-0.057 -1.036,-0.085 -1.574,-0.085 -1.277,0 -2.306,0.121 -3.086,0.362 -0.78,0.241 -1.389,0.596 -1.829,1.064 -0.44,0.468 -0.738,1.057 -0.894,1.766 -0.157,0.709 -0.248,1.517 -0.277,2.425 l 0,12.98 L 0,-3.617 0,0 Z"
         style="fill:#39a935;fill-opacity:1;fill-rule:nonzero;stroke:none"
         id="path70"
         inkscape:connector-curvature="0" /></g><g
       id="g72"
       transform="translate(255.9199,25.5117)"
       style="fill:#39a935;fill-opacity:1"><path
         d="m 0,0 c -0.199,1.362 -0.745,2.391 -1.639,3.086 -0.893,0.694 -2.021,1.042 -3.382,1.042 -0.625,0 -1.292,-0.106 -2,-0.318 -0.71,-0.213 -1.363,-0.611 -1.958,-1.193 -0.596,-0.581 -1.092,-1.389 -1.49,-2.425 -0.397,-1.036 -0.595,-2.39 -0.595,-4.064 0,-0.908 0.106,-1.816 0.319,-2.724 0.213,-0.908 0.553,-1.717 1.021,-2.425 0.468,-0.709 1.071,-1.285 1.809,-1.724 0.737,-0.44 1.631,-0.659 2.681,-0.659 1.418,0 2.588,0.439 3.51,1.319 0.922,0.879 1.496,2.113 1.724,3.702 l 4.852,0 c -0.455,-2.866 -1.539,-5.057 -3.256,-6.575 -1.717,-1.518 -3.993,-2.276 -6.83,-2.276 -1.731,0 -3.256,0.291 -4.576,0.872 -1.318,0.581 -2.432,1.376 -3.339,2.383 -0.909,1.006 -1.596,2.206 -2.065,3.596 -0.468,1.39 -0.702,2.894 -0.702,4.511 0,1.645 0.227,3.191 0.681,4.639 0.454,1.446 1.134,2.702 2.043,3.765 0.908,1.065 2.035,1.901 3.382,2.511 1.348,0.61 2.93,0.915 4.746,0.915 1.277,0 2.49,-0.163 3.638,-0.489 C -0.276,7.143 0.745,6.653 1.639,6.001 2.532,5.348 3.262,4.525 3.83,3.532 4.397,2.539 4.737,1.362 4.852,0 L 0,0 Z"
         style="fill:#39a935;fill-opacity:1;fill-rule:nonzero;stroke:none"
         id="path74"
         inkscape:connector-curvature="0" /></g><g
       id="g76"
       transform="translate(263.9424,41.2578)"
       style="fill:#39a935;fill-opacity:1"><path
         d="m 0,0 4.851,0 0,-11.277 0.086,0 c 0.595,0.993 1.481,1.822 2.659,2.489 1.176,0.667 2.489,1 3.936,1 2.411,0 4.313,-0.624 5.702,-1.872 1.39,-1.249 2.086,-3.121 2.086,-5.617 l 0,-15.108 -4.851,0 0,13.831 c -0.058,1.73 -0.426,2.986 -1.107,3.766 -0.68,0.78 -1.745,1.17 -3.191,1.17 -0.823,0 -1.562,-0.149 -2.213,-0.446 -0.653,-0.298 -1.207,-0.71 -1.66,-1.235 -0.454,-0.525 -0.809,-1.142 -1.064,-1.85 -0.255,-0.71 -0.383,-1.462 -0.383,-2.256 l 0,-12.98 -4.851,0 L 0,0 Z"
         style="fill:#39a935;fill-opacity:1;fill-rule:nonzero;stroke:none"
         id="path78"
         inkscape:connector-curvature="0" /></g><g
       id="g80"
       transform="translate(302.6455,23.8096)"
       style="fill:#39a935;fill-opacity:1"><path
         d="M 0,0 C -0.057,0.767 -0.22,1.504 -0.489,2.213 -0.759,2.922 -1.127,3.539 -1.596,4.064 -2.063,4.589 -2.632,5.015 -3.298,5.341 -3.965,5.667 -4.709,5.83 -5.532,5.83 -6.383,5.83 -7.156,5.682 -7.851,5.384 -8.547,5.086 -9.143,4.674 -9.639,4.149 -10.135,3.624 -10.532,3.007 -10.83,2.299 -11.128,1.589 -11.291,0.823 -11.319,0 L 0,0 Z m -11.319,-3.191 c 0,-0.851 0.12,-1.674 0.361,-2.468 0.241,-0.795 0.603,-1.49 1.086,-2.086 0.481,-0.596 1.092,-1.071 1.829,-1.425 0.738,-0.355 1.617,-0.532 2.639,-0.532 1.419,0 2.56,0.305 3.425,0.915 0.866,0.609 1.511,1.524 1.937,2.744 l 4.596,0 C 4.299,-7.234 3.858,-8.298 3.234,-9.234 2.61,-10.17 1.858,-10.958 0.979,-11.596 c -0.879,-0.638 -1.866,-1.121 -2.958,-1.447 -1.092,-0.326 -2.234,-0.489 -3.425,-0.489 -1.731,0 -3.263,0.284 -4.596,0.85 -1.334,0.568 -2.462,1.363 -3.384,2.384 -0.922,1.022 -1.616,2.24 -2.085,3.659 -0.468,1.419 -0.702,2.98 -0.702,4.682 0,1.56 0.248,3.043 0.745,4.447 0.496,1.405 1.205,2.638 2.128,3.702 0.921,1.064 2.035,1.908 3.34,2.533 1.305,0.623 2.78,0.935 4.426,0.935 1.73,0 3.284,-0.361 4.66,-1.085 C 0.504,7.852 1.646,6.895 2.554,5.703 3.461,4.512 4.121,3.143 4.532,1.597 4.943,0.05 5.05,-1.546 4.852,-3.191 l -16.171,0 z"
         style="fill:#39a935;fill-opacity:1;fill-rule:nonzero;stroke:none"
         id="path82"
         inkscape:connector-curvature="0" /></g><g
       id="g84"
       transform="translate(314.4463,21.6396)"
       style="fill:#39a935;fill-opacity:1"><path
         d="m 0,0 c 0,-0.937 0.12,-1.858 0.361,-2.767 0.242,-0.908 0.611,-1.716 1.107,-2.424 0.496,-0.71 1.128,-1.278 1.894,-1.703 0.766,-0.425 1.673,-0.638 2.723,-0.638 1.078,0 2.007,0.226 2.788,0.68 0.779,0.454 1.418,1.05 1.915,1.788 0.496,0.737 0.865,1.567 1.107,2.49 0.24,0.921 0.361,1.864 0.361,2.829 0,2.44 -0.547,4.341 -1.639,5.703 C 9.525,7.319 8.043,8 6.171,8 5.035,8 4.078,7.767 3.298,7.298 2.518,6.83 1.879,6.22 1.383,5.469 0.887,4.717 0.532,3.865 0.319,2.915 0.106,1.964 0,0.993 0,0 m 16.938,-10.767 -4.597,0 0,2.979 -0.085,0 c -0.652,-1.276 -1.603,-2.191 -2.852,-2.744 -1.248,-0.554 -2.567,-0.83 -3.957,-0.83 -1.731,0 -3.242,0.304 -4.532,0.915 -1.291,0.609 -2.362,1.439 -3.213,2.489 -0.851,1.05 -1.489,2.291 -1.915,3.724 -0.426,1.432 -0.639,2.971 -0.639,4.617 0,1.985 0.27,3.702 0.809,5.149 0.539,1.447 1.256,2.639 2.149,3.574 0.894,0.937 1.915,1.624 3.064,2.065 1.149,0.439 2.319,0.659 3.511,0.659 0.681,0 1.376,-0.063 2.086,-0.191 0.709,-0.127 1.389,-0.334 2.042,-0.618 0.652,-0.283 1.255,-0.645 1.808,-1.084 0.554,-0.441 1.015,-0.958 1.384,-1.553 l 0.085,0 0,11.234 4.852,0 0,-30.385 z"
         style="fill:#39a935;fill-opacity:1;fill-rule:nonzero;stroke:none"
         id="path86"
         inkscape:connector-curvature="0" /></g><g
       id="g88"
       transform="translate(29.0557,49.1064)"
       style="fill:#39a935;fill-opacity:1"><path
         d="m 0,0 0,-23.695 c 0,-13.089 10.61,-23.7 23.697,-23.7 l 0,23.696 C 23.697,-10.608 13.088,0 0,0"
         style="fill:#39a935;fill-opacity:1;fill-rule:nonzero;stroke:none"
         id="path90"
         inkscape:connector-curvature="0" /></g><g
       id="g92"
       transform="translate(0.6641,96.5049)"
       style="fill:#39a935;fill-opacity:1"><path
         d="m 0,0 c -0.02,0 -0.028,-71.114 -0.028,-71.114 0,-13.074 10.599,-23.677 23.672,-23.677 l 0.028,71.115 C 23.672,-10.602 13.075,0 0,0"
         style="fill:#39a935;fill-opacity:1;fill-rule:nonzero;stroke:none"
         id="path94"
         inkscape:connector-curvature="0" /></g><g
       id="g96"
       transform="translate(57.5195,96.5049)"
       style="fill:#39a935;fill-opacity:1"><path
         d="m 0,0 c -0.018,0 -0.027,-71.114 -0.027,-71.114 0,-13.074 10.598,-23.677 23.673,-23.677 l 0.024,71.115 C 23.67,-10.602 13.075,0 0,0"
         style="fill:#39a935;fill-opacity:1;fill-rule:nonzero;stroke:none"
         id="path98"
         inkscape:connector-curvature="0" /></g><g
       id="g100"
       transform="translate(109.6016,96.5049)"
       style="fill:#39a935;fill-opacity:1"><path
         d="m 0,0 c 0.019,0 0.027,-71.114 0.027,-71.114 0,-13.074 -10.598,-23.677 -23.672,-23.677 l -0.026,71.115 C -23.671,-10.602 -13.073,0 0,0"
         style="fill:#39a935;fill-opacity:1;fill-rule:nonzero;stroke:none"
         id="path102"
         inkscape:connector-curvature="0" /></g><g
       id="g104"
       transform="translate(52.752,72.8057)"
       style="fill:#39a935;fill-opacity:1"><path
         d="M 0,0 -0.064,23.697 C -13.121,23.662 -23.696,13.067 -23.696,0 l 0,-23.697 C -10.639,-23.662 0,-13.067 0,0"
         style="fill:#39a935;fill-opacity:1;fill-rule:nonzero;stroke:none"
         id="path106"
         inkscape:connector-curvature="0" /></g></g></svg>