<?xml version="1.0" encoding="UTF-8" standalone="no"?>
<svg
   xmlns:dc="http://purl.org/dc/elements/1.1/"
   xmlns:cc="http://creativecommons.org/ns#"
   xmlns:rdf="http://www.w3.org/1999/02/22-rdf-syntax-ns#"
   xmlns:svg="http://www.w3.org/2000/svg"
   xmlns="http://www.w3.org/2000/svg"
   xmlns:sodipodi="http://sodipodi.sourceforge.net/DTD/sodipodi-0.dtd"
   xmlns:inkscape="http://www.inkscape.org/namespaces/inkscape"
   viewBox="0 0 3495.043 900.23676"
   height="900.23676"
   width="3495.043"
   xml:space="preserve"
   version="1.1"
   id="svg2"
   inkscape:version="0.91 r13725"
   sodipodi:docname="filename.svg"><sodipodi:namedview
     pagecolor="#ffffff"
     bordercolor="#666666"
     borderopacity="1"
     objecttolerance="10"
     gridtolerance="10"
     guidetolerance="10"
     inkscape:pageopacity="0"
     inkscape:pageshadow="2"
     inkscape:window-width="1301"
     inkscape:window-height="744"
     id="namedview40"
     showgrid="false"
     fit-margin-top="20"
     fit-margin-left="20"
     fit-margin-right="20"
     fit-margin-bottom="20"
     inkscape:zoom="0.14933079"
     inkscape:cx="2218.7322"
     inkscape:cy="405.99558"
     inkscape:window-x="65"
     inkscape:window-y="24"
     inkscape:window-maximized="1"
     inkscape:current-layer="svg2" /><metadata
     id="metadata8"><rdf:RDF><cc:Work
         rdf:about=""><dc:format>image/svg+xml</dc:format><dc:type
           rdf:resource="http://purl.org/dc/dcmitype/StillImage" /><dc:title></dc:title></cc:Work></rdf:RDF></metadata><defs
     id="defs6"><clipPath
       id="clipPath16"
       clipPathUnits="userSpaceOnUse"><path
         id="path18"
         d="m 2276.22,592.38 c -130.794,-23.412 -0.532,-354.366 162.948,-140.085 l 0,0 0.696,1.609 C 2311.322,289.149 2209.689,566.173 2315.546,581.869 l 0,0 c -85.612,21.613 43.911,202.374 12.569,224.047 l 0,0 c 79.732,-55.151 131.426,-144.666 152.806,-235.238 l 0,0 c -21.589,118.861 -83.399,236.156 -182.945,306.215 l 0,0 C 2335.844,850.246 2171.554,617.225 2276.22,592.38"
         inkscape:connector-curvature="0" /></clipPath><linearGradient
       id="linearGradient24"
       spreadMethod="pad"
       gradientTransform="matrix(258.19141,0,0,-258.19141,2222.7295,628.66309)"
       gradientUnits="userSpaceOnUse"
       y2="0"
       x2="1"
       y1="0"
       x1="0"><stop
         id="stop26"
         offset="0"
         style="stop-opacity:1;stop-color:#f27430" /><stop
         id="stop28"
         offset="1"
         style="stop-opacity:1;stop-color:#f27430" /></linearGradient><clipPath
       id="clipPath36"
       clipPathUnits="userSpaceOnUse"><path
         id="path38"
         d="m 2526.123,547.195 c 86.396,34.54 189.361,43.693 280.313,10.143 l 0,0 c -16.252,5.993 -40.309,-34.126 -68.001,-74.244 l 0,0 c -33.21,-48.114 -71.649,-96.227 -108.128,-64.802 l 0,0 c 47.988,-95.663 -237.12,-171.696 -176.168,28.189 l 0,0 -0.918,-1.49 c -81.418,-256.923 264.287,-173.343 208.3,-52.852 l 0,0 c 43.829,-38.872 92.347,23.032 134.483,84.937 l 0,0 c 35.229,51.757 65.997,103.514 85.835,96.372 l 0,0 c -44.236,15.919 -90.989,23.18 -138.054,23.179 l 0,0 c -74.794,-0.003 -150.353,-18.347 -217.662,-49.432"
         inkscape:connector-curvature="0" /></clipPath><linearGradient
       id="linearGradient44"
       spreadMethod="pad"
       gradientTransform="matrix(441.09863,0,0,-441.09863,2440.7402,436.71387)"
       gradientUnits="userSpaceOnUse"
       y2="0"
       x2="1"
       y1="0"
       x1="0"><stop
         id="stop46"
         offset="0"
         style="stop-opacity:1;stop-color:#f27430" /><stop
         id="stop48"
         offset="1"
         style="stop-opacity:1;stop-color:#f27430" /></linearGradient><clipPath
       id="clipPath56"
       clipPathUnits="userSpaceOnUse"><path
         id="path58"
         d="M 0,995 3000,995 3000,0 0,0 0,995 Z"
         inkscape:connector-curvature="0" /></clipPath></defs><g
     transform="matrix(1.25,0,0,-1.25,-127.25575,1116.1163)"
     id="g10"><g
       id="g12"><g
         clip-path="url(#clipPath16)"
         id="g14"><g
           id="g20"><g
             id="g22"><path
               id="path30"
               style="fill:url(#linearGradient24);stroke:none"
               d="m 2276.22,592.38 c -130.794,-23.412 -0.532,-354.366 162.948,-140.085 l 0,0 0.696,1.609 C 2311.322,289.149 2209.689,566.173 2315.546,581.869 l 0,0 c -85.612,21.613 43.911,202.374 12.569,224.047 l 0,0 c 79.732,-55.151 131.426,-144.666 152.806,-235.238 l 0,0 c -21.589,118.861 -83.399,236.156 -182.945,306.215 l 0,0 C 2335.844,850.246 2171.554,617.225 2276.22,592.38"
               inkscape:connector-curvature="0" /></g></g></g></g><g
       id="g32"><g
         clip-path="url(#clipPath36)"
         id="g34"><g
           id="g40"><g
             id="g42"><path
               id="path50"
               style="fill:url(#linearGradient44);stroke:none"
               d="m 2526.123,547.195 c 86.396,34.54 189.361,43.693 280.313,10.143 l 0,0 c -16.252,5.993 -40.309,-34.126 -68.001,-74.244 l 0,0 c -33.21,-48.114 -71.649,-96.227 -108.128,-64.802 l 0,0 c 47.988,-95.663 -237.12,-171.696 -176.168,28.189 l 0,0 -0.918,-1.49 c -81.418,-256.923 264.287,-173.343 208.3,-52.852 l 0,0 c 43.829,-38.872 92.347,23.032 134.483,84.937 l 0,0 c 35.229,51.757 65.997,103.514 85.835,96.372 l 0,0 c -44.236,15.919 -90.989,23.18 -138.054,23.179 l 0,0 c -74.794,-0.003 -150.353,-18.347 -217.662,-49.432"
               inkscape:connector-curvature="0" /></g></g></g></g><g
       id="g52"><g
         clip-path="url(#clipPath56)"
         id="g54"><g
           transform="translate(421.8716,188.7041)"
           id="g60"><path
             id="path62"
             style="fill:#2c85c1;fill-opacity:1;fill-rule:nonzero;stroke:none"
             d="m 0,0 -47.404,0 -124.381,199.101 -92.551,-88.036 0,-111.065 -39.731,0 0,355.767 39.731,0 0,-194.135 197.296,194.135 52.821,0 L -141.988,228.448 0,0 Z"
             inkscape:connector-curvature="0" /></g><g
           transform="translate(803.125,328.6641)"
           id="g64"><path
             id="path66"
             style="fill:#2c85c1;fill-opacity:1;fill-rule:nonzero;stroke:none"
             d="m 0,0 c 0,-86.682 -45.598,-138.602 -149.436,-138.602 -106.996,0 -149.434,51.92 -149.434,138.602 l 0,215.807 39.728,0 0,-215.807 c 0,-71.782 37.924,-98.869 109.706,-98.869 71.784,0 109.708,27.087 109.708,98.869 l 0,215.807 39.728,0 L 0,0 Z"
             inkscape:connector-curvature="0" /></g><g
           transform="translate(1111.9233,228.4316)"
           id="g68"><path
             id="path70"
             style="fill:#2c85c1;fill-opacity:1;fill-rule:nonzero;stroke:none"
             d="M 0,0 C 77.201,0 116.479,83.979 116.479,138.158 116.479,193.234 77.201,276.312 0,276.312 l -126.41,0 L -126.41,0 0,0 Z m 0,316.04 c 115.576,0 156.209,-117.387 156.209,-177.882 0,-60.5 -32.507,-177.886 -156.209,-177.886 l -166.14,0 0,355.768 166.14,0 z"
             inkscape:connector-curvature="0" /></g><g
           transform="translate(1537.6533,229.7949)"
           id="g72"><path
             id="path74"
             style="fill:#2c85c1;fill-opacity:1;fill-rule:nonzero;stroke:none"
             d="m 0,0 c 81.263,0 142.21,61.849 142.21,136.795 0,74.941 -60.947,136.791 -142.21,136.791 -81.267,0 -142.214,-61.85 -142.214,-136.791 C -142.214,61.849 -81.267,0 0,0 m 0,313.318 c 103.837,0 181.942,-81.266 181.942,-176.523 0,-95.262 -78.105,-176.527 -181.942,-176.527 -103.836,0 -181.942,81.265 -181.942,176.527 0,95.257 77.653,176.523 181.942,176.523"
             inkscape:connector-curvature="0" /></g><g
           transform="translate(1997.2402,395.9316)"
           id="g76"><path
             id="path78"
             style="fill:#2c85c1;fill-opacity:1;fill-rule:nonzero;stroke:none"
             d="m 0,0 c 63.207,0 127.314,-23.021 127.314,-97.968 0,-73.589 -78.554,-107.901 -161.624,-107.901 -102.934,0 -149.436,51.467 -169.301,72.687 l 28.441,27.993 c 20.772,-18.512 54.627,-60.948 142.215,-60.948 76.295,0 120.541,28.894 120.541,68.169 0,42.44 -42.893,58.24 -76.748,58.24 l -71.334,0 c -65.461,0 -118.283,21.673 -118.283,84.875 0,46.955 42.435,102.035 146.276,102.035 77.649,0 124.603,-37.021 141.757,-49.661 L 84.426,66.367 c -24.379,16.254 -56.887,41.082 -117.834,41.082 -76.296,0 -105.643,-35.662 -105.643,-62.302 C -139.051,0 -81.716,0 -41.082,0 L 0,0 Z"
             inkscape:connector-curvature="0" /></g></g></g></g></svg>