<?xml version="1.0" encoding="UTF-8" standalone="no"?>
<svg
   xmlns:dc="http://purl.org/dc/elements/1.1/"
   xmlns:cc="http://creativecommons.org/ns#"
   xmlns:rdf="http://www.w3.org/1999/02/22-rdf-syntax-ns#"
   xmlns:svg="http://www.w3.org/2000/svg"
   xmlns="http://www.w3.org/2000/svg"
   xmlns:sodipodi="http://sodipodi.sourceforge.net/DTD/sodipodi-0.dtd"
   xmlns:inkscape="http://www.inkscape.org/namespaces/inkscape"
   viewBox="0 0 863.88783 790.11286"
   height="790.11285"
   width="863.88782"
   xml:space="preserve"
   version="1.1"
   id="svg2"
   inkscape:version="0.91 r13725"
   sodipodi:docname="kudos-icon.svg"><sodipodi:namedview
     pagecolor="#ffffff"
     bordercolor="#666666"
     borderopacity="1"
     objecttolerance="10"
     gridtolerance="10"
     guidetolerance="10"
     inkscape:pageopacity="0"
     inkscape:pageshadow="2"
     inkscape:window-width="1855"
     inkscape:window-height="1056"
     id="namedview40"
     showgrid="false"
     fit-margin-top="20"
     fit-margin-left="20"
     fit-margin-right="20"
     fit-margin-bottom="20"
     inkscape:zoom="0.14933079"
     inkscape:cx="-1547.487"
     inkscape:cy="295.87174"
     inkscape:window-x="65"
     inkscape:window-y="24"
     inkscape:window-maximized="1"
     inkscape:current-layer="g10" /><metadata
     id="metadata8"><rdf:RDF><cc:Work
         rdf:about=""><dc:format>image/svg+xml</dc:format><dc:type
           rdf:resource="http://purl.org/dc/dcmitype/StillImage" /><dc:title></dc:title></cc:Work></rdf:RDF></metadata><defs
     id="defs6"><clipPath
       id="clipPath16"
       clipPathUnits="userSpaceOnUse"><path
         id="path18"
         d="m 2276.22,592.38 c -130.794,-23.412 -0.532,-354.366 162.948,-140.085 l 0,0 0.696,1.609 C 2311.322,289.149 2209.689,566.173 2315.546,581.869 l 0,0 c -85.612,21.613 43.911,202.374 12.569,224.047 l 0,0 c 79.732,-55.151 131.426,-144.666 152.806,-235.238 l 0,0 c -21.589,118.861 -83.399,236.156 -182.945,306.215 l 0,0 C 2335.844,850.246 2171.554,617.225 2276.22,592.38"
         inkscape:connector-curvature="0" /></clipPath><linearGradient
       id="linearGradient24"
       spreadMethod="pad"
       gradientTransform="matrix(258.19141,0,0,-258.19141,2222.7295,628.66309)"
       gradientUnits="userSpaceOnUse"
       y2="0"
       x2="1"
       y1="0"
       x1="0"><stop
         id="stop26"
         offset="0"
         style="stop-opacity:1;stop-color:#f27430" /><stop
         id="stop28"
         offset="1"
         style="stop-opacity:1;stop-color:#f27430" /></linearGradient><clipPath
       id="clipPath36"
       clipPathUnits="userSpaceOnUse"><path
         id="path38"
         d="m 2526.123,547.195 c 86.396,34.54 189.361,43.693 280.313,10.143 l 0,0 c -16.252,5.993 -40.309,-34.126 -68.001,-74.244 l 0,0 c -33.21,-48.114 -71.649,-96.227 -108.128,-64.802 l 0,0 c 47.988,-95.663 -237.12,-171.696 -176.168,28.189 l 0,0 -0.918,-1.49 c -81.418,-256.923 264.287,-173.343 208.3,-52.852 l 0,0 c 43.829,-38.872 92.347,23.032 134.483,84.937 l 0,0 c 35.229,51.757 65.997,103.514 85.835,96.372 l 0,0 c -44.236,15.919 -90.989,23.18 -138.054,23.179 l 0,0 c -74.794,-0.003 -150.353,-18.347 -217.662,-49.432"
         inkscape:connector-curvature="0" /></clipPath><linearGradient
       id="linearGradient44"
       spreadMethod="pad"
       gradientTransform="matrix(441.09863,0,0,-441.09863,2440.7402,436.71387)"
       gradientUnits="userSpaceOnUse"
       y2="0"
       x2="1"
       y1="0"
       x1="0"><stop
         id="stop46"
         offset="0"
         style="stop-opacity:1;stop-color:#f27430" /><stop
         id="stop48"
         offset="1"
         style="stop-opacity:1;stop-color:#f27430" /></linearGradient><clipPath
       id="clipPath56"
       clipPathUnits="userSpaceOnUse"><path
         id="path58"
         d="M 0,995 3000,995 3000,0 0,0 0,995 Z"
         inkscape:connector-curvature="0" /></clipPath></defs><g
     transform="matrix(1.25,0,0,-1.25,-2758.4109,1116.1163)"
     id="g10"><g
       id="g12"><g
         clip-path="url(#clipPath16)"
         id="g14"><g
           id="g20"><g
             id="g22"><path
               id="path30"
               style="fill:url(#linearGradient24);stroke:none"
               d="m 2276.22,592.38 c -130.794,-23.412 -0.532,-354.366 162.948,-140.085 l 0,0 0.696,1.609 C 2311.322,289.149 2209.689,566.173 2315.546,581.869 l 0,0 c -85.612,21.613 43.911,202.374 12.569,224.047 l 0,0 c 79.732,-55.151 131.426,-144.666 152.806,-235.238 l 0,0 c -21.589,118.861 -83.399,236.156 -182.945,306.215 l 0,0 C 2335.844,850.246 2171.554,617.225 2276.22,592.38"
               inkscape:connector-curvature="0" /></g></g></g></g><g
       id="g32"><g
         clip-path="url(#clipPath36)"
         id="g34"><g
           id="g40"><g
             id="g42"><path
               id="path50"
               style="fill:url(#linearGradient44);stroke:none"
               d="m 2526.123,547.195 c 86.396,34.54 189.361,43.693 280.313,10.143 l 0,0 c -16.252,5.993 -40.309,-34.126 -68.001,-74.244 l 0,0 c -33.21,-48.114 -71.649,-96.227 -108.128,-64.802 l 0,0 c 47.988,-95.663 -237.12,-171.696 -176.168,28.189 l 0,0 -0.918,-1.49 c -81.418,-256.923 264.287,-173.343 208.3,-52.852 l 0,0 c 43.829,-38.872 92.347,23.032 134.483,84.937 l 0,0 c 35.229,51.757 65.997,103.514 85.835,96.372 l 0,0 c -44.236,15.919 -90.989,23.18 -138.054,23.179 l 0,0 c -74.794,-0.003 -150.353,-18.347 -217.662,-49.432"
               inkscape:connector-curvature="0" /></g></g></g></g></g></svg>