<?xml version="1.0" encoding="UTF-8" standalone="no"?>
<!-- Created with Inkscape (http://www.inkscape.org/) -->

<svg
   xmlns:dc="http://purl.org/dc/elements/1.1/"
   xmlns:cc="http://creativecommons.org/ns#"
   xmlns:rdf="http://www.w3.org/1999/02/22-rdf-syntax-ns#"
   xmlns:svg="http://www.w3.org/2000/svg"
   xmlns="http://www.w3.org/2000/svg"
   xmlns:sodipodi="http://sodipodi.sourceforge.net/DTD/sodipodi-0.dtd"
   xmlns:inkscape="http://www.inkscape.org/namespaces/inkscape"
   id="svg3004"
   version="1.1"
   inkscape:version="0.48.5 r10040"
   width="109.8375"
   height="53.15"
   xml:space="preserve"
   sodipodi:docname="langsci_logo_nocolor.pdf"><metadata
     id="metadata3010"><rdf:RDF><cc:Work
         rdf:about=""><dc:format>image/svg+xml</dc:format><dc:type
           rdf:resource="http://purl.org/dc/dcmitype/StillImage" /><dc:title></dc:title></cc:Work></rdf:RDF></metadata><defs
     id="defs3008"><clipPath
       clipPathUnits="userSpaceOnUse"
       id="clipPath3020"><path
         d="m 0,0 878.734,0 0,425 L 0,425 0,0 z"
         id="path3022" /></clipPath></defs><sodipodi:namedview
     pagecolor="#ffffff"
     bordercolor="#666666"
     borderopacity="1"
     objecttolerance="10"
     gridtolerance="10"
     guidetolerance="10"
     inkscape:pageopacity="0"
     inkscape:pageshadow="2"
     inkscape:window-width="1920"
     inkscape:window-height="1178"
     id="namedview3006"
     showgrid="false"
     inkscape:zoom="5.7357459"
     inkscape:cx="130.37204"
     inkscape:cy="44.62679"
     inkscape:window-x="0"
     inkscape:window-y="0"
     inkscape:window-maximized="1"
     inkscape:current-layer="g3014" /><g
     id="g3012"
     inkscape:groupmode="layer"
     inkscape:label="langsci_logo_nocolor"
     transform="matrix(1.25,0,0,-1.25,0,53.15)"><g
       id="g3014"
       transform="scale(0.1,0.1)"><g
         id="g3016"><g
           id="g3018"
           clip-path="url(#clipPath3020)"><g
             id="g3024"
             transform="scale(10,10)"><g
               transform="matrix(0.956279,0,0,-1,56.2289,32.991)"
               style=""
               id="text3026"><path
                 d="m 0.75307601,-6.0714314 0.71795849,0 0,6.0714314 -0.71795849,0 0,-6.0714314"
                 style="font-size:7.99118996px;font-variant:normal;font-weight:normal;writing-mode:lr-tb;fill:#000000;fill-opacity:1;fill-rule:nonzero;stroke:none;font-family:DIN;-inkscape-font-specification:DIN-Regular"
                 id="path3066" /><path
                 d="m 5.1042921,-2.1967968 c -0.5800918,2.1e-6 -0.981992,0.066335 -1.205702,0.1989993 -0.223713,0.1326681 -0.3355687,0.3589809 -0.3355675,0.678939 -1.2e-6,0.2549283 0.08324,0.45782945 0.2497247,0.60870392 0.1690828,0.1482746 0.3979968,0.22241154 0.6867428,0.22241105 0.3979962,4.9e-7 0.716655,-0.14046951 0.9559774,-0.42141041 C 5.6973849,-1.1926943 5.8183452,-1.5685816 5.8183486,-2.036817 l 0,-0.1599798 -0.7140565,0 m 1.432015,-0.2965481 0,2.4933449 -0.7179585,0 0,-0.6633312 C 5.6544635,-0.39799832 5.4502618,-0.20160046 5.2057428,-0.07413702 4.9612181,0.05072528 4.662069,0.11315639 4.3082947,0.1131565 3.8608698,0.11315639 3.5044922,-0.01170583 3.2391609,-0.26143053 2.9764291,-0.513756 2.8450636,-0.85062386 2.8450641,-1.2720351 c -5e-7,-0.4916437 0.1638812,-0.8623284 0.4916455,-1.1120553 0.3303636,-0.249722 0.8220086,-0.3745842 1.4749364,-0.374587 l 1.0067026,0 0,-0.070235 C 5.8183452,-3.1592743 5.7090907,-3.4142013 5.490585,-3.5936943 5.2746743,-3.7757815 4.9703226,-3.8668268 4.5775291,-3.8668307 c -0.2497266,3.9e-6 -0.4929478,0.029919 -0.7296643,0.089745 -0.2367195,0.059834 -0.4643329,0.1495783 -0.682841,0.2692344 l 0,-0.6633311 c 0.2627302,-0.1014464 0.5176572,-0.176884 0.7647819,-0.226313 0.2471216,-0.052022 0.4877415,-0.078035 0.7218604,-0.078039 0.6321127,4.5e-6 1.104248,0.1638861 1.4164072,0.4916455 0.3121519,0.3277673 0.4682296,0.8246148 0.4682338,1.4905442"
                 style="font-size:7.99118996px;font-variant:normal;font-weight:normal;writing-mode:lr-tb;fill:#000000;fill-opacity:1;fill-rule:nonzero;stroke:none;font-family:DIN;-inkscape-font-specification:DIN-Regular"
                 id="path3068" /><path
                 d="m 11.106581,-2.637717 0,2.637717 -0.717958,0 0,-2.6143053 c -4e-6,-0.4136035 -0.08064,-0.7231577 -0.241921,-0.9286637 -0.1612839,-0.2054988 -0.4032045,-0.30825 -0.7257625,-0.3082539 -0.3875958,3.9e-6 -0.6932481,0.1235654 -0.9169578,0.3706851 -0.2237133,0.2471266 -0.335569,0.5839945 -0.3355676,1.0106046 l 0,2.4699332 -0.7218604,0 0,-4.370182 0.7218604,0 0,0.678939 c 0.1716841,-0.2627272 0.3732846,-0.4591251 0.604802,-0.5891942 0.2341146,-0.1300605 0.5033488,-0.1950929 0.8077033,-0.1950974 0.5020476,4.5e-6 0.8818366,0.1560822 1.1393686,0.4682338 0.257525,0.3095582 0.386289,0.7660857 0.386293,1.3695838"
                 style="font-size:7.99118996px;font-variant:normal;font-weight:normal;writing-mode:lr-tb;fill:#000000;fill-opacity:1;fill-rule:nonzero;stroke:none;font-family:DIN;-inkscape-font-specification:DIN-Regular"
                 id="path3070" /><path
                 d="m 14.992027,-2.2358163 c -3e-6,-0.520257 -0.107957,-0.923458 -0.323861,-1.209604 -0.21331,-0.2861391 -0.51376,-0.4292104 -0.90135,-0.4292143 -0.384995,3.9e-6 -0.685444,0.1430752 -0.90135,0.4292143 -0.213308,0.286146 -0.319961,0.689347 -0.31996,1.209604 -10e-7,0.5176602 0.106652,0.9195604 0.31996,1.205702 0.215906,0.28614358 0.516355,0.42921487 0.90135,0.42921427 0.38759,6e-7 0.68804,-0.14307069 0.90135,-0.42921427 0.215904,-0.2861416 0.323858,-0.6880418 0.323861,-1.205702 m 0.717959,1.6934455 c -5e-6,0.74397126 -0.165187,1.2967467 -0.495548,1.658328 -0.330368,0.3641803 -0.83632,0.5462711 -1.517858,0.5462727 -0.252328,-1.6e-6 -0.490346,-0.019511 -0.714056,-0.058529 -0.223713,-0.03642 -0.440921,-0.093648 -0.651625,-0.1716857 l 0,-0.69844873 c 0.210704,0.1144563 0.418807,0.19899842 0.624311,0.25362663 0.205501,0.0546262 0.414905,0.0819398 0.628214,0.0819409 0.470832,-1.1e-6 0.823308,-0.12356263 1.057428,-0.37068507 0.234113,-0.24452254 0.351172,-0.61520725 0.351175,-1.11205524 l 0,-0.35507729 C 14.84375,-0.51115471 14.653855,-0.31865879 14.422343,-0.19119546 14.190824,-0.06373176 13.913786,0 13.591228,0 13.055359,0 12.623543,-0.20420175 12.295781,-0.61260587 11.968017,-1.0210088 11.804135,-1.5620784 11.804136,-2.2358163 c -10e-7,-0.6763348 0.163881,-1.2187051 0.491645,-1.6271124 0.327762,-0.4083997 0.759578,-0.6126014 1.295447,-0.6126059 0.322558,4.5e-6 0.599596,0.063736 0.831115,0.1911955 0.231512,0.1274678 0.421407,0.3199637 0.569684,0.5774883 l 0,-0.6633312 0.717959,0 0,3.8278112"
                 style="font-size:7.99118996px;font-variant:normal;font-weight:normal;writing-mode:lr-tb;fill:#000000;fill-opacity:1;fill-rule:nonzero;stroke:none;font-family:DIN;-inkscape-font-specification:DIN-Regular"
                 id="path3072" /><path
                 d="m 16.374127,-1.7246611 0,-2.6455209 0.717958,0 0,2.6182072 c -1e-6,0.4136079 0.08064,0.7244628 0.241921,0.93256567 0.161279,0.20550322 0.403199,0.30825442 0.725762,0.30825391 0.387591,5.1e-7 0.693243,-0.12356106 0.916958,-0.37068508 0.22631,-0.2471223 0.339466,-0.5839901 0.33947,-1.0106046 l 0,-2.4777371 0.717958,0 0,4.370182 -0.717958,0 0,-0.67113509 c -0.174291,0.26533288 -0.377192,0.46303139 -0.608704,0.59309613 -0.228917,0.12746359 -0.49555,0.19119535 -0.7999,0.19119546 -0.502052,-1.1e-7 -0.883142,-0.15607789 -1.143271,-0.46823379 C 16.504191,-0.66723248 16.374126,-1.12376 16.374127,-1.7246611 m 1.806602,-2.7508735 0,0"
                 style="font-size:7.99118996px;font-variant:normal;font-weight:normal;writing-mode:lr-tb;fill:#000000;fill-opacity:1;fill-rule:nonzero;stroke:none;font-family:DIN;-inkscape-font-specification:DIN-Regular"
                 id="path3074" /><path
                 d="m 23.07678,-2.1967968 c -0.580092,2.1e-6 -0.981992,0.066335 -1.205702,0.1989993 -0.223713,0.1326681 -0.335569,0.3589809 -0.335568,0.678939 -10e-7,0.2549283 0.08324,0.45782945 0.249725,0.60870392 0.169083,0.1482746 0.397997,0.22241154 0.686743,0.22241105 0.397996,4.9e-7 0.716655,-0.14046951 0.955977,-0.42141041 0.241918,-0.28354036 0.362878,-0.65942766 0.362881,-1.12766306 l 0,-0.1599798 -0.714056,0 m 1.432015,-0.2965481 0,2.4933449 -0.717959,0 0,-0.6633312 c -0.163885,0.26533288 -0.368087,0.46173074 -0.612606,0.58919418 -0.244524,0.1248623 -0.543673,0.18729341 -0.897448,0.18729352 -0.447425,-1.1e-7 -0.803802,-0.12486233 -1.069133,-0.37458703 -0.262732,-0.25232547 -0.394098,-0.58919333 -0.394097,-1.01060457 -10e-7,-0.4916437 0.163881,-0.8623284 0.491645,-1.1120553 0.330364,-0.249722 0.822009,-0.3745842 1.474937,-0.374587 l 1.006702,0 0,-0.070235 c -3e-6,-0.3303618 -0.109258,-0.5852888 -0.327763,-0.7647818 -0.215911,-0.1820872 -0.520263,-0.2731325 -0.913056,-0.2731364 -0.249727,3.9e-6 -0.492948,0.029919 -0.729665,0.089745 -0.236719,0.059834 -0.464332,0.1495783 -0.68284,0.2692344 l 0,-0.6633311 c 0.26273,-0.1014464 0.517657,-0.176884 0.764781,-0.226313 0.247122,-0.052022 0.487742,-0.078035 0.721861,-0.078039 0.632113,4.5e-6 1.104248,0.1638861 1.416407,0.4916455 0.312152,0.3277673 0.46823,0.8246148 0.468234,1.4905442"
                 style="font-size:7.99118996px;font-variant:normal;font-weight:normal;writing-mode:lr-tb;fill:#000000;fill-opacity:1;fill-rule:nonzero;stroke:none;font-family:DIN;-inkscape-font-specification:DIN-Regular"
                 id="path3076" /><path
                 d="m 28.161555,-2.2358163 c -3e-6,-0.520257 -0.107957,-0.923458 -0.323861,-1.209604 -0.21331,-0.2861391 -0.51376,-0.4292104 -0.90135,-0.4292143 -0.384995,3.9e-6 -0.685444,0.1430752 -0.90135,0.4292143 -0.213308,0.286146 -0.319961,0.689347 -0.31996,1.209604 -1e-6,0.5176602 0.106652,0.9195604 0.31996,1.205702 0.215906,0.28614358 0.516355,0.42921487 0.90135,0.42921427 0.38759,6e-7 0.68804,-0.14307069 0.90135,-0.42921427 0.215904,-0.2861416 0.323858,-0.6880418 0.323861,-1.205702 m 0.717959,1.6934455 c -5e-6,0.74397126 -0.165187,1.2967467 -0.495548,1.658328 -0.330368,0.3641803 -0.83632,0.5462711 -1.517858,0.5462727 -0.252328,-1.6e-6 -0.490346,-0.019511 -0.714056,-0.058529 -0.223713,-0.03642 -0.440921,-0.093648 -0.651625,-0.1716857 l 0,-0.69844873 c 0.210704,0.1144563 0.418807,0.19899842 0.624311,0.25362663 0.205501,0.0546262 0.414905,0.0819398 0.628214,0.0819409 0.470832,-1.1e-6 0.823308,-0.12356263 1.057428,-0.37068507 0.234113,-0.24452254 0.351172,-0.61520725 0.351175,-1.11205524 l 0,-0.35507729 c -0.148277,0.25752909 -0.338172,0.45002501 -0.569684,0.57748834 C 27.360352,-0.06373176 27.083314,0 26.760756,0 26.224887,0 25.793071,-0.20420175 25.465309,-0.61260587 25.137545,-1.0210088 24.973663,-1.5620784 24.973664,-2.2358163 c -1e-6,-0.6763348 0.163881,-1.2187051 0.491645,-1.6271124 0.327762,-0.4083997 0.759578,-0.6126014 1.295447,-0.6126059 0.322558,4.5e-6 0.599596,0.063736 0.831115,0.1911955 0.231512,0.1274678 0.421407,0.3199637 0.569684,0.5774883 l 0,-0.6633312 0.717959,0 0,3.8278112"
                 style="font-size:7.99118996px;font-variant:normal;font-weight:normal;writing-mode:lr-tb;fill:#000000;fill-opacity:1;fill-rule:nonzero;stroke:none;font-family:DIN;-inkscape-font-specification:DIN-Regular"
                 id="path3078" /><path
                 d="m 33.354838,-2.3645806 0,0.3511753 -3.301049,0 c 0.03122,0.4942483 0.179489,0.8714363 0.444822,1.131565 0.267932,0.25752921 0.639918,0.38629337 1.115958,0.38629288 0.275734,4.9e-7 0.542367,-0.0338164 0.799899,-0.10145066 0.260126,-0.0676331 0.517654,-0.16908365 0.772586,-0.30435196 l 0,0.67893899 c -0.257533,0.10925466 -0.521564,0.19249614 -0.792096,0.24972469 -0.270538,0.05722849 -0.544975,0.08584275 -0.823311,0.08584286 -0.69715,-1.1e-7 -1.249925,-0.20290122 -1.658328,-0.60870392 -0.405803,-0.40580172 -0.608704,-0.95467518 -0.608704,-1.64662218 0,-0.7153543 0.192496,-1.2824369 0.577489,-1.7012494 0.387592,-0.4214061 0.909152,-0.6321111 1.564681,-0.6321156 0.58789,4.5e-6 1.052222,0.1898991 1.392995,0.5696844 0.343368,0.3771919 0.515053,0.8909479 0.515058,1.5412696 m -0.717959,-0.2107052 c -0.0052,-0.3927932 -0.115761,-0.7062494 -0.331666,-0.9403695 -0.213309,-0.2341132 -0.496851,-0.3511715 -0.850624,-0.3511754 -0.400602,3.9e-6 -0.721863,0.1131603 -0.963781,0.3394695 -0.239321,0.2263163 -0.37719,0.5449751 -0.413607,0.9559773 l 2.559678,-0.0039"
                 style="font-size:7.99118996px;font-variant:normal;font-weight:normal;writing-mode:lr-tb;fill:#000000;fill-opacity:1;fill-rule:nonzero;stroke:none;font-family:DIN;-inkscape-font-specification:DIN-Regular"
                 id="path3080" /></g><g
               transform="matrix(0.99974,0,0,-1,56.2289,23.5176)"
               style=""
               id="text3030"><path
                 d="m 3.539067,-4.2414177 0,0.678939 C 3.3361624,-3.666527 3.1254574,-3.7445659 2.9069514,-3.7965956 c -0.2185118,-0.052022 -0.4448245,-0.078035 -0.678939,-0.078039 -0.3563798,3.9e-6 -0.6243133,0.054631 -0.8038013,0.1638818 -0.1768896,0.1092582 -0.2653336,0.2731399 -0.2653325,0.4916455 -1.1e-6,0.1664862 0.063731,0.2978517 0.1911955,0.3940968 0.1274621,0.093649 0.3836898,0.1833942 0.7686838,0.2692344 l 0.2458227,0.054627 c 0.5098517,0.1092569 0.8714319,0.2640341 1.0847416,0.4643318 0.2159042,0.1977006 0.323858,0.4747386 0.3238617,0.831115 -3.7e-6,0.40580341 -0.1612841,0.7270635 -0.4838415,0.96378121 C 2.9693796,-0.00520259 2.5284599,0.11315639 1.9665819,0.1131565 1.7324633,0.11315639 1.4879414,0.08974472 1.2330156,0.04292143 0.98068867,-0.00130065 0.71405581,-0.06893435 0.43311625,-0.15997988 l 0,-0.74137016 c 0.26533178,0.1378696 0.52676205,0.24192145 0.78429155,0.31215586 0.2575272,0.0676343 0.5124542,0.10145114 0.7647819,0.10145065 0.3381665,4.9e-7 0.5982961,-0.057228 0.7803896,-0.17168572 0.182088,-0.11705767 0.2731334,-0.28093933 0.2731364,-0.49164545 -3e-6,-0.1950961 -0.066336,-0.3446706 -0.1989993,-0.4487241 C 2.7066487,-1.703849 2.4192055,-1.8039989 1.9743858,-1.9002488 L 1.7246611,-1.958778 C 1.2798377,-2.0524227 0.95857765,-2.195494 0.7608799,-2.3879923 0.56318063,-2.5830871 0.46433137,-2.84972 0.46433184,-3.1878917 c -4.7e-7,-0.4110016 0.14567212,-0.7283597 0.4370182,-0.9520754 0.29134426,-0.2237073 0.70495036,-0.335563 1.24081956,-0.3355675 0.26533,4.5e-6 0.5150545,0.019514 0.749174,0.058529 0.2341138,0.039024 0.4500214,0.097553 0.6477234,0.1755877"
                 style="font-size:7.99118996px;font-variant:normal;font-weight:normal;writing-mode:lr-tb;fill:#000000;fill-opacity:1;fill-rule:nonzero;stroke:none;font-family:DIN;-inkscape-font-specification:DIN-Regular"
                 id="path3083" /><path
                 d="m 8.0135715,-4.2023982 0,0.6711351 c -0.202905,-0.1118522 -0.4071067,-0.1950937 -0.6126059,-0.2497247 -0.2029043,-0.057225 -0.4084067,-0.085839 -0.6165078,-0.085843 -0.4656347,3.9e-6 -0.8272148,0.1482778 -1.0847416,0.4448221 -0.2575299,0.2939499 -0.386294,0.707556 -0.3862929,1.2408195 -1.1e-6,0.5332679 0.128763,0.9481747 0.3862929,1.24472153 0.2575268,0.29394741 0.6191069,0.44092064 1.0847416,0.44092015 0.2081011,4.9e-7 0.4136035,-0.0273131 0.6165078,-0.0819409 0.2054992,-0.0572279 0.4097009,-0.14177006 0.6126059,-0.25362663 l 0,0.6633312 C 7.8132678,-0.07413694 7.6051641,-0.00390194 7.3892598,0.04292143 7.1759502,0.08974472 6.9483368,0.11315639 6.7064189,0.1131565 6.0482883,0.11315639 5.5254278,-0.09364666 5.1378357,-0.50725327 4.7502415,-0.92085886 4.556445,-1.4788369 4.5564454,-2.1811891 4.556445,-2.893942 4.7515422,-3.4545214 5.1417376,-3.8629287 5.5345323,-4.2713284 6.0717,-4.4755301 6.7532422,-4.4755346 c 0.2211076,4.5e-6 0.4370152,0.023416 0.6477234,0.070235 0.2107018,0.044226 0.4149035,0.1118601 0.6126059,0.2029013"
                 style="font-size:7.99118996px;font-variant:normal;font-weight:normal;writing-mode:lr-tb;fill:#000000;fill-opacity:1;fill-rule:nonzero;stroke:none;font-family:DIN;-inkscape-font-specification:DIN-Regular"
                 id="path3085" /><path
                 d="m 8.9360632,-4.370182 0.7179585,0 0,4.370182 -0.7179585,0 0,-4.370182 m 0,-1.7012494 0.7179585,0 0,0.9091539 -0.7179585,0 0,-0.9091539"
                 style="font-size:7.99118996px;font-variant:normal;font-weight:normal;writing-mode:lr-tb;fill:#000000;fill-opacity:1;fill-rule:nonzero;stroke:none;font-family:DIN;-inkscape-font-specification:DIN-Regular"
                 id="path3087" /><path
                 d="m 14.84735,-2.3645806 0,0.3511753 -3.301048,0 c 0.03121,0.4942483 0.179488,0.8714363 0.444822,1.131565 0.267932,0.25752921 0.639917,0.38629337 1.115957,0.38629288 0.275735,4.9e-7 0.542368,-0.0338164 0.7999,-0.10145066 0.260126,-0.0676331 0.517654,-0.16908365 0.772585,-0.30435196 l 0,0.67893899 c -0.257532,0.10925466 -0.521564,0.19249614 -0.792095,0.24972469 -0.270538,0.05722849 -0.544975,0.08584275 -0.823311,0.08584286 -0.69715,-1.1e-7 -1.249926,-0.20290122 -1.658328,-0.60870392 -0.405803,-0.40580172 -0.608704,-0.95467518 -0.608704,-1.64662218 0,-0.7153543 0.192495,-1.2824369 0.577488,-1.7012494 0.387592,-0.4214061 0.909152,-0.6321111 1.564682,-0.6321156 0.58789,4.5e-6 1.052221,0.1898991 1.392995,0.5696844 0.343367,0.3771919 0.515053,0.8909479 0.515057,1.5412696 m -0.717958,-0.2107052 c -0.0052,-0.3927932 -0.115762,-0.7062494 -0.331666,-0.9403695 -0.21331,-0.2341132 -0.496851,-0.3511715 -0.850625,-0.3511754 -0.400602,3.9e-6 -0.721862,0.1131603 -0.963781,0.3394695 -0.239321,0.2263163 -0.377189,0.5449751 -0.413606,0.9559773 l 2.559678,-0.0039"
                 style="font-size:7.99118996px;font-variant:normal;font-weight:normal;writing-mode:lr-tb;fill:#000000;fill-opacity:1;fill-rule:nonzero;stroke:none;font-family:DIN;-inkscape-font-specification:DIN-Regular"
                 id="path3089" /><path
                 d="m 19.129077,-2.637717 0,2.637717 -0.717959,0 0,-2.6143053 c -3e-6,-0.4136035 -0.08064,-0.7231577 -0.24192,-0.9286637 -0.161284,-0.2054988 -0.403205,-0.30825 -0.725763,-0.3082539 -0.387596,3.9e-6 -0.693248,0.1235654 -0.916958,0.3706851 -0.223713,0.2471266 -0.335569,0.5839945 -0.335567,1.0106046 l 0,2.4699332 -0.721861,0 0,-4.370182 0.721861,0 0,0.678939 c 0.171684,-0.2627272 0.373284,-0.4591251 0.604802,-0.5891942 0.234114,-0.1300605 0.503349,-0.1950929 0.807703,-0.1950974 0.502047,4.5e-6 0.881837,0.1560822 1.139369,0.4682338 0.257524,0.3095582 0.386289,0.7660857 0.386293,1.3695838"
                 style="font-size:7.99118996px;font-variant:normal;font-weight:normal;writing-mode:lr-tb;fill:#000000;fill-opacity:1;fill-rule:nonzero;stroke:none;font-family:DIN;-inkscape-font-specification:DIN-Regular"
                 id="path3091" /><path
                 d="m 23.283947,-4.2023982 0,0.6711351 c -0.202905,-0.1118522 -0.407107,-0.1950937 -0.612606,-0.2497247 -0.202904,-0.057225 -0.408407,-0.085839 -0.616508,-0.085843 -0.465635,3.9e-6 -0.827215,0.1482778 -1.084742,0.4448221 -0.257529,0.2939499 -0.386294,0.707556 -0.386292,1.2408195 -2e-6,0.5332679 0.128763,0.9481747 0.386292,1.24472153 0.257527,0.29394741 0.619107,0.44092064 1.084742,0.44092015 0.208101,4.9e-7 0.413604,-0.0273131 0.616508,-0.0819409 0.205499,-0.0572279 0.409701,-0.14177006 0.612606,-0.25362663 l 0,0.6633312 c -0.200304,0.09364683 -0.408408,0.16388183 -0.624312,0.2107052 -0.21331,0.04682329 -0.440923,0.07023496 -0.682841,0.07023507 -0.65813,-1.1e-7 -1.180991,-0.20680316 -1.568583,-0.62040977 -0.387594,-0.41360559 -0.581391,-0.97158363 -0.58139,-1.67393583 -10e-7,-0.7127529 0.195096,-1.2733323 0.585292,-1.6817396 0.392795,-0.4083997 0.929962,-0.6126014 1.611504,-0.6126059 0.221108,4.5e-6 0.437016,0.023416 0.647724,0.070235 0.210702,0.044226 0.414903,0.1118601 0.612606,0.2029013"
                 style="font-size:7.99118996px;font-variant:normal;font-weight:normal;writing-mode:lr-tb;fill:#000000;fill-opacity:1;fill-rule:nonzero;stroke:none;font-family:DIN;-inkscape-font-specification:DIN-Regular"
                 id="path3093" /><path
                 d="m 27.944506,-2.3645806 0,0.3511753 -3.301048,0 c 0.03121,0.4942483 0.179488,0.8714363 0.444822,1.131565 0.267932,0.25752921 0.639917,0.38629337 1.115957,0.38629288 0.275735,4.9e-7 0.542367,-0.0338164 0.799899,-0.10145066 0.260126,-0.0676331 0.517655,-0.16908365 0.772586,-0.30435196 l 0,0.67893899 c -0.257533,0.10925466 -0.521564,0.19249614 -0.792095,0.24972469 -0.270539,0.05722849 -0.544976,0.08584275 -0.823312,0.08584286 -0.69715,-1.1e-7 -1.249925,-0.20290122 -1.658328,-0.60870392 -0.405803,-0.40580172 -0.608704,-0.95467518 -0.608703,-1.64662218 -10e-7,-0.7153543 0.192495,-1.2824369 0.577488,-1.7012494 0.387592,-0.4214061 0.909152,-0.6321111 1.564681,-0.6321156 0.587891,4.5e-6 1.052222,0.1898991 1.392996,0.5696844 0.343367,0.3771919 0.515052,0.8909479 0.515057,1.5412696 m -0.717959,-0.2107052 c -0.0052,-0.3927932 -0.115761,-0.7062494 -0.331665,-0.9403695 -0.21331,-0.2341132 -0.496851,-0.3511715 -0.850625,-0.3511754 -0.400602,3.9e-6 -0.721862,0.1131603 -0.963781,0.3394695 -0.239321,0.2263163 -0.37719,0.5449751 -0.413607,0.9559773 l 2.559678,-0.0039"
                 style="font-size:7.99118996px;font-variant:normal;font-weight:normal;writing-mode:lr-tb;fill:#000000;fill-opacity:1;fill-rule:nonzero;stroke:none;font-family:DIN;-inkscape-font-specification:DIN-Regular"
                 id="path3095" /><path
                 d="m 1.4476228,8.8183029 0,2.3177571 -0.72186043,0 0,-6.0324118 0.72186043,0 0,0.6633312 C 1.5984965,5.5068535 1.7883911,5.3143576 2.0173072,5.1894911 2.2488206,5.0620318 2.524558,4.9983001 2.8445203,4.9982956 c 0.5306615,4.5e-6 0.9611761,0.2107095 1.2915448,0.6321156 0.3329618,0.4214139 0.4994448,0.9754899 0.4994494,1.66223 C 4.6355099,7.9793855 4.4690269,8.5334616 4.1360651,8.9548711 3.8056964,9.3762816 3.3751818,9.5869866 2.8445203,9.5869867 2.524558,9.5869866 2.2488206,9.5245555 2.0173072,9.3996932 1.7883911,9.2722298 1.5984965,9.0784332 1.4476228,8.8183029 M 3.8902424,7.2926412 C 3.8902385,6.7645802 3.780984,6.3509741 3.5624787,6.0518216 3.3465676,5.7500747 3.0487192,5.5991995 2.6689326,5.5991956 2.2891407,5.5991995 1.9899916,5.7500747 1.7714845,6.0518216 1.5555751,6.3509741 1.4476213,6.7645802 1.4476228,7.2926412 c -1.5e-6,0.5280653 0.1079523,0.942972 0.3238617,1.2447215 0.2185071,0.29915 0.5176562,0.4487245 0.8974481,0.448724 0.3797866,5e-7 0.677635,-0.149574 0.8935461,-0.448724 C 3.780984,8.2356132 3.8902385,7.8207065 3.8902424,7.2926412"
                 style="font-size:7.99118996px;font-variant:normal;font-weight:normal;writing-mode:lr-tb;fill:#000000;fill-opacity:1;fill-rule:nonzero;stroke:none;font-family:DIN;-inkscape-font-specification:DIN-Regular"
                 id="path3097" /><path
                 d="M 7.6322689,5.7747833 C 7.5516254,5.7279637 7.4631813,5.6941468 7.3669364,5.6733327 7.2732867,5.6499248 7.1692349,5.638219 7.0547805,5.6382151 6.6489756,5.638219 6.3368201,5.7708851 6.118313,6.0362138 5.9024036,6.2989482 5.7944498,6.6774368 5.7944513,7.1716808 l 0,2.3021494 -0.7218605,0 0,-4.370182 0.7218605,0 0,0.678939 C 5.945325,5.5172587 6.1417228,5.3208608 6.3836454,5.193393 6.6255639,5.0633325 6.9195104,4.9983001 7.2654857,4.9982956 c 0.049422,4.5e-6 0.104049,0.00391 0.1638819,0.011706 0.059827,0.00521 0.1261597,0.014312 0.1989993,0.027314 l 0.0039,0.7374682"
                 style="font-size:7.99118996px;font-variant:normal;font-weight:normal;writing-mode:lr-tb;fill:#000000;fill-opacity:1;fill-rule:nonzero;stroke:none;font-family:DIN;-inkscape-font-specification:DIN-Regular"
                 id="path3099" /><path
                 d="m 11.921787,7.1092496 0,0.3511753 -3.3010483,0 c 0.031214,0.4942483 0.1794883,0.8714363 0.4448221,1.131565 0.2679319,0.2575292 0.6399173,0.3862934 1.1159572,0.3862929 0.275735,5e-7 0.542368,-0.033816 0.799899,-0.1014507 0.260126,-0.067633 0.517655,-0.1690836 0.772586,-0.3043519 l 0,0.678939 C 11.49647,9.3606738 11.232439,9.4439153 10.961908,9.5011439 10.691369,9.5583723 10.416933,9.5869866 10.138597,9.5869867 9.4414465,9.5869866 8.888671,9.3840855 8.4802686,8.9782828 8.0744653,8.5724811 7.8715642,8.0236076 7.8715647,7.3316606 7.8715642,6.6163063 8.0640601,6.0492238 8.449053,5.6304112 8.8366451,5.2090051 9.358205,4.9983001 10.013734,4.9982956 c 0.587891,4.5e-6 1.052222,0.1898991 1.392996,0.5696845 0.343367,0.3771918 0.515052,0.8909478 0.515057,1.5412695 M 11.203828,6.8985444 C 11.198622,6.5057512 11.088067,6.1922951 10.872163,5.9581749 10.658853,5.7240617 10.375312,5.6070034 10.021538,5.6069995 9.6209359,5.6070034 9.2996758,5.7201598 9.0577569,5.946469 8.818436,6.1727853 8.6805673,6.4914441 8.6441504,6.9024463 l 2.5596776,-0.0039"
                 style="font-size:7.99118996px;font-variant:normal;font-weight:normal;writing-mode:lr-tb;fill:#000000;fill-opacity:1;fill-rule:nonzero;stroke:none;font-family:DIN;-inkscape-font-specification:DIN-Regular"
                 id="path3101" /><path
                 d="m 15.196403,5.2324125 0,0.678939 C 14.993499,5.8073032 14.782794,5.7292643 14.564288,5.6772346 c -0.218512,-0.052022 -0.444825,-0.078035 -0.678939,-0.078039 -0.35638,3.9e-6 -0.624314,0.054631 -0.803802,0.1638819 -0.176889,0.1092581 -0.265333,0.2731398 -0.265332,0.4916454 -10e-7,0.1664862 0.06373,0.2978517 0.191195,0.3940968 0.127462,0.09365 0.38369,0.1833942 0.768684,0.2692344 l 0.245823,0.054627 c 0.509852,0.109257 0.871432,0.2640341 1.084741,0.4643319 0.215905,0.1977005 0.323858,0.4747385 0.323862,0.8311149 -4e-6,0.4058034 -0.161284,0.7270635 -0.483841,0.9637812 -0.319963,0.2367182 -0.760883,0.3550772 -1.322761,0.3550773 -0.234118,-1e-7 -0.47864,-0.023412 -0.733566,-0.070235 -0.252327,-0.044222 -0.51896,-0.1118558 -0.7999,-0.2029014 l 0,-0.7413701 c 0.265332,0.1378696 0.526763,0.2419214 0.784292,0.3121558 0.257527,0.067634 0.512454,0.1014512 0.764782,0.1014507 0.338166,5e-7 0.598296,-0.057228 0.78039,-0.1716857 0.182088,-0.1170577 0.273133,-0.2809394 0.273136,-0.4916455 -3e-6,-0.1950961 -0.06634,-0.3446706 -0.198999,-0.448724 C 14.363985,7.7699812 14.076542,7.6698313 13.631722,7.5735814 L 13.381997,7.5150522 C 12.937174,7.4214075 12.615914,7.2783362 12.418216,7.0858379 12.220517,6.8907431 12.121668,6.6241102 12.121668,6.2859385 c 0,-0.4110016 0.145672,-0.7283597 0.437018,-0.9520753 0.291345,-0.2237074 0.704951,-0.3355631 1.24082,-0.3355676 0.26533,4.5e-6 0.515054,0.019514 0.749174,0.058529 0.234114,0.039024 0.450021,0.097553 0.647723,0.1755877"
                 style="font-size:7.99118996px;font-variant:normal;font-weight:normal;writing-mode:lr-tb;fill:#000000;fill-opacity:1;fill-rule:nonzero;stroke:none;font-family:DIN;-inkscape-font-specification:DIN-Regular"
                 id="path3103" /><path
                 d="m 19.023567,5.2324125 0,0.678939 C 18.820662,5.8073032 18.609957,5.7292643 18.391451,5.6772346 18.17294,5.6252125 17.946627,5.5991995 17.712512,5.5991956 c -0.356379,3.9e-6 -0.624313,0.054631 -0.803801,0.1638819 -0.17689,0.1092581 -0.265334,0.2731398 -0.265332,0.4916454 -2e-6,0.1664862 0.06373,0.2978517 0.191195,0.3940968 0.127462,0.09365 0.38369,0.1833942 0.768684,0.2692344 l 0.245823,0.054627 c 0.509851,0.109257 0.871431,0.2640341 1.084741,0.4643319 0.215904,0.1977005 0.323858,0.4747385 0.323862,0.8311149 -4e-6,0.4058034 -0.161284,0.7270635 -0.483842,0.9637812 -0.319962,0.2367182 -0.760882,0.3550772 -1.32276,0.3550773 -0.234119,-1e-7 -0.478641,-0.023412 -0.733566,-0.070235 -0.252327,-0.044222 -0.51896,-0.1118558 -0.7999,-0.2029014 l 0,-0.7413701 c 0.265332,0.1378696 0.526762,0.2419214 0.784292,0.3121558 0.257527,0.067634 0.512454,0.1014512 0.764782,0.1014507 0.338166,5e-7 0.598296,-0.057228 0.780389,-0.1716857 0.182088,-0.1170577 0.273134,-0.2809394 0.273137,-0.4916455 -3e-6,-0.1950961 -0.06634,-0.3446706 -0.199,-0.448724 C 18.191149,7.7699812 17.903705,7.6698313 17.458886,7.5735814 L 17.209161,7.5150522 C 16.764338,7.4214075 16.443078,7.2783362 16.24538,7.0858379 16.047681,6.8907431 15.948831,6.6241102 15.948832,6.2859385 c -10e-7,-0.4110016 0.145672,-0.7283597 0.437018,-0.9520753 0.291344,-0.2237074 0.70495,-0.3355631 1.24082,-0.3355676 0.26533,4.5e-6 0.515054,0.019514 0.749174,0.058529 0.234113,0.039024 0.450021,0.097553 0.647723,0.1755877"
                 style="font-size:7.99118996px;font-variant:normal;font-weight:normal;writing-mode:lr-tb;fill:#000000;fill-opacity:1;fill-rule:nonzero;stroke:none;font-family:DIN;-inkscape-font-specification:DIN-Regular"
                 id="path3105" /></g></g><path
             d="m 295.758,0 74.8906,0 0,424.277 -74.8906,0 0,-424.277 z"
             style="fill:#000000;fill-opacity:1;fill-rule:nonzero;stroke:none"
             id="path3036" /><path
             d="m 380.637,0 74.8984,0 0,339.629 -74.8984,0 0,-339.629 z"
             style="fill:#000000;fill-opacity:1;fill-rule:nonzero;stroke:none"
             id="path3038" /><path
             d="m 465.527,0 74.8867,0 0,424.277 -74.8867,0 0,-424.277 z"
             style="fill:#000000;fill-opacity:1;fill-rule:nonzero;stroke:none"
             id="path3040" /><path
             d="m 210.863,0 74.9023,0 0,424.277 -74.9023,0 0,-424.277 z"
             style="fill:#000000;fill-opacity:1;fill-rule:nonzero;stroke:none"
             id="path3042" /><path
             d="M 140.199,425.195 0,24.7578 70.6836,0 210.883,400.418 140.199,425.195"
             style="fill:#000000;fill-opacity:1;fill-rule:nonzero;stroke:none"
             id="path3044" /></g></g></g></g></svg>