<?xml version="1.0" encoding="UTF-8" standalone="no"?>
<!-- Created with Inkscape (http://www.inkscape.org/) -->

<svg
   xmlns:dc="http://purl.org/dc/elements/1.1/"
   xmlns:cc="http://creativecommons.org/ns#"
   xmlns:rdf="http://www.w3.org/1999/02/22-rdf-syntax-ns#"
   xmlns:svg="http://www.w3.org/2000/svg"
   xmlns="http://www.w3.org/2000/svg"
   xmlns:sodipodi="http://sodipodi.sourceforge.net/DTD/sodipodi-0.dtd"
   xmlns:inkscape="http://www.inkscape.org/namespaces/inkscape"
   width="189.66986"
   height="139.99951"
   id="svg11645"
   version="1.1"
   inkscape:version="0.48.4 r9939"
   sodipodi:docname="New document 32">
  <defs
     id="defs11647" />
  <sodipodi:namedview
     id="base"
     pagecolor="#ffffff"
     bordercolor="#666666"
     borderopacity="1.0"
     inkscape:pageopacity="0.0"
     inkscape:pageshadow="2"
     inkscape:zoom="0.98994949"
     inkscape:cx="101.60989"
     inkscape:cy="32.098507"
     inkscape:document-units="px"
     inkscape:current-layer="g7811"
     showgrid="false"
     fit-margin-top="35"
     fit-margin-left="35"
     fit-margin-right="35"
     fit-margin-bottom="45"
     inkscape:window-width="1855"
     inkscape:window-height="1056"
     inkscape:window-x="65"
     inkscape:window-y="24"
     inkscape:window-maximized="1" />
  <metadata
     id="metadata11650">
    <rdf:RDF>
      <cc:Work
         rdf:about="">
        <dc:format>image/svg+xml</dc:format>
        <dc:type
           rdf:resource="http://purl.org/dc/dcmitype/StillImage" />
        <dc:title></dc:title>
      </cc:Work>
    </rdf:RDF>
  </metadata>
  <g
     inkscape:label="Layer 1"
     inkscape:groupmode="layer"
     id="layer1"
     transform="translate(-39.426405,-848.97202)">
    <g
       id="g7811"
       transform="matrix(0.75,0,0,0.75,82.535007,154.63545)">
      <g
         transform="matrix(0.1312407,0,0,-0.1312407,-42.733145,1114.568)"
         id="g6877">
        <path
           inkscape:connector-curvature="0"
           id="path5031"
           style="fill:#f2cf04;fill-opacity:1;fill-rule:nonzero;stroke:none"
           d="m 557.504,673.328 15,0 0,-200 -35,0 0,200 20,0" />
        <path
           inkscape:connector-curvature="0"
           id="path5033"
           style="fill:#ed1c24;fill-opacity:1;fill-rule:nonzero;stroke:none"
           d="m 557.504,874.332 15,0 0,-201.004 -35,0 0,201.004 20,0" />
        <path
           inkscape:connector-curvature="0"
           id="path5035"
           style="fill:#231f20;fill-opacity:1;fill-rule:nonzero;stroke:none"
           d="m 384.234,999.941 c 0.274,2.239 0.43,4.549 0.43,6.919 0,1.28 0.008,2.78 -0.148,4.48 19.925,0.28 37.41,14.64 37.41,31.15 0,8.4 -5.481,14.74 -8.574,18.53 0.695,0.15 1.394,0.31 2.097,0.48 2.918,-2.54 11.207,-11.55 11.207,-22.95 0,-19.81 -19.804,-38.2 -42.422,-38.609 z m -20.078,68.989 c -0.371,2.21 -1.211,4.21 -2.492,5.93 0.066,2.02 0.895,3.95 4.149,2.36 -1.758,-1.8 -0.403,-4.99 -0.403,-4.99 0,0 3.598,1.68 2.856,4.05 5.339,-1.28 1.5,-8.45 -4.11,-7.35 z m -4.636,-10.16 c -0.711,2.95 -2.223,6 -4.161,8.28 -1.754,2.08 -4.668,4.55 -8.582,4.55 -1.793,0 -4.789,-0.84 -6.699,-1.64 -0.719,1.29 -2.109,4.43 -2.109,5.84 0,1.45 2.457,2.91 7.144,2.91 10.317,0 16.485,-4.66 16.485,-12.48 0,-2.75 -1.09,-5.25 -2.078,-7.46 z m 26.503,-133.008 c 1.2,0 1.786,-0.196 2.477,-0.449 2.977,-8.086 14.422,-23.333 14.898,-23.985 l 0.11,-0.137 0.168,0.039 c 2.804,0.45 9.976,1.536 15.98,1.536 l 0.133,0 c 0.656,0 1.395,0 1.867,-0.461 0.387,-0.391 0.578,-1.075 0.578,-2.039 0,-1.496 -0.632,-4.043 -1.39,-5.137 -2.106,2.293 -5.512,3.316 -10.965,3.316 -1.649,0 -3.586,-0.488 -4.637,-0.761 l -0.429,-0.094 -0.493,-0.129 3.157,-3.152 c 4.859,-4.856 9.062,-9.043 9.062,-11.836 0,-1.684 -1.641,-3.871 -3.148,-4.844 -0.325,5.113 -5.493,11.949 -10.516,15.777 l -0.43,0.324 -0.082,-1.796 c -0.074,-1.219 -0.179,-3.055 -0.179,-5.008 0,-9.738 -0.989,-11.211 -4.364,-11.211 -0.515,0 -1.304,0.144 -1.8,0.332 1.902,2.344 2.652,5.445 2.652,10.887 l -0.027,2.507 -0.028,2.024 c 0,2.226 0.231,3.879 0.41,5.207 l 0.098,0.75 -0.531,0.066 c -1.578,0.227 -4.512,0.625 -6.754,0.625 -4.805,0 -8.067,-0.437 -10.43,-2.664 -1.555,1.258 -3.156,3.43 -3.156,4.805 0,2.031 1.262,2.187 2.918,2.187 0.84,0 1.621,-0.117 2.707,-0.253 2.062,-0.301 5.18,-0.762 11.586,-0.762 l 0.394,0 -0.121,0.39 c -1.629,4.649 -6.086,11.407 -13.238,20.098 0.645,2.324 1.273,3.848 3.523,3.848 z m -61.742,-23.946 -0.125,-0.39 0.395,0 c 6.406,0 9.527,0.461 11.594,0.762 1.082,0.136 1.859,0.253 2.699,0.253 1.652,0 2.926,-0.156 2.926,-2.187 0,-1.375 -1.61,-3.547 -3.161,-4.805 -2.363,2.227 -5.629,2.664 -10.429,2.664 -2.246,0 -5.184,-0.398 -6.758,-0.625 l -0.25,-0.027 -0.277,-0.039 0.089,-0.75 c 0.188,-1.328 0.418,-2.981 0.418,-5.207 l -0.031,-2.024 -0.023,-2.507 c 0,-5.442 0.746,-8.543 2.652,-10.887 -0.492,-0.188 -1.289,-0.332 -1.809,-0.332 -3.375,0 -4.355,1.473 -4.355,11.211 0,1.953 -0.106,3.789 -0.176,5.008 l -0.094,1.804 -0.425,-0.332 c -5.024,-3.828 -10.192,-10.664 -10.504,-15.777 -1.516,0.973 -3.153,3.16 -3.153,4.844 0,2.793 4.196,6.98 9.055,11.836 l 2.797,2.793 0.352,0.359 -0.918,0.223 c -1.043,0.273 -2.985,0.761 -4.633,0.761 -5.453,0 -8.86,-1.023 -10.965,-3.316 -0.754,1.094 -1.391,3.641 -1.391,5.137 0,0.964 0.192,1.648 0.578,2.039 0.481,0.461 1.215,0.461 1.868,0.461 l 0.132,0 c 6.004,0 13.18,-1.086 15.985,-1.536 l 0.164,-0.039 0.109,0.137 c 0.485,0.652 11.93,15.899 14.903,23.985 0.683,0.253 1.277,0.449 2.468,0.449 2.258,0 2.883,-1.524 3.532,-3.848 -7.161,-8.691 -11.614,-15.449 -13.239,-20.098 z m -30.918,136.734 c 0,11.4 8.285,20.41 11.207,22.95 0.703,-0.17 1.403,-0.33 2.102,-0.48 -3.102,-3.79 -8.574,-10.13 -8.574,-18.53 0,-16.67 17.82,-31.16 37.996,-31.16 -0.125,-1.43 -0.199,-2.93 -0.199,-4.47 0,-2.47 0.136,-4.76 0.378,-6.919 -22.816,0.139 -42.91,18.659 -42.91,38.609 z m 153.063,-35.13 c 10.234,-16.193 18.254,-15.92 30.351,-15.92 -10.015,7.676 -16.636,17.5 -19.789,22.52 l -18.703,29.92 c -1.824,9.24 -6.605,17.88 -13.758,24.31 2.403,0.91 4.403,1.87 5.61,2.78 -12.211,0 -24.313,6.2 -30.973,6.2 -4.281,0 -7.035,-2.55 -7.035,-5.94 0.277,-3.77 4.156,-7.6 11.324,-7.6 1.625,0 3.699,0.21 5.981,0.59 3.882,-5.41 7.011,-10.3 7.011,-17.28 0,-13.1 -15.664,-23.31 -31.472,-23.31 -0.895,0 -1.746,0.04 -2.637,0.11 -1.438,3.24 -6.199,8.7 -6.199,14.89 0,10.41 6.789,18.91 6.789,29.23 0,6.4 -3.125,10.37 -4.328,12.02 1.945,1.8 4.07,4.02 4.562,5.53 -1.129,-0.49 -2.461,-0.55 -4.422,-0.55 -7.578,0 -13.754,1.97 -19.777,1.97 -3.434,0 -4.359,-1.06 -4.359,-2.07 0,-0.37 0.054,-0.75 0.156,-0.93 -1.285,0.5 -2.488,0.83 -3.918,1.09 -1.774,0.34 -3.692,0.51 -5.727,0.51 -7.32,0 -9.922,-3.07 -9.922,-5.69 0,-2.23 1.75,-6.29 3.739,-9.38 2.855,1.43 6.281,2.4 7.847,2.4 3.883,0 7.34,-3.7 9.168,-8.08 -2.609,-0.31 -3.113,-0.43 -5.754,-0.43 -7.125,0 -11.972,2.55 -12.972,2.55 -0.102,0 -0.289,-0.05 -0.289,-0.2 0,-1 2.019,-3.64 6.004,-5.1 5.246,-1.92 13.113,-2.72 14.421,-2.93 0,-0.24 -1.335,-2.72 -2.82,-3.2 -0.316,-0.1 -0.558,-0.11 -0.926,-0.04 -5.484,1.09 -7.011,1.55 -13.964,4.2 -0.215,0.07 -0.336,-0.06 -0.336,-0.28 0,-2.75 7.117,-8.82 13.496,-11.15 -5.328,-6.8 -11.985,-13.75 -15.117,-24.36 -0.891,-0.07 -1.75,-0.11 -2.645,-0.11 -15.809,0 -31.473,10.21 -31.473,23.31 0,6.98 3.133,11.87 7.016,17.28 2.281,-0.38 4.352,-0.59 5.977,-0.59 7.167,0 11.05,3.83 11.332,7.6 0,3.39 -2.754,5.94 -7.043,5.94 -6.664,0 -18.75,-6.2 -30.973,-6.2 1.207,-0.91 3.207,-1.87 5.609,-2.78 -7.152,-6.43 -11.933,-15.07 -13.758,-24.31 l -18.699,-29.92 c -3.148,-5.02 -9.789,-14.844 -19.801,-22.52 12.102,0 20.125,-0.273 30.364,15.92 l 9.586,15.34 c 0.711,-1.99 1.586,-3.93 2.609,-5.83 l -19.066,-30.508 c -3.172,-5.059 -9.746,-14.805 -19.797,-22.52 12.097,0 20.121,-0.285 30.355,15.899 l 16.414,26.279 c 1.227,-1.31 2.52,-2.588 3.883,-3.81 l -23.164,-37.079 c -3.184,-5.07 -9.723,-14.785 -19.797,-22.5 12.102,0 20.125,-0.293 30.36,15.899 l 22.578,36.152 c 1.488,-0.937 3.011,-1.855 4.586,-2.715 l -27.567,-44.101 c -3.179,-5.078 -9.719,-14.766 -19.789,-22.5 12.102,0 20.121,-0.285 30.356,15.898 l 28.379,45.43 c 1.679,-0.645 3.382,-1.262 5.117,-1.816 l -32.071,-51.329 c -3.132,-5 -9.824,-14.863 -19.785,-22.5 12.098,0 20.117,-0.273 30.352,15.899 l 34.18,54.707 c 0.347,-0.059 0.695,-0.117 1.031,-0.188 0.933,-2.957 1.582,-5.711 1.582,-8.464 0,-17.188 -11.281,-32.375 -24.821,-44.09 0.868,-0.383 2.375,-0.508 3.77,-0.508 2.793,0 4.602,0.144 5.863,0.367 -3.136,-7.129 -9.871,-16.336 -13.273,-21.102 -4.434,0.801 -10.879,1.426 -15.106,1.426 -4.418,0 -4.914,-2.59 -4.914,-4.89 0,-4.016 1.875,-7.207 4.063,-8.989 0.812,2.051 2.465,4.797 10.629,4.797 0.156,0 0.437,-0.019 0.82,-0.051 -2.387,-2.656 -9.859,-8.691 -9.859,-13.55 0,-3.227 3.535,-8.047 8.187,-8.047 -0.277,1.031 -0.238,1.988 -0.238,2.703 0,3.945 3.488,8.555 6.437,11.766 -0.089,-0.957 -0.046,-0.86 -0.046,-1.969 0,-9.321 0.847,-13.598 6.753,-13.598 2.903,0 4.903,1.594 5.59,2.07 -3.84,3.536 -4.035,6.309 -4.035,11.536 0.008,1.355 0.016,2.683 0.031,4.519 0.016,1.192 -0.004,2.774 -0.199,3.918 2.121,0.293 2.977,0.293 4.602,0.293 0,0 8.398,0.664 10.418,-3.699 2.281,2.09 5.59,5.039 5.59,8.289 0,2.148 -1.02,4.578 -5.344,4.578 -1.637,0 -6.789,-1.004 -11.102,-1.004 1.16,2.578 6.317,10.117 10.781,15.586 0.676,-2.117 1.731,-4.414 4.075,-6.289 0.324,3.516 2.386,14.648 7.886,21.152 0.637,-4.394 1.504,-8.906 1.504,-18.418 0,-23.132 -5.562,-40.222 -17.375,-43.488 1.539,-2.676 4.785,-5.074 8.16,-5.074 4.317,0 6.676,4.883 9.075,9.488 1.25,-3.394 4.699,-11.734 8.156,-11.734 3.457,0 6.914,8.34 8.164,11.734 2.398,-4.605 4.754,-9.488 9.074,-9.488 3.371,0 6.625,2.398 8.164,5.074 -11.812,3.266 -17.379,20.356 -17.379,43.488 0,9.512 0.86,14.024 1.5,18.418 5.5,-6.504 7.575,-17.636 7.891,-21.152 2.344,1.875 3.402,4.172 4.074,6.289 4.465,-5.469 9.621,-13.008 10.781,-15.586 -4.312,0 -9.464,1.004 -11.101,1.004 -4.32,0 -5.344,-2.43 -5.344,-4.578 0,-3.25 3.313,-6.199 5.594,-8.289 2.016,4.363 10.418,3.699 10.418,3.699 1.629,0 2.48,0 4.601,-0.293 -0.195,-1.144 -0.211,-2.726 -0.203,-3.918 0.024,-1.836 0.028,-3.164 0.032,-4.519 0,-5.227 -0.196,-8 -4.036,-11.536 0.692,-0.476 2.692,-2.07 5.586,-2.07 5.914,0 6.758,4.277 6.758,13.598 0,1.109 0.035,1.012 -0.043,1.969 2.945,-3.211 6.438,-7.821 6.438,-11.766 0,-0.715 0.039,-1.672 -0.246,-2.703 4.66,0 8.195,4.82 8.195,8.047 0,4.859 -7.473,10.894 -9.863,13.55 0.39,0.032 0.664,0.051 0.82,0.051 8.168,0 9.812,-2.746 10.633,-4.797 2.183,1.782 4.058,4.973 4.058,8.989 0,2.3 -0.492,4.89 -4.914,4.89 -4.222,0 -10.668,-0.625 -15.105,-1.426 -3.403,4.766 -10.133,13.973 -13.278,21.102 1.266,-0.223 3.079,-0.367 5.868,-0.367 1.398,0 2.902,0.125 3.773,0.508 -13.543,11.715 -24.824,26.902 -24.824,44.09 0,2.753 0.652,5.507 1.582,8.464 0.336,0.071 0.687,0.129 1.035,0.188 l 34.176,-54.707 c 10.23,-16.172 18.262,-15.899 30.347,-15.899 -9.96,7.637 -16.648,17.5 -19.773,22.5 l -32.078,51.329 c 1.734,0.554 3.441,1.171 5.121,1.816 l 28.379,-45.43 c 10.234,-16.183 18.25,-15.898 30.355,-15.898 -10.074,7.734 -16.613,17.422 -19.789,22.5 l -27.562,44.101 c 1.566,0.86 3.094,1.778 4.574,2.715 l 22.586,-36.152 c 10.238,-16.192 18.254,-15.899 30.348,-15.899 -10.063,7.715 -16.602,17.43 -19.789,22.5 l -23.161,37.079 c 1.364,1.222 2.661,2.5 3.875,3.81 l 16.422,-26.279 c 10.235,-16.184 18.254,-15.899 30.36,-15.899 -10.067,7.715 -16.621,17.461 -19.801,22.52 l -19.067,30.508 c 1.024,1.9 1.899,3.84 2.61,5.83 l 9.586,-15.34" />
        <path
           inkscape:connector-curvature="0"
           id="path5037"
           style="fill:#231f20;fill-opacity:1;fill-rule:nonzero;stroke:none"
           d="m 572.504,1073.32 0,-199.992 -35,0 0,199.992 35,0" />
        <path
           inkscape:connector-curvature="0"
           id="path5039"
           style="fill:#231f20;fill-opacity:1;fill-rule:nonzero;stroke:none"
           d="m 681.117,1016.16 c 0,5.34 -1.14,9.32 -3.437,11.91 -2.305,2.61 -6.094,3.91 -11.367,3.91 l -10.274,0 0,-30.96 8.691,0 c 5.735,0 9.805,0.94 12.208,2.82 2.792,2.18 4.179,6.29 4.179,12.32 z m -1.238,37.85 c 0,5.05 -1.242,8.59 -3.723,10.62 -2.187,1.81 -5.73,2.71 -10.625,2.71 l -9.492,0 0,-27.91 10.059,0 c 9.179,0 13.781,4.86 13.781,14.58 z m 11.074,-38.31 c 0,-8.28 -2.07,-14.16 -6.211,-17.626 -3.769,-3.164 -9.836,-4.746 -18.195,-4.746 l -20,0 0,81.702 21.699,0 c 7.305,0 12.676,-1.58 16.094,-4.75 3.43,-3.16 5.148,-8.39 5.148,-15.71 0,-5.12 -0.871,-9.03 -2.609,-11.75 -1.797,-3.09 -5,-5.34 -9.598,-6.77 5.274,-1.29 8.926,-3.66 10.965,-7.12 1.797,-3.02 2.707,-7.43 2.707,-13.23" />
        <path
           inkscape:connector-curvature="0"
           id="path5041"
           style="fill:#231f20;fill-opacity:1;fill-rule:nonzero;stroke:none"
           d="m 744.516,993.328 -8.926,0 -0.117,7.232 c -3.457,-5.423 -8.243,-8.134 -14.356,-8.134 -10.156,0 -15.254,5.836 -15.254,17.514 l 0,40.34 8.926,0 0,-36.39 c 0,-4.67 0.391,-7.98 1.133,-9.94 1.289,-3.24 3.926,-4.856 7.91,-4.856 7.461,0 11.191,5.536 11.191,16.606 l 0,34.58 9.043,0 0,-44.4 c 0,-4.45 0.149,-8.634 0.45,-12.552" />
        <path
           inkscape:connector-curvature="0"
           id="path5043"
           style="fill:#231f20;fill-opacity:1;fill-rule:nonzero;stroke:none"
           d="m 799.098,993.328 -8.938,0 0,36.392 c 0,4.89 -0.332,8.24 -1.015,10.05 -1.27,3.32 -3.875,4.98 -7.793,4.98 -3.848,0 -6.817,-1.89 -8.926,-5.65 -1.738,-3.24 -2.598,-7.09 -2.598,-11.53 l 0,-34.242 -8.926,0 0,44.522 c 0,5.05 -0.156,9.19 -0.449,12.43 l 8.809,0 0,-7.8 c 3.164,6.03 8.097,9.04 14.804,9.04 10.02,0 15.032,-5.91 15.032,-17.73 l 0,-40.462" />
        <path
           inkscape:connector-curvature="0"
           id="path5045"
           style="fill:#231f20;fill-opacity:1;fill-rule:nonzero;stroke:none"
           d="m 844.301,1021.24 c 0,7.76 -0.567,13.3 -1.699,16.61 -1.582,4.75 -4.629,7.12 -9.161,7.12 -4.433,0 -7.449,-2.49 -9.031,-7.45 -1.066,-3.25 -1.582,-8.29 -1.582,-15.15 0,-7.46 0.594,-12.92 1.805,-16.39 1.582,-4.67 4.406,-7 8.476,-7 4.825,0 8.028,2.37 9.61,7.12 1.054,3.09 1.582,8.13 1.582,15.14 z m 9.14,-27.912 -8.691,0 -0.117,6.555 c -3.242,-4.973 -7.684,-7.457 -13.34,-7.457 -7.305,0 -12.305,3.277 -15.02,9.834 -1.738,4.37 -2.597,11.15 -2.597,20.34 0,8.66 1.015,15.21 3.047,19.66 2.715,6.18 7.5,9.26 14.355,9.26 5.723,0 10.02,-2.22 12.871,-6.66 l 0,30.17 9.043,0 0,-70.96 c 0,-2.04 0.156,-5.617 0.449,-10.742" />
        <path
           inkscape:connector-curvature="0"
           id="path5047"
           style="fill:#231f20;fill-opacity:1;fill-rule:nonzero;stroke:none"
           d="m 897.523,1026.66 c 0,5.5 -0.39,9.39 -1.132,11.64 -1.368,4.52 -4.258,6.78 -8.711,6.78 -6.172,0 -9.668,-3.69 -10.508,-11.07 -0.293,-2.56 -0.449,-5.01 -0.449,-7.35 l 20.8,0 z m 9.024,-6.1 -29.824,0 0,-3.84 c 0,-5.8 0.527,-9.98 1.582,-12.54 1.504,-3.69 4.453,-5.539 8.808,-5.539 6.563,0 9.981,4.179 10.293,12.539 l 8.809,0 c -0.527,-12.649 -6.895,-18.977 -19.102,-18.977 -7.91,0 -13.32,2.668 -16.269,8.027 -2.188,3.98 -3.281,10.43 -3.281,19.32 0,10.09 0.957,17.33 2.832,21.69 2.929,6.86 8.73,10.28 17.402,10.28 8.144,0 13.555,-3.01 16.269,-9.04 1.661,-3.77 2.481,-10.21 2.481,-19.32 l 0,-2.6" />
        <path
           inkscape:connector-curvature="0"
           id="path5049"
           style="fill:#231f20;fill-opacity:1;fill-rule:nonzero;stroke:none"
           d="m 952.309,1008.93 c 0,-11.078 -5.938,-16.617 -17.852,-16.617 -11.66,0 -17.402,6.14 -17.168,18.417 l 8.926,0 c 0,-1.13 0.039,-2.18 0.117,-3.16 0.527,-5.95 3.301,-8.929 8.359,-8.929 5.723,0 8.594,2.939 8.594,8.819 0,3.16 -0.918,5.65 -2.715,7.45 -1.132,1.21 -3.652,2.87 -7.578,4.97 -5.351,2.87 -8.73,4.98 -10.156,6.33 -2.871,2.64 -4.297,6.14 -4.297,10.51 0,4.9 1.621,8.63 4.844,11.19 3.027,2.41 7.051,3.61 12.09,3.61 5.879,0 10.058,-1.37 12.558,-4.12 2.481,-2.75 3.789,-6.99 3.946,-12.71 l -8.926,0 c 0,7.08 -2.676,10.62 -8.028,10.62 -2.324,0 -4.179,-0.72 -5.527,-2.15 -1.367,-1.43 -2.031,-3.31 -2.031,-5.64 0,-2.57 1.094,-4.75 3.262,-6.56 1.132,-1.06 3.808,-2.71 8.027,-4.98 4.59,-2.48 7.754,-4.59 9.492,-6.32 2.715,-2.86 4.063,-6.44 4.063,-10.73" />
        <path
           inkscape:connector-curvature="0"
           id="path5051"
           style="fill:#231f20;fill-opacity:1;fill-rule:nonzero;stroke:none"
           d="m 1028.48,993.328 -8.92,0 0,38.312 c 0,4.14 -0.38,7.07 -1.14,8.81 -1.13,2.79 -3.4,4.18 -6.77,4.18 -6.7,0 -10.06,-5.16 -10.06,-15.48 l 0,-35.822 -8.93,0 0,38.762 c 0,4 -0.312,6.78 -0.898,8.36 -1.055,2.79 -3.36,4.18 -6.895,4.18 -3.398,0 -5.996,-1.66 -7.812,-4.97 -1.582,-2.94 -2.364,-6.74 -2.364,-11.41 l 0,-34.922 -8.925,0 0,47.122 c 0,3.39 -0.157,6.67 -0.45,9.83 l 8.926,0 0,-7.46 c 3.008,5.8 7.5,8.7 13.438,8.7 6.484,0 10.703,-2.9 12.66,-8.7 3.32,5.8 8.02,8.7 14.14,8.7 5.19,0 8.88,-1.69 11.07,-5.08 1.95,-2.94 2.93,-7.73 2.93,-14.35 l 0,-38.762" />
        <path
           inkscape:connector-curvature="0"
           id="path5053"
           style="fill:#231f20;fill-opacity:1;fill-rule:nonzero;stroke:none"
           d="m 1054.24,993.328 -8.92,0 0,56.952 8.92,0 0,-56.952 z m 0.45,70.852 -9.82,0 0,9.72 9.82,0 0,-9.72" />
        <path
           inkscape:connector-curvature="0"
           id="path5055"
           style="fill:#231f20;fill-opacity:1;fill-rule:nonzero;stroke:none"
           d="m 1109.28,993.328 -8.92,0 0,36.392 c 0,4.89 -0.36,8.24 -1.04,10.05 -1.27,3.32 -3.87,4.98 -7.79,4.98 -3.83,0 -6.82,-1.89 -8.93,-5.65 -1.74,-3.24 -2.6,-7.09 -2.6,-11.53 l 0,-34.242 -8.92,0 0,44.522 c 0,5.05 -0.16,9.19 -0.45,12.43 l 8.81,0 0,-7.8 c 3.16,6.03 8.1,9.04 14.8,9.04 10.02,0 15.04,-5.91 15.04,-17.73 l 0,-40.462" />
        <path
           inkscape:connector-curvature="0"
           id="path5057"
           style="fill:#231f20;fill-opacity:1;fill-rule:nonzero;stroke:none"
           d="m 1135.04,993.328 -8.92,0 0,56.952 8.92,0 0,-56.952 z m 0.45,70.852 -9.82,0 0,9.72 9.82,0 0,-9.72" />
        <path
           inkscape:connector-curvature="0"
           id="path5059"
           style="fill:#231f20;fill-opacity:1;fill-rule:nonzero;stroke:none"
           d="m 1183.4,1008.93 c 0,-11.078 -5.95,-16.617 -17.85,-16.617 -11.68,0 -17.4,6.14 -17.19,18.417 l 8.95,0 c 0,-1.13 0.02,-2.18 0.1,-3.16 0.52,-5.95 3.32,-8.929 8.36,-8.929 5.74,0 8.59,2.939 8.59,8.819 0,3.16 -0.9,5.65 -2.71,7.45 -1.14,1.21 -3.66,2.87 -7.56,4.97 -5.35,2.87 -8.75,4.98 -10.18,6.33 -2.87,2.64 -4.3,6.14 -4.3,10.51 0,4.9 1.63,8.63 4.87,11.19 3.01,2.41 7.05,3.61 12.09,3.61 5.88,0 10.06,-1.37 12.54,-4.12 2.48,-2.75 3.81,-6.99 3.96,-12.71 l -8.92,0 c 0,7.08 -2.68,10.62 -8.03,10.62 -2.35,0 -4.18,-0.72 -5.55,-2.15 -1.35,-1.43 -2.03,-3.31 -2.03,-5.64 0,-2.57 1.09,-4.75 3.28,-6.56 1.13,-1.06 3.81,-2.71 8.03,-4.98 4.59,-2.48 7.75,-4.59 9.49,-6.32 2.72,-2.86 4.06,-6.44 4.06,-10.73" />
        <path
           inkscape:connector-curvature="0"
           id="path5061"
           style="fill:#231f20;fill-opacity:1;fill-rule:nonzero;stroke:none"
           d="m 1218.89,993.328 c -2.79,-0.301 -4.98,-0.453 -6.56,-0.453 -5.12,0 -8.63,1.094 -10.51,3.281 -1.58,1.957 -2.36,5.544 -2.36,10.734 l 0,36.84 -8.48,0 0,6.55 8.48,0 0,10.51 8.92,3.96 0,-14.47 10.16,0 0,-6.55 -10.16,0 0,-35.82 c 0,-3.17 0.45,-5.29 1.35,-6.39 0.9,-1.09 2.6,-1.637 5.08,-1.637 0.47,0 1.82,0.157 4.08,0.457 l 0,-7.012" />
        <path
           inkscape:connector-curvature="0"
           id="path5063"
           style="fill:#231f20;fill-opacity:1;fill-rule:nonzero;stroke:none"
           d="m 1257.76,1026.66 c 0,5.5 -0.37,9.39 -1.13,11.64 -1.35,4.52 -4.26,6.78 -8.7,6.78 -6.19,0 -9.68,-3.69 -10.5,-11.07 -0.32,-2.56 -0.47,-5.01 -0.47,-7.35 l 20.8,0 z m 9.04,-6.1 -29.84,0 0,-3.84 c 0,-5.8 0.53,-9.98 1.58,-12.54 1.52,-3.69 4.45,-5.539 8.83,-5.539 6.54,0 9.98,4.179 10.27,12.539 l 8.81,0 c -0.53,-12.649 -6.89,-18.977 -19.08,-18.977 -7.91,0 -13.34,2.668 -16.27,8.027 -2.19,3.98 -3.28,10.43 -3.28,19.32 0,10.09 0.93,17.33 2.81,21.69 2.95,6.86 8.75,10.28 17.4,10.28 8.15,0 13.58,-3.01 16.27,-9.04 1.66,-3.77 2.5,-10.21 2.5,-19.32 l 0,-2.6" />
        <path
           inkscape:connector-curvature="0"
           id="path5065"
           style="fill:#231f20;fill-opacity:1;fill-rule:nonzero;stroke:none"
           d="m 1304.77,1042.82 c -0.92,0.15 -1.54,0.23 -1.93,0.23 -4.28,0 -7.5,-1.32 -9.65,-3.95 -2.15,-2.64 -3.22,-6.15 -3.22,-10.51 l 0,-35.262 -9.05,0 0,46.562 c 0,3.84 -0.11,7.3 -0.33,10.39 l 8.81,0 0,-7.46 c 3.09,5.73 7.91,8.59 14.45,8.59 0.61,0 0.92,-2.86 0.92,-8.59" />
        <path
           inkscape:connector-curvature="0"
           id="path5067"
           style="fill:#231f20;fill-opacity:1;fill-rule:nonzero;stroke:none"
           d="m 1324.42,993.328 -8.93,0 0,56.952 8.93,0 0,-56.952 z m 0.47,70.852 -9.85,0 0,9.72 9.85,0 0,-9.72" />
        <path
           inkscape:connector-curvature="0"
           id="path5069"
           style="fill:#231f20;fill-opacity:1;fill-rule:nonzero;stroke:none"
           d="m 1379.91,993.328 -8.93,0 -0.12,7.232 c -3.45,-5.423 -8.24,-8.134 -14.33,-8.134 -10.18,0 -15.28,5.836 -15.28,17.514 l 0,40.34 8.95,0 0,-36.39 c 0,-4.67 0.37,-7.98 1.11,-9.94 1.29,-3.24 3.93,-4.856 7.91,-4.856 7.46,0 11.2,5.536 11.2,16.606 l 0,34.58 9.04,0 0,-44.4 c 0,-4.45 0.15,-8.634 0.45,-12.552" />
        <path
           inkscape:connector-curvature="0"
           id="path5071"
           style="fill:#231f20;fill-opacity:1;fill-rule:nonzero;stroke:none"
           d="m 1459.01,993.328 -8.93,0 0,38.312 c 0,4.14 -0.37,7.07 -1.13,8.81 -1.13,2.79 -3.38,4.18 -6.78,4.18 -6.7,0 -10.06,-5.16 -10.06,-15.48 l 0,-35.822 -8.92,0 0,38.762 c 0,4 -0.29,6.78 -0.9,8.36 -1.05,2.79 -3.36,4.18 -6.89,4.18 -3.4,0 -6,-1.66 -7.8,-4.97 -1.58,-2.94 -2.38,-6.74 -2.38,-11.41 l 0,-34.922 -8.93,0 0,47.122 c 0,3.39 -0.15,6.67 -0.45,9.83 l 8.93,0 0,-7.46 c 3.01,5.8 7.5,8.7 13.44,8.7 6.48,0 10.7,-2.9 12.65,-8.7 3.32,5.8 8.03,8.7 14.14,8.7 5.2,0 8.89,-1.69 11.08,-5.08 1.95,-2.94 2.93,-7.73 2.93,-14.35 l 0,-38.762" />
        <path
           inkscape:connector-curvature="0"
           id="path5073"
           style="fill:#231f20;fill-opacity:1;fill-rule:nonzero;stroke:none"
           d="m 666.996,948.363 c -0.683,0.075 -1.844,0.114 -3.496,0.114 -2.793,0 -4.676,-1.02 -5.652,-3.051 -0.606,-1.434 -0.91,-3.731 -0.91,-6.895 l 0,-8.25 9.726,0 0,-6.551 -9.726,0 0,-50.402 -8.926,0 0,50.402 -8.36,0 0,6.551 8.36,0 0,6.219 c 0,6.176 0.754,10.578 2.265,13.219 2.11,3.914 6.172,5.879 12.2,5.879 1.582,0 3.093,-0.082 4.519,-0.231 l 0,-7.004" />
        <path
           inkscape:connector-curvature="0"
           id="path5075"
           style="fill:#231f20;fill-opacity:1;fill-rule:nonzero;stroke:none"
           d="m 716.832,873.328 -8.926,0 -0.109,7.235 c -3.477,-5.426 -8.262,-8.137 -14.356,-8.137 -10.175,0 -15.253,5.836 -15.253,17.515 l 0,40.34 8.925,0 0,-36.386 c 0,-4.672 0.371,-7.981 1.133,-9.946 1.27,-3.234 3.906,-4.855 7.91,-4.855 7.453,0 11.184,5.535 11.184,16.609 l 0,34.578 9.031,0 0,-44.406 c 0,-4.449 0.156,-8.629 0.461,-12.547" />
        <path
           inkscape:connector-curvature="0"
           id="path5077"
           style="fill:#231f20;fill-opacity:1;fill-rule:nonzero;stroke:none"
           d="m 692.758,943.391 -8.36,0 0,10.847 8.36,0 0,-10.847 z m 17.746,0 -8.586,0 0,10.847 8.586,0 0,-10.847" />
        <path
           inkscape:connector-curvature="0"
           id="path5079"
           style="fill:#231f20;fill-opacity:1;fill-rule:nonzero;stroke:none"
           d="m 756.949,922.82 c -0.91,0.153 -1.554,0.231 -1.926,0.231 -4.296,0 -7.519,-1.317 -9.656,-3.953 -2.148,-2.637 -3.222,-6.145 -3.222,-10.516 l 0,-35.254 -9.043,0 0,46.559 c 0,3.843 -0.11,7.304 -0.344,10.394 l 8.82,0 0,-7.461 c 3.094,5.731 7.91,8.59 14.461,8.59 0.606,0 0.91,-2.859 0.91,-8.59" />
        <path
           inkscape:connector-curvature="0"
           id="path5081"
           style="fill:#231f20;fill-opacity:1;fill-rule:nonzero;stroke:none"
           d="m 878.871,955.027 -18.75,-81.699 -11.531,0 -14.348,71.645 -15.144,-71.645 -11.535,0 -18.067,81.699 10.156,0 14.024,-71.414 15.363,71.414 11.531,0 14.239,-71.414 14.902,71.414 9.16,0" />
        <path
           inkscape:connector-curvature="0"
           id="path5083"
           style="fill:#231f20;fill-opacity:1;fill-rule:nonzero;stroke:none"
           d="m 896.488,873.328 -8.925,0 0,56.953 8.925,0 0,-56.953 z m 0.469,70.852 -9.844,0 0,9.722 9.844,0 0,-9.722" />
        <path
           inkscape:connector-curvature="0"
           id="path5085"
           style="fill:#231f20;fill-opacity:1;fill-rule:nonzero;stroke:none"
           d="m 937.055,922.82 c -0.899,0.153 -1.543,0.231 -1.914,0.231 -4.297,0 -7.52,-1.317 -9.668,-3.953 -2.129,-2.637 -3.203,-6.145 -3.203,-10.516 l 0,-35.254 -9.043,0 0,46.559 c 0,3.843 -0.118,7.304 -0.352,10.394 l 8.828,0 0,-7.461 c 3.086,5.731 7.91,8.59 14.453,8.59 0.606,0 0.899,-2.859 0.899,-8.59" />
        <path
           inkscape:connector-curvature="0"
           id="path5087"
           style="fill:#231f20;fill-opacity:1;fill-rule:nonzero;stroke:none"
           d="m 969.828,873.328 c -2.773,-0.301 -4.961,-0.453 -6.543,-0.453 -5.137,0 -8.633,1.094 -10.508,3.281 -1.582,1.957 -2.382,5.539 -2.382,10.735 l 0,36.839 -8.477,0 0,6.551 8.477,0 0,10.508 8.925,3.957 0,-14.465 10.176,0 0,-6.551 -10.176,0 0,-35.824 c 0,-3.164 0.45,-5.289 1.368,-6.383 0.898,-1.093 2.597,-1.64 5.078,-1.64 0.449,0 1.797,0.152 4.062,0.453 l 0,-7.008" />
        <path
           inkscape:connector-curvature="0"
           id="path5089"
           style="fill:#231f20;fill-opacity:1;fill-rule:nonzero;stroke:none"
           d="m 1012.54,888.926 c 0,-11.074 -5.95,-16.613 -17.849,-16.613 -11.679,0 -17.402,6.14 -17.168,18.417 l 8.926,0 c 0,-1.128 0.039,-2.183 0.098,-3.164 0.527,-5.949 3.32,-8.925 8.379,-8.925 5.724,0 8.574,2.937 8.574,8.816 0,3.164 -0.9,5.648 -2.71,7.453 -1.118,1.207 -3.657,2.867 -7.563,4.973 -5.352,2.867 -8.75,4.976 -10.176,6.328 -2.852,2.637 -4.297,6.141 -4.297,10.512 0,4.898 1.621,8.625 4.863,11.187 3.008,2.41 7.051,3.613 12.09,3.613 5.883,0 10.063,-1.371 12.543,-4.121 2.5,-2.75 3.81,-6.988 3.96,-12.714 l -8.92,0 c 0,7.078 -2.68,10.625 -8.032,10.625 -2.344,0 -4.18,-0.719 -5.547,-2.149 -1.348,-1.43 -2.031,-3.316 -2.031,-5.648 0,-2.567 1.093,-4.746 3.281,-6.559 1.133,-1.055 3.809,-2.711 8.027,-4.973 4.592,-2.484 7.752,-4.593 9.492,-6.328 2.72,-2.859 4.06,-6.437 4.06,-10.73" />
        <path
           inkscape:connector-curvature="0"
           id="path5091"
           style="fill:#231f20;fill-opacity:1;fill-rule:nonzero;stroke:none"
           d="m 1061.02,891.07 c 0,-12.578 -5.92,-18.867 -17.73,-18.867 -8.15,0 -13.6,2.637 -16.39,7.91 -2.11,3.989 -3.16,10.922 -3.16,20.789 0,9.868 0.93,16.875 2.83,21.016 2.85,6.406 8.49,9.605 16.93,9.605 6.49,0 11.08,-1.503 13.79,-4.515 2.5,-2.867 3.73,-7.5 3.73,-13.903 l -8.81,0 c 0,7.985 -2.95,11.977 -8.81,11.977 -4.68,0 -7.73,-2.523 -9.16,-7.566 -0.82,-2.942 -1.25,-8.176 -1.25,-15.707 0,-8.59 0.65,-14.504 1.94,-17.743 1.42,-3.617 4.14,-5.425 8.12,-5.425 3.56,0 6.04,1.242 7.46,3.726 1.06,1.887 1.62,4.785 1.7,8.703 l 8.81,0" />
        <path
           inkscape:connector-curvature="0"
           id="path5093"
           style="fill:#231f20;fill-opacity:1;fill-rule:nonzero;stroke:none"
           d="m 1111.76,873.328 -8.92,0 0,36.391 c 0,4.816 -0.35,8.172 -1.02,10.054 -1.29,3.313 -3.89,4.973 -7.79,4.973 -7.7,0 -11.54,-5.613 -11.54,-16.836 l 0,-34.582 -8.93,0 0,81.699 8.93,0 0,-31.297 c 3.69,5.196 8.47,7.793 14.35,7.793 9.94,0 14.92,-5.949 14.92,-17.851 l 0,-40.344" />
        <path
           inkscape:connector-curvature="0"
           id="path5095"
           style="fill:#231f20;fill-opacity:1;fill-rule:nonzero;stroke:none"
           d="m 1154.48,895.367 0,6.778 -2.27,0 c -11.89,0 -17.85,-4.071 -17.85,-12.204 0,-7.308 2.79,-10.961 8.36,-10.961 4.22,0 7.34,1.805 9.37,5.422 1.59,2.864 2.39,6.516 2.39,10.965 z m 9.37,-22.039 -8.69,0 -0.12,7.457 c -3.84,-5.57 -8.92,-8.359 -15.25,-8.359 -4.82,0 -8.55,1.582 -11.19,4.746 -2.35,3.012 -3.5,7.008 -3.5,11.976 0,8.063 3.09,13.489 9.26,16.274 4.06,1.883 10.78,2.863 20.12,2.937 l 0,2.485 c 0,4.672 -0.37,7.91 -1.14,9.722 -1.21,3.012 -3.76,4.516 -7.67,4.516 -2.72,0 -4.98,-0.75 -6.8,-2.262 -1.79,-1.504 -2.69,-3.613 -2.69,-6.328 l 0,-0.558 -8.93,0 0,0.558 c 0,5.203 1.88,9.082 5.65,11.645 3.24,2.258 7.59,3.386 13.1,3.386 6.56,0 11.11,-1.582 13.67,-4.746 2.41,-2.863 3.62,-7.605 3.62,-14.238 l 0,-21.016 c 0,-6.855 0.19,-12.921 0.56,-18.195" />
        <path
           inkscape:connector-curvature="0"
           id="path5097"
           style="fill:#231f20;fill-opacity:1;fill-rule:nonzero;stroke:none"
           d="m 1201.82,948.363 c -0.68,0.075 -1.83,0.114 -3.49,0.114 -2.8,0 -4.67,-1.02 -5.67,-3.051 -0.58,-1.434 -0.9,-3.731 -0.9,-6.895 l 0,-8.25 9.73,0 0,-6.551 -9.73,0 0,-50.402 -8.92,0 0,50.402 -8.36,0 0,6.551 8.36,0 0,6.219 c 0,6.176 0.76,10.578 2.26,13.219 2.11,3.914 6.17,5.879 12.21,5.879 1.58,0 3.09,-0.082 4.51,-0.231 l 0,-7.004" />
        <path
           inkscape:connector-curvature="0"
           id="path5099"
           style="fill:#231f20;fill-opacity:1;fill-rule:nonzero;stroke:none"
           d="m 1235.04,873.328 c -2.79,-0.301 -4.98,-0.453 -6.56,-0.453 -5.12,0 -8.61,1.094 -10.51,3.281 -1.58,1.957 -2.36,5.539 -2.36,10.735 l 0,36.839 -8.48,0 0,6.551 8.48,0 0,10.508 8.93,3.957 0,-14.465 10.17,0 0,-6.551 -10.17,0 0,-35.824 c 0,-3.164 0.45,-5.289 1.34,-6.383 0.92,-1.093 2.6,-1.64 5.1,-1.64 0.45,0 1.8,0.152 4.06,0.453 l 0,-7.008" />
        <path
           inkscape:connector-curvature="0"
           id="path5101"
           style="fill:#231f20;fill-opacity:1;fill-rule:nonzero;stroke:none"
           d="m 683.715,753.328 -8.926,0 -0.105,7.238 c -3.469,-5.429 -8.254,-8.144 -14.348,-8.144 -10.176,0 -15.254,5.84 -15.254,17.519 l 0,40.34 8.926,0 0,-36.386 c 0,-4.672 0.371,-7.981 1.125,-9.946 1.277,-3.234 3.914,-4.855 7.91,-4.855 7.461,0 11.18,5.535 11.18,16.609 l 0,34.578 9.043,0 0,-44.406 c 0,-4.449 0.156,-8.629 0.449,-12.547" />
        <path
           inkscape:connector-curvature="0"
           id="path5103"
           style="fill:#231f20;fill-opacity:1;fill-rule:nonzero;stroke:none"
           d="m 738.305,753.328 -8.926,0 0,36.391 c 0,4.894 -0.352,8.246 -1.024,10.054 -1.281,3.313 -3.878,4.973 -7.792,4.973 -3.84,0 -6.829,-1.887 -8.938,-5.648 -1.727,-3.243 -2.598,-7.086 -2.598,-11.532 l 0,-34.238 -8.925,0 0,44.524 c 0,5.046 -0.145,9.187 -0.45,12.429 l 8.809,0 0,-7.797 c 3.164,6.028 8.105,9.039 14.805,9.039 10.019,0 15.039,-5.914 15.039,-17.738 l 0,-40.457" />
        <path
           inkscape:connector-curvature="0"
           id="path5105"
           style="fill:#231f20;fill-opacity:1;fill-rule:nonzero;stroke:none"
           d="m 783.5,781.238 c 0,7.762 -0.566,13.297 -1.699,16.614 -1.582,4.746 -4.629,7.121 -9.149,7.121 -4.445,0 -7.453,-2.489 -9.035,-7.457 -1.054,-3.243 -1.582,-8.289 -1.582,-15.145 0,-7.461 0.598,-12.918 1.797,-16.387 1.582,-4.668 4.414,-7 8.477,-7 4.824,0 8.027,2.371 9.609,7.114 1.055,3.09 1.582,8.136 1.582,15.14 z m 9.16,-27.91 -8.711,0 -0.117,6.555 c -3.23,-4.973 -7.676,-7.461 -13.32,-7.461 -7.313,0 -12.324,3.281 -15.039,9.836 -1.727,4.367 -2.598,11.148 -2.598,20.34 0,8.664 1.016,15.215 3.047,19.664 2.715,6.176 7.5,9.261 14.355,9.261 5.723,0 10.02,-2.222 12.891,-6.664 l 0,30.168 9.035,0 0,-70.961 c 0,-2.035 0.145,-5.609 0.457,-10.738" />
        <path
           inkscape:connector-curvature="0"
           id="path5107"
           style="fill:#231f20;fill-opacity:1;fill-rule:nonzero;stroke:none"
           d="m 876.156,753.328 -38.418,0 0,81.699 37.637,0 0,-7.797 -28.027,0 0,-28.023 26.543,0 0,-7.57 -26.543,0 0,-30.516 28.808,0 0,-7.793" />
        <path
           inkscape:connector-curvature="0"
           id="path5109"
           style="fill:#231f20;fill-opacity:1;fill-rule:nonzero;stroke:none"
           d="m 927.68,753.328 -8.926,0 0,36.391 c 0,4.894 -0.332,8.246 -1.016,10.054 -1.269,3.313 -3.867,4.973 -7.793,4.973 -3.847,0 -6.816,-1.887 -8.925,-5.648 -1.739,-3.243 -2.598,-7.086 -2.598,-11.532 l 0,-34.238 -8.926,0 0,44.524 c 0,5.046 -0.156,9.187 -0.449,12.429 l 8.808,0 0,-7.797 c 3.165,6.028 8.106,9.039 14.805,9.039 10.02,0 15.02,-5.914 15.02,-17.738 l 0,-40.457" />
        <path
           inkscape:connector-curvature="0"
           id="path5111"
           style="fill:#231f20;fill-opacity:1;fill-rule:nonzero;stroke:none"
           d="m 972.211,786.664 c 0,5.5 -0.391,9.383 -1.133,11.641 -1.367,4.515 -4.258,6.777 -8.711,6.777 -6.172,0 -9.668,-3.691 -10.508,-11.074 -0.293,-2.559 -0.449,-5.008 -0.449,-7.344 l 20.801,0 z m 9.043,-6.101 -29.844,0 0,-3.844 c 0,-5.801 0.528,-9.981 1.582,-12.539 1.504,-3.692 4.453,-5.539 8.809,-5.539 6.562,0 10,4.179 10.293,12.543 l 8.808,0 c -0.527,-12.661 -6.894,-18.989 -19.101,-18.989 -7.91,0 -13.321,2.676 -16.27,8.032 -2.187,3.988 -3.261,10.433 -3.261,19.32 0,10.094 0.937,17.328 2.812,21.691 2.949,6.86 8.75,10.285 17.402,10.285 8.145,0 13.555,-3.011 16.27,-9.039 1.66,-3.769 2.5,-10.211 2.5,-19.32 l 0,-2.601" />
        <path
           inkscape:connector-curvature="0"
           id="path5113"
           style="fill:#231f20;fill-opacity:1;fill-rule:nonzero;stroke:none"
           d="m 1019.22,802.82 c -0.91,0.153 -1.56,0.231 -1.93,0.231 -4.3,0 -7.52,-1.317 -9.65,-3.953 -2.15,-2.637 -3.22,-6.145 -3.22,-10.516 l 0,-35.254 -9.045,0 0,46.559 c 0,3.843 -0.117,7.304 -0.352,10.394 l 8.827,0 0,-7.461 c 3.09,5.731 7.91,8.59 14.46,8.59 0.6,0 0.91,-2.859 0.91,-8.59" />
        <path
           inkscape:connector-curvature="0"
           id="path5115"
           style="fill:#231f20;fill-opacity:1;fill-rule:nonzero;stroke:none"
           d="m 1056.96,783.613 c 0,6.403 -0.53,11.149 -1.58,14.239 -1.66,4.671 -4.75,7.007 -9.28,7.007 -4.67,0 -7.76,-2.636 -9.26,-7.91 -0.9,-3.164 -1.35,-8.398 -1.35,-15.711 0,-6.55 0.45,-11.222 1.35,-14.008 1.43,-4.671 4.34,-7.003 8.71,-7.003 5.12,0 8.5,2.82 10.16,8.468 0.84,2.942 1.25,7.91 1.25,14.918 z m 9.26,26.668 c 0,-0.828 -0.06,-2.316 -0.16,-4.461 -0.12,-2.148 -0.18,-3.824 -0.18,-5.031 l 0,-49.832 c 0,-6.934 -1.62,-11.98 -4.86,-15.148 -3.24,-3.164 -8.4,-4.746 -15.47,-4.746 -11.76,0 -17.71,5.507 -17.87,16.503 l 9.49,0 c 0,-6.929 2.95,-10.398 8.83,-10.398 4.59,0 7.64,1.66 9.14,4.973 1.06,2.183 1.58,5.797 1.58,10.847 l 0,7.688 c -3.16,-4.446 -7.55,-6.672 -13.22,-6.672 -7.07,0 -11.93,2.976 -14.57,8.934 -1.74,3.914 -2.6,10.015 -2.6,18.3 0,9.192 0.94,16.047 2.84,20.571 2.69,6.476 7.51,9.714 14.45,9.714 6.33,0 10.9,-2.636 13.67,-7.91 l 0,6.668 8.93,0" />
        <path
           inkscape:connector-curvature="0"
           id="path5117"
           style="fill:#231f20;fill-opacity:1;fill-rule:nonzero;stroke:none"
           d="m 1091.53,753.328 -8.93,0 0,56.953 8.93,0 0,-56.953 z m 0.45,70.852 -9.83,0 0,9.722 9.83,0 0,-9.722" />
        <path
           inkscape:connector-curvature="0"
           id="path5119"
           style="fill:#231f20;fill-opacity:1;fill-rule:nonzero;stroke:none"
           d="m 1136.06,786.664 c 0,5.5 -0.37,9.383 -1.13,11.641 -1.35,4.515 -4.26,6.777 -8.71,6.777 -6.18,0 -9.67,-3.691 -10.51,-11.074 -0.29,-2.559 -0.45,-5.008 -0.45,-7.344 l 20.8,0 z m 9.04,-6.101 -29.84,0 0,-3.844 c 0,-5.801 0.53,-9.981 1.58,-12.539 1.5,-3.692 4.45,-5.539 8.83,-5.539 6.54,0 9.98,4.179 10.27,12.543 l 8.81,0 c -0.53,-12.661 -6.89,-18.989 -19.08,-18.989 -7.91,0 -13.34,2.676 -16.29,8.032 -2.17,3.988 -3.26,10.433 -3.26,19.32 0,10.094 0.94,17.328 2.81,21.691 2.95,6.86 8.75,10.285 17.4,10.285 8.15,0 13.58,-3.011 16.27,-9.039 1.66,-3.769 2.5,-10.211 2.5,-19.32 l 0,-2.601" />
      </g>
      <g
         transform="matrix(0.1312407,0,0,-0.1312407,-42.733145,1114.568)"
         id="g6973">
        <path
           inkscape:connector-curvature="0"
           id="path5121"
           style="fill:#231f20;fill-opacity:1;fill-rule:nonzero;stroke:none"
           d="m 134.082,1338.6 c -2.418,1.54 -7.148,3.41 -13.644,3.41 -13.969,0 -27.8325,-9.02 -27.8325,-32.12 0,-22.22 10.7855,-33.44 26.0785,-33.44 6.265,0 11,1.2 14.414,2.63 l 0,22.01 -6.825,1.54 c -1.101,0.22 -1.543,0.55 -1.543,1.21 0,0.99 0.774,2.31 1.211,3.08 l 22.883,0 c 0,0 0.114,-0.44 0.114,-0.99 0,-1.77 -0.879,-3.08 -3.743,-3.74 l -2.531,-0.55 0,-23.44 c -2.973,-2.75 -10.672,-8.36 -26.512,-8.36 -18.9254,0 -33.7731,12.21 -33.7731,38.95 0,28.6 20.9021,39.6 38.7261,39.6 11.329,0 16.938,-3.19 20.571,-4.62 0.219,-3.19 0.551,-10.67 0.551,-11.33 0,-2.97 -0.883,-4.84 -3.301,-4.84 -0.774,0 -1.543,0.11 -2.422,0.44 l -2.422,10.56" />
        <path
           inkscape:connector-curvature="0"
           id="path5123"
           style="fill:#231f20;fill-opacity:1;fill-rule:nonzero;stroke:none"
           d="m 188.199,1303.18 c 0.219,0.88 0.551,2.75 0.551,4.62 0,6.16 -2.422,11.77 -9.684,11.77 -7.257,0 -11.55,-5.39 -12.539,-16.39 l 21.672,0 z m -21.785,-5.29 c 0.113,-13.96 6.492,-21.44 17.055,-21.44 7.152,0 11.004,3.07 13.535,5.16 0.879,-0.66 1.316,-2.2 1.43,-3.19 0,-2.74 -7.043,-8.58 -18.707,-8.58 -12.321,0 -22.774,7.59 -22.774,26.74 0,19.14 11.445,28.71 23.211,28.71 11.774,0 17.938,-7.59 17.938,-18.49 0,-2.85 -0.551,-6.04 -1.211,-8.91 l -30.477,0" />
        <path
           inkscape:connector-curvature="0"
           id="path5125"
           style="fill:#231f20;fill-opacity:1;fill-rule:nonzero;stroke:none"
           d="m 237.367,1318.25 -13.75,0 0,-41.36 7.699,-1.44 c 1.102,-0.22 1.539,-0.55 1.539,-1.43 0,-1.1 -0.66,-2.31 -1.097,-2.86 l -24.422,0 c 0,0 -0.109,0.44 -0.109,0.77 0,1.98 1.32,2.97 3.41,3.63 l 4.07,1.33 0,41.36 -8.363,0 c 0,0 -0.11,0.44 -0.11,0.77 0,2.09 1.321,3.08 3.411,3.63 l 5.062,1.32 0,1.65 c 0,17.49 9.57,26.08 18.59,26.08 4.625,0 6.601,-2.09 6.601,-5.18 0,-1.98 -0.988,-3.19 -1.871,-4.07 -0.765,0.44 -3.847,1.98 -7.148,1.98 -5.504,0 -7.262,-2.75 -7.262,-9.35 l 0,-11.11 14.852,0 -1.102,-5.72" />
        <path
           inkscape:connector-curvature="0"
           id="path5127"
           style="fill:#231f20;fill-opacity:1;fill-rule:nonzero;stroke:none"
           d="m 277.301,1333.54 c -2.977,0 -5.391,2.2 -5.391,5.61 0,3.41 2.414,5.61 5.391,5.61 2.969,0 5.39,-2.2 5.39,-5.61 0,-3.41 -2.421,-5.61 -5.39,-5.61 z m -18.707,0 c -2.969,0 -5.391,2.2 -5.391,5.61 0,3.41 2.422,5.61 5.391,5.61 2.972,0 5.39,-2.2 5.39,-5.61 0,-3.41 -2.418,-5.61 -5.39,-5.61 z m -5.938,-35.97 c 0,-14.75 6.598,-21.68 15.289,-21.68 8.692,0 15.512,6.93 15.512,21.68 0,14.74 -6.82,21.78 -15.512,21.78 -8.691,0 -15.289,-7.04 -15.289,-21.78 z m 40.485,0.54 c 0,-18.91 -13.203,-28.27 -25.961,-28.27 -12.766,0 -24.207,8.8 -24.207,27.18 0,18.37 12.984,28.27 26.297,28.27 12.757,0 23.871,-8.25 23.871,-27.18" />
        <path
           inkscape:connector-curvature="0"
           id="path5129"
           style="fill:#231f20;fill-opacity:1;fill-rule:nonzero;stroke:none"
           d="m 317.336,1315.39 0.328,0 c 2.313,3.52 6.379,9.9 13.973,9.9 5.172,0 7.371,-2.31 7.371,-5.39 0,-2.09 -0.988,-3.63 -1.762,-4.62 -1.316,0.55 -4.066,1.65 -7.262,1.65 -6.046,0 -9.238,-2.42 -11.992,-6.27 l 0,-33.77 7.699,-1.44 c 1.106,-0.22 1.543,-0.55 1.543,-1.43 0,-1.1 -0.656,-2.31 -1.097,-2.86 l -24.422,0 c 0,0 -0.113,0.44 -0.113,0.77 0,1.98 1.32,2.97 3.414,3.63 l 4.066,1.33 0,41.03 -8.031,1.1 c 0,0 -0.11,0.44 -0.11,0.88 0,1.87 1.43,3.19 4.075,3.41 l 12.976,1.32 -0.656,-9.24" />
        <path
           inkscape:connector-curvature="0"
           id="path5131"
           style="fill:#231f20;fill-opacity:1;fill-rule:nonzero;stroke:none"
           d="m 380.258,1315.16 c -1.867,1.88 -5.281,3.97 -10.563,3.97 -9.461,0 -16.722,-7.26 -16.722,-21.56 0,-14.53 6.269,-20.58 14.523,-20.58 7.481,0 11.219,3.19 12.762,4.73 l 0,33.44 z m 8.914,-37.95 8.031,-1.1 c 0,0 0.106,-0.43 0.106,-0.88 0,-1.87 -1.43,-3.19 -4.071,-3.41 l -12.32,-1.32 0,6.93 -0.332,0 c -2.527,-3.52 -7.039,-7.59 -15.731,-7.59 -10.453,0 -21.125,6.38 -21.125,26.18 0,20.58 13.864,29.27 27.067,29.27 4.07,0 7.371,-0.77 9.461,-1.43 l 0,20.46 -8.031,1.11 c 0,0 -0.114,0.43 -0.114,0.87 0,1.87 1.434,3.19 4.075,3.41 l 12.984,1.33 0,-73.83" />
        <path
           inkscape:connector-curvature="0"
           id="path5133"
           style="fill:#231f20;fill-opacity:1;fill-rule:nonzero;stroke:none"
           d="m 435.691,1303.18 c 0.223,0.88 0.555,2.75 0.555,4.62 0,6.16 -2.422,11.77 -9.683,11.77 -7.262,0 -11.551,-5.39 -12.54,-16.39 l 21.668,0 z m -21.781,-5.29 c 0.113,-13.96 6.488,-21.44 17.051,-21.44 7.152,0 11.008,3.07 13.535,5.16 0.879,-0.66 1.32,-2.2 1.434,-3.19 0,-2.74 -7.043,-8.58 -18.707,-8.58 -12.321,0 -22.774,7.59 -22.774,26.74 0,19.14 11.446,28.71 23.211,28.71 11.774,0 17.938,-7.59 17.938,-18.49 0,-2.85 -0.555,-6.04 -1.211,-8.91 l -30.477,0" />
        <path
           inkscape:connector-curvature="0"
           id="path5135"
           style="fill:#231f20;fill-opacity:1;fill-rule:nonzero;stroke:none"
           d="m 470.344,1315.39 0.332,0 c 2.308,3.52 6.375,9.9 13.969,9.9 5.168,0 7.371,-2.31 7.371,-5.39 0,-2.09 -0.993,-3.63 -1.762,-4.62 -1.316,0.55 -4.066,1.65 -7.262,1.65 -6.051,0 -9.238,-2.42 -11.992,-6.27 l 0,-33.77 7.699,-1.44 c 1.106,-0.22 1.543,-0.55 1.543,-1.43 0,-1.1 -0.656,-2.31 -1.097,-2.86 l -24.422,0 c 0,0 -0.114,0.44 -0.114,0.77 0,1.98 1.321,2.97 3.414,3.63 l 4.067,1.33 0,41.03 -8.031,1.1 c 0,0 -0.11,0.44 -0.11,0.88 0,1.87 1.434,3.19 4.074,3.41 l 12.977,1.32 -0.656,-9.24" />
        <path
           inkscape:connector-curvature="0"
           id="path5137"
           style="fill:#231f20;fill-opacity:1;fill-rule:nonzero;stroke:none"
           d="m 527.871,1318.25 -15.406,0 0,-33.89 c 0,-4.18 1.43,-8.14 7.152,-8.14 4.293,0 8.254,2.1 9.133,2.76 0.438,-0.66 0.77,-2.32 0.77,-3.2 0,-0.98 -3.629,-5.94 -13.09,-5.94 -9.133,0 -12.875,5.28 -12.875,12.66 l 0,35.75 -8.36,0 c 0,0 -0.113,0.44 -0.113,0.77 0,2.09 1.324,3.08 3.414,3.63 l 5.504,1.32 2.09,14.74 6.375,0 0,-14.74 16.504,0 -1.098,-5.72" />
        <path
           inkscape:connector-curvature="0"
           id="path5139"
           style="fill:#231f20;fill-opacity:1;fill-rule:nonzero;stroke:none"
           d="m 595.852,1315.16 c -1.872,1.88 -5.286,3.97 -10.563,3.97 -9.465,0 -16.726,-7.26 -16.726,-21.56 0,-14.53 6.273,-20.58 14.523,-20.58 7.48,0 11.223,3.19 12.766,4.73 l 0,33.44 z m 8.91,-37.95 8.031,-1.1 c 0,0 0.105,-0.43 0.105,-0.88 0,-1.87 -1.429,-3.19 -4.07,-3.41 l -12.32,-1.32 0,6.93 -0.332,0 c -2.528,-3.52 -7.039,-7.59 -15.731,-7.59 -10.449,0 -21.125,6.38 -21.125,26.18 0,20.58 13.864,29.27 27.067,29.27 4.074,0 7.375,-0.77 9.465,-1.43 l 0,20.46 -8.036,1.11 c 0,0 -0.113,0.43 -0.113,0.87 0,1.87 1.434,3.19 4.074,3.41 l 12.985,1.33 0,-73.83" />
        <path
           inkscape:connector-curvature="0"
           id="path5141"
           style="fill:#231f20;fill-opacity:1;fill-rule:nonzero;stroke:none"
           d="m 667.348,1277.21 8.035,-1.1 c 0,0 0.105,-0.43 0.105,-0.88 0,-1.87 -1.429,-3.19 -4.07,-3.41 l -12.32,-1.32 0,7.27 -0.219,0 c -1.871,-2.32 -6.715,-7.93 -16.613,-7.93 -11.227,0 -17.383,6.93 -17.383,19.7 l 0,28.38 -8.031,1.1 c 0,0 -0.114,0.44 -0.114,0.88 0,1.87 1.43,3.19 4.075,3.41 l 12.98,1.32 0,-34.55 c 0,-10.01 5.5,-12.87 11.004,-12.87 6.488,0 10.777,2.42 13.641,5.39 l 0,35.32 -8.032,1.1 c 0,0 -0.113,0.44 -0.113,0.88 0,1.87 1.43,3.19 4.07,3.41 l 12.985,1.32 0,-47.42" />
        <path
           inkscape:connector-curvature="0"
           id="path5143"
           style="fill:#231f20;fill-opacity:1;fill-rule:nonzero;stroke:none"
           d="m 697.262,1315.39 0.332,0 c 2.308,3.52 6.375,9.9 13.969,9.9 5.171,0 7.375,-2.31 7.375,-5.39 0,-2.09 -0.993,-3.63 -1.766,-4.62 -1.317,0.55 -4.067,1.65 -7.262,1.65 -6.047,0 -9.242,-2.42 -11.988,-6.27 l 0,-33.77 7.699,-1.44 c 1.102,-0.22 1.543,-0.55 1.543,-1.43 0,-1.1 -0.66,-2.31 -1.101,-2.86 l -24.422,0 c 0,0 -0.114,0.44 -0.114,0.77 0,1.98 1.321,2.97 3.414,3.63 l 4.067,1.33 0,41.03 -8.031,1.1 c 0,0 -0.11,0.44 -0.11,0.88 0,1.87 1.434,3.19 4.074,3.41 l 12.981,1.32 -0.66,-9.24" />
        <path
           inkscape:connector-curvature="0"
           id="path5145"
           style="fill:#231f20;fill-opacity:1;fill-rule:nonzero;stroke:none"
           d="m 748.082,1319.24 c -7.699,0 -14.852,-5.72 -14.852,-20.03 0,-14.3 5.5,-22.76 16.833,-22.76 7.148,0 11.441,3.84 12.539,5.05 0.773,-0.77 1.543,-2.09 1.543,-3.08 0,-2.74 -5.942,-8.58 -17.602,-8.58 -13.422,0 -22.887,9.02 -22.887,27.06 0,18.38 12.106,28.39 26.735,28.39 11.332,0 14.527,-5.39 14.527,-8.58 0,-2.86 -1.434,-5.17 -4.512,-5.94 -1.652,3.41 -4.293,8.47 -12.324,8.47" />
        <path
           inkscape:connector-curvature="0"
           id="path5147"
           style="fill:#231f20;fill-opacity:1;fill-rule:nonzero;stroke:none"
           d="m 787.355,1317.37 0.325,0 c 1.875,2.31 7.156,7.92 16.836,7.92 11.109,0 17.711,-6.6 17.711,-19.7 l 0,-28.7 6.601,-1.44 c 1.098,-0.22 1.543,-0.55 1.543,-1.43 0,-1.1 -0.664,-2.31 -1.101,-2.86 l -23.325,0 c 0,0 -0.109,0.44 -0.109,0.77 0,1.98 1.32,2.97 3.41,3.63 l 4.07,1.33 0,28.16 c 0,9.68 -5.718,12.87 -11.878,12.87 -7.817,0 -11.665,-3.19 -14.083,-5.72 l 0,-35.31 6.598,-1.44 c 1.102,-0.22 1.539,-0.55 1.539,-1.43 0,-1.1 -0.656,-2.31 -1.097,-2.86 l -23.325,0 c 0,0 -0.109,0.44 -0.109,0.77 0,1.98 1.32,2.97 3.41,3.63 l 4.07,1.33 0,67.43 -8.031,1.11 c 0,0 -0.105,0.43 -0.105,0.87 0,1.87 1.425,3.19 4.066,3.41 l 12.984,1.33 0,-33.67" />
        <path
           inkscape:connector-curvature="0"
           id="path5149"
           style="fill:#231f20;fill-opacity:1;fill-rule:nonzero;stroke:none"
           d="m 844.551,1269.84 c -3.301,0 -5.942,2.31 -5.942,5.94 0,3.74 2.641,6.16 5.942,6.16 3.414,0 6.164,-2.42 6.164,-6.16 0,-3.63 -2.75,-5.94 -6.164,-5.94 z m 0,43.35 c -3.301,0 -5.942,2.31 -5.942,5.94 0,3.74 2.641,6.16 5.942,6.16 3.414,0 6.164,-2.42 6.164,-6.16 0,-3.63 -2.75,-5.94 -6.164,-5.94" />
      </g>
      <g
         transform="matrix(0.1312407,0,0,-0.1312407,-42.733145,1114.568)"
         id="g6924">
        <path
           inkscape:connector-curvature="0"
           id="path5151"
           style="fill:#231f20;fill-opacity:1;fill-rule:nonzero;stroke:none"
           d="m 106.469,217.941 c -10.0081,-0.761 -15.9495,-3.73 -15.9495,-10.011 0,-4.828 2.7461,-8.141 7.918,-8.141 5.2855,0 9.2425,3.641 11.0005,5.731 l 0,12.64 -2.969,-0.219 z m 11.883,-12.32 c 0,-4.84 1.761,-6.269 3.851,-6.269 2.422,0 3.625,1.097 3.957,1.429 0.442,-0.652 0.992,-2.203 0.992,-3.082 0,-1.097 -2.527,-4.508 -8.582,-4.508 -4.84,0 -7.808,2.09 -8.468,7.59 l -0.223,0 c -1.207,-1.859 -5.5,-7.922 -15.0704,-7.922 -8.25,0 -13.9727,5.5 -13.9727,14.082 0,11.547 13.2032,16.18 25.6331,16.18 l 2.969,0 0,5.27 c 0,9.468 -2.528,14.078 -9.6763,14.078 -3.082,0 -5.6172,-0.758 -6.4961,-1.09 -0.9883,-1.988 -1.9765,-6.27 -2.5273,-9.688 0,0 -1.7578,-0.101 -2.3125,-0.101 -3.4102,0 -5.3906,1.531 -5.3906,4.73 0,6.711 9.3515,11.989 18.3748,11.989 11.551,0 16.942,-6.489 16.942,-18.59 l 0,-24.098" />
        <path
           inkscape:connector-curvature="0"
           id="path5153"
           style="fill:#231f20;fill-opacity:1;fill-rule:nonzero;stroke:none"
           d="m 180.172,200.219 8.031,-1.09 c 0,0 0.11,-0.438 0.11,-0.879 0,-1.871 -1.434,-3.191 -4.075,-3.422 l -12.32,-1.297 0,7.25 -0.219,0 c -1.871,-2.312 -6.715,-7.922 -16.609,-7.922 -11.227,0 -17.387,6.93 -17.387,19.692 l 0,28.39 -8.031,1.098 c 0,0 -0.109,0.43 -0.109,0.883 0,1.867 1.429,3.18 4.07,3.406 l 12.984,1.32 0,-34.546 c 0,-10 5.496,-12.883 11,-12.883 6.488,0 10.781,2.429 13.645,5.402 l 0,35.32 -8.035,1.098 c 0,0 -0.114,0.43 -0.114,0.883 0,1.867 1.434,3.18 4.075,3.406 l 12.984,1.32 0,-47.429" />
        <path
           inkscape:connector-curvature="0"
           id="path5155"
           style="fill:#231f20;fill-opacity:1;fill-rule:nonzero;stroke:none"
           d="m 224.605,241.262 -13.75,0 0,-41.364 7.7,-1.429 c 1.097,-0.219 1.539,-0.547 1.539,-1.43 0,-1.098 -0.66,-2.301 -1.102,-2.859 l -24.422,0 c 0,0 -0.105,0.441 -0.105,0.769 0,1.973 1.316,2.973 3.406,3.629 l 4.07,1.32 0,41.364 -8.363,0 c 0,0 -0.105,0.449 -0.105,0.777 0,2.09 1.316,3.082 3.406,3.633 l 5.062,1.308 0,1.661 c 0,17.48 9.575,26.078 18.59,26.078 4.625,0 6.602,-2.09 6.602,-5.18 0,-1.98 -0.985,-3.187 -1.867,-4.07 -0.77,0.441 -3.852,1.98 -7.153,1.98 -5.5,0 -7.258,-2.75 -7.258,-9.347 l 0,-11.122 14.848,0 -1.098,-5.718" />
        <path
           inkscape:connector-curvature="0"
           id="path5157"
           style="fill:#231f20;fill-opacity:1;fill-rule:nonzero;stroke:none"
           d="m 241.648,230.699 c 0,-8.687 4.954,-12.308 11.118,-12.308 6.707,0 11.55,3.621 11.55,12.308 0,7.821 -4.843,12 -11.332,12 -6.382,0 -11.336,-3.527 -11.336,-12 z m 1.985,-34.871 c -3.414,-1.758 -5.504,-4.949 -5.504,-9.129 0,-6.051 3.742,-9.801 12.215,-9.801 11.769,0 18.152,5.391 18.152,11.782 0,4.851 -2.969,6.82 -9.023,6.82 l -11.547,0 c -1.543,0 -2.977,0.121 -4.293,0.328 z m 35.094,45.211 -9.133,0 c 2.09,-2.75 3.414,-6.148 3.414,-10.23 0,-11.539 -9.461,-18.039 -20.797,-18.039 -1.867,0 -3.625,0.23 -5.277,0.55 -1.543,-0.879 -3.414,-2.41 -3.414,-5.172 0,-2.75 2.089,-3.957 5.832,-3.957 l 12.543,0 c 9.351,0 15.402,-4.293 15.402,-11.992 0,-10.89 -10.231,-21.347 -28.387,-21.347 -13.09,0 -19.578,4.957 -19.578,12.878 0,8.469 6.602,11.981 10.008,13.192 l 0,0.226 c -2.641,1.43 -4.289,3.864 -4.289,7.25 0,6.282 5.832,9.25 7.484,10.133 l 0,0.231 c -5.836,2.75 -9.797,8.238 -9.797,16.047 0,11.453 9.571,17.5 20.028,17.5 2.964,0 5.718,-0.45 8.355,-1.329 l 18.707,0 -1.101,-5.941" />
        <path
           inkscape:connector-curvature="0"
           id="path5159"
           style="fill:#231f20;fill-opacity:1;fill-rule:nonzero;stroke:none"
           d="m 300.723,238.41 0.332,0 c 2.308,3.512 6.379,9.899 13.968,9.899 5.172,0 7.375,-2.309 7.375,-5.387 0,-2.094 -0.992,-3.633 -1.761,-4.633 -1.321,0.563 -4.071,1.66 -7.262,1.66 -6.051,0 -9.238,-2.418 -11.992,-6.269 l 0,-33.782 7.699,-1.429 c 1.106,-0.219 1.543,-0.547 1.543,-1.43 0,-1.098 -0.66,-2.301 -1.098,-2.859 l -24.425,0 c 0,0 -0.114,0.441 -0.114,0.769 0,1.973 1.321,2.973 3.414,3.629 l 4.071,1.32 0,41.043 -8.035,1.098 c 0,0 -0.106,0.43 -0.106,0.883 0,1.867 1.43,3.18 4.07,3.406 l 12.981,1.32 -0.66,-9.238" />
        <path
           inkscape:connector-curvature="0"
           id="path5161"
           style="fill:#231f20;fill-opacity:1;fill-rule:nonzero;stroke:none"
           d="m 375.855,200.219 8.032,-1.09 c 0,0 0.105,-0.438 0.105,-0.879 0,-1.871 -1.429,-3.191 -4.07,-3.422 l -12.32,-1.297 0,7.25 -0.219,0 c -1.871,-2.312 -6.715,-7.922 -16.613,-7.922 -11.223,0 -17.379,6.93 -17.379,19.692 l 0,28.39 -8.036,1.098 c 0,0 -0.113,0.43 -0.113,0.883 0,1.867 1.434,3.18 4.074,3.406 l 12.985,1.32 0,-34.546 c 0,-10 5.496,-12.883 11,-12.883 6.488,0 10.781,2.429 13.64,5.402 l 0,35.32 -8.031,1.098 c 0,0 -0.109,0.43 -0.109,0.883 0,1.867 1.429,3.18 4.07,3.406 l 12.984,1.32 0,-47.429" />
        <path
           inkscape:connector-curvature="0"
           id="path5163"
           style="fill:#231f20;fill-opacity:1;fill-rule:nonzero;stroke:none"
           d="m 441.305,199.898 6.601,-1.429 c 1.098,-0.219 1.535,-0.547 1.535,-1.43 0,-1.098 -0.656,-2.301 -1.097,-2.859 l -23.324,0 c 0,0 -0.114,0.441 -0.114,0.769 0,1.973 1.324,2.973 3.414,3.629 l 4.075,1.32 0,28.172 c 0,9.668 -6.055,12.871 -11.887,12.871 -6.93,0 -11.555,-3.203 -14.082,-5.39 l 0,-35.653 6.601,-1.429 c 1.098,-0.219 1.543,-0.547 1.543,-1.43 0,-1.098 -0.664,-2.301 -1.101,-2.859 l -23.324,0 c 0,0 -0.11,0.441 -0.11,0.769 0,1.973 1.317,2.973 3.41,3.629 l 4.071,1.32 0,41.043 -8.036,1.098 c 0,0 -0.105,0.43 -0.105,0.883 0,1.867 1.43,3.18 4.07,3.406 l 12.981,1.32 -0.66,-7.367 0.332,0 c 3.078,2.969 7.922,8.028 18.148,8.028 10.781,0 17.059,-7.27 17.059,-19.7 l 0,-28.711" />
        <path
           inkscape:connector-curvature="0"
           id="path5165"
           style="fill:#231f20;fill-opacity:1;fill-rule:nonzero;stroke:none"
           d="m 492.34,238.18 c -1.871,1.879 -5.285,3.968 -10.563,3.968 -9.464,0 -16.722,-7.257 -16.722,-21.558 0,-14.531 6.269,-20.578 14.519,-20.578 7.481,0 11.223,3.187 12.766,4.726 l 0,33.442 z m 8.91,-37.961 8.031,-1.09 c 0,0 0.11,-0.438 0.11,-0.879 0,-1.871 -1.43,-3.191 -4.075,-3.422 l -12.32,-1.297 0,6.918 -0.328,0 c -2.531,-3.527 -7.043,-7.59 -15.734,-7.59 -10.45,0 -21.121,6.379 -21.121,26.18 0,20.582 13.859,29.27 27.062,29.27 4.074,0 7.375,-0.77 9.465,-1.438 l 0,20.457 -8.031,1.121 c 0,0 -0.114,0.43 -0.114,0.879 0,1.863 1.43,3.184 4.071,3.391 l 12.984,1.332 0,-73.832" />
        <path
           inkscape:connector-curvature="0"
           id="path5167"
           style="fill:#231f20;fill-opacity:1;fill-rule:nonzero;stroke:none"
           d="m 571.531,226.199 c 0.223,0.879 0.555,2.75 0.555,4.61 0,6.171 -2.422,11.781 -9.684,11.781 -7.261,0 -11.55,-5.391 -12.539,-16.391 l 21.668,0 z M 549.75,220.91 c 0.113,-13.969 6.488,-21.449 17.051,-21.449 7.152,0 11.008,3.078 13.535,5.168 0.879,-0.66 1.32,-2.199 1.434,-3.188 0,-2.75 -7.043,-8.582 -18.707,-8.582 -12.321,0 -22.774,7.59 -22.774,26.743 0,19.136 11.445,28.707 23.211,28.707 11.773,0 17.938,-7.598 17.938,-18.489 0,-2.859 -0.555,-6.039 -1.211,-8.91 l -30.477,0" />
        <path
           inkscape:connector-curvature="0"
           id="path5169"
           style="fill:#231f20;fill-opacity:1;fill-rule:nonzero;stroke:none"
           d="m 602.328,259.762 c -3.519,0 -6.269,2.41 -6.269,6.269 0,3.84 2.75,6.367 6.269,6.367 3.524,0 6.383,-2.527 6.383,-6.367 0,-3.859 -2.859,-6.269 -6.383,-6.269 z m 4.512,-59.864 6.601,-1.429 c 1.102,-0.219 1.543,-0.547 1.543,-1.43 0,-1.098 -0.664,-2.301 -1.101,-2.859 l -23.32,0 c 0,0 -0.114,0.441 -0.114,0.769 0,1.973 1.321,2.973 3.414,3.629 l 4.067,1.32 0,41.043 -8.032,1.098 c 0,0 -0.109,0.43 -0.109,0.883 0,1.867 1.434,3.18 4.074,3.406 l 12.977,1.32 0,-47.75" />
        <path
           inkscape:connector-curvature="0"
           id="path5171"
           style="fill:#231f20;fill-opacity:1;fill-rule:nonzero;stroke:none"
           d="m 672.406,199.898 6.602,-1.429 c 1.097,-0.219 1.539,-0.547 1.539,-1.43 0,-1.098 -0.66,-2.301 -1.098,-2.859 l -23.328,0 c 0,0 -0.109,0.441 -0.109,0.769 0,1.973 1.324,2.973 3.414,3.629 l 4.07,1.32 0,28.172 c 0,9.668 -6.055,12.871 -11.887,12.871 -6.925,0 -11.55,-3.203 -14.082,-5.39 l 0,-35.653 6.606,-1.429 c 1.097,-0.219 1.543,-0.547 1.543,-1.43 0,-1.098 -0.664,-2.301 -1.106,-2.859 l -23.32,0 c 0,0 -0.113,0.441 -0.113,0.769 0,1.973 1.32,2.973 3.414,3.629 l 4.066,1.32 0,41.043 -8.031,1.098 c 0,0 -0.106,0.43 -0.106,0.883 0,1.867 1.43,3.18 4.071,3.406 l 12.976,1.32 -0.656,-7.367 0.332,0 c 3.074,2.969 7.918,8.028 18.149,8.028 10.781,0 17.054,-7.27 17.054,-19.7 l 0,-28.711" />
        <path
           inkscape:connector-curvature="0"
           id="path5173"
           style="fill:#231f20;fill-opacity:1;fill-rule:nonzero;stroke:none"
           d="m 718.16,226.199 c 0.219,0.879 0.551,2.75 0.551,4.61 0,6.171 -2.422,11.781 -9.684,11.781 -7.257,0 -11.55,-5.391 -12.539,-16.391 l 21.672,0 z m -21.781,-5.289 c 0.109,-13.969 6.488,-21.449 17.051,-21.449 7.152,0 11.004,3.078 13.535,5.168 0.879,-0.66 1.316,-2.199 1.43,-3.188 0,-2.75 -7.043,-8.582 -18.707,-8.582 -12.321,0 -22.774,7.59 -22.774,26.743 0,19.136 11.445,28.707 23.215,28.707 11.769,0 17.934,-7.598 17.934,-18.489 0,-2.859 -0.551,-6.039 -1.211,-8.91 l -30.473,0" />
        <path
           inkscape:connector-curvature="0"
           id="path5175"
           style="fill:#231f20;fill-opacity:1;fill-rule:nonzero;stroke:none"
           d="m 762.598,240.379 c -1.211,0.781 -3.961,2.32 -7.481,2.32 -4.293,0 -8.031,-1.539 -8.031,-6.5 0,-5.058 5.281,-8.129 10.894,-11.429 6.379,-3.86 13.204,-8.04 13.204,-16.282 0,-8.808 -7.043,-15.629 -18.485,-15.629 -5.941,0 -11.332,1.879 -13.422,3.082 -0.55,3.071 -0.882,6.93 -0.882,9.02 0,3.738 0.992,5.277 4.07,5.277 0.555,0 0.992,-0.109 0.992,-0.109 l 2.203,-8.91 c 1.203,-0.879 4.18,-2.418 8.028,-2.418 6.16,0 9.46,2.418 9.46,7.258 0,4.519 -4.949,7.48 -10.226,10.793 -6.496,4.058 -13.535,8.687 -13.535,17.488 0,8.582 7.476,13.969 17.492,13.969 5.832,0 9.793,-2.09 11.773,-3.75 0.219,-2.09 0.442,-4.829 0.442,-6.7 0,-3.187 -0.664,-5.507 -4.188,-5.507 -0.547,0 -0.984,0.117 -0.984,0.117 l -1.324,7.91" />
        <path
           inkscape:connector-curvature="0"
           id="path5177"
           style="fill:#231f20;fill-opacity:1;fill-rule:nonzero;stroke:none"
           d="m 831.461,229.602 -8.691,0 0,-29.262 8.027,0 c 13.973,0 20.137,6.39 20.137,15.082 0,8.359 -6.602,14.18 -19.473,14.18 z m -1.324,34.339 -7.367,0 0,-28.5 7.257,0 c 13.641,0 19.364,6.379 19.364,14.297 0,9.231 -6.051,14.203 -19.254,14.203 z m 12.984,-30.711 0,-0.21 c 10.887,-1.43 18.035,-7.27 18.035,-17.598 0,-12.223 -9.894,-21.242 -29.148,-21.242 l -27.172,0 c 0,0 -0.113,0.441 -0.113,0.992 0,1.75 0.882,3.297 3.738,3.957 l 4.73,1.09 0,64.043 -6.82,1.539 c -1.098,0.23 -1.535,0.551 -1.535,1.211 0,0.988 0.769,2.316 1.211,3.078 l 25.082,0 c 19.031,0 28.164,-6.942 28.164,-19.031 0,-10.887 -6.602,-16.071 -16.172,-17.829" />
        <path
           inkscape:connector-curvature="0"
           id="path5179"
           style="fill:#231f20;fill-opacity:1;fill-rule:nonzero;stroke:none"
           d="m 903.395,226.199 c 0.222,0.879 0.546,2.75 0.546,4.61 0,6.171 -2.414,11.781 -9.679,11.781 -7.254,0 -11.551,-5.391 -12.539,-16.391 l 21.672,0 z m -21.778,-5.289 c 0.106,-13.969 6.485,-21.449 17.051,-21.449 7.148,0 10.996,3.078 13.523,5.168 0.891,-0.66 1.329,-2.199 1.438,-3.188 0,-2.75 -7.043,-8.582 -18.703,-8.582 -12.324,0 -22.774,7.59 -22.774,26.743 0,19.136 11.438,28.707 23.215,28.707 11.766,0 17.93,-7.598 17.93,-18.489 0,-2.859 -0.547,-6.039 -1.211,-8.91 l -30.469,0" />
        <path
           inkscape:connector-curvature="0"
           id="path5181"
           style="fill:#231f20;fill-opacity:1;fill-rule:nonzero;stroke:none"
           d="m 947.836,240.379 c -1.211,0.781 -3.965,2.32 -7.481,2.32 -4.296,0 -8.035,-1.539 -8.035,-6.5 0,-5.058 5.282,-8.129 10.899,-11.429 6.375,-3.86 13.191,-8.04 13.191,-16.282 0,-8.808 -7.039,-15.629 -18.476,-15.629 -5.946,0 -11.336,1.879 -13.426,3.082 -0.547,3.071 -0.879,6.93 -0.879,9.02 0,3.738 0.996,5.277 4.07,5.277 0.547,0 0.989,-0.109 0.989,-0.109 l 2.207,-8.91 c 1.21,-0.879 4.179,-2.418 8.027,-2.418 6.16,0 9.461,2.418 9.461,7.258 0,4.519 -4.949,7.48 -10.235,10.793 -6.484,4.058 -13.523,8.687 -13.523,17.488 0,8.582 7.48,13.969 17.488,13.969 5.832,0 9.785,-2.09 11.77,-3.75 0.222,-2.09 0.437,-4.829 0.437,-6.7 0,-3.187 -0.652,-5.507 -4.179,-5.507 -0.547,0 -0.985,0.117 -0.985,0.117 l -1.32,7.91" />
        <path
           inkscape:connector-curvature="0"
           id="path5183"
           style="fill:#231f20;fill-opacity:1;fill-rule:nonzero;stroke:none"
           d="m 990.406,242.262 c -7.707,0 -14.855,-5.731 -14.855,-20.024 0,-14.308 5.5,-22.777 16.828,-22.777 7.156,0 11.441,3.848 12.551,5.059 0.77,-0.77 1.53,-2.09 1.53,-3.079 0,-2.75 -5.94,-8.582 -17.597,-8.582 -13.418,0 -22.883,9.02 -22.883,27.063 0,18.367 12.102,28.387 26.731,28.387 11.339,0 14.519,-5.387 14.519,-8.579 0,-2.859 -1.42,-5.171 -4.51,-5.949 -1.65,3.418 -4.286,8.481 -12.314,8.481" />
        <path
           inkscape:connector-curvature="0"
           id="path5185"
           style="fill:#231f20;fill-opacity:1;fill-rule:nonzero;stroke:none"
           d="m 1029.67,240.379 0.33,0 c 1.87,2.32 7.15,7.93 16.83,7.93 11.11,0 17.72,-6.598 17.72,-19.7 l 0,-28.711 6.6,-1.429 c 1.1,-0.219 1.54,-0.547 1.54,-1.43 0,-1.098 -0.66,-2.301 -1.1,-2.859 l -23.32,0 c 0,0 -0.11,0.441 -0.11,0.769 0,1.973 1.32,2.973 3.41,3.629 l 4.07,1.32 0,28.172 c 0,9.668 -5.72,12.871 -11.89,12.871 -7.81,0 -11.66,-3.203 -14.08,-5.73 l 0,-35.313 6.6,-1.429 c 1.11,-0.219 1.55,-0.547 1.55,-1.43 0,-1.098 -0.67,-2.301 -1.11,-2.859 l -23.32,0 c 0,0 -0.11,0.441 -0.11,0.769 0,1.973 1.32,2.973 3.41,3.629 l 4.07,1.32 0,67.43 -8.03,1.121 c 0,0 -0.11,0.43 -0.11,0.879 0,1.863 1.43,3.184 4.07,3.391 l 12.98,1.332 0,-33.672" />
        <path
           inkscape:connector-curvature="0"
           id="path5187"
           style="fill:#231f20;fill-opacity:1;fill-rule:nonzero;stroke:none"
           d="m 1093.79,199.898 6.61,-1.429 c 1.1,-0.219 1.54,-0.547 1.54,-1.43 0,-1.098 -0.67,-2.301 -1.11,-2.859 l -23.32,0 c 0,0 -0.1,0.441 -0.1,0.769 0,1.973 1.32,2.973 3.41,3.629 l 4.07,1.32 0,67.43 -8.04,1.121 c 0,0 -0.11,0.43 -0.11,0.879 0,1.863 1.44,3.184 4.08,3.391 l 12.97,1.332 0,-74.153" />
        <path
           inkscape:connector-curvature="0"
           id="path5189"
           style="fill:#231f20;fill-opacity:1;fill-rule:nonzero;stroke:none"
           d="m 1157.06,200.219 8.02,-1.09 c 0,0 0.12,-0.438 0.12,-0.879 0,-1.871 -1.44,-3.191 -4.07,-3.422 l -12.33,-1.297 0,7.25 -0.22,0 c -1.87,-2.312 -6.71,-7.922 -16.61,-7.922 -11.22,0 -17.39,6.93 -17.39,19.692 l 0,28.39 -8.02,1.098 c 0,0 -0.11,0.43 -0.11,0.883 0,1.867 1.43,3.18 4.07,3.406 l 12.98,1.32 0,-34.546 c 0,-10 5.5,-12.883 11,-12.883 6.49,0 10.78,2.429 13.64,5.402 l 0,35.32 -8.03,1.098 c 0,0 -0.11,0.43 -0.11,0.883 0,1.867 1.43,3.18 4.08,3.406 l 12.98,1.32 0,-47.429" />
        <path
           inkscape:connector-curvature="0"
           id="path5191"
           style="fill:#231f20;fill-opacity:1;fill-rule:nonzero;stroke:none"
           d="m 1196.76,240.379 c -1.21,0.781 -3.96,2.32 -7.48,2.32 -4.29,0 -8.03,-1.539 -8.03,-6.5 0,-5.058 5.28,-8.129 10.89,-11.429 6.38,-3.86 13.2,-8.04 13.2,-16.282 0,-8.808 -7.04,-15.629 -18.48,-15.629 -5.95,0 -11.34,1.879 -13.43,3.082 -0.54,3.071 -0.88,6.93 -0.88,9.02 0,3.738 1,5.277 4.08,5.277 0.54,0 0.98,-0.109 0.98,-0.109 l 2.21,-8.91 c 1.21,-0.879 4.18,-2.418 8.03,-2.418 6.16,0 9.46,2.418 9.46,7.258 0,4.519 -4.95,7.48 -10.23,10.793 -6.49,4.058 -13.53,8.687 -13.53,17.488 0,8.582 7.48,13.969 17.49,13.969 5.83,0 9.79,-2.09 11.77,-3.75 0.22,-2.09 0.44,-4.829 0.44,-6.7 0,-3.187 -0.66,-5.507 -4.18,-5.507 -0.55,0 -0.99,0.117 -0.99,0.117 l -1.32,7.91" />
        <path
           inkscape:connector-curvature="0"
           id="path5193"
           style="fill:#231f20;fill-opacity:1;fill-rule:nonzero;stroke:none"
           d="m 1239.33,240.379 c -1.21,0.781 -3.96,2.32 -7.48,2.32 -4.3,0 -8.04,-1.539 -8.04,-6.5 0,-5.058 5.29,-8.129 10.89,-11.429 6.39,-3.86 13.21,-8.04 13.21,-16.282 0,-8.808 -7.05,-15.629 -18.48,-15.629 -5.95,0 -11.34,1.879 -13.43,3.082 -0.55,3.071 -0.88,6.93 -0.88,9.02 0,3.738 1,5.277 4.07,5.277 0.55,0 0.99,-0.109 0.99,-0.109 l 2.21,-8.91 c 1.21,-0.879 4.18,-2.418 8.03,-2.418 6.16,0 9.46,2.418 9.46,7.258 0,4.519 -4.95,7.48 -10.24,10.793 -6.48,4.058 -13.52,8.687 -13.52,17.488 0,8.582 7.48,13.969 17.49,13.969 5.83,0 9.78,-2.09 11.77,-3.75 0.22,-2.09 0.44,-4.829 0.44,-6.7 0,-3.187 -0.66,-5.507 -4.18,-5.507 -0.55,0 -0.99,0.117 -0.99,0.117 l -1.32,7.91" />
        <path
           inkscape:connector-curvature="0"
           id="path5195"
           style="fill:#231f20;fill-opacity:1;fill-rule:nonzero;stroke:none"
           d="m 1288.72,226.199 c 0.22,0.879 0.54,2.75 0.54,4.61 0,6.171 -2.41,11.781 -9.68,11.781 -7.25,0 -11.55,-5.391 -12.53,-16.391 l 21.67,0 z m -21.78,-5.289 c 0.11,-13.969 6.48,-21.449 17.05,-21.449 7.15,0 11,3.078 13.52,5.168 0.88,-0.66 1.33,-2.199 1.44,-3.188 0,-2.75 -7.04,-8.582 -18.7,-8.582 -12.33,0 -22.77,7.59 -22.77,26.743 0,19.136 11.43,28.707 23.21,28.707 11.77,0 17.93,-7.598 17.93,-18.489 0,-2.859 -0.55,-6.039 -1.21,-8.91 l -30.47,0" />
        <path
           inkscape:connector-curvature="0"
           id="path5197"
           style="fill:#231f20;fill-opacity:1;fill-rule:nonzero;stroke:none"
           d="m 1333.16,240.379 c -1.21,0.781 -3.97,2.32 -7.48,2.32 -4.3,0 -8.04,-1.539 -8.04,-6.5 0,-5.058 5.28,-8.129 10.89,-11.429 6.39,-3.86 13.2,-8.04 13.2,-16.282 0,-8.808 -7.04,-15.629 -18.47,-15.629 -5.95,0 -11.34,1.879 -13.43,3.082 -0.55,3.071 -0.88,6.93 -0.88,9.02 0,3.738 1,5.277 4.07,5.277 0.55,0 0.99,-0.109 0.99,-0.109 l 2.21,-8.91 c 1.21,-0.879 4.18,-2.418 8.02,-2.418 6.17,0 9.47,2.418 9.47,7.258 0,4.519 -4.96,7.48 -10.24,10.793 -6.48,4.058 -13.52,8.687 -13.52,17.488 0,8.582 7.48,13.969 17.49,13.969 5.83,0 9.78,-2.09 11.76,-3.75 0.23,-2.09 0.44,-4.829 0.44,-6.7 0,-3.187 -0.65,-5.507 -4.18,-5.507 -0.54,0 -0.98,0.117 -0.98,0.117 l -1.32,7.91" />
        <path
           inkscape:connector-curvature="0"
           id="path5199"
           style="fill:#231f20;fill-opacity:1;fill-rule:nonzero;stroke:none"
           d="m 118.023,128.18 c -1.871,1.879 -5.285,3.968 -10.562,3.968 -9.4649,0 -16.7227,-7.257 -16.7227,-21.558 0,-14.5314 6.2695,-20.5783 14.5197,-20.5783 7.48,0 11.222,3.1875 12.765,4.7266 l 0,33.4417 z m 8.911,-37.9612 8.031,-1.0899 c 0,0 0.109,-0.4375 0.109,-0.8789 0,-1.8711 -1.429,-3.1914 -4.074,-3.4219 l -12.316,-1.2968 0,6.9179 -0.332,0 c -2.532,-3.5273 -7.043,-7.5898 -15.735,-7.5898 -10.449,0 -21.1248,6.3789 -21.1248,26.1796 0,20.582 13.8633,29.27 27.0668,29.27 4.074,0 7.375,-0.77 9.464,-1.438 l 0,20.457 -8.035,1.121 c 0,0 -0.109,0.43 -0.109,0.879 0,1.863 1.43,3.184 4.07,3.391 l 12.985,1.332 0,-73.8322" />
        <path
           inkscape:connector-curvature="0"
           id="path5201"
           style="fill:#231f20;fill-opacity:1;fill-rule:nonzero;stroke:none"
           d="m 173.457,116.199 c 0.219,0.879 0.551,2.75 0.551,4.61 0,6.171 -2.422,11.781 -9.684,11.781 -7.258,0 -11.551,-5.391 -12.539,-16.391 l 21.672,0 z m -21.781,-5.289 c 0.109,-13.9686 6.488,-21.4491 17.051,-21.4491 7.152,0 11.003,3.0782 13.535,5.168 0.879,-0.6601 1.316,-2.1992 1.429,-3.1875 0,-2.75 -7.043,-8.582 -18.707,-8.582 -12.32,0 -22.773,7.5898 -22.773,26.7426 0,19.136 11.445,28.707 23.215,28.707 11.769,0 17.933,-7.598 17.933,-18.489 0,-2.859 -0.55,-6.039 -1.211,-8.91 l -30.472,0" />
        <path
           inkscape:connector-curvature="0"
           id="path5203"
           style="fill:#231f20;fill-opacity:1;fill-rule:nonzero;stroke:none"
           d="m 217.895,130.379 c -1.211,0.781 -3.957,2.32 -7.481,2.32 -4.293,0 -8.031,-1.539 -8.031,-6.5 0,-5.058 5.281,-8.129 10.894,-11.429 6.379,-3.86 13.203,-8.04 13.203,-16.2817 0,-8.8086 -7.042,-15.6289 -18.488,-15.6289 -5.937,0 -11.328,1.8789 -13.418,3.082 -0.551,3.0703 -0.883,6.9297 -0.883,9.0195 0,3.7383 0.993,5.2771 4.075,5.2771 0.55,0 0.988,-0.109 0.988,-0.109 l 2.199,-8.9102 c 1.211,-0.879 4.184,-2.418 8.031,-2.418 6.161,0 9.461,2.418 9.461,7.2578 0,4.5194 -4.949,7.4804 -10.226,10.7934 -6.496,4.058 -13.535,8.687 -13.535,17.488 0,8.582 7.48,13.969 17.496,13.969 5.828,0 9.789,-2.09 11.769,-3.75 0.223,-2.09 0.442,-4.829 0.442,-6.7 0,-3.187 -0.664,-5.507 -4.188,-5.507 -0.547,0 -0.984,0.117 -0.984,0.117 l -1.324,7.91" />
        <path
           inkscape:connector-curvature="0"
           id="path5205"
           style="fill:#231f20;fill-opacity:1;fill-rule:nonzero;stroke:none"
           d="m 283.785,153.941 -5.719,0 0,-63.6012 5.719,0 c 21.563,0 33.887,11.0002 33.887,32.5582 0,20.801 -12.434,31.043 -33.887,31.043 z m 0.332,-69.7613 -23.984,0 c 0,0 -0.113,0.4414 -0.113,0.9922 0,1.75 0.882,3.2969 3.746,3.957 l 4.726,1.0899 0,64.0432 -6.82,1.539 c -1.102,0.23 -1.539,0.551 -1.539,1.211 0,0.988 0.769,2.316 1.211,3.078 l 22.773,0 c 27.391,0 43.781,-10.559 43.781,-36.86 0,-26.4995 -16.277,-39.0503 -43.781,-39.0503" />
        <path
           inkscape:connector-curvature="0"
           id="path5207"
           style="fill:#231f20;fill-opacity:1;fill-rule:nonzero;stroke:none"
           d="m 369.805,116.199 c 0.218,0.879 0.55,2.75 0.55,4.61 0,6.171 -2.421,11.781 -9.679,11.781 -7.262,0 -11.555,-5.391 -12.539,-16.391 l 21.668,0 z m -21.782,-5.289 c 0.114,-13.9686 6.489,-21.4491 17.051,-21.4491 7.153,0 11.004,3.0782 13.535,5.168 0.879,-0.6601 1.317,-2.1992 1.43,-3.1875 0,-2.75 -7.043,-8.582 -18.707,-8.582 -12.316,0 -22.773,7.5898 -22.773,26.7426 0,19.136 11.445,28.707 23.214,28.707 11.774,0 17.934,-7.598 17.934,-18.489 0,-2.859 -0.551,-6.039 -1.211,-8.91 l -30.473,0" />
        <path
           inkscape:connector-curvature="0"
           id="path5209"
           style="fill:#231f20;fill-opacity:1;fill-rule:nonzero;stroke:none"
           d="m 437.129,90.2188 8.031,-1.0899 c 0,0 0.11,-0.4375 0.11,-0.8789 0,-1.8711 -1.43,-3.1914 -4.075,-3.4219 l -12.316,-1.2968 0,7.25 -0.223,0 c -1.871,-2.3125 -6.707,-7.9219 -16.609,-7.9219 -11.223,0 -17.383,6.9297 -17.383,19.6916 l 0,28.39 -8.031,1.098 c 0,0 -0.113,0.43 -0.113,0.883 0,1.867 1.429,3.18 4.07,3.406 l 12.984,1.32 0,-34.546 c 0,-10.0004 5.496,-12.8832 11,-12.8832 6.489,0 10.781,2.4296 13.645,5.4023 l 0,35.3199 -8.031,1.098 c 0,0 -0.114,0.43 -0.114,0.883 0,1.867 1.43,3.18 4.071,3.406 l 12.984,1.32 0,-47.4292" />
        <path
           inkscape:connector-curvature="0"
           id="path5211"
           style="fill:#231f20;fill-opacity:1;fill-rule:nonzero;stroke:none"
           d="m 482.113,131.262 -15.402,0 0,-33.8831 c 0,-4.1797 1.43,-8.1406 7.152,-8.1406 4.289,0 8.25,2.1015 9.129,2.75 0.442,-0.6485 0.774,-2.3086 0.774,-3.1875 0,-0.9922 -3.633,-5.9414 -13.09,-5.9414 -9.137,0 -12.879,5.2695 -12.879,12.6601 l 0,35.7425 -8.359,0 c 0,0 -0.106,0.449 -0.106,0.777 0,2.09 1.316,3.082 3.406,3.633 l 5.504,1.308 2.09,14.75 6.379,0 0,-14.75 16.504,0 -1.102,-5.718" />
        <path
           inkscape:connector-curvature="0"
           id="path5213"
           style="fill:#231f20;fill-opacity:1;fill-rule:nonzero;stroke:none"
           d="m 514.23,130.379 c -1.21,0.781 -3.96,2.32 -7.484,2.32 -4.289,0 -8.031,-1.539 -8.031,-6.5 0,-5.058 5.285,-8.129 10.894,-11.429 6.383,-3.86 13.204,-8.04 13.204,-16.2817 0,-8.8086 -7.043,-15.6289 -18.481,-15.6289 -5.941,0 -11.336,1.8789 -13.426,3.082 -0.551,3.0703 -0.883,6.9297 -0.883,9.0195 0,3.7383 0.993,5.2771 4.075,5.2771 0.55,0 0.992,-0.109 0.992,-0.109 l 2.199,-8.9102 c 1.207,-0.879 4.18,-2.418 8.027,-2.418 6.164,0 9.465,2.418 9.465,7.2578 0,4.5194 -4.953,7.4804 -10.23,10.7934 -6.492,4.058 -13.535,8.687 -13.535,17.488 0,8.582 7.48,13.969 17.496,13.969 5.828,0 9.789,-2.09 11.769,-3.75 0.223,-2.09 0.442,-4.829 0.442,-6.7 0,-3.187 -0.664,-5.507 -4.184,-5.507 -0.547,0 -0.988,0.117 -0.988,0.117 l -1.321,7.91" />
        <path
           inkscape:connector-curvature="0"
           id="path5215"
           style="fill:#231f20;fill-opacity:1;fill-rule:nonzero;stroke:none"
           d="m 556.797,132.262 c -7.699,0 -14.848,-5.731 -14.848,-20.024 0,-14.3083 5.496,-22.7771 16.828,-22.7771 7.153,0 11.442,3.8477 12.539,5.0586 0.774,-0.7695 1.543,-2.0898 1.543,-3.0781 0,-2.75 -5.941,-8.582 -17.601,-8.582 -13.422,0 -22.887,9.0195 -22.887,27.0626 0,18.367 12.106,28.387 26.734,28.387 11.333,0 14.528,-5.387 14.528,-8.579 0,-2.859 -1.43,-5.171 -4.512,-5.949 -1.648,3.418 -4.293,8.481 -12.324,8.481" />
        <path
           inkscape:connector-curvature="0"
           id="path5217"
           style="fill:#231f20;fill-opacity:1;fill-rule:nonzero;stroke:none"
           d="m 596.07,130.379 0.332,0 c 1.868,2.32 7.149,7.93 16.828,7.93 11.11,0 17.711,-6.598 17.711,-19.7 l 0,-28.7106 6.602,-1.4296 c 1.105,-0.2188 1.543,-0.5469 1.543,-1.4297 0,-1.0977 -0.664,-2.3008 -1.102,-2.8594 l -23.32,0 c 0,0 -0.113,0.4414 -0.113,0.7695 0,1.9727 1.324,2.9727 3.414,3.6289 l 4.066,1.3203 0,28.1716 c 0,9.668 -5.718,12.871 -11.879,12.871 -7.812,0 -11.66,-3.203 -14.082,-5.73 l 0,-35.3126 6.602,-1.4296 c 1.098,-0.2188 1.539,-0.5469 1.539,-1.4297 0,-1.0977 -0.66,-2.3008 -1.102,-2.8594 l -23.324,0 c 0,0 -0.105,0.4414 -0.105,0.7695 0,1.9727 1.316,2.9727 3.406,3.6289 l 4.07,1.3203 0,67.4296 -8.031,1.121 c 0,0 -0.105,0.43 -0.105,0.879 0,1.863 1.425,3.184 4.066,3.391 l 12.984,1.332 0,-33.672" />
        <path
           inkscape:connector-curvature="0"
           id="path5219"
           style="fill:#231f20;fill-opacity:1;fill-rule:nonzero;stroke:none"
           d="m 676.699,116.199 c 0.219,0.879 0.551,2.75 0.551,4.61 0,6.171 -2.422,11.781 -9.684,11.781 -7.257,0 -11.55,-5.391 -12.539,-16.391 l 21.672,0 z m -21.781,-5.289 c 0.109,-13.9686 6.488,-21.4491 17.051,-21.4491 7.152,0 11.004,3.0782 13.535,5.168 0.879,-0.6601 1.316,-2.1992 1.43,-3.1875 0,-2.75 -7.039,-8.582 -18.707,-8.582 -12.321,0 -22.774,7.5898 -22.774,26.7426 0,19.136 11.445,28.707 23.215,28.707 11.77,0 17.934,-7.598 17.934,-18.489 0,-2.859 -0.551,-6.039 -1.211,-8.91 l -30.473,0" />
        <path
           inkscape:connector-curvature="0"
           id="path5221"
           style="fill:#231f20;fill-opacity:1;fill-rule:nonzero;stroke:none"
           d="m 746.887,89.8984 6.593,-1.4296 c 1.106,-0.2188 1.543,-0.5469 1.543,-1.4297 0,-1.0977 -0.66,-2.3008 -1.097,-2.8594 l -23.324,0 c 0,0 -0.114,0.4414 -0.114,0.7695 0,1.9727 1.325,2.9727 3.414,3.6289 l 4.071,1.3203 0,28.1716 c 0,9.668 -6.055,12.871 -11.883,12.871 -6.93,0 -11.555,-3.203 -14.082,-5.39 l 0,-35.6526 6.601,-1.4296 c 1.098,-0.2188 1.543,-0.5469 1.543,-1.4297 0,-1.0977 -0.664,-2.3008 -1.105,-2.8594 l -23.32,0 c 0,0 -0.114,0.4414 -0.114,0.7695 0,1.9727 1.321,2.9727 3.414,3.6289 l 4.071,1.3203 0,41.0426 -8.035,1.098 c 0,0 -0.106,0.43 -0.106,0.883 0,1.867 1.43,3.18 4.07,3.406 l 12.981,1.32 -0.66,-7.367 0.332,0 c 3.082,2.969 7.922,8.028 18.148,8.028 10.781,0 17.059,-7.27 17.059,-19.7 l 0,-28.7106" />
        <path
           inkscape:connector-curvature="0"
           id="path5223"
           style="fill:#231f20;fill-opacity:1;fill-rule:nonzero;stroke:none"
           d="m 812.109,119.602 -8.691,0 0,-29.2622 8.027,0 c 13.977,0 20.137,6.3907 20.137,15.0822 0,8.359 -6.602,14.18 -19.473,14.18 z m -1.324,34.339 -7.367,0 0,-28.5 7.262,0 c 13.64,0 19.359,6.379 19.359,14.297 0,9.231 -6.051,14.203 -19.254,14.203 z m 12.985,-30.711 0,-0.21 c 10.886,-1.43 18.043,-7.27 18.043,-17.598 0,-12.2228 -9.903,-21.2423 -29.157,-21.2423 l -27.172,0 c 0,0 -0.113,0.4414 -0.113,0.9922 0,1.75 0.883,3.2969 3.746,3.957 l 4.727,1.0899 0,64.0432 -6.824,1.539 c -1.098,0.23 -1.536,0.551 -1.536,1.211 0,0.988 0.77,2.316 1.211,3.078 l 25.082,0 c 19.036,0 28.164,-6.942 28.164,-19.031 0,-10.887 -6.601,-16.071 -16.171,-17.829" />
        <path
           inkscape:connector-curvature="0"
           id="path5225"
           style="fill:#231f20;fill-opacity:1;fill-rule:nonzero;stroke:none"
           d="m 900.113,90.2188 8.028,-1.0899 c 0,0 0.117,-0.4375 0.117,-0.8789 0,-1.8711 -1.438,-3.1914 -4.074,-3.4219 l -12.325,-1.2968 0,7.25 -0.222,0 c -1.867,-2.3125 -6.711,-7.9219 -16.614,-7.9219 -11.218,0 -17.378,6.9297 -17.378,19.6916 l 0,28.39 -8.032,1.098 c 0,0 -0.109,0.43 -0.109,0.883 0,1.867 1.43,3.18 4.07,3.406 l 12.985,1.32 0,-34.546 c 0,-10.0004 5.496,-12.8832 10.996,-12.8832 6.492,0 10.781,2.4296 13.64,5.4023 l 0,35.3199 -8.027,1.098 c 0,0 -0.105,0.43 -0.105,0.883 0,1.867 1.425,3.18 4.07,3.406 l 12.98,1.32 0,-47.4292" />
        <path
           inkscape:connector-curvature="0"
           id="path5227"
           style="fill:#231f20;fill-opacity:1;fill-rule:nonzero;stroke:none"
           d="m 965.563,89.8984 6.601,-1.4296 c 1.094,-0.2188 1.531,-0.5469 1.531,-1.4297 0,-1.0977 -0.652,-2.3008 -1.093,-2.8594 l -23.329,0 c 0,0 -0.109,0.4414 -0.109,0.7695 0,1.9727 1.32,2.9727 3.41,3.6289 l 4.071,1.3203 0,28.1716 c 0,9.668 -6.043,12.871 -11.875,12.871 -6.934,0 -11.551,-3.203 -14.082,-5.39 l 0,-35.6526 6.601,-1.4296 c 1.094,-0.2188 1.535,-0.5469 1.535,-1.4297 0,-1.0977 -0.656,-2.3008 -1.094,-2.8594 l -23.332,0 c 0,0 -0.105,0.4414 -0.105,0.7695 0,1.9727 1.316,2.9727 3.406,3.6289 l 4.074,1.3203 0,41.0426 -8.027,1.098 c 0,0 -0.117,0.43 -0.117,0.883 0,1.867 1.434,3.18 4.07,3.406 l 12.989,1.32 -0.665,-7.367 0.332,0 c 3.079,2.969 7.922,8.028 18.157,8.028 10.781,0 17.051,-7.27 17.051,-19.7 l 0,-28.7106" />
        <path
           inkscape:connector-curvature="0"
           id="path5229"
           style="fill:#231f20;fill-opacity:1;fill-rule:nonzero;stroke:none"
           d="m 1016.6,128.18 c -1.88,1.879 -5.29,3.968 -10.57,3.968 -9.452,0 -16.717,-7.257 -16.717,-21.558 0,-14.5314 6.269,-20.5783 14.517,-20.5783 7.48,0 11.22,3.1875 12.77,4.7266 l 0,33.4417 z m 8.9,-37.9612 8.04,-1.0899 c 0,0 0.11,-0.4375 0.11,-0.8789 0,-1.8711 -1.43,-3.1914 -4.07,-3.4219 l -12.33,-1.2968 0,6.9179 -0.32,0 c -2.53,-3.5273 -7.04,-7.5898 -15.73,-7.5898 -10.462,0 -21.126,6.3789 -21.126,26.1796 0,20.582 13.856,29.27 27.056,29.27 4.08,0 7.38,-0.77 9.47,-1.438 l 0,20.457 -8.04,1.121 c 0,0 -0.11,0.43 -0.11,0.879 0,1.863 1.44,3.184 4.07,3.391 l 12.98,1.332 0,-73.8322" />
        <path
           inkscape:connector-curvature="0"
           id="path5231"
           style="fill:#231f20;fill-opacity:1;fill-rule:nonzero;stroke:none"
           d="m 1072.04,116.199 c 0.22,0.879 0.54,2.75 0.54,4.61 0,6.171 -2.41,11.781 -9.67,11.781 -7.26,0 -11.56,-5.391 -12.54,-16.391 l 21.67,0 z m -21.78,-5.289 c 0.11,-13.9686 6.48,-21.4491 17.05,-21.4491 7.15,0 11,3.0782 13.52,5.168 0.88,-0.6601 1.33,-2.1992 1.44,-3.1875 0,-2.75 -7.04,-8.582 -18.7,-8.582 -12.32,0 -22.77,7.5898 -22.77,26.7426 0,19.136 11.43,28.707 23.21,28.707 11.77,0 17.93,-7.598 17.93,-18.489 0,-2.859 -0.55,-6.039 -1.21,-8.91 l -30.47,0" />
        <path
           inkscape:connector-curvature="0"
           id="path5233"
           style="fill:#231f20;fill-opacity:1;fill-rule:nonzero;stroke:none"
           d="m 1116.48,130.379 c -1.21,0.781 -3.97,2.32 -7.48,2.32 -4.3,0 -8.04,-1.539 -8.04,-6.5 0,-5.058 5.29,-8.129 10.89,-11.429 6.39,-3.86 13.2,-8.04 13.2,-16.2817 0,-8.8086 -7.04,-15.6289 -18.47,-15.6289 -5.95,0 -11.34,1.8789 -13.43,3.082 -0.55,3.0703 -0.88,6.9297 -0.88,9.0195 0,3.7383 1,5.2771 4.07,5.2771 0.55,0 0.99,-0.109 0.99,-0.109 l 2.21,-8.9102 c 1.21,-0.879 4.18,-2.418 8.02,-2.418 6.17,0 9.47,2.418 9.47,7.2578 0,4.5194 -4.95,7.4804 -10.24,10.7934 -6.48,4.058 -13.52,8.687 -13.52,17.488 0,8.582 7.48,13.969 17.49,13.969 5.83,0 9.78,-2.09 11.76,-3.75 0.23,-2.09 0.44,-4.829 0.44,-6.7 0,-3.187 -0.65,-5.507 -4.18,-5.507 -0.54,0 -0.98,0.117 -0.98,0.117 l -1.32,7.91" />
        <path
           inkscape:connector-curvature="0"
           id="path5235"
           style="fill:#231f20;fill-opacity:1;fill-rule:nonzero;stroke:none"
           d="m 1164.32,131.262 -15.4,0 0,-33.8831 c 0,-4.1797 1.44,-8.1406 7.15,-8.1406 4.3,0 8.25,2.1015 9.14,2.75 0.44,-0.6485 0.76,-2.3086 0.76,-3.1875 0,-0.9922 -3.62,-5.9414 -13.08,-5.9414 -9.14,0 -12.88,5.2695 -12.88,12.6601 l 0,35.7425 -8.35,0 c 0,0 -0.12,0.449 -0.12,0.777 0,2.09 1.32,3.082 3.41,3.633 l 5.5,1.308 2.09,14.75 6.38,0 0,-14.75 16.5,0 -1.1,-5.718" />
        <path
           inkscape:connector-curvature="0"
           id="path5237"
           style="fill:#231f20;fill-opacity:1;fill-rule:nonzero;stroke:none"
           d="m 1197,107.941 c -10.01,-0.761 -15.96,-3.73 -15.96,-10.0113 0,-4.8281 2.75,-8.1406 7.93,-8.1406 5.27,0 9.24,3.6406 11,5.7304 l 0,12.6405 -2.97,-0.219 z m 11.88,-12.3199 c 0,-4.8398 1.76,-6.2695 3.85,-6.2695 2.42,0 3.63,1.0976 3.96,1.4297 0.44,-0.6524 0.99,-2.2032 0.99,-3.0821 0,-1.0976 -2.53,-4.5078 -8.58,-4.5078 -4.84,0 -7.82,2.0899 -8.47,7.5899 l -0.22,0 c -1.22,-1.8594 -5.5,-7.9219 -15.07,-7.9219 -8.26,0 -13.98,5.5 -13.98,14.082 0,11.5466 13.21,16.1796 25.64,16.1796 l 2.97,0 0,5.27 c 0,9.468 -2.53,14.078 -9.68,14.078 -3.09,0 -5.62,-0.758 -6.5,-1.09 -0.98,-1.988 -1.98,-6.27 -2.53,-9.688 0,0 -1.75,-0.101 -2.31,-0.101 -3.41,0 -5.39,1.531 -5.39,4.73 0,6.711 9.36,11.989 18.38,11.989 11.55,0 16.94,-6.489 16.94,-18.59 l 0,-24.0979" />
        <path
           inkscape:connector-curvature="0"
           id="path5239"
           style="fill:#231f20;fill-opacity:1;fill-rule:nonzero;stroke:none"
           d="m 1233.51,120.699 c 0,-8.687 4.95,-12.308 11.11,-12.308 6.71,0 11.56,3.621 11.56,12.308 0,7.821 -4.85,12 -11.34,12 -6.38,0 -11.33,-3.527 -11.33,-12 z m 1.98,-34.8709 c -3.41,-1.7578 -5.49,-4.9492 -5.49,-9.1289 0,-6.0508 3.74,-9.8008 12.2,-9.8008 11.78,0 18.16,5.3907 18.16,11.7813 0,4.8516 -2.97,6.8203 -9.03,6.8203 l -11.55,0 c -1.53,0 -2.97,0.1211 -4.29,0.3281 z m 35.1,45.2109 -9.13,0 c 2.09,-2.75 3.41,-6.148 3.41,-10.23 0,-11.539 -9.46,-18.039 -20.79,-18.039 -1.88,0 -3.64,0.23 -5.29,0.55 -1.54,-0.879 -3.4,-2.41 -3.4,-5.1716 0,-2.75 2.09,-3.957 5.83,-3.957 l 12.53,0 c 9.36,0 15.41,-4.293 15.41,-11.9922 0,-10.8906 -10.24,-21.3476 -28.38,-21.3476 -13.1,0 -19.59,4.957 -19.59,12.8789 0,8.4687 6.6,11.9804 10.02,13.1914 l 0,0.2265 c -2.65,1.4297 -4.3,3.8633 -4.3,7.25 0,6.2816 5.83,9.2496 7.48,10.1326 l 0,0.231 c -5.83,2.75 -9.79,8.238 -9.79,16.047 0,11.453 9.57,17.5 20.02,17.5 2.97,0 5.73,-0.45 8.36,-1.329 l 18.7,0 -1.09,-5.941" />
        <path
           inkscape:connector-curvature="0"
           id="path5241"
           style="fill:#231f20;fill-opacity:1;fill-rule:nonzero;stroke:none"
           d="m 1309.19,116.199 c 0.23,0.879 0.55,2.75 0.55,4.61 0,6.171 -2.41,11.781 -9.68,11.781 -7.25,0 -11.55,-5.391 -12.54,-16.391 l 21.67,0 z m -21.77,-5.289 c 0.1,-13.9686 6.48,-21.4491 17.05,-21.4491 7.15,0 10.99,3.0782 13.52,5.168 0.89,-0.6601 1.33,-2.1992 1.44,-3.1875 0,-2.75 -7.04,-8.582 -18.7,-8.582 -12.33,0 -22.78,7.5898 -22.78,26.7426 0,19.136 11.44,28.707 23.22,28.707 11.76,0 17.93,-7.598 17.93,-18.489 0,-2.859 -0.55,-6.039 -1.21,-8.91 l -30.47,0" />
        <path
           inkscape:connector-curvature="0"
           id="path5243"
           style="fill:#231f20;fill-opacity:1;fill-rule:nonzero;stroke:none"
           d="m 1353.64,130.379 c -1.21,0.781 -3.97,2.32 -7.48,2.32 -4.3,0 -8.04,-1.539 -8.04,-6.5 0,-5.058 5.28,-8.129 10.9,-11.429 6.38,-3.86 13.19,-8.04 13.19,-16.2817 0,-8.8086 -7.04,-15.6289 -18.47,-15.6289 -5.95,0 -11.34,1.8789 -13.43,3.082 -0.55,3.0703 -0.88,6.9297 -0.88,9.0195 0,3.7383 0.99,5.2771 4.07,5.2771 0.55,0 0.99,-0.109 0.99,-0.109 l 2.2,-8.9102 c 1.22,-0.879 4.18,-2.418 8.03,-2.418 6.16,0 9.46,2.418 9.46,7.2578 0,4.5194 -4.95,7.4804 -10.23,10.7934 -6.48,4.058 -13.53,8.687 -13.53,17.488 0,8.582 7.49,13.969 17.5,13.969 5.83,0 9.78,-2.09 11.76,-3.75 0.23,-2.09 0.44,-4.829 0.44,-6.7 0,-3.187 -0.65,-5.507 -4.18,-5.507 -0.54,0 -0.98,0.117 -0.98,0.117 l -1.32,7.91" />
      </g>
    </g>
  </g>
</svg>
