<?xml version="1.0" encoding="UTF-8" standalone="no"?>
<!-- Created with Inkscape (http://www.inkscape.org/) -->

<svg
   xmlns:dc="http://purl.org/dc/elements/1.1/"
   xmlns:cc="http://creativecommons.org/ns#"
   xmlns:rdf="http://www.w3.org/1999/02/22-rdf-syntax-ns#"
   xmlns:svg="http://www.w3.org/2000/svg"
   xmlns="http://www.w3.org/2000/svg"
   xmlns:sodipodi="http://sodipodi.sourceforge.net/DTD/sodipodi-0.dtd"
   xmlns:inkscape="http://www.inkscape.org/namespaces/inkscape"
   width="174.80141"
   height="99.999542"
   id="svg4454"
   version="1.1"
   inkscape:version="0.48.4 r9939"
   sodipodi:docname="logo_esf_claim.svg">
  <defs
     id="defs4456">
    <clipPath
       clipPathUnits="userSpaceOnUse"
       id="clipPath3573">
      <path
         inkscape:connector-curvature="0"
         d="m 70.866,391.181 123.728,0 0,54.204 -123.728,0 0,-54.204 z"
         id="path3575" />
    </clipPath>
  </defs>
  <sodipodi:namedview
     id="base"
     pagecolor="#ffffff"
     bordercolor="#666666"
     borderopacity="1.0"
     inkscape:pageopacity="0.0"
     inkscape:pageshadow="2"
     inkscape:zoom="1.4"
     inkscape:cx="102.79255"
     inkscape:cy="33.217838"
     inkscape:document-units="px"
     inkscape:current-layer="layer1"
     showgrid="false"
     fit-margin-top="20.84"
     fit-margin-left="20.84"
     fit-margin-right="20.84"
     fit-margin-bottom="20.84"
     inkscape:window-width="663"
     inkscape:window-height="1028"
     inkscape:window-x="979"
     inkscape:window-y="24"
     inkscape:window-maximized="0"
     inkscape:snap-global="true"
     inkscape:snap-page="true" />
  <metadata
     id="metadata4459">
    <rdf:RDF>
      <cc:Work
         rdf:about="">
        <dc:format>image/svg+xml</dc:format>
        <dc:type
           rdf:resource="http://purl.org/dc/dcmitype/StillImage" />
        <dc:title />
      </cc:Work>
    </rdf:RDF>
  </metadata>
  <g
     inkscape:label="Layer 1"
     inkscape:groupmode="layer"
     id="layer1"
     transform="translate(-666.88501,-648.07671)">
    <g
       id="g4700">
      <g
         id="g4085"
         transform="matrix(1.0759189,0,0,-1.0759189,611.47894,1148.1156)">
        <g
           id="g3557"
           transform="translate(148.7547,445.3857)">
          <path
             d="m 0,0 -2.222,-6.721 -6.767,-0.146 5.396,-4.298 -1.961,-6.812 5.554,4.065 5.56,-4.065 -1.962,6.812 5.388,4.298 L 2.22,-6.721 0,0 z"
             style="fill:#fff200;fill-opacity:1;fill-rule:nonzero;stroke:none"
             id="path3559"
             inkscape:connector-curvature="0" />
        </g>
        <g
           id="g3561"
           transform="translate(183.3831,405.4077)">
          <path
             d="m 0,0 -6.766,-0.146 5.394,-4.299 -1.96,-6.81 5.551,4.065 5.559,-4.065 -1.96,6.81 5.393,4.299 L 4.448,0 2.219,6.721 0,0 z"
             style="fill:#fff200;fill-opacity:1;fill-rule:nonzero;stroke:none"
             id="path3563"
             inkscape:connector-curvature="0" />
        </g>
        <g
           id="g3565"
           transform="translate(171.2216,431.9035)">
          <path
             d="m 0,0 2.227,-6.721 6.764,-0.146 -5.393,-4.299 1.96,-6.81 -5.558,4.063 -5.552,-4.063 1.96,6.81 -5.393,4.299 6.764,0.146 L 0,0 z"
             style="fill:#fff200;fill-opacity:1;fill-rule:nonzero;stroke:none"
             id="path3567"
             inkscape:connector-curvature="0" />
        </g>
        <g
           id="g3569">
          <g
             id="g3571"
             clip-path="url(#clipPath3573)">
            <g
               id="g3577"
               transform="translate(74.0168,435.9134)">
              <path
                 d="m 0,0 -1.05,-6.665 0.28,0 c 2.409,0 4.019,1.428 4.019,4.257 C 3.249,-0.77 2.198,0 0.294,0 L 0,0 z m 0.518,1.498 c 3.123,0 4.649,-1.33 4.649,-3.738 0,-3.837 -2.436,-5.923 -6.189,-5.923 l -2.129,0 1.527,9.661 2.142,0 z"
                 style="fill:#254aa5;fill-opacity:1;fill-rule:nonzero;stroke:none"
                 id="path3579"
                 inkscape:connector-curvature="0" />
            </g>
            <g
               id="g3581"
               transform="translate(81.9404,431.8249)">
              <path
                 d="M 0,0 0.238,0 C 1.541,0 1.961,0.42 1.961,1.05 1.961,1.428 1.723,1.611 1.414,1.611 0.812,1.611 0.266,1.05 0,0 m 0.406,-1.148 -0.546,0 0,-0.21 c 0,-1.009 0.434,-1.443 1.219,-1.443 0.839,0 1.371,0.406 1.554,0.575 l 0.364,-1.247 c -0.238,-0.224 -0.868,-0.77 -2.213,-0.77 -1.61,0 -2.632,0.868 -2.632,2.857 0,2.814 1.778,4.299 3.612,4.299 1.051,0 1.751,-0.574 1.751,-1.68 0,-1.611 -1.303,-2.381 -3.109,-2.381"
                 style="fill:#254aa5;fill-opacity:1;fill-rule:nonzero;stroke:none"
                 id="path3583"
                 inkscape:connector-curvature="0" />
            </g>
            <g
               id="g3585"
               transform="translate(90.4101,432.9173)">
              <path
                 d="m 0,0 c -0.182,0.126 -0.658,0.42 -1.358,0.42 -0.531,0 -0.784,-0.21 -0.784,-0.532 0,-0.322 0.196,-0.546 0.701,-0.896 l 0.335,-0.238 c 0.742,-0.518 1.233,-1.107 1.233,-1.975 0,-1.19 -0.91,-2.114 -2.535,-2.114 -1.148,0 -1.778,0.462 -2.072,0.686 l 0.588,1.4 c 0.196,-0.182 0.742,-0.644 1.456,-0.644 0.547,0 0.868,0.168 0.868,0.518 0,0.336 -0.209,0.574 -0.741,0.994 l -0.337,0.252 c -0.7,0.56 -1.121,1.05 -1.121,1.905 0,1.274 1.093,2.044 2.549,2.044 0.939,0 1.485,-0.336 1.695,-0.476 L 0,0 z"
                 style="fill:#254aa5;fill-opacity:1;fill-rule:nonzero;stroke:none"
                 id="path3587"
                 inkscape:connector-curvature="0" />
            </g>
            <g
               id="g3589"
               transform="translate(93.8691,435.7596)">
              <path
                 d="m 0,0 c -0.603,0 -1.023,0.364 -1.023,0.994 0,0.63 0.42,1.008 1.023,1.008 0.615,0 1.036,-0.378 1.036,-1.008 C 1.036,0.364 0.615,0 0,0 m -0.533,-8.01 -1.75,0 1.078,6.82 1.751,0 -1.079,-6.82 z"
                 style="fill:#254aa5;fill-opacity:1;fill-rule:nonzero;stroke:none"
                 id="path3591"
                 inkscape:connector-curvature="0" />
            </g>
            <g
               id="g3593"
               transform="translate(97.9706,429.1083)">
              <path
                 d="M 0,0 C 0.686,0 1.077,0.378 1.261,0.56 L 1.806,4.005 C 1.667,4.103 1.414,4.229 1.036,4.229 -0.029,4.229 -0.911,3.248 -0.911,1.33 -0.911,0.448 -0.574,0 0,0 m 2.73,-1.19 c -0.266,-1.708 -1.05,-3.137 -3.654,-3.137 -1.317,0 -2.059,0.602 -2.409,0.924 l 0.644,1.414 c 0.238,-0.265 0.841,-0.868 1.904,-0.868 1.121,0 1.597,0.533 1.75,1.527 l 0.127,0.77 -0.028,0 C 0.826,-0.854 0.35,-1.47 -0.673,-1.47 c -1.133,0 -2.001,0.812 -2.001,2.787 0,2.758 1.736,4.312 3.639,4.312 0.855,0 1.331,-0.364 1.541,-0.546 l 0.42,0.378 0.854,0 -1.05,-6.651 z"
                 style="fill:#254aa5;fill-opacity:1;fill-rule:nonzero;stroke:none"
                 id="path3595"
                 inkscape:connector-curvature="0" />
            </g>
            <g
               id="g3597"
               transform="translate(108.7373,431.3211)">
              <path
                 d="m 0,0 -0.574,-3.571 -1.752,0 L -1.751,0 c 0.071,0.448 0.112,0.798 0.112,1.05 0,0.616 -0.224,0.896 -0.743,0.896 -0.601,0 -1.091,-0.35 -1.371,-0.588 l -0.771,-4.929 -1.75,0 1.079,6.819 1.595,0 -0.139,-0.896 0.027,0 c 0.323,0.364 1.023,1.065 2.214,1.065 1.063,0 1.651,-0.687 1.651,-1.975 C 0.153,1.12 0.112,0.644 0,0"
                 style="fill:#254aa5;fill-opacity:1;fill-rule:nonzero;stroke:none"
                 id="path3599"
                 inkscape:connector-curvature="0" />
            </g>
            <g
               id="g3601"
               transform="translate(112.1798,435.7596)">
              <path
                 d="m 0,0 c -0.602,0 -1.023,0.364 -1.023,0.994 0,0.63 0.421,1.008 1.023,1.008 0.617,0 1.036,-0.378 1.036,-1.008 C 1.036,0.364 0.617,0 0,0 m -0.532,-8.01 -1.75,0 1.078,6.82 1.751,0 -1.079,-6.82 z"
                 style="fill:#254aa5;fill-opacity:1;fill-rule:nonzero;stroke:none"
                 id="path3603"
                 inkscape:connector-curvature="0" />
            </g>
            <g
               id="g3605"
               transform="translate(119.7131,431.3211)">
              <path
                 d="m 0,0 -0.574,-3.571 -1.752,0 L -1.751,0 c 0.071,0.448 0.112,0.798 0.112,1.05 0,0.616 -0.225,0.896 -0.743,0.896 -0.601,0 -1.091,-0.35 -1.371,-0.588 l -0.771,-4.929 -1.75,0 1.079,6.819 1.595,0 -0.139,-0.896 0.027,0 c 0.323,0.364 1.023,1.065 2.213,1.065 1.064,0 1.652,-0.687 1.652,-1.975 C 0.153,1.12 0.112,0.644 0,0"
                 style="fill:#254aa5;fill-opacity:1;fill-rule:nonzero;stroke:none"
                 id="path3607"
                 inkscape:connector-curvature="0" />
            </g>
            <g
               id="g3609"
               transform="translate(123.7161,429.1083)">
              <path
                 d="M 0,0 C 0.686,0 1.077,0.378 1.261,0.56 L 1.806,4.005 C 1.667,4.103 1.414,4.229 1.036,4.229 -0.029,4.229 -0.911,3.248 -0.911,1.33 -0.911,0.448 -0.574,0 0,0 m 2.73,-1.19 c -0.266,-1.708 -1.05,-3.137 -3.654,-3.137 -1.317,0 -2.059,0.602 -2.409,0.924 l 0.644,1.414 c 0.238,-0.265 0.841,-0.868 1.904,-0.868 1.121,0 1.597,0.533 1.75,1.527 l 0.127,0.77 -0.028,0 C 0.826,-0.854 0.35,-1.47 -0.673,-1.47 c -1.133,0 -2.001,0.812 -2.001,2.787 0,2.758 1.736,4.312 3.639,4.312 0.855,0 1.331,-0.364 1.541,-0.546 l 0.42,0.378 0.854,0 -1.05,-6.651 z"
                 style="fill:#254aa5;fill-opacity:1;fill-rule:nonzero;stroke:none"
                 id="path3611"
                 inkscape:connector-curvature="0" />
            </g>
            <g
               id="g3613"
               transform="translate(129.1329,427.5818)">
              <path
                 d="m 0,0 c -0.644,0 -1.05,0.406 -1.05,1.064 0,0.659 0.406,1.065 1.05,1.065 0.63,0 1.05,-0.406 1.05,-1.065 C 1.05,0.406 0.63,0 0,0"
                 style="fill:#254aa5;fill-opacity:1;fill-rule:nonzero;stroke:none"
                 id="path3615"
                 inkscape:connector-curvature="0" />
            </g>
            <g
               id="g3617"
               transform="translate(78.6099,419.1134)">
              <path
                 d="m 0,0 -2.703,0 -1.288,-8.163 -1.862,0 1.288,8.163 -2.717,0 0.238,1.499 7.38,0 L 0,0 z"
                 style="fill:#254aa5;fill-opacity:1;fill-rule:nonzero;stroke:none"
                 id="path3619"
                 inkscape:connector-curvature="0" />
            </g>
            <g
               id="g3621"
               transform="translate(84.8115,414.5211)">
              <path
                 d="m 0,0 -0.574,-3.571 -1.75,0 L -1.751,0 c 0.071,0.364 0.112,0.784 0.112,1.064 0,0.588 -0.223,0.882 -0.756,0.882 -0.602,0 -1.078,-0.364 -1.358,-0.602 l -0.77,-4.915 -1.751,0 1.554,9.872 1.779,0.154 -0.63,-3.991 0.028,0 c 0.351,0.364 0.98,0.953 2.031,0.953 1.077,0 1.651,-0.715 1.651,-2.003 C 0.139,0.98 0.07,0.476 0,0"
                 style="fill:#254aa5;fill-opacity:1;fill-rule:nonzero;stroke:none"
                 id="path3623"
                 inkscape:connector-curvature="0" />
            </g>
            <g
               id="g3625"
               transform="translate(87.9738,415.0249)">
              <path
                 d="M 0,0 0.239,0 C 1.541,0 1.96,0.42 1.96,1.05 1.96,1.428 1.723,1.611 1.415,1.611 0.813,1.611 0.267,1.05 0,0 m 0.407,-1.148 -0.547,0 0,-0.21 c 0,-1.009 0.435,-1.443 1.219,-1.443 0.84,0 1.372,0.406 1.554,0.575 l 0.364,-1.247 c -0.238,-0.224 -0.868,-0.77 -2.212,-0.77 -1.611,0 -2.632,0.868 -2.632,2.857 0,2.814 1.777,4.299 3.612,4.299 1.05,0 1.75,-0.574 1.75,-1.68 0,-1.611 -1.302,-2.381 -3.108,-2.381"
                 style="fill:#254aa5;fill-opacity:1;fill-rule:nonzero;stroke:none"
                 id="path3627"
                 inkscape:connector-curvature="0" />
            </g>
            <g
               id="g3629"
               transform="translate(101.9478,419.1134)">
              <path
                 d="m 0,0 -3.488,0 -0.447,-2.842 3.262,0 -0.237,-1.499 -3.249,0 -0.617,-3.822 -1.862,0 1.526,9.662 5.462,0 L 0,0 z"
                 style="fill:#254aa5;fill-opacity:1;fill-rule:nonzero;stroke:none"
                 id="path3631"
                 inkscape:connector-curvature="0" />
            </g>
            <g
               id="g3633"
               transform="translate(107.6025,410.95)">
              <path
                 d="m 0,0 -1.596,0 0.14,0.896 -0.027,0 c -0.323,-0.378 -0.869,-1.064 -2.143,-1.064 -1.092,0 -1.666,0.7 -1.666,2.002 0,0.351 0.069,0.911 0.168,1.429 l 0.56,3.557 1.75,0 -0.574,-3.557 C -3.458,2.842 -3.5,2.451 -3.5,2.198 c 0,-0.602 0.238,-0.896 0.729,-0.896 0.572,0 1.05,0.337 1.33,0.588 l 0.77,4.93 1.75,0 L 0,0 z"
                 style="fill:#254aa5;fill-opacity:1;fill-rule:nonzero;stroke:none"
                 id="path3635"
                 inkscape:connector-curvature="0" />
            </g>
            <g
               id="g3637"
               transform="translate(113.9025,416.3832)">
              <path
                 d="m 0,0 -1.568,0 -0.379,-2.367 c -0.07,-0.447 -0.126,-0.825 -0.126,-1.05 0,-0.532 0.238,-0.714 0.631,-0.714 0.363,0 0.56,0.098 0.672,0.154 l 0.126,-1.288 c -0.195,-0.099 -0.602,-0.308 -1.373,-0.308 -1.148,0 -1.834,0.56 -1.834,1.89 0,0.322 0.084,0.813 0.154,1.316 L -3.318,0 l -0.911,0 0.211,1.205 0.909,0.167 0.505,1.876 1.554,0 -0.308,-1.862 1.596,0 L 0,0 z"
                 style="fill:#254aa5;fill-opacity:1;fill-rule:nonzero;stroke:none"
                 id="path3639"
                 inkscape:connector-curvature="0" />
            </g>
            <g
               id="g3641"
               transform="translate(119.9359,410.95)">
              <path
                 d="m 0,0 -1.596,0 0.14,0.896 -0.027,0 c -0.323,-0.378 -0.869,-1.064 -2.143,-1.064 -1.092,0 -1.666,0.7 -1.666,2.002 0,0.351 0.069,0.911 0.168,1.429 l 0.56,3.557 1.75,0 -0.574,-3.557 C -3.458,2.842 -3.5,2.451 -3.5,2.198 c 0,-0.602 0.238,-0.896 0.729,-0.896 0.573,0 1.05,0.337 1.33,0.588 l 0.77,4.93 1.75,0 L 0,0 z"
                 style="fill:#254aa5;fill-opacity:1;fill-rule:nonzero;stroke:none"
                 id="path3643"
                 inkscape:connector-curvature="0" />
            </g>
            <g
               id="g3645"
               transform="translate(126.3056,416.3408)">
              <path
                 d="M 0,0 C -0.07,0.028 -0.238,0.084 -0.532,0.084 -1.33,0.084 -1.777,-0.294 -2.1,-0.7 l -0.742,-4.691 -1.737,0 1.065,6.82 1.61,0 -0.169,-1.037 0.029,0 c 0.308,0.56 0.826,1.162 1.806,1.162 0.28,0 0.435,-0.041 0.491,-0.069 L 0,0 z"
                 style="fill:#254aa5;fill-opacity:1;fill-rule:nonzero;stroke:none"
                 id="path3647"
                 inkscape:connector-curvature="0" />
            </g>
            <g
               id="g3649"
               transform="translate(128.5874,415.0249)">
              <path
                 d="M 0,0 0.238,0 C 1.541,0 1.961,0.42 1.961,1.05 1.961,1.428 1.723,1.611 1.414,1.611 0.812,1.611 0.267,1.05 0,0 m 0.406,-1.148 -0.545,0 0,-0.21 c 0,-1.009 0.433,-1.443 1.218,-1.443 0.839,0 1.371,0.406 1.554,0.575 l 0.364,-1.247 c -0.238,-0.224 -0.868,-0.77 -2.212,-0.77 -1.611,0 -2.633,0.868 -2.633,2.857 0,2.814 1.778,4.299 3.612,4.299 1.051,0 1.751,-0.574 1.751,-1.68 0,-1.611 -1.303,-2.381 -3.109,-2.381"
                 style="fill:#254aa5;fill-opacity:1;fill-rule:nonzero;stroke:none"
                 id="path3651"
                 inkscape:connector-curvature="0" />
            </g>
            <g
               id="g3653"
               transform="translate(133.739,410.7818)">
              <path
                 d="m 0,0 c -0.644,0 -1.05,0.406 -1.05,1.064 0,0.659 0.406,1.065 1.05,1.065 0.63,0 1.05,-0.406 1.05,-1.065 C 1.05,0.406 0.63,0 0,0"
                 style="fill:#254aa5;fill-opacity:1;fill-rule:nonzero;stroke:none"
                 id="path3655"
                 inkscape:connector-curvature="0" />
            </g>
            <g
               id="g3657"
               transform="translate(78.6099,402.3134)">
              <path
                 d="m 0,0 -2.703,0 -1.288,-8.163 -1.862,0 1.288,8.163 -2.717,0 0.238,1.498 7.38,0 L 0,0 z"
                 style="fill:#254aa5;fill-opacity:1;fill-rule:nonzero;stroke:none"
                 id="path3659"
                 inkscape:connector-curvature="0" />
            </g>
            <g
               id="g3661"
               transform="translate(79.2388,396.9226)">
              <path
                 d="m 0,0 c 0,-0.952 0.294,-1.47 0.952,-1.47 0.882,0 1.736,0.798 1.736,2.758 0,0.938 -0.294,1.457 -0.952,1.457 C 0.854,2.745 0,1.961 0,0 m 4.453,1.456 c 0,-2.982 -1.849,-4.397 -3.711,-4.397 -1.527,0 -2.507,0.924 -2.507,2.773 0,2.969 1.848,4.383 3.711,4.383 1.527,0 2.507,-0.91 2.507,-2.759"
                 style="fill:#254aa5;fill-opacity:1;fill-rule:nonzero;stroke:none"
                 id="path3663"
                 inkscape:connector-curvature="0" />
            </g>
            <g
               id="g3665"
               transform="translate(87.4146,395.5083)">
              <path
                 d="M 0,0 C 0.686,0 1.079,0.378 1.261,0.56 L 1.807,4.005 C 1.667,4.103 1.415,4.229 1.036,4.229 -0.027,4.229 -0.909,3.248 -0.909,1.33 -0.909,0.448 -0.574,0 0,0 m 2.73,-1.19 c -0.265,-1.708 -1.05,-3.137 -3.654,-3.137 -1.315,0 -2.058,0.602 -2.408,0.924 l 0.644,1.414 c 0.238,-0.265 0.84,-0.868 1.905,-0.868 1.119,0 1.595,0.533 1.75,1.527 l 0.125,0.77 -0.027,0 C 0.827,-0.854 0.35,-1.47 -0.671,-1.47 c -1.135,0 -2.003,0.812 -2.003,2.787 0,2.758 1.736,4.312 3.641,4.312 0.854,0 1.33,-0.364 1.54,-0.546 l 0.42,0.378 0.855,0 L 2.73,-1.19 z"
                 style="fill:#254aa5;fill-opacity:1;fill-rule:nonzero;stroke:none"
                 id="path3667"
                 inkscape:connector-curvature="0" />
            </g>
            <g
               id="g3669"
               transform="translate(93.9238,398.2249)">
              <path
                 d="M 0,0 0.239,0 C 1.541,0 1.96,0.42 1.96,1.05 1.96,1.428 1.723,1.611 1.415,1.611 0.813,1.611 0.267,1.05 0,0 m 0.407,-1.148 -0.547,0 0,-0.21 c 0,-1.009 0.435,-1.443 1.219,-1.443 0.84,0 1.372,0.406 1.554,0.575 l 0.364,-1.247 c -0.238,-0.224 -0.868,-0.77 -2.212,-0.77 -1.611,0 -2.632,0.868 -2.632,2.857 0,2.814 1.777,4.299 3.612,4.299 1.05,0 1.75,-0.574 1.75,-1.68 0,-1.611 -1.302,-2.381 -3.108,-2.381"
                 style="fill:#254aa5;fill-opacity:1;fill-rule:nonzero;stroke:none"
                 id="path3671"
                 inkscape:connector-curvature="0" />
            </g>
            <g
               id="g3673"
               transform="translate(102.6615,399.5832)">
              <path
                 d="m 0,0 -1.57,0 -0.377,-2.367 c -0.07,-0.447 -0.126,-0.825 -0.126,-1.05 0,-0.532 0.238,-0.714 0.631,-0.714 0.363,0 0.559,0.098 0.671,0.154 l 0.126,-1.288 c -0.196,-0.099 -0.602,-0.308 -1.372,-0.308 -1.148,0 -1.834,0.56 -1.834,1.89 0,0.322 0.083,0.813 0.154,1.316 L -3.32,0 l -0.91,0 0.21,1.204 0.911,0.168 0.505,1.876 1.553,0 -0.308,-1.862 1.597,0 L 0,0 z"
                 style="fill:#254aa5;fill-opacity:1;fill-rule:nonzero;stroke:none"
                 id="path3675"
                 inkscape:connector-curvature="0" />
            </g>
            <g
               id="g3677"
               transform="translate(109.3949,397.7211)">
              <path
                 d="m 0,0 -0.574,-3.571 -1.75,0 L -1.75,0 c 0.07,0.364 0.112,0.784 0.112,1.064 0,0.588 -0.224,0.882 -0.756,0.882 -0.603,0 -1.079,-0.364 -1.359,-0.602 l -0.77,-4.915 -1.75,0 1.553,9.872 1.779,0.154 -0.63,-3.991 0.029,0 c 0.35,0.364 0.98,0.953 2.03,0.953 1.079,0 1.653,-0.715 1.653,-2.003 C 0.141,0.98 0.07,0.476 0,0"
                 style="fill:#254aa5;fill-opacity:1;fill-rule:nonzero;stroke:none"
                 id="path3679"
                 inkscape:connector-curvature="0" />
            </g>
            <g
               id="g3681"
               transform="translate(112.5572,398.2249)">
              <path
                 d="M 0,0 0.239,0 C 1.541,0 1.961,0.42 1.961,1.05 1.961,1.428 1.723,1.611 1.415,1.611 0.813,1.611 0.267,1.05 0,0 m 0.407,-1.148 -0.546,0 0,-0.21 c 0,-1.009 0.434,-1.443 1.218,-1.443 0.841,0 1.372,0.406 1.554,0.575 l 0.364,-1.247 c -0.238,-0.224 -0.868,-0.77 -2.212,-0.77 -1.611,0 -2.632,0.868 -2.632,2.857 0,2.814 1.777,4.299 3.612,4.299 1.05,0 1.75,-0.574 1.75,-1.68 0,-1.611 -1.302,-2.381 -3.108,-2.381"
                 style="fill:#254aa5;fill-opacity:1;fill-rule:nonzero;stroke:none"
                 id="path3683"
                 inkscape:connector-curvature="0" />
            </g>
            <g
               id="g3685"
               transform="translate(121.3646,399.5408)">
              <path
                 d="m 0,0 c -0.07,0.028 -0.238,0.084 -0.532,0.084 -0.798,0 -1.247,-0.378 -1.569,-0.784 l -0.741,-4.691 -1.737,0 1.064,6.82 1.611,0 -0.169,-1.037 0.028,0 c 0.309,0.56 0.827,1.163 1.807,1.163 0.28,0 0.434,-0.042 0.49,-0.07 L 0,0 z"
                 style="fill:#254aa5;fill-opacity:1;fill-rule:nonzero;stroke:none"
                 id="path3687"
                 inkscape:connector-curvature="0" />
            </g>
            <g
               id="g3689"
               transform="translate(122.1617,393.9818)">
              <path
                 d="m 0,0 c -0.645,0 -1.051,0.406 -1.051,1.064 0,0.659 0.406,1.065 1.051,1.065 0.629,0 1.05,-0.406 1.05,-1.065 C 1.05,0.406 0.629,0 0,0"
                 style="fill:#254aa5;fill-opacity:1;fill-rule:nonzero;stroke:none"
                 id="path3691"
                 inkscape:connector-curvature="0" />
            </g>
          </g>
        </g>
      </g>
      <rect
         transform="translate(666.88501,648.07671)"
         y="0"
         x="0"
         height="99.999542"
         width="174.80141"
         id="rect4698"
         style="color:#000000;fill:none;stroke:none;stroke-width:7;marker:none;visibility:visible;display:inline;overflow:visible;enable-background:accumulate" />
    </g>
  </g>
</svg>
