<?xml version="1.0" encoding="UTF-8" standalone="no"?>
<!-- Created with Inkscape (http://www.inkscape.org/) -->

<svg
   xmlns:dc="http://purl.org/dc/elements/1.1/"
   xmlns:cc="http://creativecommons.org/ns#"
   xmlns:rdf="http://www.w3.org/1999/02/22-rdf-syntax-ns#"
   xmlns:svg="http://www.w3.org/2000/svg"
   xmlns="http://www.w3.org/2000/svg"
   xmlns:sodipodi="http://sodipodi.sourceforge.net/DTD/sodipodi-0.dtd"
   xmlns:inkscape="http://www.inkscape.org/namespaces/inkscape"
   width="625.83783"
   height="304.26715"
   id="svg3829"
   version="1.1"
   inkscape:version="0.48.4 r9939"
   sodipodi:docname="logo_bmwi.svg">
  <defs
     id="defs3831">
    <clipPath
       clipPathUnits="userSpaceOnUse"
       id="clipPath56">
      <path
         inkscape:connector-curvature="0"
         d="m 17.743,491.102 131.076,0 0,90 -131.076,0 0,-90 z"
         id="path58" />
    </clipPath>
  </defs>
  <sodipodi:namedview
     id="base"
     pagecolor="#ffffff"
     bordercolor="#666666"
     borderopacity="1.0"
     inkscape:pageopacity="0.0"
     inkscape:pageshadow="2"
     inkscape:zoom="0.98994949"
     inkscape:cx="276.35569"
     inkscape:cy="99.07624"
     inkscape:document-units="px"
     inkscape:current-layer="g4018"
     showgrid="false"
     inkscape:window-width="927"
     inkscape:window-height="1028"
     inkscape:window-x="992"
     inkscape:window-y="24"
     inkscape:window-maximized="0"
     fit-margin-top="63.41"
     fit-margin-left="67.98"
     fit-margin-bottom="63.41"
     fit-margin-right="203.94"
     inkscape:snap-page="true" />
  <metadata
     id="metadata3834">
    <rdf:RDF>
      <cc:Work
         rdf:about="">
        <dc:format>image/svg+xml</dc:format>
        <dc:type
           rdf:resource="http://purl.org/dc/dcmitype/StillImage" />
        <dc:title></dc:title>
      </cc:Work>
    </rdf:RDF>
  </metadata>
  <g
     inkscape:label="Layer 1"
     inkscape:groupmode="layer"
     id="layer1"
     transform="translate(-21.48963,-325.79308)">
    <g
       id="g4018"
       transform="matrix(2.5875917,0,0,2.5875917,-703.91833,-899.60925)">
      <g
         id="g11475">
        <g
           id="g11387">
          <g
             transform="matrix(1.25,0,0,-1.25,341.96763,544.15025)"
             id="g44">
            <path
               id="path46"
               style="fill:#f9d100;fill-opacity:1;fill-rule:nonzero;stroke:none"
               d="m 0,0 1.35,0 0,-18 -3.15,0 0,18 1.8,0 z"
               inkscape:connector-curvature="0" />
          </g>
          <g
             transform="matrix(1.25,0,0,-1.25,341.96763,521.53775)"
             id="g48">
            <path
               id="path50"
               style="fill:#e2000f;fill-opacity:1;fill-rule:nonzero;stroke:none"
               d="m 0,0 1.35,0 0,-18.09 -3.15,0 L -1.8,0 0,0 z"
               inkscape:connector-curvature="0" />
          </g>
          <g
             transform="matrix(1.25,0,0,-1.25,329.47125,507.01532)"
             id="g60">
            <path
               id="path62"
               style="fill:#000000;fill-opacity:1;fill-rule:nonzero;stroke:none"
               d="M 0,0 C 0.921,-1.457 1.643,-1.433 2.732,-1.433 1.83,-0.742 1.234,0.142 0.95,0.594 l -1.683,2.693 c -0.164,0.832 -0.594,1.609 -1.238,2.188 0.216,0.082 0.396,0.168 0.505,0.25 -1.099,0 -2.188,0.558 -2.787,0.558 -0.386,0 -0.634,-0.23 -0.634,-0.535 0.025,-0.338 0.374,-0.684 1.019,-0.684 0.147,0 0.333,0.019 0.539,0.053 0.349,-0.487 0.631,-0.926 0.631,-1.554 0,-1.179 -1.41,-2.098 -2.833,-2.098 -0.08,0 -0.157,0.003 -0.237,0.009 -0.129,0.292 -0.558,0.783 -0.558,1.341 0,0.937 0.611,1.702 0.611,2.63 0,0.576 -0.281,0.933 -0.389,1.082 0.174,0.162 0.366,0.361 0.41,0.498 -0.102,-0.044 -0.221,-0.05 -0.398,-0.05 -0.682,0 -1.238,0.178 -1.78,0.178 -0.309,0 -0.392,-0.096 -0.392,-0.187 0,-0.033 0.005,-0.067 0.014,-0.084 -0.116,0.046 -0.224,0.075 -0.353,0.099 -0.159,0.03 -0.332,0.046 -0.515,0.046 -0.659,0 -0.893,-0.277 -0.893,-0.513 0,-0.2 0.158,-0.566 0.336,-0.844 0.257,0.129 0.566,0.216 0.707,0.216 0.349,0 0.66,-0.333 0.825,-0.727 -0.235,-0.028 -0.28,-0.039 -0.518,-0.039 -0.641,0 -1.078,0.23 -1.168,0.23 -0.009,0 -0.026,-0.005 -0.026,-0.019 0,-0.09 0.182,-0.327 0.541,-0.458 0.472,-0.173 1.18,-0.245 1.298,-0.264 0,-0.021 -0.12,-0.245 -0.254,-0.287 C -8.299,4.312 -8.321,4.311 -8.354,4.318 -8.847,4.416 -8.985,4.457 -9.61,4.695 -9.63,4.702 -9.641,4.69 -9.641,4.67 -9.641,4.423 -9,3.876 -8.426,3.667 -8.905,3.055 -9.505,2.429 -9.787,1.474 -9.867,1.468 -9.944,1.465 -10.024,1.465 c -1.423,0 -2.833,0.919 -2.833,2.098 0,0.628 0.282,1.067 0.631,1.554 0.206,-0.034 0.392,-0.053 0.538,-0.053 0.645,0 0.995,0.346 1.02,0.684 0,0.305 -0.248,0.535 -0.634,0.535 -0.599,0 -1.687,-0.558 -2.787,-0.558 0.108,-0.082 0.288,-0.168 0.505,-0.25 -0.644,-0.579 -1.074,-1.356 -1.239,-2.188 l -1.682,-2.693 c -0.284,-0.452 -0.882,-1.336 -1.782,-2.027 1.089,0 1.811,-0.024 2.732,1.433 l 0.863,1.381 c 0.064,-0.179 0.143,-0.354 0.235,-0.525 l -1.716,-2.746 c -0.286,-0.455 -0.877,-1.332 -1.782,-2.026 1.089,0 1.811,-0.026 2.732,1.43 l 1.477,2.366 c 0.111,-0.118 0.227,-0.233 0.35,-0.343 L -15.481,-3.8 c -0.287,-0.457 -0.875,-1.331 -1.782,-2.025 1.089,0 1.811,-0.027 2.733,1.43 l 2.032,3.254 c 0.134,-0.084 0.271,-0.167 0.412,-0.244 l -2.481,-3.969 c -0.286,-0.457 -0.874,-1.329 -1.781,-2.025 1.089,0 1.811,-0.026 2.732,1.431 l 2.555,4.088 c 0.151,-0.058 0.304,-0.113 0.46,-0.163 l -2.886,-4.62 c -0.282,-0.45 -0.884,-1.338 -1.781,-2.025 1.089,0 1.811,-0.024 2.732,1.431 l 3.076,4.924 c 0.031,-0.006 0.062,-0.011 0.093,-0.017 0.084,-0.266 0.142,-0.514 0.142,-0.762 0,-1.547 -1.015,-2.914 -2.234,-3.968 0.078,-0.035 0.214,-0.046 0.339,-0.046 0.252,0 0.414,0.013 0.528,0.033 -0.282,-0.641 -0.888,-1.47 -1.195,-1.899 -0.399,0.072 -0.979,0.128 -1.359,0.128 -0.397,0 -0.442,-0.232 -0.442,-0.44 0,-0.361 0.168,-0.648 0.365,-0.809 0.074,0.185 0.222,0.432 0.957,0.432 0.014,0 0.04,-0.002 0.074,-0.004 -0.215,-0.239 -0.887,-0.783 -0.887,-1.22 0,-0.29 0.318,-0.724 0.737,-0.724 -0.026,0.093 -0.022,0.179 -0.022,0.243 0,0.355 0.314,0.77 0.579,1.059 -0.008,-0.086 -0.004,-0.077 -0.004,-0.177 0,-0.839 0.076,-1.224 0.608,-1.224 0.261,0 0.441,0.143 0.503,0.186 -0.346,0.319 -0.363,0.568 -0.363,1.038 0.001,0.123 0.001,0.242 0.003,0.407 10e-4,0.108 -10e-4,0.25 -0.018,0.353 0.19,0.026 0.267,0.026 0.414,0.026 0,0 0.756,0.06 0.938,-0.333 0.205,0.188 0.503,0.454 0.503,0.746 0,0.194 -0.092,0.412 -0.481,0.412 -0.148,0 -0.611,-0.09 -0.999,-0.09 0.104,0.232 0.568,0.91 0.97,1.403 0.061,-0.191 0.156,-0.398 0.367,-0.566 0.028,0.316 0.214,1.318 0.709,1.903 0.058,-0.395 0.136,-0.801 0.136,-1.657 0,-2.082 -0.501,-3.62 -1.564,-3.914 0.138,-0.241 0.431,-0.457 0.734,-0.457 0.389,0 0.601,0.439 0.817,0.854 0.112,-0.306 0.423,-1.056 0.734,-1.056 0.311,0 0.622,0.75 0.735,1.056 0.216,-0.415 0.427,-0.854 0.816,-0.854 0.304,0 0.597,0.216 0.735,0.457 -1.063,0.294 -1.564,1.832 -1.564,3.914 0,0.856 0.077,1.262 0.135,1.657 0.495,-0.585 0.682,-1.587 0.71,-1.903 0.211,0.168 0.306,0.375 0.367,0.566 0.402,-0.493 0.866,-1.171 0.97,-1.403 -0.388,0 -0.852,0.09 -0.999,0.09 -0.389,0 -0.481,-0.218 -0.481,-0.412 0,-0.292 0.298,-0.558 0.504,-0.746 0.181,0.393 0.937,0.333 0.937,0.333 0.147,0 0.224,0 0.414,-0.026 -0.017,-0.103 -0.019,-0.245 -0.018,-0.353 0.002,-0.165 0.003,-0.284 0.003,-0.407 0,-0.47 -0.018,-0.719 -0.363,-1.038 0.062,-0.043 0.242,-0.186 0.503,-0.186 0.532,0 0.608,0.385 0.608,1.224 0,0.1 0.003,0.091 -0.004,0.177 0.265,-0.289 0.579,-0.704 0.579,-1.059 0,-0.064 0.004,-0.15 -0.022,-0.243 0.419,0 0.738,0.434 0.738,0.724 0,0.437 -0.673,0.981 -0.888,1.22 0.035,0.002 0.06,0.004 0.074,0.004 0.735,0 0.883,-0.247 0.957,-0.432 0.196,0.161 0.365,0.448 0.365,0.809 0,0.208 -0.044,0.44 -0.442,0.44 -0.38,0 -0.96,-0.056 -1.36,-0.128 -0.306,0.429 -0.912,1.258 -1.195,1.899 0.114,-0.02 0.277,-0.033 0.528,-0.033 0.126,0 0.262,0.011 0.34,0.046 -1.219,1.054 -2.234,2.421 -2.234,3.968 0,0.248 0.059,0.496 0.142,0.762 0.03,0.006 0.062,0.011 0.093,0.017 l 3.076,-4.924 c 0.921,-1.455 1.644,-1.431 2.732,-1.431 -0.897,0.687 -1.499,1.575 -1.78,2.025 l -2.887,4.62 c 0.156,0.05 0.309,0.105 0.461,0.163 l 2.554,-4.088 c 0.921,-1.457 1.642,-1.431 2.732,-1.431 -0.907,0.696 -1.495,1.568 -1.781,2.025 l -2.481,3.969 c 0.141,0.077 0.279,0.16 0.412,0.244 l 2.033,-3.254 c 0.921,-1.457 1.642,-1.43 2.731,-1.43 -0.906,0.694 -1.494,1.568 -1.781,2.025 l -2.085,3.337 c 0.123,0.11 0.24,0.225 0.349,0.343 l 1.478,-2.366 C 0.589,-3.942 1.311,-3.916 2.4,-3.916 1.495,-3.222 0.904,-2.345 0.618,-1.89 l -1.716,2.746 c 0.093,0.171 0.171,0.346 0.235,0.525 L 0,0 z m -13.776,3.162 c 0,1.025 0.746,1.837 1.009,2.066 0.063,-0.016 0.126,-0.031 0.189,-0.044 -0.279,-0.34 -0.772,-0.911 -0.772,-1.668 0,-1.5 1.604,-2.804 3.42,-2.804 -0.011,-0.128 -0.018,-0.264 -0.018,-0.403 0,-0.221 0.012,-0.428 0.034,-0.622 -2.053,0.012 -3.862,1.679 -3.862,3.475 m 2.783,-12.306 -0.011,-0.035 0.035,0 c 0.577,0 0.858,0.041 1.044,0.068 0.097,0.013 0.167,0.023 0.243,0.023 0.148,0 0.263,-0.014 0.263,-0.197 0,-0.124 -0.145,-0.319 -0.285,-0.432 -0.212,0.2 -0.506,0.24 -0.938,0.24 -0.202,0 -0.467,-0.036 -0.608,-0.057 l -0.023,-0.002 -0.025,-0.004 0.008,-0.067 c 0.017,-0.12 0.038,-0.268 0.038,-0.469 l -0.003,-0.182 -0.002,-0.226 c 0,-0.489 0.067,-0.769 0.239,-0.98 -0.045,-0.016 -0.116,-0.029 -0.163,-0.029 -0.304,0 -0.392,0.132 -0.392,1.009 0,0.175 -0.01,0.341 -0.016,0.45 l -0.008,0.163 -0.039,-0.03 c -0.452,-0.344 -0.917,-0.96 -0.945,-1.42 -0.136,0.088 -0.284,0.285 -0.284,0.436 0,0.251 0.378,0.628 0.815,1.065 l 0.252,0.251 0.032,0.033 -0.083,0.02 c -0.094,0.025 -0.269,0.069 -0.417,0.069 -0.491,0 -0.797,-0.093 -0.987,-0.299 -0.068,0.098 -0.125,0.328 -0.125,0.462 0,0.087 0.017,0.149 0.052,0.184 0.043,0.041 0.109,0.041 0.168,0.041 l 0.012,0 c 0.54,0 1.186,-0.097 1.439,-0.138 l 0.014,-0.003 0.01,0.012 c 0.044,0.059 1.074,1.431 1.341,2.158 0.062,0.023 0.115,0.041 0.223,0.041 0.203,0 0.259,-0.137 0.317,-0.346 -0.644,-0.783 -1.045,-1.391 -1.191,-1.809 m 5.557,2.155 c 0.108,0 0.16,-0.018 0.223,-0.041 0.267,-0.727 1.297,-2.099 1.341,-2.158 l 0.009,-0.012 0.016,0.003 c 0.252,0.041 0.897,0.138 1.438,0.138 l 0.012,0 c 0.059,0 0.125,0 0.168,-0.041 0.034,-0.035 0.052,-0.097 0.052,-0.184 0,-0.134 -0.057,-0.364 -0.125,-0.462 -0.19,0.206 -0.496,0.299 -0.987,0.299 -0.148,0 -0.323,-0.044 -0.417,-0.069 l -0.039,-0.009 -0.044,-0.011 0.284,-0.284 c 0.437,-0.437 0.815,-0.814 0.815,-1.065 0,-0.151 -0.148,-0.348 -0.283,-0.436 -0.029,0.46 -0.494,1.076 -0.946,1.42 l -0.039,0.029 -0.008,-0.162 c -0.006,-0.109 -0.016,-0.275 -0.016,-0.45 0,-0.877 -0.089,-1.009 -0.392,-1.009 -0.047,0 -0.118,0.013 -0.162,0.029 0.17,0.211 0.238,0.491 0.238,0.98 l -0.002,0.226 -0.003,0.182 c 0,0.201 0.021,0.349 0.037,0.469 l 0.009,0.067 -0.048,0.006 c -0.142,0.021 -0.406,0.057 -0.608,0.057 -0.432,0 -0.726,-0.04 -0.938,-0.24 -0.14,0.113 -0.285,0.308 -0.285,0.432 0,0.183 0.114,0.197 0.263,0.197 0.076,0 0.146,-0.01 0.244,-0.023 0.186,-0.027 0.466,-0.068 1.042,-0.068 l 0.036,0 -0.011,0.035 c -0.146,0.418 -0.548,1.026 -1.191,1.809 0.058,0.209 0.114,0.346 0.317,0.346 m -2.385,11.97 c -0.065,0.267 -0.201,0.54 -0.375,0.746 -0.158,0.187 -0.42,0.409 -0.772,0.409 -0.162,0 -0.432,-0.075 -0.603,-0.148 -0.065,0.117 -0.19,0.399 -0.19,0.526 0,0.13 0.221,0.263 0.643,0.263 0.928,0 1.483,-0.42 1.483,-1.124 0,-0.247 -0.098,-0.472 -0.186,-0.672 m 0.417,0.915 c -0.034,0.199 -0.109,0.379 -0.224,0.534 0.005,0.182 0.08,0.355 0.373,0.212 -0.159,-0.162 -0.036,-0.448 -0.036,-0.448 0,0 0.323,0.15 0.257,0.363 0.48,-0.115 0.135,-0.76 -0.37,-0.661 m 1.807,-6.209 c 0.024,0.201 0.038,0.41 0.038,0.622 0,0.116 0.001,0.251 -0.013,0.404 1.794,0.025 3.367,1.317 3.367,2.803 0,0.757 -0.493,1.328 -0.772,1.668 0.063,0.013 0.126,0.028 0.189,0.044 0.263,-0.229 1.009,-1.041 1.009,-2.066 0,-1.783 -1.783,-3.438 -3.818,-3.475"
               inkscape:connector-curvature="0" />
          </g>
          <g
             transform="matrix(1.25,0,0,-1.25,343.65512,499.15082)"
             id="g64">
            <path
               id="path66"
               style="fill:#000000;fill-opacity:1;fill-rule:nonzero;stroke:none"
               d="m 0,0 0,-18 -1.35,0 -1.8,0 0,18 L 0,0 z"
               inkscape:connector-curvature="0" />
          </g>
          <g
             transform="matrix(1.25,0,0,-1.25,356.98062,505.6332)"
             id="g68">
            <path
               id="path70"
               style="fill:#000000;fill-opacity:1;fill-rule:nonzero;stroke:none"
               d="m 0,0 c 0,-0.746 -0.186,-1.275 -0.559,-1.586 -0.339,-0.285 -0.885,-0.428 -1.638,-0.428 l -1.8,0 0,7.353 1.953,0 c 0.657,0 1.141,-0.142 1.449,-0.427 0.309,-0.285 0.463,-0.756 0.463,-1.414 0,-0.461 -0.078,-0.813 -0.234,-1.057 C -0.529,2.163 -0.817,1.959 -1.231,1.831 -0.756,1.715 -0.427,1.502 -0.244,1.19 -0.081,0.919 0,0.522 0,0 m -0.997,3.448 c 0,0.454 -0.112,0.773 -0.335,0.956 -0.197,0.162 -0.516,0.244 -0.956,0.244 l -0.855,0 0,-2.512 0.906,0 c 0.827,0 1.24,0.437 1.24,1.312 m 0.112,-3.407 c 0,0.481 -0.103,0.839 -0.31,1.073 -0.207,0.234 -0.547,0.35 -1.022,0.35 l -0.926,0 0,-2.786 0.784,0 c 0.515,0 0.881,0.085 1.098,0.254 0.251,0.197 0.376,0.566 0.376,1.109"
               inkscape:connector-curvature="0" />
          </g>
          <g
             transform="matrix(1.25,0,0,-1.25,363.00637,508.1502)"
             id="g72">
            <path
               id="path74"
               style="fill:#000000;fill-opacity:1;fill-rule:nonzero;stroke:none"
               d="m 0,0 -0.803,0 -0.011,0.651 c -0.311,-0.488 -0.742,-0.732 -1.291,-0.732 -0.916,0 -1.373,0.525 -1.373,1.576 l 0,3.631 0.803,0 0,-3.275 c 0,-0.421 0.034,-0.719 0.102,-0.895 0.115,-0.292 0.353,-0.437 0.712,-0.437 0.671,0 1.007,0.498 1.007,1.495 l 0,3.112 0.813,0 0,-3.997 C -0.041,0.729 -0.027,0.352 0,0"
               inkscape:connector-curvature="0" />
          </g>
          <g
             transform="matrix(1.25,0,0,-1.25,369.14651,508.1502)"
             id="g76">
            <path
               id="path78"
               style="fill:#000000;fill-opacity:1;fill-rule:nonzero;stroke:none"
               d="m 0,0 -0.803,0 0,3.275 c 0,0.44 -0.031,0.742 -0.092,0.905 C -1.01,4.478 -1.244,4.627 -1.597,4.627 -1.942,4.627 -2.21,4.458 -2.4,4.119 -2.556,3.827 -2.634,3.482 -2.634,3.081 l 0,-3.081 -0.803,0 0,4.007 c 0,0.454 -0.014,0.827 -0.041,1.119 l 0.793,0 0,-0.702 C -2.4,4.966 -1.956,5.237 -1.353,5.237 -0.451,5.237 0,4.705 0,3.641 L 0,0 z"
               inkscape:connector-curvature="0" />
          </g>
          <g
             transform="matrix(1.25,0,0,-1.25,375.26112,508.1502)"
             id="g80">
            <path
               id="path82"
               style="fill:#000000;fill-opacity:1;fill-rule:nonzero;stroke:none"
               d="m 0,0 -0.783,0 -0.01,0.59 c -0.292,-0.448 -0.692,-0.671 -1.2,-0.671 -0.658,0 -1.109,0.295 -1.353,0.884 -0.156,0.394 -0.234,1.004 -0.234,1.831 0,0.78 0.092,1.37 0.275,1.77 0.244,0.556 0.674,0.833 1.291,0.833 0.516,0 0.902,-0.199 1.16,-0.6 l 0,2.716 0.813,0 0,-6.387 C -0.041,0.783 -0.027,0.461 0,0 m -0.824,2.512 c 0,0.698 -0.051,1.197 -0.152,1.495 -0.143,0.427 -0.417,0.641 -0.824,0.641 -0.4,0 -0.671,-0.224 -0.814,-0.672 -0.095,-0.291 -0.142,-0.745 -0.142,-1.362 0,-0.672 0.054,-1.163 0.163,-1.475 0.142,-0.42 0.396,-0.631 0.762,-0.631 0.434,0 0.722,0.214 0.865,0.641 0.095,0.278 0.142,0.732 0.142,1.363"
               inkscape:connector-curvature="0" />
          </g>
          <g
             transform="matrix(1.25,0,0,-1.25,381.23601,505.08658)"
             id="g84">
            <path
               id="path86"
               style="fill:#000000;fill-opacity:1;fill-rule:nonzero;stroke:none"
               d="m 0,0 -2.685,0 0,-0.346 c 0,-0.522 0.048,-0.898 0.143,-1.129 0.135,-0.332 0.4,-0.498 0.793,-0.498 0.59,0 0.898,0.376 0.925,1.129 l 0.793,0 c -0.047,-1.139 -0.62,-1.709 -1.718,-1.709 -0.712,0 -1.2,0.241 -1.465,0.722 -0.196,0.36 -0.295,0.939 -0.295,1.739 0,0.909 0.085,1.56 0.255,1.953 0.264,0.617 0.786,0.926 1.566,0.926 0.732,0 1.22,-0.272 1.464,-0.814 C -0.075,1.634 0,1.054 0,0.234 L 0,0 z m -0.814,0.549 c 0,0.495 -0.034,0.844 -0.101,1.048 -0.122,0.406 -0.383,0.61 -0.783,0.61 C -2.254,2.207 -2.57,1.875 -2.644,1.21 -2.671,0.98 -2.685,0.759 -2.685,0.549 l 1.871,0 z"
               inkscape:connector-curvature="0" />
          </g>
          <g
             transform="matrix(1.25,0,0,-1.25,386.38463,506.39595)"
             id="g88">
            <path
               id="path90"
               style="fill:#000000;fill-opacity:1;fill-rule:nonzero;stroke:none"
               d="m 0,0 c 0,-0.997 -0.536,-1.495 -1.607,-1.495 -1.051,0 -1.566,0.553 -1.546,1.658 l 0.804,0 c 0,-0.102 0.003,-0.197 0.01,-0.285 0.047,-0.536 0.298,-0.803 0.752,-0.803 0.516,0 0.773,0.264 0.773,0.793 0,0.285 -0.081,0.508 -0.244,0.671 -0.101,0.108 -0.329,0.258 -0.681,0.447 -0.481,0.258 -0.787,0.448 -0.915,0.57 -0.258,0.237 -0.387,0.553 -0.387,0.946 0,0.441 0.146,0.776 0.437,1.007 0.272,0.217 0.634,0.325 1.089,0.325 0.529,0 0.905,-0.124 1.129,-0.371 0.223,-0.248 0.342,-0.629 0.355,-1.144 l -0.803,0 c 0,0.637 -0.241,0.956 -0.722,0.956 -0.21,0 -0.376,-0.065 -0.498,-0.194 -0.122,-0.128 -0.183,-0.298 -0.183,-0.508 0,-0.23 0.098,-0.427 0.295,-0.59 C -1.841,1.888 -1.6,1.739 -1.22,1.536 -0.807,1.312 -0.522,1.122 -0.366,0.966 -0.122,0.708 0,0.386 0,0"
               inkscape:connector-curvature="0" />
          </g>
          <g
             transform="matrix(1.25,0,0,-1.25,394.95287,508.1502)"
             id="g92">
            <path
               id="path94"
               style="fill:#000000;fill-opacity:1;fill-rule:nonzero;stroke:none"
               d="m 0,0 -0.803,0 0,3.448 c 0,0.372 -0.034,0.637 -0.102,0.793 -0.102,0.251 -0.305,0.376 -0.61,0.376 -0.604,0 -0.905,-0.464 -0.905,-1.393 l 0,-3.224 -0.804,0 0,3.488 c 0,0.36 -0.027,0.61 -0.081,0.753 C -3.4,4.492 -3.607,4.617 -3.926,4.617 -4.231,4.617 -4.465,4.468 -4.627,4.17 -4.77,3.905 -4.841,3.563 -4.841,3.142 l 0,-3.142 -0.803,0 0,4.241 c 0,0.305 -0.014,0.6 -0.041,0.885 l 0.803,0 0,-0.672 c 0.272,0.523 0.675,0.783 1.211,0.783 0.583,0 0.962,-0.26 1.139,-0.783 0.298,0.523 0.722,0.783 1.271,0.783 0.468,0 0.8,-0.152 0.997,-0.457 C -0.088,4.515 0,4.085 0,3.488 L 0,0 z"
               inkscape:connector-curvature="0" />
          </g>
          <path
             id="path96"
             style="fill:#000000;fill-opacity:1;fill-rule:nonzero;stroke:none"
             d="m 397.90275,500.17945 -1.10625,0 0,-1.09375 1.10625,0 0,1.09375 z m -0.0513,7.97125 -1.00375,0 0,-6.4075 1.00375,0 0,6.4075 z"
             inkscape:connector-curvature="0" />
          <g
             transform="matrix(1.25,0,0,-1.25,404.04225,508.1502)"
             id="g98">
            <path
               id="path100"
               style="fill:#000000;fill-opacity:1;fill-rule:nonzero;stroke:none"
               d="m 0,0 -0.803,0 0,3.275 c 0,0.44 -0.031,0.742 -0.092,0.905 C -1.01,4.478 -1.244,4.627 -1.597,4.627 -1.942,4.627 -2.21,4.458 -2.4,4.119 -2.556,3.827 -2.634,3.482 -2.634,3.081 l 0,-3.081 -0.803,0 0,4.007 c 0,0.454 -0.014,0.827 -0.041,1.119 l 0.793,0 0,-0.702 C -2.4,4.966 -1.956,5.237 -1.353,5.237 -0.451,5.237 0,4.705 0,3.641 L 0,0 z"
               inkscape:connector-curvature="0" />
          </g>
          <path
             id="path102"
             style="fill:#000000;fill-opacity:1;fill-rule:nonzero;stroke:none"
             d="m 406.9915,500.17945 -1.10625,0 0,-1.09375 1.10625,0 0,1.09375 z m -0.0512,7.97125 -1.00375,0 0,-6.4075 1.00375,0 0,6.4075 z"
             inkscape:connector-curvature="0" />
          <g
             transform="matrix(1.25,0,0,-1.25,412.38161,506.39595)"
             id="g104">
            <path
               id="path106"
               style="fill:#000000;fill-opacity:1;fill-rule:nonzero;stroke:none"
               d="m 0,0 c 0,-0.997 -0.536,-1.495 -1.607,-1.495 -1.051,0 -1.566,0.553 -1.546,1.658 l 0.804,0 c 0,-0.102 0.003,-0.197 0.01,-0.285 0.047,-0.536 0.298,-0.803 0.752,-0.803 0.516,0 0.773,0.264 0.773,0.793 0,0.285 -0.081,0.508 -0.244,0.671 -0.101,0.108 -0.329,0.258 -0.681,0.447 -0.481,0.258 -0.787,0.448 -0.915,0.57 -0.258,0.237 -0.387,0.553 -0.387,0.946 0,0.441 0.146,0.776 0.437,1.007 0.272,0.217 0.634,0.325 1.089,0.325 0.529,0 0.905,-0.124 1.129,-0.371 0.223,-0.248 0.342,-0.629 0.355,-1.144 l -0.803,0 c 0,0.637 -0.241,0.956 -0.722,0.956 -0.21,0 -0.376,-0.065 -0.498,-0.194 -0.122,-0.128 -0.183,-0.298 -0.183,-0.508 0,-0.23 0.098,-0.427 0.295,-0.59 C -1.841,1.888 -1.6,1.739 -1.22,1.536 -0.807,1.312 -0.522,1.122 -0.366,0.966 -0.122,0.708 0,0.386 0,0"
               inkscape:connector-curvature="0" />
          </g>
          <g
             transform="matrix(1.25,0,0,-1.25,416.37337,508.1502)"
             id="g108">
            <path
               id="path110"
               style="fill:#000000;fill-opacity:1;fill-rule:nonzero;stroke:none"
               d="m 0,0 c -0.251,-0.027 -0.447,-0.041 -0.59,-0.041 -0.461,0 -0.776,0.099 -0.946,0.295 -0.142,0.176 -0.213,0.499 -0.213,0.966 l 0,3.316 -0.763,0 0,0.59 0.763,0 0,0.945 0.803,0.356 0,-1.301 0.915,0 0,-0.59 -0.915,0 0,-3.224 c 0,-0.285 0.041,-0.476 0.122,-0.575 C -0.742,0.639 -0.59,0.59 -0.366,0.59 -0.325,0.59 -0.203,0.603 0,0.63 L 0,0 z"
               inkscape:connector-curvature="0" />
          </g>
          <g
             transform="matrix(1.25,0,0,-1.25,421.7635,505.08658)"
             id="g112">
            <path
               id="path114"
               style="fill:#000000;fill-opacity:1;fill-rule:nonzero;stroke:none"
               d="m 0,0 -2.685,0 0,-0.346 c 0,-0.522 0.048,-0.898 0.142,-1.129 0.136,-0.332 0.401,-0.498 0.794,-0.498 0.59,0 0.898,0.376 0.925,1.129 l 0.794,0 c -0.048,-1.139 -0.621,-1.709 -1.719,-1.709 -0.712,0 -1.2,0.241 -1.465,0.722 -0.196,0.36 -0.295,0.939 -0.295,1.739 0,0.909 0.085,1.56 0.255,1.953 0.264,0.617 0.786,0.926 1.566,0.926 0.732,0 1.22,-0.272 1.464,-0.814 C -0.075,1.634 0,1.054 0,0.234 L 0,0 z m -0.814,0.549 c 0,0.495 -0.034,0.844 -0.101,1.048 -0.122,0.406 -0.383,0.61 -0.783,0.61 C -2.254,2.207 -2.57,1.875 -2.644,1.21 -2.671,0.98 -2.685,0.759 -2.685,0.549 l 1.871,0 z"
               inkscape:connector-curvature="0" />
          </g>
          <g
             transform="matrix(1.25,0,0,-1.25,426.03487,502.5822)"
             id="g116">
            <path
               id="path118"
               style="fill:#000000;fill-opacity:1;fill-rule:nonzero;stroke:none"
               d="m 0,0 c -0.081,0.014 -0.139,0.02 -0.173,0.02 -0.386,0 -0.676,-0.118 -0.869,-0.356 -0.194,-0.237 -0.29,-0.552 -0.29,-0.945 l 0,-3.173 -0.814,0 0,4.19 c 0,0.345 -0.01,0.657 -0.03,0.935 l 0.793,0 0,-0.671 c 0.278,0.515 0.712,0.773 1.302,0.773 C -0.027,0.773 0,0.515 0,0"
               inkscape:connector-curvature="0" />
          </g>
          <path
             id="path120"
             style="fill:#000000;fill-opacity:1;fill-rule:nonzero;stroke:none"
             d="m 428.29775,500.17945 -1.10625,0 0,-1.09375 1.10625,0 0,1.09375 z m -0.0512,7.97125 -1.00375,0 0,-6.4075 1.00375,0 0,6.4075 z"
             inkscape:connector-curvature="0" />
          <g
             transform="matrix(1.25,0,0,-1.25,434.48862,508.1502)"
             id="g122">
            <path
               id="path124"
               style="fill:#000000;fill-opacity:1;fill-rule:nonzero;stroke:none"
               d="m 0,0 -0.803,0 -0.011,0.651 c -0.311,-0.488 -0.742,-0.732 -1.291,-0.732 -0.915,0 -1.373,0.525 -1.373,1.576 l 0,3.631 0.803,0 0,-3.275 c 0,-0.421 0.034,-0.719 0.102,-0.895 0.115,-0.292 0.353,-0.437 0.712,-0.437 0.671,0 1.007,0.498 1.007,1.495 l 0,3.112 0.813,0 0,-3.997 C -0.041,0.729 -0.027,0.352 0,0"
               inkscape:connector-curvature="0" />
          </g>
          <g
             transform="matrix(1.25,0,0,-1.25,443.3875,508.1502)"
             id="g126">
            <path
               id="path128"
               style="fill:#000000;fill-opacity:1;fill-rule:nonzero;stroke:none"
               d="m 0,0 -0.803,0 0,3.448 c 0,0.372 -0.034,0.637 -0.102,0.793 -0.102,0.251 -0.305,0.376 -0.61,0.376 -0.604,0 -0.905,-0.464 -0.905,-1.393 l 0,-3.224 -0.804,0 0,3.488 c 0,0.36 -0.027,0.61 -0.081,0.753 C -3.4,4.492 -3.607,4.617 -3.926,4.617 -4.231,4.617 -4.465,4.468 -4.627,4.17 -4.77,3.905 -4.841,3.563 -4.841,3.142 l 0,-3.142 -0.803,0 0,4.241 c 0,0.305 -0.014,0.6 -0.041,0.885 l 0.803,0 0,-0.672 c 0.272,0.523 0.675,0.783 1.211,0.783 0.583,0 0.962,-0.26 1.139,-0.783 0.298,0.523 0.722,0.783 1.271,0.783 0.468,0 0.8,-0.152 0.997,-0.457 C -0.088,4.515 0,4.085 0,3.488 L 0,0 z"
               inkscape:connector-curvature="0" />
          </g>
          <g
             transform="matrix(1.25,0,0,-1.25,354.28549,513.20921)"
             id="g130">
            <path
               id="path132"
               style="fill:#000000;fill-opacity:1;fill-rule:nonzero;stroke:none"
               d="m 0,0 c -0.061,0.007 -0.166,0.01 -0.315,0.01 -0.251,0 -0.421,-0.091 -0.509,-0.274 -0.054,-0.129 -0.081,-0.336 -0.081,-0.621 l 0,-0.742 0.874,0 0,-0.59 -0.874,0 0,-4.536 -0.804,0 0,4.536 -0.752,0 0,0.59 0.752,0 0,0.559 c 0,0.556 0.068,0.953 0.204,1.19 0.19,0.353 0.556,0.529 1.098,0.529 0.143,0 0.278,-0.007 0.407,-0.02 L 0,0 z"
               inkscape:connector-curvature="0" />
          </g>
          <g
             transform="matrix(1.25,0,0,-1.25,359.89175,521.6502)"
             id="g134">
            <path
               id="path136"
               style="fill:#000000;fill-opacity:1;fill-rule:nonzero;stroke:none"
               d="m 0,0 -0.803,0 -0.011,0.651 c -0.311,-0.488 -0.742,-0.732 -1.291,-0.732 -0.915,0 -1.373,0.525 -1.373,1.576 l 0,3.631 0.803,0 0,-3.275 c 0,-0.42 0.034,-0.719 0.102,-0.895 0.115,-0.292 0.353,-0.437 0.712,-0.437 0.671,0 1.007,0.498 1.007,1.495 l 0,3.112 0.813,0 0,-3.997 C -0.041,0.729 -0.027,0.353 0,0"
               inkscape:connector-curvature="0" />
          </g>
          <path
             id="path138"
             style="fill:#000000;fill-opacity:1;fill-rule:nonzero;stroke:none"
             d="m 359.18025,513.7682 -0.96625,0 0,-1.22 0.96625,0 0,1.22 z m -1.99625,0 -0.94125,0 0,-1.22 0.94125,0 0,1.22 z"
             inkscape:connector-curvature="0" />
          <g
             transform="matrix(1.25,0,0,-1.25,364.40474,516.08221)"
             id="g140">
            <path
               id="path142"
               style="fill:#000000;fill-opacity:1;fill-rule:nonzero;stroke:none"
               d="m 0,0 c -0.081,0.014 -0.139,0.02 -0.173,0.02 -0.386,0 -0.676,-0.118 -0.869,-0.356 -0.194,-0.237 -0.29,-0.552 -0.29,-0.945 l 0,-3.173 -0.814,0 0,4.19 c 0,0.345 -0.01,0.657 -0.03,0.935 l 0.793,0 0,-0.671 c 0.278,0.515 0.712,0.773 1.302,0.773 C -0.027,0.773 0,0.515 0,0"
               inkscape:connector-curvature="0" />
          </g>
          <g
             transform="matrix(1.25,0,0,-1.25,378.1215,512.45906)"
             id="g144">
            <path
               id="path146"
               style="fill:#000000;fill-opacity:1;fill-rule:nonzero;stroke:none"
               d="m 0,0 -1.688,-7.353 -1.038,0 -1.291,6.448 -1.363,-6.448 -1.037,0 L -8.044,0 -7.129,0 -5.868,-6.427 -4.485,0 -3.448,0 -2.166,-6.427 -0.824,0 0,0 z"
               inkscape:connector-curvature="0" />
          </g>
          <path
             id="path148"
             style="fill:#000000;fill-opacity:1;fill-rule:nonzero;stroke:none"
             d="m 380.15525,513.67945 -1.10625,0 0,-1.09375 1.10625,0 0,1.09375 z m -0.0513,7.97125 -1.00375,0 0,-6.4075 1.00375,0 0,6.4075 z"
             inkscape:connector-curvature="0" />
          <g
             transform="matrix(1.25,0,0,-1.25,384.66837,516.08221)"
             id="g150">
            <path
               id="path152"
               style="fill:#000000;fill-opacity:1;fill-rule:nonzero;stroke:none"
               d="m 0,0 c -0.081,0.014 -0.139,0.02 -0.173,0.02 -0.386,0 -0.676,-0.118 -0.869,-0.356 -0.194,-0.237 -0.29,-0.552 -0.29,-0.945 l 0,-3.173 -0.814,0 0,4.19 c 0,0.345 -0.01,0.657 -0.03,0.935 l 0.793,0 0,-0.671 c 0.278,0.515 0.712,0.773 1.302,0.773 C -0.027,0.773 0,0.515 0,0"
               inkscape:connector-curvature="0" />
          </g>
          <g
             transform="matrix(1.25,0,0,-1.25,388.35499,521.6502)"
             id="g154">
            <path
               id="path156"
               style="fill:#000000;fill-opacity:1;fill-rule:nonzero;stroke:none"
               d="m 0,0 c -0.251,-0.027 -0.447,-0.041 -0.59,-0.041 -0.461,0 -0.776,0.099 -0.946,0.295 -0.142,0.177 -0.213,0.499 -0.213,0.966 l 0,3.316 -0.763,0 0,0.59 0.763,0 0,0.946 0.803,0.355 0,-1.301 0.915,0 0,-0.59 -0.915,0 0,-3.224 c 0,-0.285 0.041,-0.476 0.122,-0.575 C -0.742,0.639 -0.59,0.59 -0.366,0.59 -0.325,0.59 -0.203,0.603 0,0.631 L 0,0 z"
               inkscape:connector-curvature="0" />
          </g>
          <g
             transform="matrix(1.25,0,0,-1.25,393.16036,519.89581)"
             id="g158">
            <path
               id="path160"
               style="fill:#000000;fill-opacity:1;fill-rule:nonzero;stroke:none"
               d="m 0,0 c 0,-0.997 -0.536,-1.495 -1.607,-1.495 -1.051,0 -1.566,0.553 -1.546,1.658 l 0.804,0 c 0,-0.102 0.003,-0.197 0.01,-0.285 0.047,-0.536 0.298,-0.804 0.752,-0.804 0.516,0 0.773,0.265 0.773,0.794 0,0.285 -0.081,0.508 -0.244,0.671 -0.101,0.108 -0.329,0.258 -0.681,0.447 -0.481,0.258 -0.787,0.448 -0.915,0.57 -0.258,0.237 -0.387,0.553 -0.387,0.946 0,0.441 0.146,0.776 0.437,1.007 0.272,0.217 0.634,0.325 1.089,0.325 0.529,0 0.905,-0.124 1.129,-0.371 0.223,-0.248 0.342,-0.629 0.355,-1.144 l -0.803,0 c 0,0.637 -0.241,0.956 -0.722,0.956 -0.21,0 -0.376,-0.065 -0.498,-0.194 -0.122,-0.128 -0.183,-0.298 -0.183,-0.508 0,-0.23 0.098,-0.427 0.295,-0.59 C -1.841,1.888 -1.6,1.739 -1.22,1.536 -0.807,1.312 -0.522,1.122 -0.366,0.966 -0.122,0.708 0,0.386 0,0"
               inkscape:connector-curvature="0" />
          </g>
          <g
             transform="matrix(1.25,0,0,-1.25,398.61399,519.65444)"
             id="g162">
            <path
               id="path164"
               style="fill:#000000;fill-opacity:1;fill-rule:nonzero;stroke:none"
               d="m 0,0 c 0,-1.132 -0.532,-1.698 -1.597,-1.698 -0.732,0 -1.224,0.237 -1.474,0.712 -0.19,0.359 -0.285,0.983 -0.285,1.871 0,0.888 0.085,1.519 0.254,1.891 0.258,0.577 0.766,0.865 1.526,0.865 0.583,0 0.996,-0.136 1.24,-0.407 C -0.112,2.976 0,2.559 0,1.983 l -0.793,0 c 0,0.719 -0.265,1.078 -0.794,1.078 -0.42,0 -0.695,-0.227 -0.823,-0.681 -0.075,-0.265 -0.112,-0.736 -0.112,-1.414 0,-0.773 0.057,-1.305 0.173,-1.596 0.129,-0.326 0.373,-0.489 0.732,-0.489 0.319,0 0.542,0.112 0.671,0.336 0.095,0.169 0.146,0.431 0.153,0.783 L 0,0 z"
               inkscape:connector-curvature="0" />
          </g>
          <g
             transform="matrix(1.25,0,0,-1.25,404.322,521.6502)"
             id="g166">
            <path
               id="path168"
               style="fill:#000000;fill-opacity:1;fill-rule:nonzero;stroke:none"
               d="m 0,0 -0.803,0 0,3.275 c 0,0.434 -0.031,0.735 -0.092,0.905 -0.115,0.298 -0.349,0.447 -0.702,0.447 -0.691,0 -1.037,-0.505 -1.037,-1.515 l 0,-3.112 -0.803,0 0,7.353 0.803,0 0,-2.817 c 0.332,0.468 0.763,0.702 1.292,0.702 C -0.447,5.238 0,4.702 0,3.631 L 0,0 z"
               inkscape:connector-curvature="0" />
          </g>
          <g
             transform="matrix(1.25,0,0,-1.25,410.18236,521.6502)"
             id="g170">
            <path
               id="path172"
               style="fill:#000000;fill-opacity:1;fill-rule:nonzero;stroke:none"
               d="m 0,0 -0.783,0 -0.01,0.671 c -0.346,-0.502 -0.804,-0.752 -1.373,-0.752 -0.434,0 -0.77,0.142 -1.007,0.427 -0.21,0.271 -0.315,0.63 -0.315,1.078 0,0.725 0.278,1.213 0.834,1.464 0.366,0.17 0.969,0.258 1.81,0.265 l 0,0.223 c 0,0.421 -0.034,0.712 -0.102,0.875 -0.108,0.271 -0.339,0.407 -0.691,0.407 -0.244,0 -0.448,-0.068 -0.611,-0.204 C -2.41,4.319 -2.492,4.129 -2.492,3.885 l 0,-0.051 -0.803,0 0,0.051 c 0,0.468 0.169,0.817 0.508,1.047 0.292,0.204 0.685,0.306 1.18,0.306 0.59,0 1,-0.143 1.231,-0.428 0.217,-0.257 0.325,-0.684 0.325,-1.281 l 0,-1.892 C -0.051,1.02 -0.034,0.475 0,0 m -0.844,1.983 0,0.61 -0.204,0 c -1.071,0 -1.606,-0.366 -1.606,-1.098 0,-0.658 0.25,-0.987 0.752,-0.987 0.38,0 0.661,0.163 0.844,0.489 0.143,0.257 0.214,0.586 0.214,0.986"
               inkscape:connector-curvature="0" />
          </g>
          <g
             transform="matrix(1.25,0,0,-1.25,414.45374,513.20921)"
             id="g174">
            <path
               id="path176"
               style="fill:#000000;fill-opacity:1;fill-rule:nonzero;stroke:none"
               d="m 0,0 c -0.061,0.007 -0.166,0.01 -0.315,0.01 -0.251,0 -0.421,-0.091 -0.509,-0.274 -0.054,-0.129 -0.081,-0.336 -0.081,-0.621 l 0,-0.742 0.874,0 0,-0.59 -0.874,0 0,-4.536 -0.804,0 0,4.536 -0.752,0 0,0.59 0.752,0 0,0.559 c 0,0.556 0.068,0.953 0.204,1.19 0.19,0.353 0.556,0.529 1.098,0.529 0.143,0 0.278,-0.007 0.407,-0.02 L 0,0 z"
               inkscape:connector-curvature="0" />
          </g>
          <g
             transform="matrix(1.25,0,0,-1.25,418.19125,521.6502)"
             id="g178">
            <path
               id="path180"
               style="fill:#000000;fill-opacity:1;fill-rule:nonzero;stroke:none"
               d="m 0,0 c -0.251,-0.027 -0.447,-0.041 -0.59,-0.041 -0.461,0 -0.776,0.099 -0.946,0.295 -0.142,0.177 -0.213,0.499 -0.213,0.966 l 0,3.316 -0.763,0 0,0.59 0.763,0 0,0.946 0.803,0.355 0,-1.301 0.915,0 0,-0.59 -0.915,0 0,-3.224 c 0,-0.285 0.041,-0.476 0.122,-0.575 C -0.742,0.639 -0.59,0.59 -0.366,0.59 -0.325,0.59 -0.203,0.603 0,0.631 L 0,0 z"
               inkscape:connector-curvature="0" />
          </g>
          <g
             transform="matrix(1.25,0,0,-1.25,356.167,535.1502)"
             id="g182">
            <path
               id="path184"
               style="fill:#000000;fill-opacity:1;fill-rule:nonzero;stroke:none"
               d="m 0,0 -0.803,0 -0.011,0.651 c -0.311,-0.488 -0.742,-0.732 -1.291,-0.732 -0.915,0 -1.373,0.525 -1.373,1.576 l 0,3.631 0.803,0 0,-3.275 c 0,-0.42 0.034,-0.719 0.102,-0.895 0.115,-0.292 0.353,-0.437 0.712,-0.437 0.671,0 1.007,0.498 1.007,1.495 l 0,3.112 0.813,0 0,-3.997 C -0.041,0.729 -0.027,0.353 0,0"
               inkscape:connector-curvature="0" />
          </g>
          <g
             transform="matrix(1.25,0,0,-1.25,362.30712,535.1502)"
             id="g186">
            <path
               id="path188"
               style="fill:#000000;fill-opacity:1;fill-rule:nonzero;stroke:none"
               d="m 0,0 -0.803,0 0,3.275 c 0,0.44 -0.031,0.742 -0.092,0.905 C -1.01,4.478 -1.244,4.627 -1.597,4.627 -1.942,4.627 -2.21,4.458 -2.4,4.119 -2.556,3.827 -2.634,3.482 -2.634,3.082 l 0,-3.082 -0.803,0 0,4.007 c 0,0.454 -0.014,0.827 -0.041,1.119 l 0.793,0 0,-0.702 C -2.4,4.966 -1.956,5.238 -1.353,5.238 -0.451,5.238 0,4.705 0,3.641 L 0,0 z"
               inkscape:connector-curvature="0" />
          </g>
          <g
             transform="matrix(1.25,0,0,-1.25,368.42187,535.1502)"
             id="g190">
            <path
               id="path192"
               style="fill:#000000;fill-opacity:1;fill-rule:nonzero;stroke:none"
               d="m 0,0 -0.783,0 -0.01,0.59 c -0.292,-0.448 -0.692,-0.671 -1.2,-0.671 -0.658,0 -1.109,0.295 -1.353,0.884 -0.156,0.394 -0.234,1.004 -0.234,1.831 0,0.78 0.092,1.37 0.275,1.77 0.244,0.556 0.674,0.834 1.291,0.834 0.516,0 0.902,-0.2 1.16,-0.6 l 0,2.715 0.813,0 0,-6.387 C -0.041,0.783 -0.027,0.461 0,0 m -0.824,2.512 c 0,0.698 -0.051,1.197 -0.152,1.495 -0.143,0.427 -0.417,0.641 -0.824,0.641 -0.4,0 -0.671,-0.224 -0.814,-0.672 -0.095,-0.291 -0.142,-0.745 -0.142,-1.362 0,-0.671 0.054,-1.163 0.163,-1.475 0.142,-0.42 0.396,-0.631 0.762,-0.631 0.434,0 0.722,0.214 0.865,0.641 0.095,0.278 0.142,0.732 0.142,1.363"
               inkscape:connector-curvature="0" />
          </g>
          <g
             transform="matrix(1.25,0,0,-1.25,377.81638,535.1502)"
             id="g194">
            <path
               id="path196"
               style="fill:#000000;fill-opacity:1;fill-rule:nonzero;stroke:none"
               d="m 0,0 -3.458,0 0,7.353 3.387,0 0,-0.702 -2.522,0 0,-2.522 2.39,0 0,-0.681 -2.39,0 0,-2.746 L 0,0.702 0,0 z"
               inkscape:connector-curvature="0" />
          </g>
          <g
             transform="matrix(1.25,0,0,-1.25,383.61325,535.1502)"
             id="g198">
            <path
               id="path200"
               style="fill:#000000;fill-opacity:1;fill-rule:nonzero;stroke:none"
               d="m 0,0 -0.803,0 0,3.275 c 0,0.44 -0.031,0.742 -0.092,0.905 C -1.01,4.478 -1.244,4.627 -1.597,4.627 -1.942,4.627 -2.21,4.458 -2.4,4.119 -2.556,3.827 -2.634,3.482 -2.634,3.082 l 0,-3.082 -0.803,0 0,4.007 c 0,0.454 -0.014,0.827 -0.041,1.119 l 0.793,0 0,-0.702 C -2.4,4.966 -1.956,5.238 -1.353,5.238 -0.451,5.238 0,4.705 0,3.641 L 0,0 z"
               inkscape:connector-curvature="0" />
          </g>
          <g
             transform="matrix(1.25,0,0,-1.25,389.639,532.08658)"
             id="g202">
            <path
               id="path204"
               style="fill:#000000;fill-opacity:1;fill-rule:nonzero;stroke:none"
               d="m 0,0 -2.685,0 0,-0.346 c 0,-0.522 0.048,-0.898 0.143,-1.129 0.135,-0.332 0.4,-0.498 0.793,-0.498 0.59,0 0.898,0.376 0.925,1.129 l 0.793,0 c -0.047,-1.139 -0.62,-1.709 -1.718,-1.709 -0.712,0 -1.2,0.241 -1.465,0.722 -0.196,0.36 -0.295,0.94 -0.295,1.74 0,0.908 0.085,1.559 0.255,1.952 0.264,0.617 0.786,0.926 1.566,0.926 0.732,0 1.22,-0.272 1.464,-0.814 C -0.075,1.634 0,1.054 0,0.234 L 0,0 z m -0.814,0.549 c 0,0.495 -0.034,0.844 -0.101,1.048 -0.122,0.407 -0.383,0.61 -0.783,0.61 C -2.254,2.207 -2.57,1.875 -2.644,1.21 -2.671,0.98 -2.685,0.759 -2.685,0.549 l 1.871,0 z"
               inkscape:connector-curvature="0" />
          </g>
          <g
             transform="matrix(1.25,0,0,-1.25,393.91037,529.58219)"
             id="g206">
            <path
               id="path208"
               style="fill:#000000;fill-opacity:1;fill-rule:nonzero;stroke:none"
               d="m 0,0 c -0.081,0.014 -0.139,0.02 -0.173,0.02 -0.386,0 -0.676,-0.118 -0.869,-0.356 -0.194,-0.237 -0.29,-0.552 -0.29,-0.945 l 0,-3.173 -0.814,0 0,4.19 c 0,0.345 -0.01,0.657 -0.03,0.935 l 0.793,0 0,-0.671 c 0.278,0.515 0.712,0.773 1.302,0.773 C -0.027,0.773 0,0.515 0,0"
               inkscape:connector-curvature="0" />
          </g>
          <g
             transform="matrix(1.25,0,0,-1.25,399.19875,528.74321)"
             id="g210">
            <path
               id="path212"
               style="fill:#000000;fill-opacity:1;fill-rule:nonzero;stroke:none"
               d="m 0,0 c 0,-0.075 -0.005,-0.208 -0.015,-0.402 -0.01,-0.193 -0.016,-0.344 -0.016,-0.452 l 0,-4.485 c 0,-0.624 -0.145,-1.078 -0.437,-1.363 -0.291,-0.285 -0.756,-0.427 -1.393,-0.427 -1.058,0 -1.593,0.495 -1.607,1.485 l 0.854,0 c 0,-0.624 0.265,-0.936 0.794,-0.936 0.413,0 0.688,0.149 0.823,0.447 0.095,0.197 0.143,0.523 0.143,0.977 l 0,0.691 c -0.285,-0.4 -0.682,-0.6 -1.19,-0.6 -0.637,0 -1.075,0.268 -1.312,0.804 -0.156,0.352 -0.234,0.902 -0.234,1.647 0,0.828 0.085,1.444 0.254,1.851 0.244,0.583 0.678,0.875 1.302,0.875 0.57,0 0.98,-0.237 1.231,-0.712 l 0,0.6 L 0,0 z m -0.834,-2.4 c 0,0.576 -0.047,1.003 -0.142,1.281 -0.149,0.421 -0.427,0.631 -0.834,0.631 -0.421,0 -0.699,-0.238 -0.834,-0.712 -0.082,-0.285 -0.122,-0.756 -0.122,-1.414 0,-0.59 0.04,-1.01 0.122,-1.261 0.129,-0.42 0.39,-0.63 0.783,-0.63 0.461,0 0.766,0.254 0.915,0.762 0.075,0.265 0.112,0.712 0.112,1.343"
               inkscape:connector-curvature="0" />
          </g>
          <path
             id="path214"
             style="fill:#000000;fill-opacity:1;fill-rule:nonzero;stroke:none"
             d="m 402.09775,527.17945 -1.10625,0 0,-1.09375 1.10625,0 0,1.09375 z m -0.0513,7.97125 -1.00375,0 0,-6.4075 1.00375,0 0,6.4075 z"
             inkscape:connector-curvature="0" />
          <g
             transform="matrix(1.25,0,0,-1.25,408.07214,532.08658)"
             id="g216">
            <path
               id="path218"
               style="fill:#000000;fill-opacity:1;fill-rule:nonzero;stroke:none"
               d="m 0,0 -2.685,0 0,-0.346 c 0,-0.522 0.048,-0.898 0.142,-1.129 0.136,-0.332 0.401,-0.498 0.794,-0.498 0.59,0 0.898,0.376 0.925,1.129 l 0.793,0 c -0.047,-1.139 -0.62,-1.709 -1.718,-1.709 -0.712,0 -1.2,0.241 -1.465,0.722 -0.196,0.36 -0.295,0.94 -0.295,1.74 0,0.908 0.085,1.559 0.255,1.952 0.264,0.617 0.786,0.926 1.566,0.926 0.732,0 1.22,-0.272 1.464,-0.814 C -0.075,1.634 0,1.054 0,0.234 L 0,0 z m -0.814,0.549 c 0,0.495 -0.034,0.844 -0.101,1.048 -0.122,0.407 -0.383,0.61 -0.783,0.61 C -2.254,2.207 -2.57,1.875 -2.644,1.21 -2.671,0.98 -2.685,0.759 -2.685,0.549 l 1.871,0 z"
               inkscape:connector-curvature="0" />
          </g>
        </g>
        <rect
           transform="matrix(0.38645973,0,0,0.38645973,280.34097,473.56866)"
           y="0"
           x="0"
           height="304.26715"
           width="625.83783"
           id="rect11473"
           style="color:#000000;fill:none;fill-opacity:1;fill-rule:nonzero;stroke:none;stroke-width:7;marker:none;visibility:visible;display:inline;overflow:visible;enable-background:accumulate" />
      </g>
    </g>
  </g>
</svg>
