<?xml version="1.0" encoding="UTF-8" standalone="no"?>
<!-- Created with Inkscape (http://www.inkscape.org/) -->

<svg
   xmlns:dc="http://purl.org/dc/elements/1.1/"
   xmlns:cc="http://creativecommons.org/ns#"
   xmlns:rdf="http://www.w3.org/1999/02/22-rdf-syntax-ns#"
   xmlns:svg="http://www.w3.org/2000/svg"
   xmlns="http://www.w3.org/2000/svg"
   xmlns:xlink="http://www.w3.org/1999/xlink"
   xmlns:sodipodi="http://sodipodi.sourceforge.net/DTD/sodipodi-0.dtd"
   xmlns:inkscape="http://www.inkscape.org/namespaces/inkscape"
   width="156.57159"
   height="99.999565"
   id="svg6876"
   version="1.1"
   inkscape:version="0.48.4 r9939"
   sodipodi:docname="logo_esf.svg">
  <defs
     id="defs6878">
    <clipPath
       clipPathUnits="userSpaceOnUse"
       id="clipPath5817">
      <path
         inkscape:connector-curvature="0"
         d="m 70.866,174.749 141.576,0 0,71.865 -141.576,0 0,-71.865 z"
         id="path5819" />
    </clipPath>
    <clipPath
       clipPathUnits="userSpaceOnUse"
       id="clipPath5837">
      <path
         inkscape:connector-curvature="0"
         d="m 70.866,203.122 52.142,-0.339 -42.327,13.253 -9.815,-12.914 z"
         id="path5839" />
    </clipPath>
    <linearGradient
       x1="0"
       y1="0"
       x2="1"
       y2="0"
       gradientUnits="userSpaceOnUse"
       gradientTransform="matrix(-1.0501699,-10.394651,-10.394651,1.0501699,97.881531,212.30144)"
       spreadMethod="pad"
       id="linearGradient5845">
      <stop
         style="stop-opacity:1;stop-color:#162d66"
         offset="0"
         id="stop5847" />
      <stop
         style="stop-opacity:1;stop-color:#254aa5"
         offset="1"
         id="stop5849" />
    </linearGradient>
    <clipPath
       clipPathUnits="userSpaceOnUse"
       id="clipPath5857">
      <path
         inkscape:connector-curvature="0"
         d="m 82.185,234.708 42.123,-30.716 -26.693,35.405 -15.43,-4.689 z"
         id="path5859" />
    </clipPath>
    <linearGradient
       x1="0"
       y1="0"
       x2="1"
       y2="0"
       gradientUnits="userSpaceOnUse"
       gradientTransform="matrix(5.145,8.0852003,8.0852003,-5.145,103.88323,220.35074)"
       spreadMethod="pad"
       id="linearGradient5865">
      <stop
         style="stop-opacity:1;stop-color:#ed1c24"
         offset="0"
         id="stop5867" />
      <stop
         style="stop-opacity:1;stop-color:#c4161d"
         offset="0.84188"
         id="stop5869" />
      <stop
         style="stop-opacity:1;stop-color:#c4161d"
         offset="0.84188"
         id="stop5871" />
      <stop
         style="stop-opacity:1;stop-color:#c4161d"
         offset="1"
         id="stop5873" />
    </linearGradient>
    <clipPath
       clipPathUnits="userSpaceOnUse"
       id="clipPath5881">
      <path
         inkscape:connector-curvature="0"
         d="m 70.866,174.749 141.576,0 0,71.865 -141.576,0 0,-71.865 z"
         id="path5883" />
    </clipPath>
    <clipPath
       clipPathUnits="userSpaceOnUse"
       id="clipPath5893">
      <path
         inkscape:connector-curvature="0"
         d="M 74.13,219.793 123.622,203.404 87.392,228.97 74.13,219.793 z"
         id="path5895" />
    </clipPath>
    <linearGradient
       x1="0"
       y1="0"
       x2="1"
       y2="0"
       gradientUnits="userSpaceOnUse"
       gradientTransform="matrix(3.8850701,8.8204002,8.8204002,-3.8850701,98.460632,210.65494)"
       spreadMethod="pad"
       id="linearGradient5901">
      <stop
         style="stop-opacity:1;stop-color:#f1ce04"
         offset="0"
         id="stop5903" />
      <stop
         style="stop-opacity:1;stop-color:#d0b103"
         offset="0.940171"
         id="stop5905" />
      <stop
         style="stop-opacity:1;stop-color:#d0b103"
         offset="0.940171"
         id="stop5907" />
      <stop
         style="stop-opacity:1;stop-color:#d0b103"
         offset="1"
         id="stop5909" />
    </linearGradient>
    <clipPath
       clipPathUnits="userSpaceOnUse"
       id="clipPath5917">
      <path
         inkscape:connector-curvature="0"
         d="m 70.866,174.749 141.576,0 0,71.865 -141.576,0 0,-71.865 z"
         id="path5919" />
    </clipPath>
    <clipPath
       clipPathUnits="userSpaceOnUse"
       id="clipPath5817-7">
      <path
         inkscape:connector-curvature="0"
         d="m 70.866,174.749 141.576,0 0,71.865 -141.576,0 0,-71.865 z"
         id="path5819-1" />
    </clipPath>
    <clipPath
       clipPathUnits="userSpaceOnUse"
       id="clipPath5837-4">
      <path
         inkscape:connector-curvature="0"
         d="m 70.866,203.122 52.142,-0.339 -42.327,13.253 -9.815,-12.914 z"
         id="path5839-5" />
    </clipPath>
    <linearGradient
       inkscape:collect="always"
       xlink:href="#linearGradient5845-4"
       id="linearGradient7111-1"
       gradientUnits="userSpaceOnUse"
       gradientTransform="matrix(-1.0501699,-10.394651,-10.394651,1.0501699,97.881531,212.30144)"
       spreadMethod="pad"
       x1="0"
       y1="0"
       x2="1"
       y2="0" />
    <linearGradient
       x1="0"
       y1="0"
       x2="1"
       y2="0"
       gradientUnits="userSpaceOnUse"
       gradientTransform="matrix(-1.0501699,-10.394651,-10.394651,1.0501699,97.881531,212.30144)"
       spreadMethod="pad"
       id="linearGradient5845-4">
      <stop
         style="stop-opacity:1;stop-color:#162d66"
         offset="0"
         id="stop5847-2" />
      <stop
         style="stop-opacity:1;stop-color:#254aa5"
         offset="1"
         id="stop5849-1" />
    </linearGradient>
    <clipPath
       clipPathUnits="userSpaceOnUse"
       id="clipPath5857-7">
      <path
         inkscape:connector-curvature="0"
         d="m 82.185,234.708 42.123,-30.716 -26.693,35.405 -15.43,-4.689 z"
         id="path5859-6" />
    </clipPath>
    <linearGradient
       inkscape:collect="always"
       xlink:href="#linearGradient5865-7"
       id="linearGradient7113-5"
       gradientUnits="userSpaceOnUse"
       gradientTransform="matrix(5.145,8.0852003,8.0852003,-5.145,103.88323,220.35074)"
       spreadMethod="pad"
       x1="0"
       y1="0"
       x2="1"
       y2="0" />
    <linearGradient
       x1="0"
       y1="0"
       x2="1"
       y2="0"
       gradientUnits="userSpaceOnUse"
       gradientTransform="matrix(5.145,8.0852003,8.0852003,-5.145,103.88323,220.35074)"
       spreadMethod="pad"
       id="linearGradient5865-7">
      <stop
         style="stop-opacity:1;stop-color:#ed1c24"
         offset="0"
         id="stop5867-2" />
      <stop
         style="stop-opacity:1;stop-color:#c4161d"
         offset="0.84188"
         id="stop5869-3" />
      <stop
         style="stop-opacity:1;stop-color:#c4161d"
         offset="0.84188"
         id="stop5871-7" />
      <stop
         style="stop-opacity:1;stop-color:#c4161d"
         offset="1"
         id="stop5873-9" />
    </linearGradient>
    <clipPath
       clipPathUnits="userSpaceOnUse"
       id="clipPath5881-0">
      <path
         inkscape:connector-curvature="0"
         d="m 70.866,174.749 141.576,0 0,71.865 -141.576,0 0,-71.865 z"
         id="path5883-0" />
    </clipPath>
    <clipPath
       clipPathUnits="userSpaceOnUse"
       id="clipPath5893-1">
      <path
         inkscape:connector-curvature="0"
         d="M 74.13,219.793 123.622,203.404 87.392,228.97 74.13,219.793 z"
         id="path5895-8" />
    </clipPath>
    <linearGradient
       inkscape:collect="always"
       xlink:href="#linearGradient5901-7"
       id="linearGradient7115-3"
       gradientUnits="userSpaceOnUse"
       gradientTransform="matrix(3.8850701,8.8204002,8.8204002,-3.8850701,98.460632,210.65494)"
       spreadMethod="pad"
       x1="0"
       y1="0"
       x2="1"
       y2="0" />
    <linearGradient
       x1="0"
       y1="0"
       x2="1"
       y2="0"
       gradientUnits="userSpaceOnUse"
       gradientTransform="matrix(3.8850701,8.8204002,8.8204002,-3.8850701,98.460632,210.65494)"
       spreadMethod="pad"
       id="linearGradient5901-7">
      <stop
         style="stop-opacity:1;stop-color:#f1ce04"
         offset="0"
         id="stop5903-2" />
      <stop
         style="stop-opacity:1;stop-color:#d0b103"
         offset="0.940171"
         id="stop5905-0" />
      <stop
         style="stop-opacity:1;stop-color:#d0b103"
         offset="0.940171"
         id="stop5907-5" />
      <stop
         style="stop-opacity:1;stop-color:#d0b103"
         offset="1"
         id="stop5909-5" />
    </linearGradient>
    <clipPath
       clipPathUnits="userSpaceOnUse"
       id="clipPath5917-3">
      <path
         inkscape:connector-curvature="0"
         d="m 70.866,174.749 141.576,0 0,71.865 -141.576,0 0,-71.865 z"
         id="path5919-3" />
    </clipPath>
    <clipPath
       clipPathUnits="userSpaceOnUse"
       id="clipPath5817-3">
      <path
         inkscape:connector-curvature="0"
         d="m 70.866,174.749 141.576,0 0,71.865 -141.576,0 0,-71.865 z"
         id="path5819-6" />
    </clipPath>
    <clipPath
       clipPathUnits="userSpaceOnUse"
       id="clipPath5837-1">
      <path
         inkscape:connector-curvature="0"
         d="m 70.866,203.122 52.142,-0.339 -42.327,13.253 -9.815,-12.914 z"
         id="path5839-0" />
    </clipPath>
    <linearGradient
       inkscape:collect="always"
       xlink:href="#linearGradient5845-9"
       id="linearGradient7111"
       gradientUnits="userSpaceOnUse"
       gradientTransform="matrix(-1.0501699,-10.394651,-10.394651,1.0501699,97.881531,212.30144)"
       spreadMethod="pad"
       x1="0"
       y1="0"
       x2="1"
       y2="0" />
    <linearGradient
       x1="0"
       y1="0"
       x2="1"
       y2="0"
       gradientUnits="userSpaceOnUse"
       gradientTransform="matrix(-1.0501699,-10.394651,-10.394651,1.0501699,97.881531,212.30144)"
       spreadMethod="pad"
       id="linearGradient5845-9">
      <stop
         style="stop-opacity:1;stop-color:#162d66"
         offset="0"
         id="stop5847-7" />
      <stop
         style="stop-opacity:1;stop-color:#254aa5"
         offset="1"
         id="stop5849-5" />
    </linearGradient>
    <clipPath
       clipPathUnits="userSpaceOnUse"
       id="clipPath5857-71">
      <path
         inkscape:connector-curvature="0"
         d="m 82.185,234.708 42.123,-30.716 -26.693,35.405 -15.43,-4.689 z"
         id="path5859-9" />
    </clipPath>
    <linearGradient
       inkscape:collect="always"
       xlink:href="#linearGradient5865-3"
       id="linearGradient7113"
       gradientUnits="userSpaceOnUse"
       gradientTransform="matrix(5.145,8.0852003,8.0852003,-5.145,103.88323,220.35074)"
       spreadMethod="pad"
       x1="0"
       y1="0"
       x2="1"
       y2="0" />
    <linearGradient
       x1="0"
       y1="0"
       x2="1"
       y2="0"
       gradientUnits="userSpaceOnUse"
       gradientTransform="matrix(5.145,8.0852003,8.0852003,-5.145,103.88323,220.35074)"
       spreadMethod="pad"
       id="linearGradient5865-3">
      <stop
         style="stop-opacity:1;stop-color:#ed1c24"
         offset="0"
         id="stop5867-1" />
      <stop
         style="stop-opacity:1;stop-color:#c4161d"
         offset="0.84188"
         id="stop5869-2" />
      <stop
         style="stop-opacity:1;stop-color:#c4161d"
         offset="0.84188"
         id="stop5871-2" />
      <stop
         style="stop-opacity:1;stop-color:#c4161d"
         offset="1"
         id="stop5873-8" />
    </linearGradient>
    <clipPath
       clipPathUnits="userSpaceOnUse"
       id="clipPath5881-3">
      <path
         inkscape:connector-curvature="0"
         d="m 70.866,174.749 141.576,0 0,71.865 -141.576,0 0,-71.865 z"
         id="path5883-3" />
    </clipPath>
    <clipPath
       clipPathUnits="userSpaceOnUse"
       id="clipPath5893-5">
      <path
         inkscape:connector-curvature="0"
         d="M 74.13,219.793 123.622,203.404 87.392,228.97 74.13,219.793 z"
         id="path5895-6" />
    </clipPath>
    <linearGradient
       inkscape:collect="always"
       xlink:href="#linearGradient5901-8"
       id="linearGradient7115"
       gradientUnits="userSpaceOnUse"
       gradientTransform="matrix(3.8850701,8.8204002,8.8204002,-3.8850701,98.460632,210.65494)"
       spreadMethod="pad"
       x1="0"
       y1="0"
       x2="1"
       y2="0" />
    <linearGradient
       x1="0"
       y1="0"
       x2="1"
       y2="0"
       gradientUnits="userSpaceOnUse"
       gradientTransform="matrix(3.8850701,8.8204002,8.8204002,-3.8850701,98.460632,210.65494)"
       spreadMethod="pad"
       id="linearGradient5901-8">
      <stop
         style="stop-opacity:1;stop-color:#f1ce04"
         offset="0"
         id="stop5903-6" />
      <stop
         style="stop-opacity:1;stop-color:#d0b103"
         offset="0.940171"
         id="stop5905-6" />
      <stop
         style="stop-opacity:1;stop-color:#d0b103"
         offset="0.940171"
         id="stop5907-3" />
      <stop
         style="stop-opacity:1;stop-color:#d0b103"
         offset="1"
         id="stop5909-4" />
    </linearGradient>
    <clipPath
       clipPathUnits="userSpaceOnUse"
       id="clipPath5917-8">
      <path
         inkscape:connector-curvature="0"
         d="m 70.866,174.749 141.576,0 0,71.865 -141.576,0 0,-71.865 z"
         id="path5919-33" />
    </clipPath>
  </defs>
  <sodipodi:namedview
     id="base"
     pagecolor="#ffffff"
     bordercolor="#666666"
     borderopacity="1.0"
     inkscape:pageopacity="0.0"
     inkscape:pageshadow="2"
     inkscape:zoom="1.979899"
     inkscape:cx="82.253717"
     inkscape:cy="32.150376"
     inkscape:document-units="px"
     inkscape:current-layer="layer1"
     showgrid="false"
     fit-margin-top="20.84"
     fit-margin-left="20.84"
     fit-margin-right="20.84"
     fit-margin-bottom="20.84"
     inkscape:window-width="1855"
     inkscape:window-height="1056"
     inkscape:window-x="65"
     inkscape:window-y="24"
     inkscape:window-maximized="1"
     inkscape:snap-global="true"
     gridtolerance="10"
     inkscape:snap-page="true" />
  <metadata
     id="metadata6881">
    <rdf:RDF>
      <cc:Work
         rdf:about="">
        <dc:format>image/svg+xml</dc:format>
        <dc:type
           rdf:resource="http://purl.org/dc/dcmitype/StillImage" />
        <dc:title></dc:title>
      </cc:Work>
    </rdf:RDF>
  </metadata>
  <g
     inkscape:label="Layer 1"
     inkscape:groupmode="layer"
     id="layer1"
     transform="translate(-206.22927,-154.65213)">
    <g
       id="g13879">
      <g
         transform="matrix(0.81151891,0,0,-0.81151891,169.56017,375.62381)"
         id="g6668">
        <g
           id="g5813">
          <g
             clip-path="url(#clipPath5817-3)"
             id="g5815">
            <g
               transform="translate(153.5546,202.7882)"
               id="g5821">
              <path
                 inkscape:connector-curvature="0"
                 id="path5823"
                 style="fill:#254aa5;fill-opacity:1;fill-rule:nonzero;stroke:none"
                 d="m 0,0 -22.141,0 c -0.439,0 -0.987,0.11 -0.987,0.987 l 0,34.583 c 0,0.877 0.548,0.986 0.987,0.986 l 21.046,0 c 0.437,0 0.986,-0.109 0.986,-0.986 l 0,-4.44 c 0,-0.877 -0.549,-0.986 -0.986,-0.986 l -12.716,0 c -0.22,0 -0.548,-0.11 -0.548,-0.658 l 0,-6.686 c 0,-0.494 0.328,-0.658 0.548,-0.658 l 9.92,0 c 0.439,0 0.986,-0.109 0.986,-0.986 l 0,-4.44 c 0,-0.877 -0.547,-0.986 -0.986,-0.986 l -9.92,0 c -0.22,0 -0.548,-0.11 -0.548,-0.658 l 0,-8.003 c 0,-0.491 0.328,-0.656 0.548,-0.656 L 0,6.413 c 0.439,0 0.987,-0.111 0.987,-0.987 l 0,-4.439 C 0.987,0.11 0.439,0 0,0" />
            </g>
            <g
               transform="translate(169.8386,202.2443)"
               id="g5825">
              <path
                 inkscape:connector-curvature="0"
                 id="path5827"
                 style="fill:#254aa5;fill-opacity:1;fill-rule:nonzero;stroke:none"
                 d="m 0,0 c -6.084,0 -9.152,1.48 -9.976,2.028 -0.547,0.329 -0.656,0.712 -0.656,1.37 l 0,4.33 c 0,0.438 0.109,0.877 0.767,0.877 0.492,0 0.767,-0.22 1.151,-0.439 0.932,-0.548 3.452,-1.973 7.782,-1.973 2.96,0 5.754,0.493 5.754,3.617 0,2.137 -1.315,3.014 -2.959,4.001 l -6.193,3.837 c -2.083,1.314 -5.646,3.617 -5.646,9.81 0,8.111 7.071,9.974 13.264,9.974 3.124,0 6.467,-0.602 8.714,-1.972 0.547,-0.33 0.659,-0.713 0.659,-1.371 l 0,-4.439 c 0,-0.439 -0.112,-0.877 -0.768,-0.877 -0.548,0 -0.822,0.274 -1.261,0.493 -2.576,1.37 -4.22,2.028 -7.454,2.028 -2.411,0 -4.931,-0.603 -4.931,-3.288 0,-2.028 1.37,-2.96 3.013,-3.837 L 6.138,21.484 C 10.413,19.127 13.152,16.88 13.152,10.851 13.152,2.959 7.289,0 0,0" />
            </g>
            <g
               transform="translate(211.4556,232.8258)"
               id="g5829">
              <path
                 inkscape:connector-curvature="0"
                 id="path5831"
                 style="fill:#254aa5;fill-opacity:1;fill-rule:nonzero;stroke:none"
                 d="m 0,0 -11.619,0 c -0.218,0 -0.547,-0.109 -0.547,-0.658 l 0,-7.782 c 0,-0.494 0.329,-0.658 0.547,-0.658 l 9.482,0 c 0.439,0 0.987,-0.109 0.987,-0.986 l 0,-4.44 c 0,-0.876 -0.548,-0.986 -0.987,-0.986 l -9.482,0 c -0.218,0 -0.547,-0.11 -0.547,-0.658 l 0,-12.988 c 0,-0.878 -0.548,-0.987 -0.986,-0.987 l -6.797,0 c -0.438,0 -0.986,0.109 -0.986,0.987 l 0,34.582 c 0,0.877 0.548,0.987 0.986,0.987 L 0,6.413 c 0.439,0 0.987,-0.11 0.987,-0.987 l 0,-4.439 C 0.987,0.109 0.439,0 0,0" />
            </g>
          </g>
        </g>
        <g
           id="g5833">
          <g
             clip-path="url(#clipPath5837-1)"
             id="g5835">
            <g
               id="g5841">
              <g
                 id="g5843">
                <path
                   inkscape:connector-curvature="0"
                   id="path5851"
                   style="fill:url(#linearGradient7111);stroke:none"
                   d="m 70.866,203.122 52.142,-0.339 -42.327,13.253 -9.815,-12.914 z" />
              </g>
            </g>
          </g>
        </g>
        <g
           id="g5853">
          <g
             clip-path="url(#clipPath5857-71)"
             id="g5855">
            <g
               id="g5861">
              <g
                 id="g5863">
                <path
                   inkscape:connector-curvature="0"
                   id="path5875"
                   style="fill:url(#linearGradient7113);stroke:none"
                   d="m 82.185,234.708 42.123,-30.716 -26.693,35.405 -15.43,-4.689 z" />
              </g>
            </g>
          </g>
        </g>
        <g
           id="g5877">
          <g
             clip-path="url(#clipPath5881-3)"
             id="g5879">
            <g
               transform="translate(124.9311,204.4547)"
               id="g5885">
              <path
                 inkscape:connector-curvature="0"
                 id="path5887"
                 style="fill:#231f20;fill-opacity:1;fill-rule:nonzero;stroke:none"
                 d="M 0,0 -14.544,41.885 -30.668,42.159 0,0 z" />
            </g>
          </g>
        </g>
        <g
           id="g5889">
          <g
             clip-path="url(#clipPath5893-5)"
             id="g5891">
            <g
               id="g5897">
              <g
                 id="g5899">
                <path
                   inkscape:connector-curvature="0"
                   id="path5911"
                   style="fill:url(#linearGradient7115);stroke:none"
                   d="M 74.13,219.793 123.622,203.404 87.392,228.97 74.13,219.793 z" />
              </g>
            </g>
          </g>
        </g>
        <g
           id="g5913">
          <g
             clip-path="url(#clipPath5917-8)"
             id="g5915">
            <g
               transform="translate(88.6039,189.9799)"
               id="g5921">
              <path
                 inkscape:connector-curvature="0"
                 id="path5923"
                 style="fill:#231f20;fill-opacity:1;fill-rule:nonzero;stroke:none"
                 d="m 0,0 -4.192,0 c -0.083,0 -0.187,0.02 -0.187,0.187 l 0,6.547 c 0,0.166 0.104,0.187 0.187,0.187 l 3.984,0 c 0.084,0 0.187,-0.021 0.187,-0.187 l 0,-0.84 c 0,-0.167 -0.103,-0.187 -0.187,-0.187 l -2.407,0 c -0.041,0 -0.103,-0.021 -0.103,-0.125 l 0,-1.266 c 0,-0.093 0.062,-0.124 0.103,-0.124 l 1.878,0 c 0.083,0 0.187,-0.021 0.187,-0.187 l 0,-0.84 c 0,-0.167 -0.104,-0.187 -0.187,-0.187 l -1.878,0 c -0.041,0 -0.103,-0.021 -0.103,-0.124 l 0,-1.516 c 0,-0.093 0.062,-0.124 0.103,-0.124 l 2.615,0 c 0.083,0 0.187,-0.021 0.187,-0.187 l 0,-0.84 C 0.187,0.02 0.083,0 0,0" />
            </g>
            <g
               transform="translate(95.1196,189.9799)"
               id="g5925">
              <path
                 inkscape:connector-curvature="0"
                 id="path5927"
                 style="fill:#231f20;fill-opacity:1;fill-rule:nonzero;stroke:none"
                 d="m 0,0 -1.173,0 c -0.124,0 -0.145,0.062 -0.145,0.135 0,0.041 0,0.072 -0.104,0.072 -0.124,0 -0.29,-0.051 -0.383,-0.093 -0.301,-0.124 -0.727,-0.197 -1.048,-0.197 -0.592,0 -1.121,0.145 -1.453,0.508 -0.342,0.374 -0.384,0.83 -0.384,1.682 l 0,2.977 c 0,0.166 0.104,0.187 0.187,0.187 l 1.183,0 c 0.083,0 0.186,-0.021 0.186,-0.187 l 0,-2.895 c 0,-0.414 0.032,-0.684 0.166,-0.861 0.156,-0.197 0.405,-0.28 0.737,-0.28 0.177,0 0.394,0.031 0.55,0.104 0.208,0.093 0.311,0.239 0.311,0.498 l 0,3.434 c 0,0.166 0.104,0.187 0.187,0.187 l 1.183,0 c 0.083,0 0.187,-0.021 0.187,-0.187 l 0,-4.897 C 0.187,0.02 0.083,0 0,0" />
            </g>
            <g
               transform="translate(100.6388,193.9749)"
               id="g5929">
              <path
                 inkscape:connector-curvature="0"
                 id="path5931"
                 style="fill:#231f20;fill-opacity:1;fill-rule:nonzero;stroke:none"
                 d="m 0,0 c -0.156,0 -0.239,0.083 -0.789,0.083 -0.83,0 -0.934,-0.435 -0.934,-0.82 l 0,-3.071 c 0,-0.167 -0.103,-0.187 -0.186,-0.187 l -1.183,0 c -0.083,0 -0.187,0.02 -0.187,0.187 l 0,4.897 c 0,0.166 0.104,0.187 0.187,0.187 l 1.152,0 c 0.124,0 0.145,-0.062 0.145,-0.135 l 0,-0.082 c 0,-0.053 0.052,-0.094 0.114,-0.094 0.301,0 0.529,0.394 1.307,0.394 0.457,0 0.519,-0.166 0.519,-0.342 l 0,-0.862 C 0.145,0.062 0.104,0 0,0" />
            </g>
            <g
               transform="translate(104.5705,194.2964)"
               id="g5933">
              <path
                 inkscape:connector-curvature="0"
                 id="path5935"
                 style="fill:#231f20;fill-opacity:1;fill-rule:nonzero;stroke:none"
                 d="m 0,0 c -0.934,0 -1.11,-0.809 -1.11,-1.722 0,-0.893 0.187,-1.64 1.12,-1.64 0.934,0 1.111,0.809 1.111,1.723 C 1.121,-0.747 0.934,0 0,0 m 0,-4.41 c -1.795,0 -2.739,1.07 -2.739,2.708 0,1.588 0.892,2.75 2.749,2.75 1.796,0 2.74,-1.069 2.74,-2.708 0,-1.587 -0.893,-2.75 -2.75,-2.75" />
            </g>
            <g
               transform="translate(111.4389,194.2339)"
               id="g5937">
              <path
                 inkscape:connector-curvature="0"
                 id="path5939"
                 style="fill:#231f20;fill-opacity:1;fill-rule:nonzero;stroke:none"
                 d="m 0,0 c -0.166,0 -0.332,-0.021 -0.477,-0.083 -0.229,-0.104 -0.364,-0.196 -0.364,-0.581 l 0,-2.023 c 0,-0.28 0.135,-0.384 0.364,-0.478 0.145,-0.062 0.311,-0.082 0.477,-0.082 0.467,0 1.297,0.165 1.297,1.67 C 1.297,-0.611 0.944,0 0,0 m 0.436,-4.347 c -0.737,0 -1.079,0.28 -1.183,0.28 -0.062,0 -0.094,-0.052 -0.094,-0.135 l 0,-1.982 c 0,-0.166 -0.103,-0.186 -0.186,-0.186 l -1.183,0 c -0.083,0 -0.187,0.02 -0.187,0.186 l 0,7.014 c 0,0.166 0.104,0.187 0.187,0.187 l 1.152,0 c 0.124,0 0.145,-0.062 0.145,-0.135 0,-0.041 0.01,-0.073 0.114,-0.073 0.228,0 0.539,0.301 1.328,0.301 1.525,0 2.397,-1.027 2.397,-2.666 0,-1.816 -0.996,-2.791 -2.49,-2.791" />
            </g>
            <g
               transform="translate(118.2658,194.3899)"
               id="g5941">
              <path
                 inkscape:connector-curvature="0"
                 id="path5943"
                 style="fill:#231f20;fill-opacity:1;fill-rule:nonzero;stroke:none"
                 d="m 0,0 c -0.612,0 -0.976,-0.405 -0.976,-1.017 0,-0.062 0.021,-0.103 0.125,-0.103 l 1.743,0 c 0.104,0 0.125,0.02 0.125,0.134 C 1.017,-0.187 0.446,0 0,0 m 2.386,-2.076 -3.175,0 c -0.093,0 -0.155,-0.041 -0.155,-0.145 0,-0.881 0.602,-1.244 1.515,-1.244 0.684,0 1.182,0.218 1.38,0.321 0.062,0.031 0.083,0.052 0.155,0.052 0.114,0 0.145,-0.083 0.145,-0.166 l 0,-0.654 c 0,-0.135 -0.01,-0.197 -0.114,-0.27 -0.259,-0.197 -0.996,-0.321 -1.763,-0.321 -1.516,0 -2.947,0.581 -2.947,2.676 0,1.982 1.131,2.792 2.615,2.792 2.22,0 2.531,-1.515 2.531,-2.604 l 0,-0.25 c 0,-0.166 -0.104,-0.187 -0.187,-0.187" />
            </g>
            <g
               transform="translate(125.4036,192.5429)"
               id="g5945">
              <path
                 inkscape:connector-curvature="0"
                 id="path5947"
                 style="fill:#231f20;fill-opacity:1;fill-rule:nonzero;stroke:none"
                 d="m 0,0 c 0,0.073 -0.021,0.104 -0.083,0.104 -0.073,0 -0.073,-0.01 -0.166,-0.042 L -0.84,-0.155 c -0.333,-0.125 -0.727,-0.27 -0.727,-0.789 0,-0.467 0.238,-0.664 0.779,-0.664 0.196,0 0.477,0.073 0.58,0.156 C -0.104,-1.369 0,-1.276 0,-1.006 L 0,0 z m 1.328,-2.563 -1.11,0 c -0.125,0 -0.146,0.062 -0.146,0.135 0,0.042 0,0.073 -0.103,0.073 -0.229,0 -0.602,-0.291 -1.391,-0.291 -1.411,0 -1.732,0.831 -1.732,1.546 0,0.986 0.519,1.411 1.639,1.754 l 1.173,0.353 C -0.166,1.059 0,1.09 0,1.297 l 0,0.042 c 0,0.29 -0.228,0.425 -0.965,0.425 -0.882,0 -1.411,-0.322 -1.526,-0.384 -0.062,-0.031 -0.093,-0.051 -0.165,-0.051 -0.093,0 -0.135,0.072 -0.135,0.166 l 0,0.674 c 0,0.124 0.01,0.207 0.114,0.269 0.404,0.26 1.338,0.363 1.961,0.363 1.297,0 1.702,-0.404 1.826,-0.529 C 1.391,1.993 1.515,1.639 1.515,0.924 l 0,-3.3 c 0,-0.166 -0.104,-0.187 -0.187,-0.187" />
            </g>
            <g
               transform="translate(133.6106,189.9799)"
               id="g5949">
              <path
                 inkscape:connector-curvature="0"
                 id="path5951"
                 style="fill:#231f20;fill-opacity:1;fill-rule:nonzero;stroke:none"
                 d="m 0,0 -1.183,0 c -0.083,0 -0.186,0.02 -0.186,0.187 l 0,2.895 c 0,0.415 -0.042,0.674 -0.177,0.851 -0.156,0.197 -0.394,0.29 -0.726,0.29 -0.177,0 -0.395,-0.031 -0.55,-0.104 C -3.03,4.026 -3.134,3.881 -3.134,3.622 l 0,-3.435 C -3.134,0.02 -3.237,0 -3.32,0 L -4.503,0 C -4.586,0 -4.69,0.02 -4.69,0.187 l 0,4.897 c 0,0.166 0.104,0.187 0.187,0.187 l 1.172,0 c 0.125,0 0.146,-0.062 0.146,-0.135 0,-0.041 0.01,-0.073 0.114,-0.073 0.124,0 0.279,0.052 0.373,0.094 0.301,0.124 0.716,0.207 1.038,0.207 0.591,0 1.121,-0.155 1.453,-0.518 0.342,-0.374 0.394,-0.83 0.394,-1.681 l 0,-2.978 C 0.187,0.02 0.083,0 0,0" />
            </g>
            <g
               transform="translate(140.8106,189.8969)"
               id="g5953">
              <path
                 inkscape:connector-curvature="0"
                 id="path5955"
                 style="fill:#231f20;fill-opacity:1;fill-rule:nonzero;stroke:none"
                 d="m 0,0 c -1.152,0 -1.733,0.28 -1.889,0.384 -0.103,0.062 -0.124,0.135 -0.124,0.26 l 0,0.819 c 0,0.083 0.021,0.166 0.145,0.166 0.093,0 0.145,-0.042 0.218,-0.083 0.177,-0.104 0.654,-0.374 1.473,-0.374 0.561,0 1.09,0.094 1.09,0.685 0,0.405 -0.249,0.571 -0.561,0.758 L -0.82,3.341 c -0.395,0.249 -1.069,0.685 -1.069,1.857 0,1.536 1.339,1.889 2.511,1.889 0.592,0 1.225,-0.114 1.65,-0.374 C 2.376,6.651 2.397,6.578 2.397,6.454 l 0,-0.841 C 2.397,5.53 2.376,5.447 2.251,5.447 2.148,5.447 2.096,5.499 2.013,5.541 1.525,5.8 1.214,5.925 0.602,5.925 c -0.457,0 -0.934,-0.115 -0.934,-0.623 0,-0.384 0.259,-0.56 0.57,-0.726 L 1.162,4.067 C 1.971,3.621 2.49,3.196 2.49,2.055 2.49,0.56 1.38,0 0,0" />
            </g>
            <g
               transform="translate(147.4816,194.2964)"
               id="g5957">
              <path
                 inkscape:connector-curvature="0"
                 id="path5959"
                 style="fill:#231f20;fill-opacity:1;fill-rule:nonzero;stroke:none"
                 d="m 0,0 c -0.934,0 -1.11,-0.809 -1.11,-1.722 0,-0.893 0.187,-1.64 1.121,-1.64 0.934,0 1.11,0.809 1.11,1.723 C 1.121,-0.747 0.934,0 0,0 m 0,-4.41 c -1.794,0 -2.739,1.07 -2.739,2.708 0,1.588 0.893,2.75 2.75,2.75 1.795,0 2.739,-1.069 2.739,-2.708 0,-1.587 -0.892,-2.75 -2.75,-2.75" />
            </g>
            <g
               transform="translate(156.0201,190.2084)"
               id="g5961">
              <path
                 inkscape:connector-curvature="0"
                 id="path5963"
                 style="fill:#231f20;fill-opacity:1;fill-rule:nonzero;stroke:none"
                 d="m 0,0 c -0.259,-0.197 -1.068,-0.311 -1.661,-0.311 -2.427,0 -2.739,1.732 -2.739,2.666 0,0.986 0.354,2.781 2.875,2.781 0.56,0 1.328,-0.145 1.535,-0.301 C 0.114,4.762 0.114,4.701 0.114,4.576 l 0,-0.737 c 0,-0.083 -0.02,-0.166 -0.145,-0.166 -0.073,0 -0.104,0.02 -0.166,0.052 -0.384,0.207 -0.634,0.3 -1.131,0.3 -1.163,0 -1.442,-0.83 -1.442,-1.67 0,-0.84 0.353,-1.556 1.38,-1.556 0.498,0 0.84,0.104 1.203,0.301 0.063,0.031 0.083,0.052 0.156,0.052 0.114,0 0.145,-0.084 0.145,-0.166 l 0,-0.716 C 0.114,0.135 0.104,0.072 0,0" />
            </g>
            <g
               transform="translate(159.2981,189.9799)"
               id="g5965">
              <path
                 inkscape:connector-curvature="0"
                 id="path5967"
                 style="fill:#231f20;fill-opacity:1;fill-rule:nonzero;stroke:none"
                 d="M 0,0 -1.182,0 C -1.266,0 -1.37,0.02 -1.37,0.187 l 0,4.897 c 0,0.166 0.104,0.187 0.188,0.187 l 1.182,0 c 0.083,0 0.187,-0.031 0.187,-0.197 l 0,-4.887 C 0.187,0.02 0.083,0 0,0 m -0.591,5.967 c -0.56,0 -0.872,0.248 -0.872,0.694 0,0.436 0.322,0.685 0.872,0.685 0.56,0 0.872,-0.249 0.872,-0.695 0,-0.436 -0.323,-0.684 -0.872,-0.684" />
            </g>
            <g
               transform="translate(164.3821,192.5429)"
               id="g5969">
              <path
                 inkscape:connector-curvature="0"
                 id="path5971"
                 style="fill:#231f20;fill-opacity:1;fill-rule:nonzero;stroke:none"
                 d="m 0,0 c 0,0.073 -0.022,0.104 -0.083,0.104 -0.073,0 -0.073,-0.01 -0.166,-0.042 l -0.592,-0.217 c -0.332,-0.125 -0.727,-0.27 -0.727,-0.789 0,-0.467 0.24,-0.664 0.779,-0.664 0.197,0 0.477,0.073 0.581,0.156 C -0.104,-1.369 0,-1.276 0,-1.006 L 0,0 z m 1.328,-2.563 -1.11,0 c -0.125,0 -0.145,0.062 -0.145,0.135 0,0.042 0,0.073 -0.104,0.073 -0.229,0 -0.602,-0.291 -1.391,-0.291 -1.411,0 -1.732,0.831 -1.732,1.546 0,0.986 0.519,1.411 1.638,1.754 l 1.174,0.353 C -0.166,1.059 0,1.09 0,1.297 l 0,0.042 c 0,0.29 -0.229,0.425 -0.965,0.425 -0.883,0 -1.411,-0.322 -1.525,-0.384 -0.062,-0.031 -0.094,-0.051 -0.166,-0.051 -0.094,0 -0.135,0.072 -0.135,0.166 l 0,0.674 c 0,0.124 0.01,0.207 0.114,0.269 0.405,0.26 1.338,0.363 1.961,0.363 1.297,0 1.702,-0.404 1.827,-0.529 C 1.39,1.993 1.515,1.639 1.515,0.924 l 0,-3.3 c 0,-0.166 -0.104,-0.187 -0.187,-0.187" />
            </g>
            <g
               transform="translate(169.2681,189.9799)"
               id="g5973">
              <path
                 inkscape:connector-curvature="0"
                 id="path5975"
                 style="fill:#231f20;fill-opacity:1;fill-rule:nonzero;stroke:none"
                 d="m 0,0 -1.183,0 c -0.083,0 -0.186,0.02 -0.186,0.187 l 0,6.983 c 0,0.166 0.103,0.187 0.186,0.187 l 1.183,0 c 0.083,0 0.187,-0.032 0.187,-0.198 l 0,-6.972 C 0.187,0.02 0.083,0 0,0" />
            </g>
            <g
               transform="translate(178.8031,195.6869)"
               id="g5977">
              <path
                 inkscape:connector-curvature="0"
                 id="path5979"
                 style="fill:#231f20;fill-opacity:1;fill-rule:nonzero;stroke:none"
                 d="m 0,0 -2.199,0 c -0.042,0 -0.104,-0.021 -0.104,-0.125 l 0,-1.473 c 0,-0.093 0.062,-0.125 0.104,-0.125 l 1.795,0 c 0.082,0 0.186,-0.02 0.186,-0.186 l 0,-0.841 c 0,-0.166 -0.104,-0.186 -0.186,-0.186 l -1.795,0 c -0.042,0 -0.104,-0.022 -0.104,-0.125 l 0,-2.459 c 0,-0.167 -0.104,-0.187 -0.187,-0.187 l -1.286,0 c -0.083,0 -0.188,0.02 -0.188,0.187 l 0,6.547 c 0,0.166 0.105,0.187 0.188,0.187 l 3.776,0 c 0.083,0 0.186,-0.021 0.186,-0.187 l 0,-0.84 C 0.186,0.02 0.083,0 0,0" />
            </g>
            <g
               transform="translate(185.1106,189.9799)"
               id="g5981">
              <path
                 inkscape:connector-curvature="0"
                 id="path5983"
                 style="fill:#231f20;fill-opacity:1;fill-rule:nonzero;stroke:none"
                 d="m 0,0 -1.171,0 c -0.125,0 -0.146,0.062 -0.146,0.135 0,0.041 0,0.072 -0.104,0.072 -0.125,0 -0.291,-0.051 -0.383,-0.093 -0.302,-0.124 -0.727,-0.197 -1.049,-0.197 -0.591,0 -1.12,0.145 -1.452,0.508 -0.343,0.374 -0.384,0.83 -0.384,1.682 l 0,2.977 c 0,0.166 0.103,0.187 0.186,0.187 l 1.183,0 c 0.083,0 0.188,-0.021 0.188,-0.187 l 0,-2.895 c 0,-0.414 0.03,-0.684 0.166,-0.861 0.155,-0.197 0.403,-0.28 0.736,-0.28 0.177,0 0.394,0.031 0.55,0.104 0.208,0.093 0.311,0.239 0.311,0.498 l 0,3.434 c 0,0.166 0.103,0.187 0.187,0.187 l 1.182,0 c 0.083,0 0.187,-0.021 0.187,-0.187 l 0,-4.897 C 0.187,0.02 0.083,0 0,0" />
            </g>
            <g
               transform="translate(192.0416,189.9799)"
               id="g5985">
              <path
                 inkscape:connector-curvature="0"
                 id="path5987"
                 style="fill:#231f20;fill-opacity:1;fill-rule:nonzero;stroke:none"
                 d="M 0,0 -1.183,0 C -1.266,0 -1.37,0.02 -1.37,0.187 l 0,2.895 c 0,0.415 -0.041,0.674 -0.176,0.851 -0.156,0.197 -0.394,0.29 -0.726,0.29 -0.177,0 -0.395,-0.031 -0.55,-0.104 C -3.03,4.026 -3.134,3.881 -3.134,3.622 l 0,-3.435 C -3.134,0.02 -3.237,0 -3.32,0 L -4.503,0 C -4.586,0 -4.69,0.02 -4.69,0.187 l 0,4.897 c 0,0.166 0.104,0.187 0.187,0.187 l 1.172,0 c 0.125,0 0.145,-0.062 0.145,-0.135 0,-0.041 0.011,-0.073 0.114,-0.073 0.125,0 0.281,0.052 0.374,0.094 0.302,0.124 0.717,0.207 1.038,0.207 0.592,0 1.12,-0.155 1.452,-0.518 0.343,-0.374 0.395,-0.83 0.395,-1.681 l 0,-2.978 C 0.187,0.02 0.083,0 0,0" />
            </g>
            <g
               transform="translate(197.6636,193.6844)"
               id="g5989">
              <path
                 inkscape:connector-curvature="0"
                 id="path5991"
                 style="fill:#231f20;fill-opacity:1;fill-rule:nonzero;stroke:none"
                 d="m 0,0 c 0,0.28 -0.135,0.383 -0.363,0.477 -0.145,0.063 -0.311,0.084 -0.477,0.084 -0.467,0 -1.297,-0.166 -1.297,-1.671 0,-0.966 0.353,-1.578 1.297,-1.578 0.166,0 0.332,0.021 0.477,0.083 C -0.135,-2.501 0,-2.408 0,-2.023 L 0,0 z m 1.37,-3.704 -1.153,0 c -0.123,0 -0.144,0.062 -0.144,0.134 0,0.042 0,0.073 -0.104,0.073 -0.228,0 -0.55,-0.29 -1.339,-0.29 -1.525,0 -2.397,1.017 -2.397,2.656 0,1.816 0.997,2.791 2.491,2.791 0.737,0 1.079,-0.28 1.183,-0.28 C -0.031,1.38 0,1.432 0,1.515 l 0,1.992 c 0,0.166 0.104,0.187 0.187,0.187 l 1.183,0 c 0.083,0 0.187,-0.021 0.187,-0.187 l 0,-7.025 c 0,-0.166 -0.104,-0.186 -0.187,-0.186" />
            </g>
            <g
               transform="translate(111.3869,181.2134)"
               id="g5993">
              <path
                 inkscape:connector-curvature="0"
                 id="path5995"
                 style="fill:#231f20;fill-opacity:1;fill-rule:nonzero;stroke:none"
                 d="m 0,0 -0.757,0 c -0.042,0 -0.094,-0.031 -0.094,-0.125 l 0,-3.922 c 0,-0.166 -0.104,-0.186 -0.187,-0.186 l -1.182,0 c -0.083,0 -0.187,0.02 -0.187,0.186 l 0,3.922 C -2.407,-0.031 -2.459,0 -2.501,0 L -2.947,0 C -3.03,0 -3.133,0.021 -3.133,0.187 l 0,0.663 c 0,0.167 0.103,0.188 0.186,0.188 l 0.446,0 c 0.042,0 0.094,0.031 0.094,0.124 l 0,0.26 c 0,0.488 0.031,0.695 0.104,0.882 0.29,0.768 1.006,0.871 1.442,0.871 0.55,0 1.048,-0.124 1.048,-0.373 l 0,-0.633 c 0,-0.125 -0.063,-0.166 -0.135,-0.166 -0.124,0 -0.208,0.104 -0.436,0.104 -0.239,0 -0.373,-0.073 -0.436,-0.301 C -0.84,1.733 -0.851,1.443 -0.851,1.297 l 0,-0.135 c 0,-0.093 0.052,-0.124 0.094,-0.124 l 0.757,0 c 0.083,0 0.187,-0.021 0.187,-0.188 l 0,-0.663 C 0.187,0.021 0.083,0 0,0" />
            </g>
            <g
               transform="translate(115.4748,181.2964)"
               id="g5997">
              <path
                 inkscape:connector-curvature="0"
                 id="path5999"
                 style="fill:#231f20;fill-opacity:1;fill-rule:nonzero;stroke:none"
                 d="m 0,0 c -0.934,0 -1.11,-0.81 -1.11,-1.723 0,-0.892 0.186,-1.638 1.12,-1.638 0.934,0 1.111,0.809 1.111,1.722 C 1.121,-0.747 0.934,0 0,0 m 0,-4.41 c -1.795,0 -2.739,1.07 -2.739,2.708 0,1.588 0.892,2.75 2.749,2.75 1.795,0 2.739,-1.068 2.739,-2.708 0,-1.587 -0.892,-2.75 -2.749,-2.75" />
            </g>
            <g
               transform="translate(123.2867,180.9749)"
               id="g6001">
              <path
                 inkscape:connector-curvature="0"
                 id="path6003"
                 style="fill:#231f20;fill-opacity:1;fill-rule:nonzero;stroke:none"
                 d="m 0,0 c -0.156,0 -0.239,0.083 -0.789,0.083 -0.83,0 -0.934,-0.436 -0.934,-0.82 l 0,-3.072 c 0,-0.166 -0.103,-0.186 -0.186,-0.186 l -1.183,0 c -0.083,0 -0.187,0.02 -0.187,0.186 l 0,4.898 c 0,0.166 0.104,0.187 0.187,0.187 l 1.151,0 c 0.125,0 0.146,-0.062 0.146,-0.134 l 0,-0.083 c 0,-0.053 0.052,-0.094 0.114,-0.094 0.301,0 0.529,0.394 1.307,0.394 0.457,0 0.519,-0.166 0.519,-0.342 l 0,-0.861 C 0.145,0.062 0.103,0 0,0" />
            </g>
            <g
               transform="translate(133.7346,177.2809)"
               id="g6005">
              <path
                 inkscape:connector-curvature="0"
                 id="path6007"
                 style="fill:#231f20;fill-opacity:1;fill-rule:nonzero;stroke:none"
                 d="m 0,0 c -0.156,-0.104 -0.81,-0.384 -2.086,-0.384 -2.231,0 -3.715,1.089 -3.715,3.403 0,2.283 1.297,3.684 3.715,3.684 1.287,0 1.93,-0.28 2.086,-0.384 0.103,-0.062 0.124,-0.135 0.124,-0.26 l 0,-0.85 c 0,-0.083 -0.021,-0.166 -0.145,-0.166 -0.104,0 -0.156,0.051 -0.239,0.093 -0.487,0.259 -0.882,0.363 -1.619,0.363 -1.027,0 -2.21,-0.488 -2.21,-2.48 0,-1.452 0.685,-2.22 2.169,-2.22 0.104,0 0.155,0 0.249,0.021 0.145,0.031 0.177,0.083 0.177,0.217 l 0,1.764 c 0,0.167 0.103,0.187 0.186,0.187 l 1.245,0 c 0.083,0 0.187,-0.02 0.187,-0.187 l 0,-2.541 C 0.124,0.135 0.103,0.062 0,0" />
            </g>
            <g
               transform="translate(138.1016,181.3899)"
               id="g6009">
              <path
                 inkscape:connector-curvature="0"
                 id="path6011"
                 style="fill:#231f20;fill-opacity:1;fill-rule:nonzero;stroke:none"
                 d="m 0,0 c -0.612,0 -0.975,-0.405 -0.975,-1.017 0,-0.062 0.021,-0.104 0.124,-0.104 l 1.743,0 c 0.104,0 0.125,0.021 0.125,0.135 C 1.017,-0.186 0.447,0 0,0 m 2.387,-2.076 -3.175,0 c -0.094,0 -0.156,-0.041 -0.156,-0.145 0,-0.881 0.602,-1.244 1.515,-1.244 0.685,0 1.183,0.218 1.38,0.321 0.062,0.031 0.083,0.052 0.156,0.052 0.114,0 0.145,-0.083 0.145,-0.166 l 0,-0.654 c 0,-0.135 -0.01,-0.197 -0.114,-0.27 -0.26,-0.196 -0.997,-0.321 -1.764,-0.321 -1.515,0 -2.947,0.581 -2.947,2.676 0,1.983 1.131,2.792 2.615,2.792 2.22,0 2.532,-1.515 2.532,-2.605 l 0,-0.249 c 0,-0.166 -0.104,-0.187 -0.187,-0.187" />
            </g>
            <g
               transform="translate(145.7376,180.9749)"
               id="g6013">
              <path
                 inkscape:connector-curvature="0"
                 id="path6015"
                 style="fill:#231f20;fill-opacity:1;fill-rule:nonzero;stroke:none"
                 d="m 0,0 c -0.155,0 -0.238,0.083 -0.789,0.083 -0.83,0 -0.934,-0.436 -0.934,-0.82 l 0,-3.072 c 0,-0.166 -0.103,-0.186 -0.186,-0.186 l -1.183,0 c -0.082,0 -0.187,0.02 -0.187,0.186 l 0,4.898 c 0,0.166 0.105,0.187 0.187,0.187 l 1.151,0 c 0.125,0 0.146,-0.062 0.146,-0.134 l 0,-0.083 c 0,-0.053 0.052,-0.094 0.114,-0.094 0.301,0 0.529,0.394 1.307,0.394 0.457,0 0.519,-0.166 0.519,-0.342 l 0,-0.861 C 0.145,0.062 0.103,0 0,0" />
            </g>
            <g
               transform="translate(155.0851,176.9799)"
               id="g6017">
              <path
                 inkscape:connector-curvature="0"
                 id="path6019"
                 style="fill:#231f20;fill-opacity:1;fill-rule:nonzero;stroke:none"
                 d="M 0,0 -1.182,0 C -1.266,0 -1.37,0.02 -1.37,0.186 l 0,2.948 c 0,0.394 -0.041,0.633 -0.166,0.809 -0.145,0.198 -0.362,0.281 -0.674,0.281 -0.166,0 -0.353,-0.022 -0.509,-0.094 -0.186,-0.083 -0.29,-0.228 -0.29,-0.478 l 0,-3.466 C -3.009,0.02 -3.113,0 -3.196,0 l -1.183,0 c -0.083,0 -0.186,0.02 -0.186,0.186 l 0,2.948 c 0,0.394 -0.042,0.633 -0.166,0.809 -0.146,0.198 -0.364,0.281 -0.675,0.281 -0.166,0 -0.352,-0.022 -0.508,-0.094 C -6.102,4.047 -6.205,3.902 -6.205,3.652 l 0,-3.466 C -6.205,0.02 -6.309,0 -6.392,0 l -1.172,0 c -0.083,0 -0.187,0.02 -0.187,0.186 l 0,4.898 c 0,0.166 0.104,0.187 0.187,0.187 l 1.141,0 c 0.125,0 0.146,-0.062 0.146,-0.134 0,-0.042 0.009,-0.074 0.114,-0.074 0.124,0 0.28,0.063 0.373,0.104 0.301,0.125 0.623,0.198 1.017,0.198 1.006,0 1.183,-0.457 1.401,-0.457 l 0.062,0 c 0.301,0 0.612,0.457 1.764,0.457 0.591,0 1.006,-0.156 1.338,-0.519 0.343,-0.373 0.395,-0.83 0.395,-1.681 l 0,-2.979 C 0.187,0.02 0.083,0 0,0" />
            </g>
            <g
               transform="translate(160.1791,179.5429)"
               id="g6021">
              <path
                 inkscape:connector-curvature="0"
                 id="path6023"
                 style="fill:#231f20;fill-opacity:1;fill-rule:nonzero;stroke:none"
                 d="m 0,0 c 0,0.073 -0.021,0.104 -0.083,0.104 -0.073,0 -0.073,-0.01 -0.166,-0.042 L -0.84,-0.155 c -0.332,-0.125 -0.726,-0.27 -0.726,-0.789 0,-0.467 0.238,-0.664 0.778,-0.664 0.197,0 0.477,0.073 0.581,0.156 C -0.104,-1.369 0,-1.276 0,-1.006 L 0,0 z m 1.328,-2.563 -1.11,0 c -0.124,0 -0.145,0.063 -0.145,0.135 0,0.042 0,0.073 -0.104,0.073 -0.228,0 -0.602,-0.291 -1.39,-0.291 -1.411,0 -1.734,0.831 -1.734,1.546 0,0.986 0.519,1.411 1.641,1.754 l 1.172,0.353 C -0.166,1.059 0,1.09 0,1.297 l 0,0.042 c 0,0.29 -0.228,0.425 -0.965,0.425 -0.881,0 -1.411,-0.322 -1.525,-0.384 -0.062,-0.031 -0.093,-0.051 -0.166,-0.051 -0.093,0 -0.135,0.072 -0.135,0.166 l 0,0.674 c 0,0.124 0.01,0.207 0.114,0.269 0.404,0.26 1.339,0.364 1.961,0.364 1.297,0 1.702,-0.405 1.827,-0.53 C 1.391,1.993 1.514,1.64 1.514,0.924 l 0,-3.301 c 0,-0.165 -0.103,-0.186 -0.186,-0.186" />
            </g>
            <g
               transform="translate(168.4476,176.9799)"
               id="g6025">
              <path
                 inkscape:connector-curvature="0"
                 id="path6027"
                 style="fill:#231f20;fill-opacity:1;fill-rule:nonzero;stroke:none"
                 d="m 0,0 -1.182,0 c -0.084,0 -0.187,0.02 -0.187,0.186 l 0,2.896 c 0,0.415 -0.042,0.674 -0.177,0.851 C -1.701,4.13 -1.939,4.224 -2.271,4.224 -2.448,4.224 -2.666,4.192 -2.822,4.12 -3.029,4.026 -3.133,3.881 -3.133,3.622 l 0,-3.436 C -3.133,0.02 -3.237,0 -3.32,0 l -1.183,0 c -0.083,0 -0.186,0.02 -0.186,0.186 l 0,4.898 c 0,0.166 0.103,0.187 0.186,0.187 l 1.173,0 c 0.124,0 0.146,-0.062 0.146,-0.134 0,-0.042 0.009,-0.074 0.113,-0.074 0.125,0 0.28,0.052 0.374,0.094 0.301,0.125 0.715,0.208 1.037,0.208 0.592,0 1.121,-0.156 1.453,-0.519 0.343,-0.373 0.394,-0.83 0.394,-1.681 l 0,-2.979 C 0.187,0.02 0.083,0 0,0" />
            </g>
            <g
               transform="translate(175.1811,181.9399)"
               id="g6029">
              <path
                 inkscape:connector-curvature="0"
                 id="path6031"
                 style="fill:#231f20;fill-opacity:1;fill-rule:nonzero;stroke:none"
                 d="m 0,0 -2.002,-5.8 c -0.156,-0.436 -0.436,-1.391 -1.691,-1.391 -0.395,0 -0.727,0.031 -0.727,0.218 l 0,0.695 c 0,0.125 0.073,0.146 0.135,0.146 0.073,0 0.176,-0.021 0.342,-0.021 0.312,0 0.488,0.104 0.613,0.373 l 0.051,0.114 c 0.021,0.042 0.063,0.187 0.063,0.249 0,0.062 -0.031,0.145 -0.063,0.239 L -5.115,0.01 c -0.021,0.073 -0.042,0.093 -0.042,0.166 0,0.083 0.052,0.135 0.177,0.135 l 1.235,0 c 0.145,0 0.175,-0.062 0.197,-0.125 l 1.068,-3.455 c 0.021,-0.072 0.042,-0.134 0.094,-0.134 0.052,0 0.073,0.051 0.093,0.134 l 0.996,3.455 c 0.022,0.063 0.052,0.125 0.197,0.125 l 0.965,0 C -0.01,0.311 0.042,0.259 0.042,0.176 0.042,0.103 0.021,0.052 0,0" />
            </g>
          </g>
        </g>
      </g>
      <rect
         transform="translate(206.22927,154.65213)"
         y="0"
         x="0"
         height="99.999565"
         width="156.57159"
         id="rect13877"
         style="color:#000000;fill:none;stroke:none;stroke-width:7;marker:none;visibility:visible;display:inline;overflow:visible;enable-background:accumulate" />
    </g>
  </g>
</svg>
