<?xml version="1.0" encoding="UTF-8" standalone="no"?>
<!-- Created with Inkscape (http://www.inkscape.org/) -->

<svg
   xmlns:dc="http://purl.org/dc/elements/1.1/"
   xmlns:cc="http://creativecommons.org/ns#"
   xmlns:rdf="http://www.w3.org/1999/02/22-rdf-syntax-ns#"
   xmlns:svg="http://www.w3.org/2000/svg"
   xmlns="http://www.w3.org/2000/svg"
   xmlns:sodipodi="http://sodipodi.sourceforge.net/DTD/sodipodi-0.dtd"
   xmlns:inkscape="http://www.inkscape.org/namespaces/inkscape"
   id="svg2"
   version="1.1"
   inkscape:version="0.91 r13725"
   xml:space="preserve"
   width="609.53748"
   height="111.8875"
   viewBox="0 0 609.53748 111.8875"
   sodipodi:docname="sheridan-pubfactory-logo.svg"><metadata
     id="metadata8"><rdf:RDF><cc:Work
         rdf:about=""><dc:format>image/svg+xml</dc:format><dc:type
           rdf:resource="http://purl.org/dc/dcmitype/StillImage" /><dc:title></dc:title></cc:Work></rdf:RDF></metadata><defs
     id="defs6" /><sodipodi:namedview
     pagecolor="#ffffff"
     bordercolor="#666666"
     borderopacity="1"
     objecttolerance="10"
     gridtolerance="10"
     guidetolerance="10"
     inkscape:pageopacity="0"
     inkscape:pageshadow="2"
     inkscape:window-width="1855"
     inkscape:window-height="1056"
     id="namedview4"
     showgrid="false"
     inkscape:zoom="0.60209588"
     inkscape:cx="21.591246"
     inkscape:cy="55.943748"
     inkscape:window-x="65"
     inkscape:window-y="24"
     inkscape:window-maximized="1"
     inkscape:current-layer="g10" /><g
     id="g10"
     inkscape:groupmode="layer"
     inkscape:label="ink_ext_XXXXXX"
     transform="matrix(1.25,0,0,-1.25,0,111.8875)"><g
       id="g12"
       transform="scale(0.1,0.1)"><path
         d="m 116.871,102.309 c -45.0976,0 -82.9335,9.699 -116.871,25.226 l 12.125,70.801 c 34.4297,-18.43 72.7422,-31.035 106.203,-31.035 23.762,0 40.246,10.195 40.246,30.066 0,18.906 -9.695,27.637 -56.75,45.586 -66.906,25.695 -96.00759,47.531 -96.00759,102.817 0,64.48 50.43749,98.902 114.44159,98.902 43.644,0 71.781,-8.238 100.887,-22.301 l -12.618,-69.812 c -30.074,17.441 -61.589,27.148 -87.297,27.148 -25.2183,0 -37.3472,-10.668 -37.3472,-26.187 0,-16.981 9.2266,-25.223 50.9332,-41.231 73.215,-26.66 101.84,-51.883 101.84,-105.223 0,-72.753 -53.355,-104.757 -119.785,-104.757"
         style="fill:#1c375c;fill-opacity:1;fill-rule:nonzero;stroke:none"
         id="path14"
         inkscape:connector-curvature="0" /><path
         d="m 426.242,106.195 0,148.86 c 0,16.992 -6.804,28.64 -24.258,28.64 -14.058,0 -27.148,-8.261 -40.246,-21.347 l 0,-156.153 -73.226,0 0,338.477 73.226,11.644 0,-142.101 c 19.879,19.414 41.711,34.445 70.793,34.445 44.129,0 67.41,-27.152 67.41,-73.715 l 0,-168.75 -73.699,0"
         style="fill:#1c375c;fill-opacity:1;fill-rule:nonzero;stroke:none"
         id="path16"
         inkscape:connector-curvature="0" /><path
         d="m 621.602,246.82 75.168,0 c -2.43,35.891 -15.028,54.309 -37.352,54.309 -20.84,0 -35.395,-17.949 -37.816,-54.309 z m 49.945,-145.488 c -71.281,0 -122.195,38.32 -122.195,122.695 0,77.61 47.523,124.633 112.019,124.633 73.219,0 105.234,-54.32 105.234,-123.168 0,-7.273 -0.488,-15.039 -0.98,-18.914 l -143.535,0 c 3.871,-37.832 26.187,-51.887 58.683,-51.887 26.184,0 51.879,9.688 78.067,25.215 l 7.277,-51.902 c -25.695,-16.496 -57.219,-26.672 -94.57,-26.672"
         style="fill:#1c375c;fill-opacity:1;fill-rule:nonzero;stroke:none"
         id="path18"
         inkscape:connector-curvature="0" /><path
         d="m 891.195,238.109 0,-131.914 -73.234,0 0,237.618 64.012,0 7.769,-47.02 c 14.543,27.129 34.422,49.453 69.344,51.867 l 12.109,-74.672 c -35.394,-2.441 -62.07,-16.504 -80,-35.879"
         style="fill:#1c375c;fill-opacity:1;fill-rule:nonzero;stroke:none"
         id="path20"
         inkscape:connector-curvature="0" /><path
         d="m 1014.34,106.195 0,237.618 73.71,0 0,-237.618 -73.71,0 z m 36.86,268.664 c -23.29,0 -41.71,15.516 -41.71,39.274 0,24.242 18.42,40.246 41.71,40.246 23.76,0 41.7,-16.004 41.7,-40.246 0,-23.758 -17.94,-39.274 -41.7,-39.274"
         style="fill:#1c375c;fill-opacity:1;fill-rule:nonzero;stroke:none"
         id="path22"
         inkscape:connector-curvature="0" /><path
         d="m 1292.18,281.254 c -10.67,4.844 -18.91,6.789 -34.43,6.789 -24.23,0 -42.67,-18.898 -42.67,-64.492 0,-40.735 15.52,-57.219 36.38,-57.219 15.52,0 28.12,10.176 40.72,24.25 l 0,90.672 z m 8.26,-175.059 -4.85,31.035 c -16.01,-17.949 -37.84,-35.898 -68.38,-35.898 -48.49,0 -85.84,36.856 -85.84,116.887 0,90.672 48.02,127.551 100.39,127.551 21.81,0 36.85,-3.411 50.42,-8.27 l 0,107.172 73.24,11.644 0,-350.121 -64.98,0"
         style="fill:#1c375c;fill-opacity:1;fill-rule:nonzero;stroke:none"
         id="path24"
         inkscape:connector-curvature="0" /><path
         d="m 1552.07,222.094 c -49.96,-7.762 -63.54,-24.258 -63.54,-45.106 0,-15.031 9.2,-23.281 23.29,-23.281 13.56,0 27.15,6.316 40.25,17.949 l 0,50.438 z m 8.23,-115.899 -4.85,29.571 c -19.4,-20.352 -42.2,-34.434 -74.68,-34.434 -37.84,0 -64.5,22.805 -64.5,65.969 0,55.762 42.69,81.941 135.8,90.183 l 0,4.356 c 0,20.871 -11.65,30.098 -35.9,30.098 -26.67,0 -51.4,-6.805 -76.62,-17.95 l -8.74,55.274 c 27.17,11.16 57.72,18.437 96.52,18.437 65.46,0 97.96,-21.82 97.96,-82.441 l 0,-159.063 -64.99,0"
         style="fill:#1c375c;fill-opacity:1;fill-rule:nonzero;stroke:none"
         id="path26"
         inkscape:connector-curvature="0" /><path
         d="m 1823.57,106.195 0,148.86 c 0,16.992 -6.78,28.64 -24.24,28.64 -14.05,0 -27.15,-8.261 -40.24,-21.347 l 0,-156.153 -73.24,0 0,237.618 64.5,0 5.33,-32.489 c 21.35,21.352 44.13,37.336 74.2,37.336 44.14,0 67.42,-27.152 67.42,-73.715 l 0,-168.75 -73.73,0"
         style="fill:#1c375c;fill-opacity:1;fill-rule:nonzero;stroke:none"
         id="path28"
         inkscape:connector-curvature="0" /><path
         d="m 2396.12,895.066 0,-642.054 -140.84,0 c -12.51,3.468 -23.45,8.351 -32.99,15.117 l -29.54,33.508 c -15.1,29.703 -12.49,60.785 -12.49,61.136 l 0,292.809 c 0,10.254 -8.35,18.582 -18.59,18.582 l -232.37,0 c -4.34,0.172 -90.82,4.336 -117.06,74.164 l 0,146.738 583.88,0"
         style="fill:#66c53a;fill-opacity:1;fill-rule:nonzero;stroke:none"
         id="path30"
         inkscape:connector-curvature="0" /><path
         d="m 2173.5,263.441 c -54.02,20.664 -80.77,51.914 -82.5,54.172 l -234.98,271.27 c -0.53,0.359 -1.05,1.055 -1.57,1.394 -0.35,0.352 -27.27,26.407 -41.32,92.047 23.96,-22.051 53.83,-34.554 80.74,-40.636 12.69,-2.954 24.49,-4.344 34.74,-4.684 l 214.65,0 0,-271.633 c -0.17,-1.371 -0.35,-3.644 -0.35,-6.933 -0.17,-17.364 2.61,-59.567 30.59,-94.997"
         style="fill:#1c375c;fill-opacity:1;fill-rule:nonzero;stroke:none"
         id="path32"
         inkscape:connector-curvature="0" /><path
         d="m 2858.03,279.906 c 34.8,0 60.63,6.211 77.47,18.633 16.84,12.422 25.26,32.559 25.26,60.406 0.39,12.301 -1.82,24.547 -6.51,35.926 -4.22,9.074 -10.81,16.832 -19.08,22.453 -9.68,6.328 -20.59,10.535 -32.01,12.356 -14.83,2.543 -29.86,3.75 -44.91,3.586 l -63.77,0 0,-153.36 63.55,0 z m -87.24,174.02 92.97,0 c 17.08,0.172 34.13,-1.485 50.86,-4.938 13.66,-2.722 26.61,-8.226 38.06,-16.172 10.46,-7.511 18.75,-17.66 24.02,-29.414 5.99,-14.191 8.82,-29.515 8.31,-44.906 0,-33.383 -10.66,-58.266 -31.99,-74.664 -21.34,-16.387 -51.28,-24.59 -89.83,-24.59 l -68.71,0 0,-145.957 -23.69,0 0,340.641"
         style="fill:#353739;fill-opacity:1;fill-rule:nonzero;stroke:none"
         id="path34"
         inkscape:connector-curvature="0" /><path
         d="m 3017.12,361.527 22.46,0 0,-155.945 c -1.5,-20.41 3.07,-40.801 13.14,-58.605 10.19,-13.262 26.45,-20.372 43.1,-18.868 14.36,-0.136 28.42,4.094 40.31,12.129 14.99,10.91 28.37,23.867 39.75,38.508 l 0,182.781 22.45,0 0,-247.898 -19.08,0 -2.02,41.316 -1.02,0 c -10.88,-13.406 -23.76,-25.078 -38.17,-34.578 -13.72,-8.683 -29.68,-13.176 -45.92,-12.91 -21.57,-1.926 -42.75,6.641 -56.92,23.008 -12.06,15.496 -18.08,39.414 -18.08,71.746 l 0,159.316"
         style="fill:#353739;fill-opacity:1;fill-rule:nonzero;stroke:none"
         id="path36"
         inkscape:connector-curvature="0" /><path
         d="m 3275.58,159.32 c 11.73,-10.468 25.17,-18.855 39.74,-24.812 10.71,-4.387 22.11,-6.828 33.68,-7.18 12.03,-0.066 23.89,2.785 34.58,8.301 10.77,5.578 20.14,13.527 27.4,23.242 8,10.84 14.05,23 17.85,35.93 4.53,15.039 6.76,30.664 6.62,46.367 0.1,14.227 -1.38,28.426 -4.38,42.332 -2.52,11.953 -7.15,23.359 -13.7,33.684 -6.03,9.425 -14.38,17.156 -24.24,22.449 -11.24,5.621 -23.71,8.359 -36.27,7.969 -13.58,-0.301 -26.88,-3.926 -38.73,-10.551 -15.26,-8.356 -29.47,-18.492 -42.33,-30.199 l 0,-147.305 -0.22,-0.227 z m -22.46,325.59 22.46,0 0,-107.437 -1.02,-48.508 c 12.57,10.57 26.23,19.758 40.76,27.398 13.82,7.36 29.24,11.211 44.9,11.227 29.29,2.215 57.67,-10.703 75.23,-34.246 17.8,-27.332 26.48,-59.598 24.81,-92.176 0.29,-19.074 -2.68,-38.059 -8.76,-56.133 -5.23,-15.449 -13.38,-29.738 -24.02,-42.101 -9.7,-11.211 -21.68,-20.204 -35.15,-26.387 -13.03,-5.957 -27.2,-9.012 -41.53,-8.984 -12.87,0.167 -25.58,2.882 -37.39,7.968 -13.19,5.5 -25.62,12.715 -36.94,21.446 l -1.68,0 -2.58,-23.348 -19.09,0 0,371.281"
         style="fill:#353739;fill-opacity:1;fill-rule:nonzero;stroke:none"
         id="path38"
         inkscape:connector-curvature="0" /><path
         d="m 3506.18,453.926 185.36,0 0,-20.324 -161.67,0 0,-135.618 136.86,0 0,-20.664 -136.86,0 0,-163.691 -23.69,0 0,340.297"
         style="fill:#82858c;fill-opacity:1;fill-rule:nonzero;stroke:none"
         id="path40"
         inkscape:connector-curvature="0" /><path
         d="m 3714.9,176.391 c -1.44,-14.5 4.36,-28.778 15.49,-38.172 10.69,-7.649 23.58,-11.594 36.72,-11.231 14.4,-0.019 28.6,3.535 41.31,10.332 15.17,8.457 29.39,18.504 42.44,29.969 l 0,84.211 c -21.66,-2.363 -43.14,-6.113 -64.34,-11.23 -14.68,-3.43 -28.84,-8.829 -42.1,-16.055 -9.17,-5.051 -16.89,-12.356 -22.45,-21.223 -4.74,-7.976 -7.22,-17.097 -7.18,-26.375 l 0.11,-0.226 z m -23.81,-1.016 c -0.41,26.621 14.72,51.047 38.74,62.539 25.82,14.445 66.28,24.777 121.37,30.988 0.33,9.434 -0.26,18.868 -1.8,28.184 -1.34,8.887 -4.31,17.441 -8.76,25.254 -4.38,7.473 -10.6,13.699 -18.07,18.082 -9.1,4.976 -19.39,7.387 -29.76,6.957 -15.84,0.223 -31.53,-3.117 -45.92,-9.766 -11.59,-5.273 -22.64,-11.668 -33,-19.082 l -10.34,17.059 c 4.5,3.07 9.93,6.515 16.28,10.332 6.8,3.984 13.9,7.437 21.22,10.328 8.34,3.266 16.89,5.93 25.61,7.969 9.48,2.265 19.21,3.394 28.97,3.371 12.8,0.402 25.51,-2.176 37.15,-7.524 9.64,-4.714 17.97,-11.738 24.25,-20.433 6.23,-8.887 10.62,-18.926 12.92,-29.531 2.68,-12.274 4,-24.813 3.93,-37.383 l 0,-159.09 -19.08,0 -2.59,32 -1.35,0 c -12.77,-9.988 -26.42,-18.816 -40.75,-26.387 -14.41,-7.547 -30.45,-11.406 -46.71,-11.23 -9.44,-0.067 -18.83,1.34 -27.84,4.16 -8.2,2.668 -15.81,6.855 -22.45,12.344 -6.86,5.722 -12.25,13 -15.73,21.222 -4.08,9.356 -6.23,19.434 -6.29,29.637"
         style="fill:#82858c;fill-opacity:1;fill-rule:nonzero;stroke:none"
         id="path42"
         inkscape:connector-curvature="0" /><path
         d="m 3913.62,237.016 c -0.29,18.937 2.86,37.773 9.32,55.578 5.51,15.183 13.94,29.148 24.81,41.09 10.09,10.828 22.33,19.429 35.93,25.261 13.62,5.852 28.29,8.828 43.12,8.754 14.92,0.528 29.73,-2.676 43.1,-9.316 10.84,-5.688 20.85,-12.824 29.76,-21.219 l -13.03,-15.832 c -7.84,7.516 -16.73,13.867 -26.38,18.863 -10.08,5.102 -21.26,7.688 -32.55,7.52 -12.26,0.137 -24.37,-2.594 -35.38,-7.969 -10.96,-5.371 -20.64,-13.027 -28.4,-22.457 -8.39,-10.359 -14.86,-22.156 -19.09,-34.805 -4.81,-14.472 -7.15,-29.656 -6.96,-44.91 -0.2,-15.215 1.99,-30.371 6.52,-44.902 3.83,-12.551 9.97,-24.27 18.07,-34.582 7.63,-9.559 17.34,-17.235 28.41,-22.461 11.55,-5.399 24.18,-8.125 36.93,-7.969 12.61,-0.086 25.06,2.766 36.38,8.313 10.83,5.234 20.85,12 29.76,20.097 l 11.89,-15.5 c -10.62,-9.636 -22.62,-17.656 -35.59,-23.797 -13.56,-6.308 -28.37,-9.492 -43.34,-9.316 -15.41,-0.195 -30.7,2.781 -44.91,8.75 -13.7,5.809 -25.99,14.5 -36.03,25.488 -10.62,11.746 -18.71,25.535 -23.8,40.528 -5.94,17.644 -8.83,36.179 -8.54,54.793"
         style="fill:#82858c;fill-opacity:1;fill-rule:nonzero;stroke:none"
         id="path44"
         inkscape:connector-curvature="0" /><path
         d="m 4158.94,341.879 -38.63,0 0,17.629 39.3,2.019 2.92,72.075 19.65,0 0,-71.739 71.74,0 0,-19.644 -71.74,0 0,-161.676 c -0.07,-7.188 0.54,-14.367 1.79,-21.445 1.04,-5.879 3.26,-11.496 6.52,-16.504 3.11,-4.844 7.5,-8.723 12.68,-11.231 6.6,-2.804 13.72,-4.101 20.88,-3.808 5.33,0.078 10.62,0.867 15.73,2.351 5.22,1.367 10.33,3.176 15.26,5.391 l 6.18,-18.641 c -7.07,-2.707 -14.31,-4.961 -21.67,-6.73 -6.09,-1.571 -12.34,-2.43 -18.64,-2.586 -10.26,-0.352 -20.48,1.492 -29.97,5.39 -7.58,3.36 -14.15,8.614 -19.09,15.274 -5.08,7.09 -8.53,15.215 -10.1,23.797 -1.95,10.019 -2.89,20.215 -2.81,30.422 l 0,159.656"
         style="fill:#82858c;fill-opacity:1;fill-rule:nonzero;stroke:none"
         id="path46"
         inkscape:connector-curvature="0" /><path
         d="m 4286.59,237.016 c -0.22,-15.235 2.05,-30.411 6.74,-44.911 3.91,-12.296 9.95,-23.808 17.85,-34.015 7.45,-9.414 16.89,-17.078 27.62,-22.461 10.74,-5.34 22.59,-8.066 34.58,-7.969 12.06,-0.078 23.97,2.656 34.8,7.969 10.83,5.344 20.35,13.008 27.85,22.461 8.11,10.344 14.3,22.051 18.3,34.582 4.67,14.5 6.95,29.668 6.73,44.902 0.19,15.235 -2.09,30.399 -6.73,44.91 -4.04,12.579 -10.23,24.356 -18.3,34.805 -7.48,9.481 -17,17.149 -27.85,22.457 -10.84,5.293 -22.74,8.02 -34.8,7.969 -11.99,0.098 -23.84,-2.633 -34.58,-7.969 -10.75,-5.351 -20.19,-13.019 -27.62,-22.457 -8.08,-10.449 -14.28,-22.226 -18.3,-34.805 -4.6,-14.707 -6.76,-30.066 -6.4,-45.468 l 0.11,0 z m -23.8,0 c -0.28,18.918 2.8,37.734 9.1,55.578 5.29,15.164 13.53,29.129 24.24,41.09 20.01,21.648 48.22,33.875 77.7,33.679 14.64,0.035 29.12,-2.949 42.55,-8.754 13.52,-5.804 25.65,-14.414 35.59,-25.265 10.71,-11.961 18.95,-25.926 24.25,-41.094 6.26,-17.84 9.3,-36.66 8.99,-55.574 0.34,-18.723 -2.71,-37.363 -8.99,-55.012 -5.42,-14.746 -13.61,-28.309 -24.14,-39.969 -9.93,-10.851 -22.07,-19.465 -35.59,-25.265 -13.43,-5.801 -27.92,-8.789 -42.54,-8.75 -29.49,-0.196 -57.69,12.031 -77.7,33.683 -10.63,11.805 -18.88,25.575 -24.26,40.528 -6.36,17.664 -9.49,36.347 -9.2,55.125"
         style="fill:#82858c;fill-opacity:1;fill-rule:nonzero;stroke:none"
         id="path48"
         inkscape:connector-curvature="0" /><path
         d="m 4529.78,361.527 19.64,0 2.03,-45.918 1.57,0 c 7.43,14.473 17.69,27.305 30.19,37.719 11.2,9.402 25.36,14.531 39.97,14.485 4.33,0.046 8.66,-0.29 12.91,-1.012 4.15,-0.817 8.16,-2.215 11.91,-4.149 l -5.17,-20.66 c -3.59,1.559 -7.36,2.688 -11.22,3.367 -3.94,0.579 -7.92,0.84 -11.9,0.789 -12.91,-0.718 -25.2,-5.738 -34.92,-14.261 -14.93,-13.387 -26.21,-30.348 -32.79,-49.285 l 0,-168.418 -22.45,0 0,247.343 0.23,0"
         style="fill:#82858c;fill-opacity:1;fill-rule:nonzero;stroke:none"
         id="path50"
         inkscape:connector-curvature="0" /><path
         d="m 4684.15,23.0234 c 3.67,-0.9179 7.44,-1.3789 11.23,-1.3476 15.05,0.0078 29.25,7.0195 38.4,18.9726 11.17,13.9649 19.59,29.9336 24.8,47.043 l 6.74,21.6676 -101.72,252.504 24.82,0 59.95,-155.949 c 3.82,-10.324 8.05,-21.555 12.68,-33.684 4.65,-12.117 9.4,-23.835 14.26,-35.136 l 2.02,0 c 3.82,10.996 7.57,22.715 11.23,35.136 3.68,12.434 7.42,23.653 11.24,33.684 l 53.21,155.949 23.24,0 -98.12,-278.8903 c -3.4,-10.6641 -7.6,-21.0625 -12.58,-31.0938 -4.74,-9.4805 -10.62,-18.3398 -17.51,-26.3867 -6.57,-7.5781 -14.49,-13.8555 -23.36,-18.52345 -9.15,-4.72656 -19.34,-7.121094 -29.64,-6.96484375 C 4686.35,-0.101563 4677.73,1.65625 4669.78,5.17188 l 5.16,20.09762 c 3.03,-0.9179 6.11,-1.6601 9.21,-2.2461"
         style="fill:#82858c;fill-opacity:1;fill-rule:nonzero;stroke:none"
         id="path52"
         inkscape:connector-curvature="0" /></g></g></svg>