<?xml version="1.0" encoding="UTF-8" standalone="no"?>
<!-- Created with Inkscape (http://www.inkscape.org/) -->

<svg
   xmlns:dc="http://purl.org/dc/elements/1.1/"
   xmlns:cc="http://creativecommons.org/ns#"
   xmlns:rdf="http://www.w3.org/1999/02/22-rdf-syntax-ns#"
   xmlns:svg="http://www.w3.org/2000/svg"
   xmlns="http://www.w3.org/2000/svg"
   xmlns:sodipodi="http://sodipodi.sourceforge.net/DTD/sodipodi-0.dtd"
   xmlns:inkscape="http://www.inkscape.org/namespaces/inkscape"
   id="svg2"
   version="1.1"
   inkscape:version="0.91 r13725"
   xml:space="preserve"
   width="655.4375"
   height="104"
   viewBox="0 0 655.4375 104"
   sodipodi:docname="silverchair-logo.svg"><metadata
     id="metadata8"><rdf:RDF><cc:Work
         rdf:about=""><dc:format>image/svg+xml</dc:format><dc:type
           rdf:resource="http://purl.org/dc/dcmitype/StillImage" /><dc:title></dc:title></cc:Work></rdf:RDF></metadata><defs
     id="defs6" /><sodipodi:namedview
     pagecolor="#ffffff"
     bordercolor="#666666"
     borderopacity="1"
     objecttolerance="10"
     gridtolerance="10"
     guidetolerance="10"
     inkscape:pageopacity="0"
     inkscape:pageshadow="2"
     inkscape:window-width="1855"
     inkscape:window-height="1056"
     id="namedview4"
     showgrid="false"
     inkscape:zoom="0.55993134"
     inkscape:cx="23.217132"
     inkscape:cy="52"
     inkscape:window-x="65"
     inkscape:window-y="24"
     inkscape:window-maximized="1"
     inkscape:current-layer="g10" /><g
     id="g10"
     inkscape:groupmode="layer"
     inkscape:label="ink_ext_XXXXXX"
     transform="matrix(1.25,0,0,-1.25,0,104)"><g
       id="g12"
       transform="scale(0.1,0.1)"><path
         d="m 1170.4,104.492 27.6016,0 0,157.008 -27.6016,0 0,-157.008 z"
         style="fill:#232324;fill-opacity:1;fill-rule:nonzero;stroke:none"
         id="path14"
         inkscape:connector-curvature="0" /><path
         d="m 1289.29,261.5 25.58,0 84.08,-108.531 0,108.531 27.17,0 0,-157.008 -23.13,0 -86.55,111.699 0,-111.699 -27.15,0 0,157.008"
         style="fill:#232324;fill-opacity:1;fill-rule:nonzero;stroke:none"
         id="path16"
         inkscape:connector-curvature="0" /><path
         d="m 1515.86,261.5 116.83,0 0,-25.121 -89.25,0 0,-42.816 79.18,0 0,-25.129 -79.18,0 0,-63.942 -27.58,0 0,157.008"
         style="fill:#232324;fill-opacity:1;fill-rule:nonzero;stroke:none"
         id="path18"
         inkscape:connector-curvature="0" /><path
         d="m 1839.29,182.547 0,0.453 c 0,30.516 -22.2,55.863 -53.4,55.863 -31.16,0 -52.9,-24.898 -52.9,-55.414 l 0,-0.449 c 0,-30.484 22.19,-55.836 53.37,-55.836 31.18,0 52.93,24.899 52.93,55.383 z m -135.25,0 0,0.453 c 0,44.172 34.09,81.18 82.32,81.18 48.23,0 81.86,-36.555 81.86,-80.731 l 0,-0.449 c 0,-44.176 -34.08,-81.184 -82.33,-81.184 -48.21,0 -81.85,36.555 -81.85,80.731"
         style="fill:#232324;fill-opacity:1;fill-rule:nonzero;stroke:none"
         id="path20"
         inkscape:connector-curvature="0" /><path
         d="m 2018.98,183.68 c 19.73,0 32.29,10.332 32.29,26.254 l 0,0.453 c 0,16.785 -12.1,25.992 -32.51,25.992 l -40.14,0 0,-52.699 40.36,0 z m -67.95,77.82 69.96,0 c 19.76,0 35.23,-5.809 45.3,-15.691 8.3,-8.528 13.01,-20.18 13.01,-33.879 l 0,-0.45 c 0,-25.765 -15.46,-41.269 -37.43,-47.535 l 42.38,-59.453 -32.52,0 -38.59,54.738 -34.52,0 0,-54.738 -27.59,0 0,157.008"
         style="fill:#232324;fill-opacity:1;fill-rule:nonzero;stroke:none"
         id="path22"
         inkscape:connector-curvature="0" /><path
         d="m 2162.56,261.5 29.39,0 47.76,-74.238 47.76,74.238 29.4,0 0,-157.008 -27.59,0 0,112.61 -49.57,-74.012 -0.9,0 -49.11,73.558 0,-112.156 -27.14,0 0,157.008"
         style="fill:#232324;fill-opacity:1;fill-rule:nonzero;stroke:none"
         id="path24"
         inkscape:connector-curvature="0" /><path
         d="m 2501.74,166.852 -27.15,62.812 -26.92,-62.812 54.07,0 z m -39.5,95.781 25.58,0 69.07,-158.141 -29.14,0 -15.95,37.918 -74.21,0 -16.15,-37.918 -28.27,0 69.07,158.141"
         style="fill:#232324;fill-opacity:1;fill-rule:nonzero;stroke:none"
         id="path26"
         inkscape:connector-curvature="0" /><path
         d="m 2651.58,235.926 -49.8,0 0,25.574 127.39,0 0,-25.574 -49.79,0 0,-131.434 -27.8,0 0,131.434"
         style="fill:#232324;fill-opacity:1;fill-rule:nonzero;stroke:none"
         id="path28"
         inkscape:connector-curvature="0" /><path
         d="m 2809.27,104.492 27.6016,0 0,157.008 -27.6016,0 0,-157.008 z"
         style="fill:#232324;fill-opacity:1;fill-rule:nonzero;stroke:none"
         id="path30"
         inkscape:connector-curvature="0" /><path
         d="m 3056.46,182.547 0,0.453 c 0,30.516 -22.22,55.863 -53.38,55.863 -31.17,0 -52.92,-24.898 -52.92,-55.414 l 0,-0.449 c 0,-30.484 22.18,-55.836 53.38,-55.836 31.16,0 52.92,24.899 52.92,55.383 z m -135.24,0 0,0.453 c 0,44.172 34.1,81.18 82.32,81.18 48.21,0 81.85,-36.555 81.85,-80.731 l 0,-0.449 c 0,-44.176 -34.1,-81.184 -82.31,-81.184 -48.22,0 -81.86,36.555 -81.86,80.731"
         style="fill:#232324;fill-opacity:1;fill-rule:nonzero;stroke:none"
         id="path32"
         inkscape:connector-curvature="0" /><path
         d="m 3168.21,261.5 25.54,0 84.1,-108.531 0,108.531 27.14,0 0,-157.008 -23.08,0 -86.59,111.699 0,-111.699 -27.11,0 0,157.008"
         style="fill:#232324;fill-opacity:1;fill-rule:nonzero;stroke:none"
         id="path34"
         inkscape:connector-curvature="0" /><path
         d="m 3560.16,350.418 26.88,0 -175.59,-350.41409375 -26.86,0 L 3560.16,350.418"
         style="fill:#232324;fill-opacity:1;fill-rule:nonzero;stroke:none"
         id="path36"
         inkscape:connector-curvature="0" /><path
         d="m 3664.3,127.395 16.57,19.726 c 15.04,-13.012 30.05,-20.406 49.57,-20.406 17.05,0 27.82,7.848 27.82,19.726 l 0,0.454 c 0,11.207 -6.29,17.281 -35.43,23.996 -33.43,8.07 -52.27,17.953 -52.27,46.89 l 0,0.453 c 0,26.895 22.43,45.532 53.62,45.532 22.86,0 41.04,-6.981 56.97,-19.77 l -14.85,-20.859 c -14.1,10.562 -28.21,16.179 -42.58,16.179 -16.14,0 -25.57,-8.293 -25.57,-18.632 l 0,-0.454 c 0,-12.109 7.19,-17.503 37.22,-24.671 33.2,-8.071 50.47,-19.957 50.47,-45.981 l 0,-0.457 c 0,-29.348 -23.11,-46.855 -56.05,-46.855 -24.02,0 -46.65,8.3 -65.49,25.129"
         style="fill:#232324;fill-opacity:1;fill-rule:nonzero;stroke:none"
         id="path38"
         inkscape:connector-curvature="0" /><path
         d="m 3907.21,166.398 -62.36,95.102 32.52,0 43.98,-69.527 44.41,69.527 31.62,0 -62.38,-94.422 0,-62.586 -27.79,0 0,61.906"
         style="fill:#232324;fill-opacity:1;fill-rule:nonzero;stroke:none"
         id="path40"
         inkscape:connector-curvature="0" /><path
         d="m 4052.6,127.395 16.6,19.726 c 15.04,-13.012 30.05,-20.406 49.57,-20.406 17.05,0 27.79,7.848 27.79,19.726 l 0,0.454 c 0,11.207 -6.26,17.281 -35.41,23.996 -33.42,8.07 -52.29,17.953 -52.29,46.89 l 0,0.453 c 0,26.895 22.44,45.532 53.62,45.532 22.88,0 41.05,-6.981 56.99,-19.77 l -14.84,-20.859 c -14.11,10.562 -28.24,16.179 -42.58,16.179 -16.19,0 -25.57,-8.293 -25.57,-18.632 l 0,-0.454 c 0,-12.109 7.17,-17.503 37.21,-24.671 33.21,-8.071 50.45,-19.957 50.45,-45.981 l 0,-0.457 c 0,-29.348 -23.08,-46.855 -56.05,-46.855 -24,0 -46.68,8.3 -65.49,25.129"
         style="fill:#232324;fill-opacity:1;fill-rule:nonzero;stroke:none"
         id="path42"
         inkscape:connector-curvature="0" /><path
         d="m 4291.32,235.926 -49.79,0 0,25.574 127.37,0 0,-25.574 -49.8,0 0,-131.434 -27.78,0 0,131.434"
         style="fill:#232324;fill-opacity:1;fill-rule:nonzero;stroke:none"
         id="path44"
         inkscape:connector-curvature="0" /><path
         d="m 4447.44,261.5 116.42,0 0,-24.672 -88.83,0 0,-40.816 78.72,0 0,-24.672 -78.72,0 0,-42.172 89.93,0 0,-24.676 -117.52,0 0,157.008"
         style="fill:#232324;fill-opacity:1;fill-rule:nonzero;stroke:none"
         id="path46"
         inkscape:connector-curvature="0" /><path
         d="m 4647.07,261.5 29.41,0 47.75,-74.238 47.78,74.238 29.38,0 0,-157.008 -27.59,0 0,112.61 -49.57,-74.012 -0.9,0 -49.09,73.558 0,-112.156 -27.17,0 0,157.008"
         style="fill:#232324;fill-opacity:1;fill-rule:nonzero;stroke:none"
         id="path48"
         inkscape:connector-curvature="0" /><path
         d="m 4880.64,127.395 16.57,19.726 c 15.04,-13.012 30.06,-20.406 49.57,-20.406 17.03,0 27.81,7.848 27.81,19.726 l 0,0.454 c 0,11.207 -6.28,17.281 -35.43,23.996 -33.42,8.07 -52.26,17.953 -52.26,46.89 l 0,0.453 c 0,26.895 22.43,45.532 53.59,45.532 22.89,0 41.05,-6.981 56.96,-19.77 l -14.78,-20.859 c -14.13,10.562 -28.24,16.179 -42.63,16.179 -16.14,0 -25.55,-8.293 -25.55,-18.632 l 0,-0.454 c 0,-12.109 7.19,-17.503 37.22,-24.671 33.2,-8.071 50.47,-19.957 50.47,-45.981 l 0,-0.457 c 0,-29.348 -23.09,-46.855 -56.05,-46.855 -24.02,0 -46.68,8.3 -65.49,25.129"
         style="fill:#232324;fill-opacity:1;fill-rule:nonzero;stroke:none"
         id="path50"
         inkscape:connector-curvature="0" /><path
         d="m 924.426,521.68 24.754,29.273 c 36.851,-33.308 72.16,-49.98 121.16,-49.98 47.46,0 78.76,25.234 78.76,60.093 l 0,0.981 c 0,32.816 -17.68,51.496 -91.88,67.148 -81.298,17.692 -118.65,43.946 -118.65,102.004 l 0,0.981 c 0,55.531 48.973,96.422 116.12,96.422 51.49,0 88.35,-14.637 124.19,-43.418 l -23.24,-30.782 c -32.8,26.743 -65.62,38.364 -101.97,38.364 -45.95,0 -75.221,-25.239 -75.221,-57.043 l 0,-1.016 c 0,-33.309 18.18,-51.98 95.931,-68.656 78.74,-17.164 115.1,-45.946 115.1,-99.969 l 0,-0.977 c 0,-60.585 -50.48,-99.972 -120.66,-99.972 -56.04,0 -101.992,18.672 -144.394,56.547"
         style="fill:#232324;fill-opacity:1;fill-rule:nonzero;stroke:none"
         id="path52"
         inkscape:connector-curvature="0" /><path
         d="m 1365.08,470.188 39.8711,0 0,353.398 -39.8711,0 0,-353.398 z"
         style="fill:#232324;fill-opacity:1;fill-rule:nonzero;stroke:none"
         id="path54"
         inkscape:connector-curvature="0" /><path
         d="m 1599.27,823.586 39.87,0 0,-316.539 198.92,0 0,-36.859 -238.79,0 0,353.398"
         style="fill:#232324;fill-opacity:1;fill-rule:nonzero;stroke:none"
         id="path56"
         inkscape:connector-curvature="0" /><path
         d="m 1901.59,823.586 44.41,0 125.72,-304.434 126.22,304.434 42.9,0 -151.96,-355.922 -35.34,0 -151.95,355.922"
         style="fill:#232324;fill-opacity:1;fill-rule:nonzero;stroke:none"
         id="path58"
         inkscape:connector-curvature="0" /><path
         d="m 2401.28,823.586 255.44,0 0,-36.367 -215.57,0 0,-120.641 192.84,0 0,-36.367 -192.84,0 0,-123.695 218.11,0 0,-36.328 -257.98,0 0,353.398"
         style="fill:#232324;fill-opacity:1;fill-rule:nonzero;stroke:none"
         id="path60"
         inkscape:connector-curvature="0" /><path
         d="m 2978.71,643.34 c 53.03,0 90.88,27.277 90.88,72.695 l 0,1.016 c 0,43.426 -33.31,69.679 -90.39,69.679 l -109.02,0 0,-143.39 108.53,0 z m -148.4,180.246 151.95,0 c 43.42,0 78.24,-13.129 100.45,-35.348 17.17,-17.164 27.27,-41.914 27.27,-69.675 l 0,-1.024 c 0,-58.543 -40.39,-92.875 -95.91,-102.98 l 108.51,-144.371 -48.96,0 -102.46,137.316 -100.98,0 0,-137.316 -39.87,0 0,353.398"
         style="fill:#232324;fill-opacity:1;fill-rule:nonzero;stroke:none"
         id="path62"
         inkscape:connector-curvature="0" /><path
         d="m 3270.43,645.867 0,1.02 c 0,99.929 74.73,182.734 178.69,182.734 64.14,0 102.51,-22.711 137.85,-56.019 l -27.27,-29.313 c -29.78,28.297 -63.12,48.477 -111.05,48.477 -78.3,0 -136.84,-63.606 -136.84,-144.899 l 0,-0.98 c 0,-81.782 59.07,-145.914 136.84,-145.914 48.45,0 80.27,18.672 114.1,51 l 26.23,-25.766 c -36.85,-37.344 -77.24,-62.094 -141.37,-62.094 -101.95,0 -177.18,80.278 -177.18,181.754"
         style="fill:#232324;fill-opacity:1;fill-rule:nonzero;stroke:none"
         id="path64"
         inkscape:connector-curvature="0" /><path
         d="m 3749.41,823.586 39.91,0 0,-157.008 203.94,0 0,157.008 39.88,0 0,-353.398 -39.88,0 0,159.007 -203.94,0 0,-159.007 -39.91,0 0,353.398"
         style="fill:#232324;fill-opacity:1;fill-rule:nonzero;stroke:none"
         id="path66"
         inkscape:connector-curvature="0" /><path
         d="m 4453.08,599.43 -80.28,180.207 -80.78,-180.207 161.06,0 z m -98.46,226.683 37.35,0 161.02,-355.925 -42.87,0 -41.4,93.367 -192.34,0 -41.92,-93.367 -40.89,0 161.05,355.925"
         style="fill:#232324;fill-opacity:1;fill-rule:nonzero;stroke:none"
         id="path68"
         inkscape:connector-curvature="0" /><path
         d="m 4717,470.188 39.8594,0 0,353.398 -39.8594,0 0,-353.398 z"
         style="fill:#232324;fill-opacity:1;fill-rule:nonzero;stroke:none"
         id="path70"
         inkscape:connector-curvature="0" /><path
         d="m 5099.61,643.34 c 53.02,0 90.84,27.277 90.84,72.695 l 0,1.016 c 0,43.426 -33.3,69.679 -90.33,69.679 l -109.07,0 0,-143.39 108.56,0 z m -148.43,180.246 151.96,0 c 43.41,0 78.26,-13.129 100.44,-35.348 17.18,-17.164 27.28,-41.914 27.28,-69.675 l 0,-1.024 c 0,-58.543 -40.41,-92.875 -95.94,-102.98 l 108.57,-144.371 -48.97,0 -102.48,137.316 -100.99,0 0,-137.316 -39.87,0 0,353.398"
         style="fill:#232324;fill-opacity:1;fill-rule:nonzero;stroke:none"
         id="path72"
         inkscape:connector-curvature="0" /><path
         d="M 708.836,403.23 C 663.77,471.66 510.285,511.57 365.969,520.629 l -0.031,0 c -123.02,10.258 -208.618,39.605 -247.762,83.176 9.644,2.984 19.91,5.773 30.859,8.3 44.313,-42.472 134.149,-56.546 215.375,-63.601 l 0.028,0 c 228.761,-19.766 344.75,-66.543 344.75,-139.09 0,-2.074 -0.122,-4.148 -0.352,-6.184 z M 690.93,323.82 c -0.5,5.7 -1.707,12.899 -2.692,15.883 4.703,3.508 9.957,8.711 14.059,13.469 -1.457,-7.887 -6.586,-22.297 -11.367,-29.352 z M 365.824,473.66 c -0.039,0 -0.054,0.039 -0.101,0.039 -157.258,11.203 -265.7386,51.266 -299.9925,107.961 9.4297,5.551 20.2929,10.641 32.5547,15.32 40.1598,-51.042 131.1758,-84.167 266.0548,-95.445 0.047,0 0.098,0 0.16,0 0.039,0 0.078,0 0.113,0 176.856,-11.051 313.719,-62.617 335.196,-123.316 -4.704,-7.391 -11.243,-14.336 -19.442,-20.824 C 641.988,419.676 530.402,461.926 365.824,473.66 Z M 650.891,295.004 c -2.059,7.016 -4.926,13.762 -8.469,20.293 10.961,4.375 20.922,9.129 29.871,14.254 1.965,-6.035 3.121,-12.219 3.496,-18.559 -6.965,-5.691 -15.289,-11.051 -24.898,-15.988 z m 2.089,-36.481 c 0.028,0.864 0.856,4.637 0.856,5.547 0,3.395 1.156,7.543 0.879,10.86 6.465,3.621 12.652,8.187 19.117,13.129 -3.496,-7.657 -13.684,-22.973 -20.852,-29.536 z m -21.097,72.766 c -40.164,51.004 -131.207,84.16 -266.059,95.402 -0.054,0 -0.101,0 -0.156,0 -0.035,0 -0.098,0.039 -0.148,0.039 -176.809,11.055 -313.6841,62.583 -335.1762,123.321 4.7539,7.39 11.2578,14.336 19.4531,20.824 C 88.1484,508.555 199.727,466.34 364.34,454.57 c 0.023,0 0.07,0 0.07,0 157.293,-11.242 265.758,-51.269 300.012,-108 -9.43,-5.507 -20.317,-10.64 -32.539,-15.281 z m 1.98,-83.894 c -7.664,-4.262 -16.394,-8.227 -26.101,-11.848 0.781,5.281 1.183,10.523 1.183,15.769 0,2.266 -0.152,4.414 -0.304,6.602 9.586,2.715 18.711,5.73 27.312,9.051 0.051,-0.711 0.106,-1.391 0.106,-2.074 0,-6.11 -0.782,-11.918 -2.196,-17.5 z m -40.308,-49.196 c 3.695,5.02 7.543,12.188 8.976,16.301 6.942,2.602 13.731,5.77 21.625,10.145 -5.855,-6.676 -21.801,-20.899 -30.601,-26.446 z m -6.645,30.485 c -52.531,-15.055 -127.805,-22.825 -224.582,-22.825 -152.758,0 -255.844,55.754 -303.4296,110 65.3396,-50.625 178.6876,-83.894 304.9216,-83.894 76.121,0 159.039,4.863 225.934,20.937 0.023,-0.527 0.055,-1.019 0.055,-1.547 0,-7.546 -0.985,-15.128 -2.899,-22.671 z M 564.434,185.789 C 518.758,169.078 451.457,160.664 362.613,160.664 255.34,160.664 155.5,208.121 99.6016,254.824 157.547,218.57 251.27,186.73 362.328,186.73 c 90.391,0 162.543,6.754 216.211,20.184 -3.723,-7.242 -8.398,-14.336 -14.105,-21.125 z M 361.633,115.438 c -104.266,0 -184.848,49.035 -234.715,97.171 C 185.43,174.508 270.93,141.5 362.613,141.5 c 68.098,0 124.309,5.133 168.746,15.277 -37.468,-24.672 -93.48,-41.339 -169.726,-41.339 z M 44.9922,354.602 c 62.5708,-51.985 167.4418,-77.407 320.2968,-77.407 82.949,0 153.172,6.227 209.098,18.145 5.789,-7.09 9.89,-14.75 12.429,-23.047 C 530.777,258.445 455.711,251.09 363.82,251.09 205.648,251.09 93.418,300.621 44.9922,354.602 Z M 623.781,308.504 c 4.125,-6.902 7.266,-14.109 9.309,-21.578 -8.5,-3.473 -17.809,-6.676 -27.793,-9.621 -2.391,8.23 -6.035,15.773 -10.688,22.711 10.336,2.601 19.993,5.433 29.172,8.488 z m -258.011,71.223 -0.047,0 c 0,0.035 -0.016,0.035 -0.016,0.035 -228.769,19.73 -344.7187,66.547 -344.7187,139.054 0,2.114 0.1133,4.149 0.3398,6.188 C 66.3711,456.609 219.867,416.66 364.164,407.645 l 0.031,-0.04 c 123.032,-10.261 208.61,-39.609 247.766,-83.179 -9.633,-2.985 -19.891,-5.774 -30.856,-8.262 -44.316,42.477 -134.148,56.508 -215.335,63.563 z M 39.207,604.41 c 0.4922,-5.695 1.7383,-12.898 2.7188,-15.883 -4.7149,-3.507 -9.961,-8.714 -14.0703,-13.468 1.4453,7.886 6.5781,22.336 11.3515,29.351 z m 40.0625,28.82 c 2.0782,-7.015 4.9024,-13.765 8.4766,-20.261 -10.9883,-4.406 -20.9219,-9.164 -29.8633,-14.254 -1.9765,6.031 -3.1562,12.219 -3.5469,18.523 6.9805,5.731 15.3164,11.051 24.9336,15.992 z m -2.0742,36.481 c -0.0351,-0.867 -0.8945,-4.641 -0.8945,-5.512 0,-3.39 -1.1406,-7.582 -0.8399,-10.898 -6.4882,-3.582 -12.6601,-8.149 -19.125,-13.129 3.4961,7.656 13.6563,22.973 20.8594,29.539 z m 19.0781,11.164 c 7.6956,4.262 16.3786,8.223 26.1176,11.848 -0.758,-5.285 -1.211,-10.563 -1.211,-15.809 0,-2.226 0.156,-4.41 0.304,-6.562 -9.566,-2.754 -18.671,-5.77 -27.3121,-9.055 -0.0391,0.676 -0.0781,1.355 -0.0781,2.039 0,6.109 0.7421,11.961 2.1796,17.539 z m 39.2576,-52.621 c -10.312,-2.641 -20.004,-5.473 -29.176,-8.492 -4.152,6.867 -7.2652,14.074 -9.3159,21.582 8.5269,3.433 17.8089,6.636 27.8049,9.617 2.41,-8.227 6.058,-15.77 10.687,-22.707 z m 1.078,101.777 c -3.718,-5.019 -7.543,-12.148 -9.011,-16.301 -6.93,-2.601 -13.723,-5.73 -21.578,-10.105 5.808,6.637 21.8,20.898 30.589,26.406 z m 6.641,-30.484 c 52.512,15.094 127.781,22.824 224.586,22.824 152.758,0 255.82,-55.754 303.426,-110 -65.336,50.664 -178.711,83.934 -304.91,83.934 -76.168,0 -159.071,-4.903 -225.946,-20.938 -0.023,0.488 -0.062,1.02 -0.062,1.547 0,7.508 0.98,15.09 2.906,22.633 z m 22.484,42.93 c 45.621,16.675 112.985,25.128 201.786,25.128 107.277,0 207.148,-47.496 263,-94.16 -57.938,36.254 -151.649,68.055 -262.684,68.055 -90.414,0 -162.539,-6.754 -216.246,-20.145 3.762,7.239 8.433,14.297 14.144,21.122 z m 202.782,70.355 c 104.246,0 184.824,-49.074 234.695,-97.176 -58.496,38.102 -143.981,71.074 -235.691,71.074 -68.043,0 -124.297,-5.132 -168.704,-15.277 37.461,24.672 93.465,41.379 169.7,41.379 z M 685.121,573.629 c -62.519,51.984 -167.394,77.445 -320.277,77.445 -82.973,0 -153.16,-6.261 -209.094,-18.183 -5.762,7.089 -9.898,14.785 -12.387,23.086 55.985,13.843 131.094,21.164 222.989,21.164 158.168,0 270.355,-49.532 318.769,-103.512 z m 43.305,-152.934 c -0.801,3.36 -1.684,6.602 -2.715,9.618 -18.336,72.96 -136.461,117.964 -359.59,137.242 l 0,0 c -0.035,0 -0.051,0.035 -0.051,0.035 -95.578,8.262 -158.687,24.144 -193.293,49.418 52.258,9.738 116.864,14.941 192.067,14.941 183.441,0 293.191,-35.914 344.75,-112.566 2.937,-4.375 13.953,-1.285 12.269,6.601 0,0 -16.269,94.797 -95.965,190.918 -51.96,55.684 -135.863,115.059 -257.382,115.059 -54.375,0 -99.215,-8.301 -135.106,-21.922 -2.754,-1.242 -5.582,-2.562 -8.601,-3.879 C 20.5977,715.77 -8.375,548.805 1.73828,507.535 2.51953,504.176 3.41016,500.973 4.45313,497.918 22.8008,424.957 140.887,379.953 364.035,360.676 l 0.012,0 c 0,0 0.016,0 0.062,0 95.551,-8.297 158.649,-24.18 193.227,-49.453 -52.231,-9.739 -116.816,-14.903 -192.047,-14.903 -183.41,0 -293.1601,35.914 -344.7382,112.528 -2.9219,4.375 -13.97658,1.285 -12.27736,-6.563 0,0 16.27736,-94.797 95.97256,-190.922 51.945,-55.718 135.879,-115.0935 257.387,-115.0935 54.367,0 99.18,8.3005 135.125,21.9215 2.738,1.278 5.578,2.563 8.547,3.879 204.234,90.426 233.234,257.395 223.121,298.625"
         style="fill:#232324;fill-opacity:1;fill-rule:nonzero;stroke:none"
         id="path74"
         inkscape:connector-curvature="0" /></g></g></svg>