<?xml version="1.0" encoding="UTF-8" standalone="no"?>
<!-- Created with Inkscape (http://www.inkscape.org/) -->

<svg
   xmlns:dc="http://purl.org/dc/elements/1.1/"
   xmlns:cc="http://creativecommons.org/ns#"
   xmlns:rdf="http://www.w3.org/1999/02/22-rdf-syntax-ns#"
   xmlns:svg="http://www.w3.org/2000/svg"
   xmlns="http://www.w3.org/2000/svg"
   xmlns:sodipodi="http://sodipodi.sourceforge.net/DTD/sodipodi-0.dtd"
   xmlns:inkscape="http://www.inkscape.org/namespaces/inkscape"
   id="svg3004"
   version="1.1"
   inkscape:version="0.48.4 r9939"
   width="941.125"
   height="322.5375"
   xml:space="preserve"
   sodipodi:docname="CfE_und_TU_Berlin_Logo_4c.eps"><metadata
     id="metadata3010"><rdf:RDF><cc:Work
         rdf:about=""><dc:format>image/svg+xml</dc:format><dc:type
           rdf:resource="http://purl.org/dc/dcmitype/StillImage" /><dc:title></dc:title></cc:Work></rdf:RDF></metadata><defs
     id="defs3008" /><sodipodi:namedview
     pagecolor="#ffffff"
     bordercolor="#666666"
     borderopacity="1"
     objecttolerance="10"
     gridtolerance="10"
     guidetolerance="10"
     inkscape:pageopacity="0"
     inkscape:pageshadow="2"
     inkscape:window-width="1301"
     inkscape:window-height="744"
     id="namedview3006"
     showgrid="false"
     inkscape:zoom="1.2410679"
     inkscape:cx="470.83198"
     inkscape:cy="161.56089"
     inkscape:window-x="65"
     inkscape:window-y="24"
     inkscape:window-maximized="1"
     inkscape:current-layer="g3014" /><g
     id="g3012"
     inkscape:groupmode="layer"
     inkscape:label="ink_ext_XXXXXX"
     transform="matrix(1.25,0,0,-1.25,0,322.5375)"><g
       id="g3014"
       transform="scale(0.1,0.1)"><path
         d="m 3016.16,2138.89 0,73.36 47.28,59.48 -122.61,0 -66.17,66.54 0.05,88.03 -88.46,0 0.09,-132.01 176.21,-155.4 53.61,0"
         style="fill:#c82128;fill-opacity:1;fill-rule:nonzero;stroke:none"
         id="path3016" /><path
         d="m 3215.99,2536.03 -0.07,-22.08 -22.12,0.04 22.19,22.04 0,0 z m 22.02,-0.08 22.13,0 22.03,-22.2 -44.16,0 0.06,22.2 -0.06,0 z m 174.83,-685.31 0,44.11 -21.87,22.21 0,44.25 -21.54,22.08 0,132.59 44.23,21.96 0.34,132.55 -21.98,22.15 0.23,66.34 22.1,21.95 0.33,88.24 -22.02,22.25 22.23,21.98 0,44.23 -22,22.19 -22.09,0.09 -22.13,-22.16 -22.15,22.64 -132.39,0 -44.3,-44.14 -66.4,0 0,-44.02 44.04,-44.4 66.16,0 -0.05,-22.14 -110.49,0 0.06,22.44 -21.94,0 0,-44.23 132.36,0 -0.04,-21.48 -88.44,0 22.04,-22.11 66.27,0 -22.26,-45.02 -44.11,0.16 -88.63,-110.12 0,-66.34 21.86,0 0,-22.07 -88.56,-66.05 -119.88,0 -44.08,88.82 -66.4,-66.05 66.04,-111.39 274.43,0 0,-66.33 46.48,-45.12 -85.28,-85.93 -596.26,0 36.55,-413.14 1003.83,88.77 0,324.37 -74.29,85.87 0,0"
         style="fill:#c82128;fill-opacity:1;fill-rule:nonzero;stroke:none"
         id="path3018" /><path
         d="m 2263.54,495.16 c 4.95,-56.609 -36.24,-92.699 -92.9,-97.68 -14.04,-2.058 -30.64,-2.648 -41.76,-2.871 l -15.04,172.282 c 12.51,1.879 30.57,3.468 43.98,4.621 69.96,6.129 101.37,-26.762 105.72,-76.352 l 0,0 z m 126.35,14.238 c -10.22,117.211 -96.85,174.614 -240.8,162 -54.29,-4.738 -113.99,-10.75 -165.65,-18.429 l 46.45,-530.91 121.87,10.64 -13.81,158.082 c 13.41,0.41 25.27,1.399 39.41,2.649 143.96,12.652 222.17,105.84 212.53,215.968 l 0,0 z m -733.68,15.102 28.94,-330.41 -119.52,-10.379 8.83,-101.5391 361.81,31.6371 -8.8,101.511 -119.63,-10.441 -28.84,330.332 119.51,10.48 -8.66,99.071 -361.82,-31.641 8.66,-99.082 119.52,10.461 0,0 z M 1483.23,74.2109 1436.8,605.121 l -122.71,-10.73 17.83,-203.7 -161.3,-14.109 -17.81,203.719 -121.89,-10.672 46.44,-530.9493 121.88,10.7187 -19.29,220.9536 161.2,14.128 19.37,-221.0386 122.71,10.7695 0,0 z M 985.469,200.281 c -15.61,177.739 -258.399,117.66 -265.684,201.02 -2.613,29.937 26.41,51.5 79.879,56.148 41.684,3.699 88.856,-0.14 119.352,-5.379 l -2.129,106.762 c -31.965,2.789 -78.074,3.539 -120.504,-0.23 C 664.211,547.082 581.391,478.801 590.469,374.988 607.465,181.5 847.074,260.289 855.078,168.238 858.262,132.02 816.422,111.762 770.063,107.73 719.707,103.34 663.711,109.469 624.551,121.879 L 626.516,8.76172 C 666.156,-0.480469 720.934,-1.96094 768.918,2.21875 902.66,13.9102 994.625,95.6602 985.469,200.281 l 0,0"
         style="fill:#4384a1;fill-opacity:1;fill-rule:nonzero;stroke:none"
         id="path3020" /><path
         d="m 2186.43,1093.79 c 3.84,-44.01 -28.61,-74.11 -78.82,-78.47 -12.32,-1.11 -27.87,-1.67 -34.15,-1.47 l -11.69,133.73 c 6.95,1.34 24.6,3.69 36.95,4.74 55.66,4.89 84.04,-17.58 87.71,-58.53 l 0,0 z m 193.83,-346.688 -126.72,157.949 c -14.88,18.148 -29.67,36.281 -45.37,55.16 67.28,23.051 109.46,84.379 103.32,154.679 -9.73,110.51 -89.24,147.96 -212.13,137.17 -63.43,-5.56 -122.79,-12.27 -166.61,-18.47 l 45.63,-521.641 120.58,10.539 -17.84,204.051 7.7,0.652 143.81,-193 147.63,12.911 0,0 z m -499.41,162.679 -27.7,316.849 -118.96,-10.37 28.31,-323.819 c 6.87,-78.062 -11.55,-108.461 -76.46,-114.152 -70.3,-6.168 -86.81,31.34 -92.21,92.41 l -28.93,330.761 -120.58,-10.59 29.59,-337.698 c 9.16,-104.34 50.93,-191 214.01,-176.711 135.23,11.789 205.78,86.508 192.93,233.32 l 0,0 z m -469.64,-247.461 -9.08,103.571 -200.19,-17.469 -10.06,115.137 191.69,16.722 -8.57,98.168 -191.7,-16.75 -9.07,103.571 200.19,17.5 -8.91,101.2 -320.69,-28.05 45.7,-521.639 320.69,28.039 0,0 z M 1001.66,626.531 955.961,1148.16 846.25,1138.52 861.211,966.988 C 865.547,917.551 873.066,849.66 880.824,805.141 861.133,843.98 837.094,887 811.594,929.16 l -116.824,196.12 -146.079,-12.77 45.7,-521.619 109.703,9.589 -17.414,198.622 c -4.336,49.457 -10.387,101.109 -16.84,139.457 16.191,-33.61 35.723,-70.059 58.613,-109.309 l 127.129,-215.469 146.078,12.75 0,0"
         style="fill:#4384a1;fill-opacity:1;fill-rule:nonzero;stroke:none"
         id="path3022" /><path
         d="m 2251.25,1323.59 -9.22,105.37 -203.72,-17.83 -10.23,117.23 195.06,17.09 -8.75,99.89 -195.05,-17.09 -9.25,105.38 203.71,17.83 -8.99,103.08 -326.4,-28.57 46.43,-530.96 326.41,28.58 0,0 z m -607.14,317.02 c 3.92,-44.81 -29.03,-75.46 -80.2,-79.95 -12.59,-1.07 -28.37,-1.68 -34.74,-1.48 l -11.93,136.12 c 7.03,1.38 25.01,3.75 37.68,4.89 56.57,4.91 85.52,-17.9 89.19,-59.58 l 0,0 z m 197.34,-352.92 -129,160.72 c -15.12,18.53 -30.16,37.04 -46.1,56.25 68.42,23.37 111.33,85.84 105.04,157.37 -9.8,112.47 -90.82,150.56 -215.9,139.66 -64.49,-5.68 -124.91,-12.56 -169.54,-18.8 l 46.43,-530.95 122.71,10.74 -18.15,207.64 7.85,0.74 146.41,-196.47 150.25,13.1 0,0 z m -652.02,295.69 c 4.91,-56.65 -36.3,-92.71 -92.95,-97.69 -14.06,-2.04 -30.65,-2.69 -41.76,-2.85 l -15.06,172.23 c 12.51,1.89 30.57,3.52 43.99,4.66 69.98,6.13 101.44,-26.81 105.78,-76.35 l 0,0 z m 126.38,14.22 c -10.3,117.23 -96.95,174.62 -240.91,162.03 -54.28,-4.74 -113.955,-10.79 -165.627,-18.48 l 46.434,-530.94 121.973,10.7 -13.82,158.11 c 13.41,0.4 25.19,1.38 39.33,2.65 143.95,12.63 222.26,105.82 212.62,215.93 l 0,0 z m -445.029,-394.8 -9.164,105.42 -203.785,-17.83 -10.219,117.19 195.039,17.05 -8.75,99.89 -195.047,-17 -9.238,105.37 203.723,17.82 -8.992,103.05 -326.422,-28.58 46.433,-530.95 326.422,28.57 0,0"
         style="fill:#4384a1;fill-opacity:1;fill-rule:nonzero;stroke:none"
         id="path3024" /><path
         d="m 2088.08,2273.86 c 3.92,-44.8 -29.1,-75.45 -80.27,-79.86 -12.59,-1.15 -28.38,-1.73 -34.67,-1.47 l -11.92,136.07 c 6.94,1.42 25.01,3.79 37.59,4.85 56.65,4.99 85.6,-17.86 89.27,-59.59 l 0,0 z M 2285.35,1921 2156.36,2081.71 c -15.07,18.48 -30.17,37.03 -46.12,56.24 68.51,23.38 111.34,85.79 105.13,157.41 -9.89,112.48 -90.83,150.57 -215.9,139.62 -64.49,-5.63 -124.9,-12.5 -169.63,-18.8 l 46.52,-530.95 122.7,10.75 -18.15,207.64 7.85,0.65 146.33,-196.43 150.26,13.16 0,0 z m -518.85,386.62 -8.93,102.23 -412.99,-36.13 8.92,-102.22 145.51,12.66 37.52,-428.64 122.7,10.7 -37.52,428.73 144.79,12.67 0,0 z m -447.83,-471.15 -46.43,530.91 -111.76,-9.77 15.29,-174.61 c 4.43,-50.36 12.02,-119.43 19.95,-164.72 -20.11,39.49 -44.55,83.29 -70.47,126.22 l -118.93,199.63 -148.621,-13.04 46.434,-530.91 111.667,9.75 -17.659,202.18 c -4.418,50.32 -10.629,102.87 -17.168,141.95 16.433,-34.26 36.377,-71.33 59.677,-111.26 l 129.33,-219.37 148.69,13.04 0,0 z m -499.482,-43.74 -9.239,105.38 -203.703,-17.82 -10.305,117.22 195.133,17.09 -8.746,99.9 -195.14,-17.09 -9.145,105.41 203.711,17.82 -8.996,103.05 -326.492,-28.57 46.511,-530.91 326.411,28.52 0,0"
         style="fill:#4384a1;fill-opacity:1;fill-rule:nonzero;stroke:none"
         id="path3026" /><path
         d="m 371.863,1862.46 -7.922,64.75 c -30.003,-15.82 -72.593,-26.89 -111.347,-26.89 -123.102,0 -173.6213,75.04 -173.6213,206.08 0,116.86 44.9573,210.05 166.5153,210.05 40.309,0 73.496,-6.29 112.985,-18.97 l 7.843,66.34 c -36.3,9.49 -71.863,15.82 -116.089,15.82 C 73.4063,2379.64 0,2257.26 0,2094.54 c 0,-150 64.75,-258.97 235.273,-258.97 54.438,0 97.934,10.3 136.59,26.89 l 0,0"
         style="fill:#4384a1;fill-opacity:1;fill-rule:nonzero;stroke:none"
         id="path3028" /><path
         d="m 2666.13,1869.33 0,60.79 -221.86,0 0,184.78 212.37,0 0,58.37 -212.37,0 0,169.01 221.86,0 0,60 -294.54,0 0,-532.95 294.54,0 0,0"
         style="fill:#4384a1;fill-opacity:1;fill-rule:nonzero;stroke:none"
         id="path3030" /><path
         d="m 358.473,1719.64 c 0,-14.38 -11.856,-23.44 -29.688,-23.44 -4.574,0 -10.543,0.24 -12.586,0.4 l 0,44.55 c 3.031,0.4 9.156,0.66 13.485,0.66 18.972,0 28.789,-7.28 28.789,-22.17 l 0,0 z m 41.683,-108.55 -37.605,51.75 c -3.84,5.23 -8.176,11.2 -12.59,16.93 22.644,3.59 39.727,20.05 39.727,42.86 0,31.43 -22.801,43.3 -56.817,43.3 -17.984,0 -34.164,-0.22 -46.266,-0.9 l 0,-153.94 29.594,0 0,63.6 3.196,0 43.808,-63.6 36.953,0 0,0 z m -172.242,76.85 c 0,-36.96 -14.547,-52.49 -32.781,-52.49 -24.445,0 -31.965,21.25 -31.965,53.88 0,34.65 13.656,51.58 32.863,51.58 23.215,0 31.883,-18.71 31.883,-52.97 l 0,0 z m 31.719,2.28 c 0,52.73 -22.32,77.33 -61.559,77.33 -39.242,0 -66.379,-30.56 -66.379,-81.41 0,-47.7 16.192,-77.58 61.301,-77.58 39.746,0 66.637,30.82 66.637,81.66 l 0,0 z m -153.36,49.79 0,25.02 -90.7457,0 0,-153.94 29.6055,0 0,62.7 58.2032,0 0,24.19 -58.2032,0 0,42.03 61.1402,0 0,0"
         style="fill:#4384a1;fill-opacity:1;fill-rule:nonzero;stroke:none"
         id="path3032" /><path
         d="m 2644.83,1622.99 -31.77,0 -2,-2.01 0,-31.75 2,-2.01 31.77,0 c 13.9,0 19.87,5.98 19.87,17.86 0,11.94 -5.97,17.91 -19.87,17.91 l 0,0 z m 0,55.58 -31.77,0 -2,-1.96 0,-27.79 2,-2.01 31.77,0 c 11.93,0 15.89,7.93 15.89,15.91 0,9.93 -3.96,15.85 -15.89,15.85 l 0,0 z m 7.97,-115.18 -67.57,0 -1.96,2 0,135.05 1.96,2.01 63.56,0 c 19.87,0 39.75,-9.93 39.75,-35.76 0,-13.9 -5.99,-25.85 -19.88,-29.81 l 0,-2 c 15.89,-3.97 23.84,-15.86 23.84,-33.77 0,-27.78 -19.87,-37.72 -39.7,-37.72 l 0,0"
         style="fill:#ffffff;fill-opacity:1;fill-rule:nonzero;stroke:none"
         id="path3034" /><path
         d="m 2836.64,1563.39 -93.33,0 -1.97,2 0,135.05 1.97,2.01 93.33,0 2.01,-2.01 0,-19.87 -2.01,-2 -65.51,0 -2,-1.96 0,-27.79 2,-2.01 61.56,0 1.99,-2 0,-19.87 -1.99,-1.95 -61.56,0 -2,-2.01 0,-31.75 2,-2.01 65.51,0 2.01,-1.95 0,-19.88 -2.01,-2 0,0"
         style="fill:#ffffff;fill-opacity:1;fill-rule:nonzero;stroke:none"
         id="path3036" /><path
         d="m 2958.95,1678.57 -37.72,0 -2.03,-1.96 0,-31.8 2.03,-1.96 37.72,0 c 11.88,0 19.86,3.96 19.86,17.86 0,13.9 -7.98,17.86 -19.86,17.86 l 0,0 z m 17.86,-57.59 0,-1.96 25.83,-33.75 0,-19.88 -2.01,-2 -11.9,0 -3.96,2 -39.72,51.63 -3.98,2 -19.84,0 -2.03,-2 0,-51.63 -1.98,-2 -23.83,0 -1.97,2 0,135.05 1.97,2.01 65.56,0 c 27.79,0 47.66,-13.94 47.66,-41.74 0,-21.82 -13.89,-35.77 -29.8,-39.73 l 0,0"
         style="fill:#ffffff;fill-opacity:1;fill-rule:nonzero;stroke:none"
         id="path3038" /><path
         d="m 3146.8,1563.39 -89.38,0 -1.97,2 0,135.05 1.97,2.01 23.83,0 1.99,-2.01 0,-111.21 2,-2.01 61.56,0 1.99,-1.95 0,-19.88 -1.99,-2 0,0"
         style="fill:#ffffff;fill-opacity:1;fill-rule:nonzero;stroke:none"
         id="path3040" /><path
         d="m 3217.42,1563.39 -23.84,0 -1.94,2 0,135.05 1.94,2.01 23.84,0 2.01,-2.01 0,-135.05 -2.01,-2 0,0"
         style="fill:#ffffff;fill-opacity:1;fill-rule:nonzero;stroke:none"
         id="path3042" /><path
         d="m 3278.08,1702.45 27.84,0 3.98,-2.01 53.6,-91.35 1.97,0 0,91.35 2.01,2.01 23.83,0 1.99,-2.01 0,-135.05 -1.99,-2 -27.81,0 -3.97,2 -53.61,91.36 -2.01,0 0,-91.36 -2,-2 -23.83,0 -1.95,2 0,135.05 1.95,2.01 0,0"
         style="fill:#ffffff;fill-opacity:1;fill-rule:nonzero;stroke:none"
         id="path3044" /><path
         d="m 6253.47,1574.41 29.5234,0 0,29.5195 -29.5234,0 0,-29.5195 z"
         style="fill:#ffffff;fill-opacity:1;fill-rule:nonzero;stroke:none"
         id="path3046" /><path
         d="m 6543.23,15.2188 c 205.31,0 352.86,60.9531 467.43,137.7112 106.84,71.59 189.65,156.3 253.18,265.582 82.11,141.25 107.41,272.527 114.33,348.687 0.05,0.633 150.86,1587.601 150.86,1587.601 l -761.17,0.05 c 0,0 -224.88,-2339.6312 -224.63,-2339.6312"
         style="fill:#c82128;fill-opacity:1;fill-rule:nonzero;stroke:none"
         id="path3048" /><path
         d="M 5823.06,1822.96 5720,752.5 c -18.96,-256.168 77.09,-387.789 136.86,-457.148 109.16,-126.641 309.9,-226.2114 541.74,-267.7426 6.41,68.082 206.11,2140.1506 206.11,2140.5306 6.93,106.36 -24.04,199.38 -95.01,280.43 -82.75,94.53 -205.2,122.86 -255.79,122.86 l -1819.96,-0.2 c -136.9,0 -342.74,-138.94 -342.74,-368.09 0,-283.15 251.6,-380.21 338.17,-380.21 44.19,0 1393.68,0.03 1393.68,0.03"
         style="fill:#c82128;fill-opacity:1;fill-rule:nonzero;stroke:none"
         id="path3050" /><path
         d="m 4763.27,230.359 677.73,0.032 138.69,1440.249 -677.76,-0.02 c 0,0 -121.12,-1253.741 -138.66,-1440.261 l 0,0"
         style="fill:#c82128;fill-opacity:1;fill-rule:nonzero;stroke:none"
         id="path3052" /><path
         d="m 7033.44,1076.32 c -4.11,-42.53 42.66,-65.42 86.93,-65.47 l 81.04,-0.07 c 4.83,11.69 7.69,24.96 9.29,41.45 4.31,45.19 -20.07,76.03 -90.64,76.11 -52.64,0.02 -83.2,-16.44 -86.62,-52.02 z m 221.57,-28.35 c -3.56,-37.22 -9.94,-65.388 -20.12,-94.099 l -377.55,0.32 5.53,56.889 120.59,-0.1 c 15.26,-0.03 36.18,-1.63 49.53,-4.85 l 0.1,1.08 c -31.32,13.83 -48.83,45.22 -45.07,84.04 6.03,62.71 53.61,97.21 132.55,97.16 90.58,-0.08 142.92,-52.74 134.44,-140.44"
         style="fill:#ffffff;fill-opacity:1;fill-rule:nonzero;stroke:none"
         id="path3054" /><path
         d="m 7055.28,1352.32 c -3.07,-31.87 18.47,-54.23 54.34,-59.07 l 10.8,112.16 c -36.79,1.11 -61.93,-19.59 -65.14,-53.09 z m 109.35,107.82 -16.16,-167.97 c 59.37,-1.66 88.13,23.84 93.34,78.06 2.46,25.49 -0.24,52.1 -7.93,76.03 l 44.42,7.38 c 7.88,-27.63 10.99,-60.6 7.83,-93.55 -7.83,-81.32 -54.3,-126.47 -146.45,-126.39 -78.48,0.08 -133.59,45.3 -126.26,121.83 7.28,75.48 59.77,106.82 119.29,106.77 8.43,0 21.03,-0.58 31.92,-2.16"
         style="fill:#ffffff;fill-opacity:1;fill-rule:nonzero;stroke:none"
         id="path3056" /><path
         d="m 7098.64,1660.76 c -15.06,-52.6 18.82,-78.14 97.25,-78.22 l 106.4,-0.07 -5.52,-56.89 -261.67,0.23 5.22,54.23 c 14.7,-0.03 37.74,-1.63 57.41,-5.38 l 0.11,1.06 c -34.18,11.74 -64.24,38.34 -54.21,87.77 l 55.01,-2.73"
         style="fill:#ffffff;fill-opacity:1;fill-rule:nonzero;stroke:none"
         id="path3058" /><path
         d="m 7314.73,1712.1 -384.36,0.33 5.46,56.86 384.37,-0.33 -5.47,-56.86"
         style="fill:#ffffff;fill-opacity:1;fill-rule:nonzero;stroke:none"
         id="path3060" /><path
         d="m 7327.68,1846.75 -261.67,0.22 5.48,56.86 261.72,-0.22 -5.53,-56.86 z m -305.27,28.96 c -1.92,-20.23 -18.77,-36.66 -38.8,-36.64 -19.47,0 -33.67,16.48 -31.77,36.71 1.91,19.67 19.33,36.11 38.8,36.11 19.46,-0.03 33.67,-16.51 31.77,-36.18"
         style="fill:#ffffff;fill-opacity:1;fill-rule:nonzero;stroke:none"
         id="path3062" /><path
         d="m 7356.54,2146.36 -167.97,0.15 c -32.63,0.02 -53,-9.01 -55.91,-39.3 -3.82,-39.9 34.93,-69.13 87.63,-69.18 l 125.81,-0.1 -5.47,-56.89 -261.67,0.23 5.22,54.23 c 14.2,-0.03 36.74,-1.11 51.2,-3.77 l 0.04,0.53 c -32.22,15.43 -52.29,47.35 -47.97,92.01 5.77,60.05 45.47,78.62 91.29,78.57 l 183.22,-0.15 -5.42,-56.33"
         style="fill:#ffffff;fill-opacity:1;fill-rule:nonzero;stroke:none"
         id="path3064" /></g></g></svg>